M48
METRIC,LZ,000.000
;FILE_FORMAT=3:3
;TYPE=PLATED
;Layer: PTH_Through
;EasyEDA v6.5.46, 2024-09-04 15:22:54
;7e3de0c28ba0407f9a50c99fc0ac79d7,79071ce94af74c669a867ceed4e6d4b3,10
;Gerber Generator version 0.2
;Holesize 1 = 0.600 mm
T01C0.600
;Holesize 2 = 1.200 mm
T02C1.200
;Holesize 3 = 3.000 mm
T03C3.000
%
G05
G90
T01
X031242Y059817
X024257Y063246
X025019Y049784
X035052Y063373
X044069Y054991
X041783Y048895
X038989Y047244
X039116Y054991
X038227Y056261
X035783Y054991
X029845Y051816
X037846Y051308
X027940Y047752
X035941Y049022
X032258Y049022
X033147Y051435
X020193Y043688
X025781Y044704
X025781Y043434
X025146Y048260
X024892Y026670
X021844Y026670
X014732Y053035
X014732Y055245
X014478Y047117
X025019Y037973
X040513Y051054
X027051Y037846
X016129Y037719
X032004Y043180
X030353Y037338
X026797Y028448
X020320Y023368
X008509Y044069
X016129Y032004
X029845Y030480
X014224Y020193
X016829Y020193
X020320Y020193
X014732Y057277
X041275Y031369
X042164Y013843
X014732Y060833
X087122Y044704
X065913Y055499
X095631Y044704
X080899Y055499
X069469Y057658
X017272Y035179
X023495Y035433
X027051Y036322
X020320Y037719
X043815Y041148
X049276Y045720
X086360Y056769
X089154Y038354
X089154Y039751
X089154Y041021
X017399Y030607
X019050Y035433
X084582Y059309
X038354Y016510
X003429Y039497
X035433Y019050
X004826Y037211
X001143Y041148
X036322Y024130
X062738Y033401
X064389Y033401
X066040Y033401
X070866Y033401
X069215Y033401
X074168Y033401
X072517Y033401
X072517Y031877
X074168Y031877
X069215Y031877
X070866Y031877
X066040Y031877
X067691Y031877
X064389Y031877
X062738Y031877
X072517Y030353
X074168Y030353
X069215Y030353
X070866Y030353
X066040Y030353
X067691Y030353
X064389Y030353
X062738Y030353
X062738Y025781
X064389Y025781
X067691Y025781
X066040Y025781
X070866Y025781
X069215Y025781
X074168Y025781
X072517Y025781
X062738Y027305
X064389Y027305
X067691Y027305
X066040Y027305
X070866Y027305
X069215Y027305
X074168Y027305
X072517Y027305
X072517Y028829
X074168Y028829
X069215Y028829
X070866Y028829
X066040Y028829
X067691Y028829
X064389Y028829
X062738Y028829
X062611Y021209
X064262Y021209
X067564Y021209
X065913Y021209
X070739Y021209
X069088Y021209
X074041Y021209
X072390Y021209
X062611Y022733
X064262Y022733
X067564Y022733
X065913Y022733
X070739Y022733
X069088Y022733
X074041Y022733
X072390Y022733
X072390Y024257
X074041Y024257
X069088Y024257
X070739Y024257
X065913Y024257
X067564Y024257
X064262Y024257
X062611Y024257
X062611Y016764
X064262Y016764
X067564Y016764
X065913Y016764
X070739Y016764
X069088Y016764
X074041Y016764
X072390Y016764
X062611Y018288
X064262Y018288
X067564Y018288
X065913Y018288
X070739Y018288
X069088Y018288
X074041Y018288
X072390Y018288
X072390Y019812
X074041Y019812
X069088Y019812
X070739Y019812
X065913Y019812
X067564Y019812
X064262Y019812
X062611Y019812
X072517Y034925
X069215Y034925
X070866Y034925
X066040Y034925
X067691Y034925
X064389Y034925
X062738Y034925
X062738Y036449
X064389Y036449
X067691Y036449
X066040Y036449
X070866Y036449
X069215Y036449
X070612Y042672
X072263Y042672
X067437Y042672
X069088Y042672
X065786Y042672
X070612Y044069
X072263Y044069
X067437Y044069
X069088Y044069
X070612Y045339
X072263Y045339
X069088Y045339
X028448Y055372
X021209Y050800
X067691Y033401
T02
X006858Y036350
X006858Y033810
X006858Y031270
X006858Y028730
X006858Y026190
X006858Y023650
T03
X006145Y064000
X006145Y006000
X072136Y006000
X099850Y064000
M30
