G04 Layer: TopLayer*
G04 EasyEDA v6.5.46, 2024-09-04 15:22:54*
G04 7e3de0c28ba0407f9a50c99fc0ac79d7,79071ce94af74c669a867ceed4e6d4b3,10*
G04 Gerber Generator version 0.2*
G04 Scale: 100 percent, Rotated: No, Reflected: No *
G04 Dimensions in millimeters *
G04 leading zeros omitted , absolute positions ,4 integer and 5 decimal *
%FSLAX45Y45*%
%MOMM*%

%AMMACRO1*21,1,$1,$2,0,0,$3*%
%ADD10C,0.4000*%
%ADD11C,1.5000*%
%ADD12R,0.9500X0.8001*%
%ADD13R,0.8000X0.9000*%
%ADD14R,0.9401X0.8100*%
%ADD15R,1.1000X0.6000*%
%ADD16R,1.2500X0.7000*%
%ADD17R,0.9000X0.8000*%
%ADD18MACRO1,1.377X1.1325X90.0000*%
%ADD19MACRO1,1.377X1.1325X-90.0000*%
%ADD20MACRO1,1.62X2.0464X0.0000*%
%ADD21R,2.0000X2.0000*%
%ADD22MACRO1,0.864X0.8065X0.0000*%
%ADD23R,0.8640X0.8065*%
%ADD24MACRO1,0.864X0.8065X-90.0000*%
%ADD25MACRO1,0.864X0.8065X90.0000*%
%ADD26R,1.4999X3.4000*%
%ADD27R,1.4000X3.1001*%
%ADD28R,1.1999X3.4999*%
%ADD29MACRO1,3.2995X2.4003X-90.0000*%
%ADD30R,2.4000X3.3000*%
%ADD31R,1.1430X2.0320*%
%ADD32R,3.4000X1.4999*%
%ADD33R,3.1001X1.4000*%
%ADD34R,0.8000X0.8640*%
%ADD35R,1.5499X1.3000*%
%ADD36O,0.36400740000000004X1.6619982000000002*%
%ADD37R,1.4000X0.4000*%
%ADD38R,2.6500X4.0000*%
%ADD39R,0.4000X1.7000*%
%ADD40O,0.58801X2.0450048*%
%ADD41R,0.4500X1.8500*%
%ADD42R,1.0000X0.9000*%
%ADD43C,1.8000*%
%ADD44R,1.8000X1.8000*%
%ADD45C,6.5000*%
%ADD46C,1.0000*%
%ADD47C,0.0170*%

%LPD*%
G36*
X2412949Y5938672D02*
G01*
X2409088Y5939434D01*
X2405786Y5941618D01*
X2403551Y5944920D01*
X2402789Y5948832D01*
X2402789Y6111189D01*
X2403551Y6115100D01*
X2405786Y6118402D01*
X2409088Y6120587D01*
X2412949Y6121349D01*
X2420670Y6121349D01*
X2424582Y6120587D01*
X2427833Y6118402D01*
X2430068Y6115151D01*
X2430830Y6111240D01*
X2431796Y5948883D01*
X2431034Y5944971D01*
X2428849Y5941669D01*
X2425547Y5939434D01*
X2421636Y5938672D01*
G37*

%LPD*%
G36*
X2118715Y5024323D02*
G01*
X2114854Y5025085D01*
X2111552Y5027269D01*
X2062835Y5075936D01*
X2056028Y5081016D01*
X2048459Y5084775D01*
X2040280Y5087061D01*
X2033930Y5087772D01*
X2005685Y5087620D01*
X2002282Y5088178D01*
X1999284Y5089804D01*
X1996998Y5092344D01*
X1993798Y5097475D01*
X1989734Y5101539D01*
X1984044Y5105095D01*
X1981504Y5107381D01*
X1979879Y5110378D01*
X1979320Y5113731D01*
X1979320Y5147665D01*
X1979980Y5151272D01*
X1981911Y5154422D01*
X1984806Y5156657D01*
X1988312Y5157724D01*
X1994154Y5158384D01*
X1999640Y5160314D01*
X2004517Y5163413D01*
X2008632Y5167477D01*
X2011680Y5172405D01*
X2013610Y5177840D01*
X2014321Y5184190D01*
X2014321Y5243017D01*
X2013610Y5249367D01*
X2011680Y5254802D01*
X2008632Y5259730D01*
X2004517Y5263794D01*
X1999640Y5266893D01*
X1994154Y5268772D01*
X1987854Y5269484D01*
X1878990Y5269484D01*
X1872640Y5268772D01*
X1867204Y5266893D01*
X1864868Y5265420D01*
X1860854Y5263946D01*
X1856536Y5264302D01*
X1852777Y5266385D01*
X1850237Y5269839D01*
X1849323Y5274005D01*
X1849323Y5343144D01*
X1850237Y5347360D01*
X1852777Y5350814D01*
X1856536Y5352897D01*
X1860854Y5353202D01*
X1864868Y5351780D01*
X1867204Y5350306D01*
X1872640Y5348376D01*
X1878990Y5347665D01*
X1987804Y5347665D01*
X1994154Y5348376D01*
X1999589Y5350306D01*
X2008124Y5355894D01*
X2011984Y5356656D01*
X2105304Y5356656D01*
X2109165Y5355894D01*
X2112467Y5353710D01*
X2149805Y5316372D01*
X2152040Y5313070D01*
X2152802Y5309158D01*
X2152802Y5290769D01*
X2152040Y5286857D01*
X2149805Y5283606D01*
X2146503Y5281371D01*
X2142642Y5280609D01*
X2136800Y5280609D01*
X2130450Y5279898D01*
X2125014Y5277967D01*
X2120087Y5274919D01*
X2116023Y5270804D01*
X2112924Y5265928D01*
X2110994Y5260441D01*
X2110282Y5254142D01*
X2110282Y5185257D01*
X2110994Y5178958D01*
X2112924Y5173472D01*
X2116023Y5168595D01*
X2120087Y5164480D01*
X2125014Y5161432D01*
X2130450Y5159502D01*
X2136800Y5158790D01*
X2260650Y5158790D01*
X2266950Y5159502D01*
X2272436Y5161432D01*
X2277313Y5164480D01*
X2281428Y5168595D01*
X2284476Y5173472D01*
X2286406Y5178958D01*
X2287117Y5185257D01*
X2287117Y5254142D01*
X2286406Y5260441D01*
X2284476Y5265928D01*
X2281428Y5270804D01*
X2277313Y5274919D01*
X2272436Y5277967D01*
X2266950Y5279898D01*
X2260650Y5280609D01*
X2254758Y5280609D01*
X2250897Y5281371D01*
X2247595Y5283606D01*
X2245360Y5286857D01*
X2244598Y5290769D01*
X2244598Y5420868D01*
X2245461Y5424932D01*
X2247849Y5428284D01*
X2251405Y5430469D01*
X2255316Y5431790D01*
X2260193Y5434888D01*
X2264308Y5439003D01*
X2267407Y5443880D01*
X2269286Y5449366D01*
X2269998Y5455666D01*
X2269998Y5535523D01*
X2269286Y5541822D01*
X2267407Y5547309D01*
X2264308Y5552186D01*
X2261108Y5555437D01*
X2258923Y5558688D01*
X2258110Y5562600D01*
X2258923Y5566511D01*
X2261108Y5569762D01*
X2264308Y5573014D01*
X2267407Y5577890D01*
X2269286Y5583377D01*
X2269998Y5589676D01*
X2269998Y5602986D01*
X2226970Y5602986D01*
X2226970Y5572150D01*
X2226157Y5568289D01*
X2223973Y5564987D01*
X2220671Y5562752D01*
X2216810Y5561990D01*
X2177389Y5561990D01*
X2173528Y5562752D01*
X2170226Y5564987D01*
X2168042Y5568289D01*
X2167229Y5572150D01*
X2167229Y5602986D01*
X2124202Y5602986D01*
X2124202Y5589676D01*
X2124913Y5583377D01*
X2126792Y5577890D01*
X2129891Y5573014D01*
X2133092Y5569762D01*
X2135327Y5566511D01*
X2136089Y5562600D01*
X2135327Y5558688D01*
X2133092Y5555437D01*
X2129891Y5552186D01*
X2126792Y5547309D01*
X2124913Y5541822D01*
X2124202Y5535523D01*
X2124202Y5458663D01*
X2123440Y5454751D01*
X2121204Y5451449D01*
X2117902Y5449265D01*
X2114042Y5448503D01*
X2014016Y5448503D01*
X2010156Y5449265D01*
X2006854Y5451449D01*
X2004517Y5453786D01*
X1999589Y5456885D01*
X1994154Y5458764D01*
X1991817Y5459069D01*
X1988312Y5460136D01*
X1985416Y5462371D01*
X1983486Y5465521D01*
X1982825Y5469128D01*
X1982825Y5485384D01*
X1983384Y5488736D01*
X1985010Y5491734D01*
X1987550Y5493969D01*
X1992985Y5497372D01*
X1997100Y5501487D01*
X2000199Y5506364D01*
X2002078Y5511850D01*
X2002789Y5518150D01*
X2002789Y5607050D01*
X2002078Y5613349D01*
X2000199Y5618835D01*
X1997100Y5623712D01*
X1992985Y5627827D01*
X1988108Y5630875D01*
X1982622Y5632805D01*
X1976323Y5633516D01*
X1897481Y5633516D01*
X1891131Y5632805D01*
X1885696Y5630875D01*
X1880768Y5627827D01*
X1876704Y5623712D01*
X1875485Y5621832D01*
X1872691Y5618886D01*
X1868932Y5617260D01*
X1864868Y5617260D01*
X1861108Y5618886D01*
X1858314Y5621832D01*
X1857095Y5623712D01*
X1853031Y5627827D01*
X1848104Y5630875D01*
X1842668Y5632805D01*
X1836318Y5633516D01*
X1823262Y5633516D01*
X1823262Y5591454D01*
X1860804Y5591454D01*
X1864715Y5590692D01*
X1868017Y5588457D01*
X1870202Y5585155D01*
X1870964Y5581294D01*
X1870964Y5543905D01*
X1870202Y5540044D01*
X1868017Y5536742D01*
X1864715Y5534507D01*
X1860804Y5533745D01*
X1823262Y5533745D01*
X1823262Y5491683D01*
X1836318Y5491683D01*
X1842668Y5492394D01*
X1848104Y5494324D01*
X1853031Y5497372D01*
X1857095Y5501487D01*
X1858314Y5503367D01*
X1861108Y5506313D01*
X1864868Y5507939D01*
X1868932Y5507939D01*
X1872691Y5506313D01*
X1875485Y5503367D01*
X1876704Y5501487D01*
X1880768Y5497372D01*
X1886254Y5493969D01*
X1888794Y5491683D01*
X1890420Y5488736D01*
X1890979Y5485384D01*
X1890979Y5469636D01*
X1890217Y5465775D01*
X1888032Y5462473D01*
X1884730Y5460288D01*
X1880819Y5459476D01*
X1878990Y5459476D01*
X1872640Y5458764D01*
X1867204Y5456885D01*
X1862277Y5453786D01*
X1860956Y5452465D01*
X1857654Y5450281D01*
X1853793Y5449519D01*
X1753006Y5449519D01*
X1749145Y5450281D01*
X1745843Y5452465D01*
X1744522Y5453786D01*
X1739595Y5456885D01*
X1734159Y5458764D01*
X1727809Y5459476D01*
X1618996Y5459476D01*
X1612646Y5458764D01*
X1607210Y5456885D01*
X1602282Y5453786D01*
X1600962Y5452465D01*
X1597660Y5450281D01*
X1593799Y5449519D01*
X1233678Y5449519D01*
X1229766Y5450281D01*
X1226464Y5452465D01*
X1224280Y5455767D01*
X1223518Y5459679D01*
X1223518Y5474411D01*
X1222806Y5480761D01*
X1220876Y5486196D01*
X1217777Y5491124D01*
X1213713Y5495188D01*
X1208786Y5498287D01*
X1203350Y5500166D01*
X1197000Y5500878D01*
X1138732Y5500878D01*
X1134872Y5501690D01*
X1131570Y5503875D01*
X1129385Y5507177D01*
X1128572Y5511038D01*
X1128572Y5566359D01*
X1129385Y5570270D01*
X1131570Y5573572D01*
X1181811Y5623814D01*
X1185113Y5625998D01*
X1189024Y5626811D01*
X1472844Y5626811D01*
X1486357Y5627674D01*
X1499311Y5630265D01*
X1511808Y5634482D01*
X1523644Y5640324D01*
X1534617Y5647639D01*
X1544523Y5656376D01*
X1553260Y5666282D01*
X1560576Y5677255D01*
X1566418Y5689092D01*
X1570634Y5701588D01*
X1573225Y5714542D01*
X1574088Y5727700D01*
X1573225Y5740857D01*
X1570634Y5753811D01*
X1566418Y5766308D01*
X1560576Y5778144D01*
X1553260Y5789117D01*
X1544523Y5799023D01*
X1534617Y5807760D01*
X1523644Y5815076D01*
X1511808Y5820918D01*
X1499311Y5825134D01*
X1486357Y5827725D01*
X1472844Y5828588D01*
X1143355Y5828588D01*
X1129842Y5827725D01*
X1116888Y5825134D01*
X1104392Y5820918D01*
X1092555Y5815076D01*
X1081582Y5807760D01*
X1071422Y5798820D01*
X956564Y5683961D01*
X947623Y5673801D01*
X940308Y5662828D01*
X934466Y5650992D01*
X930249Y5638495D01*
X927658Y5625541D01*
X926795Y5612028D01*
X926795Y5511038D01*
X925982Y5507177D01*
X923798Y5503875D01*
X920496Y5501690D01*
X916635Y5500878D01*
X858164Y5500878D01*
X851814Y5500166D01*
X846378Y5498287D01*
X841451Y5495188D01*
X837387Y5491124D01*
X834288Y5486196D01*
X832408Y5480761D01*
X831697Y5474411D01*
X831697Y5325567D01*
X832408Y5319268D01*
X834288Y5313781D01*
X837387Y5308904D01*
X839114Y5307177D01*
X841298Y5303875D01*
X842060Y5300014D01*
X841298Y5296103D01*
X839114Y5292801D01*
X837387Y5291124D01*
X834288Y5286197D01*
X832408Y5280761D01*
X831697Y5274411D01*
X831697Y5250383D01*
X830884Y5246471D01*
X828700Y5243169D01*
X825398Y5240985D01*
X821537Y5240223D01*
X176022Y5240172D01*
X167284Y5238953D01*
X159258Y5236260D01*
X151892Y5232146D01*
X144983Y5226405D01*
X88646Y5170068D01*
X85344Y5167884D01*
X81483Y5167122D01*
X77571Y5167884D01*
X74269Y5170068D01*
X72085Y5173370D01*
X71323Y5177282D01*
X71323Y5793384D01*
X72085Y5797245D01*
X74269Y5800547D01*
X155752Y5882030D01*
X159054Y5884214D01*
X162915Y5884976D01*
X1817878Y5885027D01*
X1826615Y5886246D01*
X1834642Y5888939D01*
X1842007Y5893054D01*
X1848916Y5898794D01*
X1893112Y5942990D01*
X1896414Y5945225D01*
X1900326Y5945987D01*
X1990852Y5945987D01*
X1994712Y5945225D01*
X1998014Y5942990D01*
X2000250Y5939688D01*
X2001012Y5935827D01*
X2001012Y5860592D01*
X2001723Y5854242D01*
X2003602Y5848807D01*
X2006701Y5843879D01*
X2010816Y5839815D01*
X2015693Y5836716D01*
X2021179Y5834837D01*
X2027478Y5834075D01*
X2176322Y5834075D01*
X2182622Y5834837D01*
X2188108Y5836716D01*
X2192985Y5839815D01*
X2194712Y5841492D01*
X2198014Y5843727D01*
X2201926Y5844489D01*
X2205786Y5843727D01*
X2209088Y5841492D01*
X2210816Y5839815D01*
X2215692Y5836716D01*
X2221179Y5834837D01*
X2227478Y5834075D01*
X2376322Y5834075D01*
X2382621Y5834837D01*
X2388108Y5836716D01*
X2392984Y5839815D01*
X2394712Y5841492D01*
X2398014Y5843727D01*
X2401925Y5844489D01*
X2405786Y5843727D01*
X2409088Y5841492D01*
X2410815Y5839815D01*
X2415692Y5836716D01*
X2421178Y5834837D01*
X2423515Y5834532D01*
X2427020Y5833465D01*
X2429967Y5831230D01*
X2431846Y5828131D01*
X2432558Y5824524D01*
X2433269Y5706211D01*
X2432456Y5702249D01*
X2430170Y5698896D01*
X2430170Y5653684D01*
X2432659Y5650280D01*
X2433574Y5646115D01*
X2433777Y5613247D01*
X2432862Y5608878D01*
X2430170Y5605373D01*
X2430170Y5572150D01*
X2429357Y5568289D01*
X2427173Y5564987D01*
X2423871Y5562752D01*
X2420010Y5561990D01*
X2380589Y5561990D01*
X2376728Y5562752D01*
X2373426Y5564987D01*
X2371242Y5568289D01*
X2370429Y5572150D01*
X2370429Y5602986D01*
X2327402Y5602986D01*
X2327402Y5589676D01*
X2328113Y5583377D01*
X2329992Y5577890D01*
X2333091Y5573014D01*
X2336292Y5569762D01*
X2338527Y5566511D01*
X2339289Y5562600D01*
X2338527Y5558688D01*
X2336292Y5555437D01*
X2333091Y5552186D01*
X2329992Y5547309D01*
X2328113Y5541822D01*
X2327402Y5535523D01*
X2327402Y5455666D01*
X2328113Y5449366D01*
X2329992Y5443880D01*
X2333091Y5439003D01*
X2337206Y5434888D01*
X2342083Y5431790D01*
X2345994Y5430469D01*
X2349550Y5428284D01*
X2351938Y5424932D01*
X2352802Y5420868D01*
X2352802Y5385765D01*
X2352040Y5381904D01*
X2349804Y5378602D01*
X2346502Y5376367D01*
X2342642Y5375605D01*
X2336749Y5375605D01*
X2330450Y5374894D01*
X2324963Y5372963D01*
X2320086Y5369915D01*
X2315972Y5365800D01*
X2312924Y5360924D01*
X2310993Y5355437D01*
X2310282Y5349138D01*
X2310282Y5280253D01*
X2310993Y5273954D01*
X2312924Y5268468D01*
X2315972Y5263591D01*
X2320086Y5259476D01*
X2324963Y5256428D01*
X2330450Y5254498D01*
X2336749Y5253786D01*
X2425801Y5253786D01*
X2429662Y5253024D01*
X2432964Y5250840D01*
X2435199Y5247538D01*
X2435961Y5243677D01*
X2436317Y5189118D01*
X2436317Y5140858D01*
X2436571Y5138470D01*
X2436774Y5111089D01*
X2436317Y5107990D01*
X2436317Y5057597D01*
X2437079Y5053685D01*
X2437231Y5034534D01*
X2436469Y5030622D01*
X2434234Y5027320D01*
X2430932Y5025085D01*
X2427071Y5024323D01*
G37*

%LPC*%
G36*
X2336749Y5063794D02*
G01*
X2361082Y5063794D01*
X2361082Y5100828D01*
X2310282Y5100828D01*
X2310282Y5090261D01*
X2310993Y5083962D01*
X2312924Y5078476D01*
X2315972Y5073599D01*
X2320086Y5069484D01*
X2324963Y5066436D01*
X2330450Y5064506D01*
G37*
G36*
X2310282Y5148529D02*
G01*
X2361082Y5148529D01*
X2361082Y5185613D01*
X2336749Y5185613D01*
X2330450Y5184902D01*
X2324963Y5182971D01*
X2320086Y5179923D01*
X2315972Y5175808D01*
X2312924Y5170932D01*
X2310993Y5165445D01*
X2310282Y5159146D01*
G37*
G36*
X1757476Y5491683D02*
G01*
X1770583Y5491683D01*
X1770583Y5533745D01*
X1731010Y5533745D01*
X1731010Y5518150D01*
X1731721Y5511850D01*
X1733600Y5506364D01*
X1736699Y5501487D01*
X1740814Y5497372D01*
X1745691Y5494324D01*
X1751177Y5492394D01*
G37*
G36*
X308152Y5534101D02*
G01*
X617016Y5534101D01*
X623366Y5534812D01*
X628802Y5536692D01*
X633730Y5539790D01*
X637794Y5543905D01*
X640892Y5548782D01*
X642772Y5554218D01*
X643483Y5560568D01*
X643483Y5699404D01*
X642772Y5705754D01*
X640892Y5711190D01*
X637794Y5716117D01*
X633730Y5720181D01*
X628802Y5723280D01*
X623366Y5725210D01*
X617016Y5725922D01*
X308152Y5725922D01*
X301853Y5725210D01*
X296367Y5723280D01*
X291490Y5720181D01*
X287375Y5716117D01*
X284327Y5711190D01*
X282397Y5705754D01*
X281686Y5699404D01*
X281686Y5560568D01*
X282397Y5554218D01*
X284327Y5548782D01*
X287375Y5543905D01*
X291490Y5539790D01*
X296367Y5536692D01*
X301853Y5534812D01*
G37*
G36*
X1731010Y5591454D02*
G01*
X1770583Y5591454D01*
X1770583Y5633516D01*
X1757476Y5633516D01*
X1751177Y5632805D01*
X1745691Y5630875D01*
X1740814Y5627827D01*
X1736699Y5623712D01*
X1733600Y5618835D01*
X1731721Y5613349D01*
X1731010Y5607050D01*
G37*
G36*
X2124202Y5656224D02*
G01*
X2167229Y5656224D01*
X2167229Y5696000D01*
X2150668Y5696000D01*
X2144369Y5695289D01*
X2138883Y5693410D01*
X2134006Y5690311D01*
X2129891Y5686196D01*
X2126792Y5681319D01*
X2124913Y5675833D01*
X2124202Y5669534D01*
G37*
G36*
X2327402Y5656224D02*
G01*
X2370429Y5656224D01*
X2370429Y5696000D01*
X2353868Y5696000D01*
X2347569Y5695289D01*
X2342083Y5693410D01*
X2337206Y5690311D01*
X2333091Y5686196D01*
X2329992Y5681319D01*
X2328113Y5675833D01*
X2327402Y5669534D01*
G37*
G36*
X2226970Y5656224D02*
G01*
X2269998Y5656224D01*
X2269998Y5669534D01*
X2269286Y5675833D01*
X2267407Y5681319D01*
X2264308Y5686196D01*
X2260193Y5690311D01*
X2255316Y5693410D01*
X2249830Y5695289D01*
X2243531Y5696000D01*
X2226970Y5696000D01*
G37*

%LPD*%
G36*
X1648815Y4859223D02*
G01*
X1644954Y4859985D01*
X1641652Y4862169D01*
X1537462Y4966360D01*
X1535277Y4969662D01*
X1534515Y4973523D01*
X1535277Y4977434D01*
X1537462Y4980736D01*
X1540764Y4982921D01*
X1544675Y4983683D01*
X1554683Y4983683D01*
X1554683Y5025745D01*
X1515110Y5025745D01*
X1515110Y5013248D01*
X1514348Y5009337D01*
X1512112Y5006086D01*
X1508810Y5003850D01*
X1504950Y5003088D01*
X1501038Y5003850D01*
X1497736Y5006086D01*
X1270203Y5233568D01*
X1263142Y5238902D01*
X1255572Y5242661D01*
X1247343Y5244998D01*
X1240993Y5245760D01*
X1233576Y5245811D01*
X1229715Y5246573D01*
X1226464Y5248808D01*
X1224280Y5252110D01*
X1223518Y5255971D01*
X1223518Y5274411D01*
X1222806Y5280761D01*
X1220876Y5286197D01*
X1217777Y5291124D01*
X1216101Y5292801D01*
X1213866Y5296103D01*
X1213104Y5300014D01*
X1213866Y5303875D01*
X1216101Y5307177D01*
X1217777Y5308904D01*
X1220876Y5313781D01*
X1222806Y5319268D01*
X1223518Y5325567D01*
X1223518Y5347512D01*
X1224280Y5351424D01*
X1226464Y5354726D01*
X1229766Y5356910D01*
X1233678Y5357672D01*
X1583537Y5357672D01*
X1587296Y5356961D01*
X1590548Y5354929D01*
X1592783Y5351830D01*
X1593697Y5348122D01*
X1592478Y5338013D01*
X1592478Y5329936D01*
X1639570Y5329936D01*
X1639570Y5337505D01*
X1640332Y5341416D01*
X1642516Y5344718D01*
X1645818Y5346903D01*
X1649730Y5347665D01*
X1697075Y5347665D01*
X1700987Y5346903D01*
X1704289Y5344718D01*
X1706473Y5341416D01*
X1707235Y5337505D01*
X1707235Y5329936D01*
X1747316Y5329936D01*
X1751228Y5329174D01*
X1754530Y5326989D01*
X1756714Y5323687D01*
X1757476Y5319776D01*
X1757476Y5297424D01*
X1756714Y5293512D01*
X1754530Y5290210D01*
X1751228Y5288026D01*
X1747316Y5287264D01*
X1707235Y5287264D01*
X1707235Y5279644D01*
X1706473Y5275783D01*
X1704289Y5272481D01*
X1700987Y5270296D01*
X1697075Y5269484D01*
X1649730Y5269484D01*
X1645818Y5270296D01*
X1642516Y5272481D01*
X1640332Y5275783D01*
X1639570Y5279644D01*
X1639570Y5287264D01*
X1592478Y5287264D01*
X1592478Y5279186D01*
X1593189Y5272836D01*
X1595120Y5267401D01*
X1597050Y5262981D01*
X1597050Y5259222D01*
X1595120Y5254802D01*
X1593189Y5249367D01*
X1592478Y5243017D01*
X1592478Y5184190D01*
X1593189Y5177840D01*
X1595120Y5172405D01*
X1598218Y5167477D01*
X1602282Y5163413D01*
X1607210Y5160314D01*
X1612646Y5158384D01*
X1618996Y5157673D01*
X1727809Y5157673D01*
X1734312Y5158435D01*
X1738426Y5158028D01*
X1742033Y5155996D01*
X1744573Y5152745D01*
X1745589Y5148681D01*
X1744878Y5144617D01*
X1742592Y5141112D01*
X1729943Y5128463D01*
X1726641Y5126278D01*
X1722780Y5125516D01*
X1681581Y5125516D01*
X1675231Y5124805D01*
X1669796Y5122875D01*
X1664868Y5119827D01*
X1660804Y5115712D01*
X1659585Y5113832D01*
X1656791Y5110886D01*
X1653032Y5109260D01*
X1648968Y5109260D01*
X1645208Y5110886D01*
X1642414Y5113832D01*
X1641195Y5115712D01*
X1637131Y5119827D01*
X1632204Y5122875D01*
X1626768Y5124805D01*
X1620418Y5125516D01*
X1607362Y5125516D01*
X1607362Y5083454D01*
X1644904Y5083454D01*
X1648815Y5082692D01*
X1652117Y5080457D01*
X1654302Y5077155D01*
X1655064Y5073294D01*
X1655064Y5035905D01*
X1654302Y5032044D01*
X1652117Y5028742D01*
X1648815Y5026507D01*
X1644904Y5025745D01*
X1607362Y5025745D01*
X1607362Y4983683D01*
X1620418Y4983683D01*
X1626768Y4984394D01*
X1632204Y4986324D01*
X1637131Y4989372D01*
X1641195Y4993487D01*
X1642414Y4995367D01*
X1645208Y4998313D01*
X1648968Y4999939D01*
X1653032Y4999939D01*
X1656791Y4998313D01*
X1659585Y4995367D01*
X1660804Y4993487D01*
X1664868Y4989372D01*
X1669796Y4986324D01*
X1675231Y4984394D01*
X1681581Y4983683D01*
X1760423Y4983683D01*
X1766722Y4984394D01*
X1772208Y4986324D01*
X1777085Y4989372D01*
X1781200Y4993487D01*
X1784299Y4998364D01*
X1786178Y5003850D01*
X1786889Y5010150D01*
X1786889Y5051348D01*
X1787652Y5055260D01*
X1789887Y5058562D01*
X1870151Y5138826D01*
X1873453Y5141010D01*
X1877314Y5141772D01*
X1881225Y5141010D01*
X1884527Y5138826D01*
X1886712Y5135524D01*
X1887474Y5131612D01*
X1887474Y5115864D01*
X1886661Y5111800D01*
X1884222Y5108397D01*
X1880666Y5106263D01*
X1875993Y5104638D01*
X1871065Y5101539D01*
X1867001Y5097475D01*
X1863902Y5092547D01*
X1862023Y5087112D01*
X1861312Y5080762D01*
X1861312Y5001260D01*
X1862023Y4994960D01*
X1863902Y4989474D01*
X1867001Y4984597D01*
X1871065Y4980482D01*
X1875993Y4977434D01*
X1882038Y4975301D01*
X1885594Y4973167D01*
X1888032Y4969764D01*
X1888845Y4965700D01*
X1888032Y4961636D01*
X1885594Y4958232D01*
X1882038Y4956098D01*
X1875993Y4953965D01*
X1871065Y4950917D01*
X1867001Y4946802D01*
X1863902Y4941925D01*
X1862023Y4936439D01*
X1861312Y4930140D01*
X1861312Y4869383D01*
X1860499Y4865471D01*
X1858314Y4862169D01*
X1855012Y4859985D01*
X1851152Y4859223D01*
G37*

%LPC*%
G36*
X1515110Y5083454D02*
G01*
X1554683Y5083454D01*
X1554683Y5125516D01*
X1541576Y5125516D01*
X1535277Y5124805D01*
X1529791Y5122875D01*
X1524914Y5119827D01*
X1520799Y5115712D01*
X1517700Y5110835D01*
X1515821Y5105349D01*
X1515110Y5099050D01*
G37*

%LPD*%
G36*
X406095Y3881323D02*
G01*
X402386Y3882034D01*
X399135Y3884066D01*
X396900Y3887114D01*
X395986Y3890822D01*
X396443Y3894582D01*
X398272Y3897934D01*
X404977Y3906062D01*
X410921Y3916019D01*
X415239Y3926789D01*
X417880Y3938117D01*
X418795Y3949700D01*
X417880Y3961282D01*
X415239Y3972610D01*
X410921Y3983380D01*
X404977Y3993337D01*
X397560Y4002328D01*
X389432Y4009542D01*
X387756Y4011523D01*
X386588Y4013911D01*
X384860Y4019042D01*
X380746Y4026408D01*
X375005Y4033316D01*
X252069Y4156252D01*
X249885Y4159554D01*
X249123Y4163415D01*
X249123Y4884064D01*
X249885Y4887925D01*
X252069Y4891227D01*
X311962Y4951120D01*
X315264Y4953304D01*
X319125Y4954066D01*
X821537Y4954066D01*
X825398Y4953304D01*
X828700Y4951120D01*
X830884Y4947818D01*
X831697Y4943906D01*
X831697Y4925568D01*
X832408Y4919268D01*
X834288Y4913782D01*
X837387Y4908905D01*
X839114Y4907178D01*
X841298Y4903876D01*
X842060Y4900015D01*
X841298Y4896104D01*
X839114Y4892802D01*
X837387Y4891125D01*
X834288Y4886198D01*
X832408Y4880762D01*
X831697Y4874412D01*
X831697Y4725568D01*
X832408Y4719269D01*
X834288Y4713782D01*
X837387Y4708906D01*
X839114Y4707178D01*
X841298Y4703876D01*
X842060Y4700016D01*
X841298Y4696104D01*
X839114Y4692802D01*
X837387Y4691126D01*
X834288Y4686198D01*
X832408Y4680762D01*
X831697Y4674412D01*
X831697Y4643831D01*
X936244Y4643831D01*
X936244Y4688941D01*
X937006Y4692802D01*
X939190Y4696104D01*
X942492Y4698339D01*
X946403Y4699101D01*
X1108760Y4699101D01*
X1112672Y4698339D01*
X1115974Y4696104D01*
X1118158Y4692802D01*
X1118920Y4688941D01*
X1118920Y4643831D01*
X1223518Y4643831D01*
X1223518Y4674412D01*
X1222806Y4680762D01*
X1220876Y4686198D01*
X1217777Y4691126D01*
X1216101Y4692802D01*
X1213866Y4696104D01*
X1213104Y4700016D01*
X1213866Y4703876D01*
X1216101Y4707178D01*
X1217777Y4708906D01*
X1220876Y4713782D01*
X1222806Y4719269D01*
X1223518Y4725568D01*
X1223518Y4743907D01*
X1224280Y4747818D01*
X1226464Y4751120D01*
X1229766Y4753305D01*
X1233678Y4754067D01*
X1336294Y4754067D01*
X1340154Y4753305D01*
X1343456Y4751120D01*
X1369161Y4725416D01*
X1371346Y4722114D01*
X1372158Y4718202D01*
X1372158Y4705908D01*
X1373936Y4694428D01*
X1377442Y4683353D01*
X1382572Y4672939D01*
X1389278Y4663440D01*
X1397304Y4655058D01*
X1406550Y4647996D01*
X1416761Y4642459D01*
X1427683Y4638548D01*
X1439113Y4636312D01*
X1448358Y4635957D01*
X1452118Y4635093D01*
X1455318Y4632807D01*
X1457401Y4629556D01*
X1458112Y4625695D01*
X1454658Y4327753D01*
X1453997Y4324197D01*
X1452118Y4321149D01*
X1448003Y4318203D01*
X1440992Y4312615D01*
X1375867Y4249724D01*
X1372209Y4245203D01*
X1370736Y4242968D01*
X1367993Y4237888D01*
X1366977Y4235399D01*
X1365199Y4229862D01*
X1364589Y4227271D01*
X1363878Y4221530D01*
X1363776Y3960215D01*
X1363014Y3956354D01*
X1360830Y3953052D01*
X1292047Y3884269D01*
X1288745Y3882085D01*
X1284884Y3881323D01*
G37*

%LPC*%
G36*
X308152Y4274108D02*
G01*
X617016Y4274108D01*
X623366Y4274820D01*
X628802Y4276699D01*
X633730Y4279798D01*
X637794Y4283913D01*
X640892Y4288790D01*
X642772Y4294225D01*
X643483Y4300575D01*
X643483Y4439412D01*
X642772Y4445762D01*
X640892Y4451197D01*
X637794Y4456125D01*
X633730Y4460189D01*
X628802Y4463288D01*
X623366Y4465218D01*
X617016Y4465929D01*
X308152Y4465929D01*
X301853Y4465218D01*
X296367Y4463288D01*
X291490Y4460189D01*
X287375Y4456125D01*
X284327Y4451197D01*
X282397Y4445762D01*
X281686Y4439412D01*
X281686Y4300575D01*
X282397Y4294225D01*
X284327Y4288790D01*
X287375Y4283913D01*
X291490Y4279798D01*
X296367Y4276699D01*
X301853Y4274820D01*
G37*
G36*
X1118920Y4499102D02*
G01*
X1197000Y4499102D01*
X1203350Y4499813D01*
X1208786Y4501743D01*
X1213713Y4504791D01*
X1217777Y4508906D01*
X1220876Y4513783D01*
X1222806Y4519269D01*
X1223518Y4525568D01*
X1223518Y4556150D01*
X1118920Y4556150D01*
G37*
G36*
X858164Y4499102D02*
G01*
X936244Y4499102D01*
X936244Y4556150D01*
X831697Y4556150D01*
X831697Y4525568D01*
X832408Y4519269D01*
X834288Y4513783D01*
X837387Y4508906D01*
X841451Y4504791D01*
X846378Y4501743D01*
X851814Y4499813D01*
G37*

%LPD*%
G36*
X7630515Y3652723D02*
G01*
X7626654Y3653485D01*
X7623352Y3655669D01*
X7619796Y3659276D01*
X7617612Y3662426D01*
X7616799Y3666236D01*
X7615885Y3707688D01*
X7616596Y3711651D01*
X7618780Y3715054D01*
X7622133Y3717290D01*
X7626045Y3718102D01*
X7630515Y3718102D01*
X7636865Y3718814D01*
X7642301Y3720693D01*
X7647228Y3723792D01*
X7651292Y3727856D01*
X7654391Y3732784D01*
X7656271Y3738219D01*
X7657033Y3744569D01*
X7657033Y3943400D01*
X7656271Y3949750D01*
X7654391Y3955186D01*
X7651292Y3960114D01*
X7647228Y3964178D01*
X7642301Y3967276D01*
X7636865Y3969207D01*
X7630515Y3969918D01*
X7620203Y3969918D01*
X7616342Y3970629D01*
X7613091Y3972814D01*
X7610856Y3976014D01*
X7610043Y3979824D01*
X7606385Y4147718D01*
X7607096Y4151680D01*
X7609281Y4155033D01*
X7612634Y4157319D01*
X7616545Y4158081D01*
X7630515Y4158081D01*
X7636865Y4158792D01*
X7642301Y4160723D01*
X7647228Y4163822D01*
X7651292Y4167886D01*
X7654391Y4172813D01*
X7656271Y4178249D01*
X7657033Y4184599D01*
X7657033Y4262983D01*
X7657795Y4266895D01*
X7659979Y4270146D01*
X7716520Y4326686D01*
X7725460Y4336897D01*
X7732775Y4347870D01*
X7738618Y4359706D01*
X7742834Y4372152D01*
X7745425Y4385106D01*
X7746288Y4398619D01*
X7746288Y4646777D01*
X7747101Y4650638D01*
X7749286Y4653940D01*
X7752588Y4656124D01*
X7756448Y4656937D01*
X7760360Y4656124D01*
X7763662Y4653940D01*
X7795514Y4622088D01*
X7797698Y4618786D01*
X7798511Y4614875D01*
X7798511Y4305655D01*
X7799374Y4292142D01*
X7801965Y4279188D01*
X7806181Y4266692D01*
X7812024Y4254855D01*
X7819339Y4243882D01*
X7828280Y4233722D01*
X7942122Y4119879D01*
X7952282Y4110939D01*
X7963255Y4103624D01*
X7975092Y4097782D01*
X7987588Y4093565D01*
X8000542Y4090974D01*
X8014055Y4090111D01*
X8737244Y4090111D01*
X8750757Y4090974D01*
X8763711Y4093565D01*
X8776208Y4097782D01*
X8788044Y4103624D01*
X8799017Y4110939D01*
X8809177Y4119879D01*
X8827312Y4137964D01*
X8831072Y4140352D01*
X8835491Y4140911D01*
X8839758Y4139488D01*
X8842959Y4136390D01*
X8844534Y4132173D01*
X8844178Y4127754D01*
X8841536Y4119372D01*
X8839758Y4107891D01*
X8839758Y4096308D01*
X8841536Y4084828D01*
X8845042Y4073753D01*
X8850172Y4063339D01*
X8856878Y4053840D01*
X8864752Y4045661D01*
X8866835Y4042410D01*
X8867546Y4038600D01*
X8866835Y4034790D01*
X8864752Y4031538D01*
X8856878Y4023360D01*
X8850172Y4013860D01*
X8845042Y4003446D01*
X8841536Y3992372D01*
X8839758Y3980891D01*
X8839758Y3969308D01*
X8841536Y3957828D01*
X8845042Y3946753D01*
X8850172Y3936339D01*
X8856878Y3926840D01*
X8864904Y3918458D01*
X8874150Y3911396D01*
X8884361Y3905859D01*
X8895283Y3901948D01*
X8906713Y3899712D01*
X8918295Y3899255D01*
X8929827Y3900627D01*
X8941054Y3903675D01*
X8951671Y3908450D01*
X8961374Y3914749D01*
X8970060Y3922471D01*
X8972550Y3925519D01*
X8976055Y3928211D01*
X8980373Y3929176D01*
X9552178Y3929227D01*
X9560915Y3930446D01*
X9568942Y3933139D01*
X9576308Y3937254D01*
X9583216Y3942994D01*
X9952380Y4312208D01*
X9957714Y4319270D01*
X9961473Y4326839D01*
X9963759Y4334967D01*
X9964623Y4343857D01*
X9964572Y5157978D01*
X9963353Y5166715D01*
X9960660Y5174742D01*
X9956546Y5182108D01*
X9950805Y5189016D01*
X9783267Y5356504D01*
X9776206Y5361838D01*
X9768636Y5365597D01*
X9760508Y5367934D01*
X9751618Y5368747D01*
X9572091Y5368747D01*
X9568230Y5369509D01*
X9564928Y5371693D01*
X9530689Y5405932D01*
X9528505Y5409234D01*
X9527743Y5413095D01*
X9527743Y5432298D01*
X9528403Y5435904D01*
X9530334Y5439105D01*
X9533280Y5441340D01*
X9536836Y5442407D01*
X9544354Y5443169D01*
X9549790Y5445048D01*
X9554667Y5448147D01*
X9558782Y5452211D01*
X9561830Y5457139D01*
X9563760Y5462574D01*
X9564471Y5468924D01*
X9564471Y5605475D01*
X9563760Y5611825D01*
X9561830Y5617260D01*
X9558782Y5622188D01*
X9554667Y5626252D01*
X9549790Y5629351D01*
X9544354Y5631230D01*
X9536480Y5631992D01*
X9532924Y5633059D01*
X9529927Y5635294D01*
X9527997Y5638444D01*
X9527286Y5642102D01*
X9527032Y5714187D01*
X9527590Y5717540D01*
X9529216Y5720537D01*
X9531756Y5722823D01*
X9536785Y5725972D01*
X9540900Y5730087D01*
X9543999Y5734964D01*
X9545878Y5740450D01*
X9546590Y5746750D01*
X9546590Y5835650D01*
X9545878Y5841949D01*
X9543999Y5847435D01*
X9540900Y5852312D01*
X9536785Y5856427D01*
X9531908Y5859475D01*
X9526422Y5861405D01*
X9520123Y5862116D01*
X9441281Y5862116D01*
X9434931Y5861405D01*
X9429496Y5859475D01*
X9424568Y5856427D01*
X9420504Y5852312D01*
X9419285Y5850432D01*
X9416491Y5847486D01*
X9412732Y5845860D01*
X9408668Y5845860D01*
X9404908Y5847486D01*
X9402114Y5850432D01*
X9400895Y5852312D01*
X9396831Y5856427D01*
X9391904Y5859475D01*
X9386468Y5861405D01*
X9380118Y5862116D01*
X9367062Y5862116D01*
X9367062Y5820054D01*
X9404604Y5820054D01*
X9408515Y5819292D01*
X9411817Y5817057D01*
X9414002Y5813755D01*
X9414764Y5809894D01*
X9414764Y5772505D01*
X9414002Y5768644D01*
X9411817Y5765342D01*
X9408515Y5763107D01*
X9404604Y5762345D01*
X9367062Y5762345D01*
X9367062Y5720283D01*
X9380118Y5720283D01*
X9386468Y5720994D01*
X9391904Y5722924D01*
X9396831Y5725972D01*
X9400895Y5730087D01*
X9402114Y5731967D01*
X9404908Y5734913D01*
X9408668Y5736539D01*
X9412732Y5736539D01*
X9416491Y5734913D01*
X9419285Y5731967D01*
X9420504Y5730087D01*
X9424568Y5725972D01*
X9430461Y5722315D01*
X9432950Y5720029D01*
X9434626Y5717082D01*
X9435185Y5713730D01*
X9435490Y5642152D01*
X9434830Y5638546D01*
X9432899Y5635345D01*
X9430004Y5633110D01*
X9426448Y5632043D01*
X9419539Y5631230D01*
X9414103Y5629351D01*
X9409176Y5626252D01*
X9405112Y5622188D01*
X9402013Y5617260D01*
X9400082Y5611825D01*
X9399371Y5605475D01*
X9399371Y5468924D01*
X9400082Y5462574D01*
X9402013Y5457139D01*
X9405112Y5452211D01*
X9409176Y5448147D01*
X9414103Y5445048D01*
X9419539Y5443169D01*
X9426803Y5442407D01*
X9430359Y5441340D01*
X9433306Y5439054D01*
X9435236Y5435904D01*
X9435896Y5432298D01*
X9435947Y5388102D01*
X9437166Y5379364D01*
X9439859Y5371338D01*
X9443974Y5363972D01*
X9449663Y5357063D01*
X9517684Y5289143D01*
X9524746Y5283809D01*
X9532315Y5280050D01*
X9540443Y5277764D01*
X9549333Y5276900D01*
X9728860Y5276900D01*
X9732721Y5276138D01*
X9736023Y5273954D01*
X9869830Y5140147D01*
X9872014Y5136845D01*
X9872776Y5132984D01*
X9872776Y4366615D01*
X9872014Y4362754D01*
X9869830Y4359452D01*
X9534347Y4023969D01*
X9531045Y4021785D01*
X9527184Y4021023D01*
X8980373Y4021023D01*
X8976055Y4021988D01*
X8972550Y4024680D01*
X8970060Y4027728D01*
X8966352Y4031030D01*
X8963863Y4034434D01*
X8962948Y4038600D01*
X8963863Y4042765D01*
X8966352Y4046169D01*
X8970060Y4049471D01*
X8972550Y4052519D01*
X8976055Y4055211D01*
X8980373Y4056176D01*
X9514078Y4056227D01*
X9522815Y4057446D01*
X9530842Y4060139D01*
X9538208Y4064254D01*
X9545116Y4069994D01*
X9838080Y4363008D01*
X9843414Y4370070D01*
X9847173Y4377639D01*
X9849459Y4385767D01*
X9850323Y4394657D01*
X9850272Y5069078D01*
X9849053Y5077815D01*
X9846360Y5085842D01*
X9842246Y5093208D01*
X9836505Y5100116D01*
X9733991Y5202580D01*
X9726930Y5207914D01*
X9719360Y5211673D01*
X9711232Y5213959D01*
X9702342Y5214823D01*
X9292082Y5214823D01*
X9288170Y5215585D01*
X9284868Y5217769D01*
X9282684Y5221071D01*
X9281922Y5224983D01*
X9282684Y5228844D01*
X9284868Y5232146D01*
X9322460Y5269788D01*
X9327794Y5276850D01*
X9331553Y5284419D01*
X9333839Y5292547D01*
X9334703Y5301437D01*
X9334703Y5432298D01*
X9335363Y5435904D01*
X9337294Y5439054D01*
X9340240Y5441340D01*
X9343745Y5442407D01*
X9351060Y5443169D01*
X9356496Y5445048D01*
X9361424Y5448147D01*
X9365488Y5452211D01*
X9368586Y5457139D01*
X9370517Y5462574D01*
X9371228Y5468924D01*
X9371228Y5605475D01*
X9370517Y5611825D01*
X9368586Y5617260D01*
X9365488Y5622188D01*
X9361424Y5626252D01*
X9356496Y5629351D01*
X9351060Y5631230D01*
X9344710Y5631942D01*
X9232595Y5631942D01*
X9226296Y5631230D01*
X9220809Y5629351D01*
X9215932Y5626252D01*
X9211818Y5622188D01*
X9208770Y5617260D01*
X9206839Y5611825D01*
X9206128Y5605475D01*
X9206128Y5468924D01*
X9206839Y5462574D01*
X9208770Y5457139D01*
X9211818Y5452211D01*
X9215932Y5448147D01*
X9220809Y5445048D01*
X9226245Y5443169D01*
X9233763Y5442407D01*
X9237319Y5441340D01*
X9240266Y5439105D01*
X9242196Y5435904D01*
X9242856Y5432298D01*
X9242856Y5324195D01*
X9242094Y5320334D01*
X9239910Y5317032D01*
X9204147Y5281269D01*
X9200845Y5279085D01*
X9196984Y5278323D01*
X8849715Y5278323D01*
X8845854Y5279085D01*
X8842552Y5281269D01*
X8818981Y5304840D01*
X8816797Y5308142D01*
X8816035Y5312003D01*
X8816035Y5314594D01*
X8817000Y5318912D01*
X8819642Y5322366D01*
X8819642Y5387289D01*
X8816949Y5390743D01*
X8816035Y5395061D01*
X8816035Y5432348D01*
X8815171Y5441238D01*
X8814206Y5446115D01*
X8814206Y5470550D01*
X8814866Y5474157D01*
X8816746Y5477256D01*
X8819642Y5479542D01*
X8819642Y5538774D01*
X8815476Y5537149D01*
X8807958Y5532475D01*
X8804452Y5531154D01*
X8800744Y5531154D01*
X8797239Y5532475D01*
X8789720Y5537149D01*
X8782151Y5540095D01*
X8774176Y5541568D01*
X8766048Y5541568D01*
X8758021Y5540095D01*
X8750452Y5537149D01*
X8742934Y5532475D01*
X8739479Y5531154D01*
X8735720Y5531154D01*
X8732266Y5532475D01*
X8724747Y5537149D01*
X8717178Y5540095D01*
X8709152Y5541568D01*
X8701024Y5541568D01*
X8693912Y5540248D01*
X8689492Y5540400D01*
X8685580Y5542432D01*
X8682888Y5545937D01*
X8681923Y5550255D01*
X8681923Y5611926D01*
X8682786Y5616092D01*
X8685326Y5619496D01*
X8690660Y5624271D01*
X8698077Y5633262D01*
X8704021Y5643219D01*
X8708339Y5653989D01*
X8710980Y5665317D01*
X8711895Y5676900D01*
X8710980Y5688482D01*
X8708339Y5699810D01*
X8704021Y5710580D01*
X8698077Y5720537D01*
X8690660Y5729528D01*
X8681974Y5737250D01*
X8672271Y5743549D01*
X8661654Y5748324D01*
X8650427Y5751372D01*
X8638895Y5752744D01*
X8627313Y5752287D01*
X8615883Y5750052D01*
X8604961Y5746140D01*
X8594750Y5740603D01*
X8585504Y5733542D01*
X8577478Y5725160D01*
X8570772Y5715660D01*
X8565642Y5705246D01*
X8562136Y5694172D01*
X8560358Y5682691D01*
X8560358Y5671108D01*
X8562136Y5659628D01*
X8565642Y5648553D01*
X8570772Y5638139D01*
X8577478Y5628640D01*
X8588248Y5617565D01*
X8589619Y5614822D01*
X8590076Y5611723D01*
X8590127Y5435142D01*
X8591346Y5426252D01*
X8593226Y5420360D01*
X8595004Y5416651D01*
X8595969Y5412232D01*
X8595969Y5368391D01*
X8596782Y5359806D01*
X8599017Y5351983D01*
X8602624Y5344718D01*
X8607552Y5338216D01*
X8613546Y5332730D01*
X8620455Y5328462D01*
X8628024Y5325516D01*
X8636050Y5324043D01*
X8644178Y5324043D01*
X8647176Y5324602D01*
X8651595Y5324449D01*
X8655558Y5322417D01*
X8658250Y5318912D01*
X8659215Y5314594D01*
X8659215Y5312054D01*
X8658453Y5308142D01*
X8656218Y5304840D01*
X8651849Y5300472D01*
X8648547Y5298287D01*
X8644686Y5297474D01*
X8585454Y5297474D01*
X8580983Y5297271D01*
X8576767Y5296712D01*
X8572652Y5295747D01*
X8568639Y5294376D01*
X8564727Y5292648D01*
X8561019Y5290616D01*
X8557564Y5288229D01*
X8554262Y5285486D01*
X8551265Y5282488D01*
X8548674Y5279390D01*
X8545372Y5274157D01*
X8543950Y5272430D01*
X8464194Y5192674D01*
X8460892Y5190439D01*
X8457031Y5189677D01*
X8453120Y5190439D01*
X8449818Y5192674D01*
X8447633Y5195925D01*
X8446871Y5199837D01*
X8446871Y5211775D01*
X8446160Y5218125D01*
X8444230Y5223560D01*
X8441182Y5228488D01*
X8437067Y5232552D01*
X8432190Y5235651D01*
X8426704Y5237530D01*
X8420404Y5238242D01*
X8308289Y5238242D01*
X8301939Y5237530D01*
X8296503Y5235651D01*
X8291575Y5232552D01*
X8287512Y5228488D01*
X8284413Y5223560D01*
X8282482Y5218125D01*
X8281771Y5211775D01*
X8281771Y5075224D01*
X8282482Y5068874D01*
X8284413Y5063439D01*
X8287512Y5058511D01*
X8291575Y5054447D01*
X8296503Y5051348D01*
X8301939Y5049469D01*
X8308289Y5048758D01*
X8413699Y5048758D01*
X8417560Y5047945D01*
X8420862Y5045760D01*
X8423097Y5042458D01*
X8423859Y5038598D01*
X8423097Y5034686D01*
X8420862Y5031384D01*
X8391347Y5001869D01*
X8388045Y4999685D01*
X8384184Y4998923D01*
X8240115Y4998923D01*
X8236254Y4999685D01*
X8232952Y5001869D01*
X8220049Y5014772D01*
X8217865Y5018074D01*
X8217103Y5021935D01*
X8217103Y5038598D01*
X8217763Y5042204D01*
X8219694Y5045354D01*
X8222640Y5047640D01*
X8226145Y5048707D01*
X8233460Y5049469D01*
X8238896Y5051348D01*
X8243824Y5054447D01*
X8247888Y5058511D01*
X8250986Y5063439D01*
X8252917Y5068874D01*
X8253628Y5075224D01*
X8253628Y5211775D01*
X8252917Y5218125D01*
X8250986Y5223560D01*
X8247888Y5228488D01*
X8243824Y5232552D01*
X8238896Y5235651D01*
X8233460Y5237530D01*
X8226094Y5238292D01*
X8222538Y5239359D01*
X8219592Y5241645D01*
X8217662Y5244795D01*
X8217001Y5248402D01*
X8217001Y5283860D01*
X8217763Y5287721D01*
X8219948Y5291023D01*
X8263737Y5334812D01*
X8267039Y5337048D01*
X8270951Y5337810D01*
X8312150Y5337810D01*
X8318449Y5338521D01*
X8323935Y5340400D01*
X8328812Y5343499D01*
X8332927Y5347614D01*
X8335975Y5352491D01*
X8337905Y5357977D01*
X8338616Y5364276D01*
X8338616Y5443118D01*
X8337905Y5449468D01*
X8335975Y5454904D01*
X8332927Y5459831D01*
X8328812Y5463895D01*
X8326932Y5465114D01*
X8323986Y5467908D01*
X8322360Y5471668D01*
X8322360Y5475732D01*
X8323986Y5479491D01*
X8326932Y5482285D01*
X8328812Y5483504D01*
X8332927Y5487568D01*
X8335975Y5492496D01*
X8337905Y5497931D01*
X8338616Y5504281D01*
X8338616Y5517337D01*
X8296554Y5517337D01*
X8296554Y5479796D01*
X8295792Y5475884D01*
X8293557Y5472582D01*
X8290255Y5470398D01*
X8286394Y5469636D01*
X8249005Y5469636D01*
X8245144Y5470398D01*
X8241842Y5472582D01*
X8239607Y5475884D01*
X8238845Y5479796D01*
X8238845Y5517337D01*
X8198459Y5517337D01*
X8194090Y5518302D01*
X8190585Y5521045D01*
X8188604Y5525008D01*
X8188502Y5529478D01*
X8189925Y5536742D01*
X8190788Y5550255D01*
X8190788Y5559856D01*
X8191601Y5563768D01*
X8193786Y5567070D01*
X8197088Y5569254D01*
X8200948Y5570016D01*
X8238845Y5570016D01*
X8238845Y5609590D01*
X8223250Y5609590D01*
X8216950Y5608878D01*
X8211464Y5606999D01*
X8206384Y5603748D01*
X8202320Y5602274D01*
X8198053Y5602630D01*
X8194294Y5604713D01*
X8191703Y5608167D01*
X8190788Y5612384D01*
X8190788Y5830620D01*
X8190992Y5832602D01*
X8192363Y5839307D01*
X8193227Y5852515D01*
X8192363Y5865672D01*
X8189772Y5878626D01*
X8185505Y5891072D01*
X8179257Y5903722D01*
X8178190Y5908243D01*
X8178190Y6026912D01*
X8177479Y6033211D01*
X8175599Y6038697D01*
X8172500Y6043574D01*
X8168386Y6047689D01*
X8163509Y6050788D01*
X8158073Y6052667D01*
X8151723Y6053378D01*
X8032902Y6053378D01*
X8026552Y6052667D01*
X8021116Y6050788D01*
X8016189Y6047689D01*
X8012125Y6043574D01*
X8009026Y6038697D01*
X8007096Y6033211D01*
X8006384Y6026912D01*
X8006384Y5909411D01*
X8005978Y5906465D01*
X8003590Y5902096D01*
X8000492Y5899150D01*
X7996478Y5897676D01*
X7992211Y5898032D01*
X7988452Y5900115D01*
X7985912Y5903569D01*
X7984998Y5907735D01*
X7984998Y6024422D01*
X7984286Y6030722D01*
X7982356Y6036208D01*
X7979308Y6041085D01*
X7975193Y6045200D01*
X7970316Y6048298D01*
X7964830Y6050178D01*
X7958531Y6050889D01*
X7955229Y6050889D01*
X7951317Y6051651D01*
X7948015Y6053886D01*
X7945831Y6057188D01*
X7945069Y6061049D01*
X7945069Y6077356D01*
X7945831Y6081217D01*
X7948015Y6084519D01*
X8088426Y6224930D01*
X8091728Y6227114D01*
X8095589Y6227876D01*
X8577478Y6227876D01*
X8581339Y6227114D01*
X8584641Y6224930D01*
X8586825Y6221628D01*
X8587638Y6217716D01*
X8586825Y6213856D01*
X8584641Y6210554D01*
X8581999Y6207912D01*
X8578900Y6203035D01*
X8577021Y6197549D01*
X8576310Y6191250D01*
X8576310Y6102350D01*
X8577021Y6096050D01*
X8578900Y6090564D01*
X8581999Y6085687D01*
X8586114Y6081572D01*
X8591550Y6078169D01*
X8594090Y6075883D01*
X8595715Y6072936D01*
X8596274Y6069584D01*
X8596274Y6008116D01*
X8595715Y6004763D01*
X8594090Y6001816D01*
X8591550Y5999530D01*
X8586114Y5996127D01*
X8581999Y5992012D01*
X8578900Y5987135D01*
X8577681Y5983630D01*
X8575548Y5980074D01*
X8572195Y5977636D01*
X8568131Y5976823D01*
X8523173Y5976823D01*
X8518855Y5977788D01*
X8515350Y5980480D01*
X8512860Y5983528D01*
X8504174Y5991250D01*
X8494471Y5997549D01*
X8483854Y6002324D01*
X8472627Y6005372D01*
X8461095Y6006744D01*
X8449513Y6006287D01*
X8438083Y6004052D01*
X8427161Y6000140D01*
X8416950Y5994603D01*
X8407704Y5987542D01*
X8399678Y5979160D01*
X8392972Y5969660D01*
X8387842Y5959246D01*
X8384336Y5948172D01*
X8382558Y5936691D01*
X8382558Y5925108D01*
X8384336Y5913628D01*
X8387842Y5902553D01*
X8392972Y5892139D01*
X8399678Y5882640D01*
X8407704Y5874258D01*
X8416950Y5867196D01*
X8427161Y5861659D01*
X8438083Y5857748D01*
X8449513Y5855512D01*
X8461095Y5855055D01*
X8472627Y5856427D01*
X8483854Y5859475D01*
X8494471Y5864250D01*
X8504174Y5870549D01*
X8512860Y5878271D01*
X8515350Y5881319D01*
X8518855Y5884011D01*
X8523173Y5884976D01*
X8568131Y5884976D01*
X8572195Y5884164D01*
X8575548Y5881725D01*
X8577681Y5878169D01*
X8578900Y5874664D01*
X8581999Y5869787D01*
X8586114Y5865672D01*
X8590991Y5862624D01*
X8596477Y5860694D01*
X8602776Y5859983D01*
X8681618Y5859983D01*
X8687968Y5860694D01*
X8693404Y5862624D01*
X8698331Y5865672D01*
X8702395Y5869787D01*
X8703614Y5871667D01*
X8706408Y5874613D01*
X8710168Y5876239D01*
X8714232Y5876239D01*
X8717991Y5874613D01*
X8720785Y5871667D01*
X8722004Y5869787D01*
X8726068Y5865672D01*
X8730996Y5862624D01*
X8736431Y5860694D01*
X8742781Y5859983D01*
X8755837Y5859983D01*
X8755837Y5902045D01*
X8718296Y5902045D01*
X8714384Y5902807D01*
X8711082Y5905042D01*
X8708898Y5908344D01*
X8708136Y5912205D01*
X8708136Y5949594D01*
X8708898Y5953455D01*
X8711082Y5956757D01*
X8714384Y5958992D01*
X8718296Y5959754D01*
X8755837Y5959754D01*
X8755837Y6001816D01*
X8742781Y6001816D01*
X8736431Y6001105D01*
X8730996Y5999175D01*
X8726068Y5996127D01*
X8722004Y5992012D01*
X8720785Y5990132D01*
X8717991Y5987186D01*
X8714232Y5985560D01*
X8710168Y5985560D01*
X8706408Y5987186D01*
X8703614Y5990132D01*
X8702395Y5992012D01*
X8698331Y5996127D01*
X8692845Y5999530D01*
X8690305Y6001816D01*
X8688679Y6004763D01*
X8688120Y6008116D01*
X8688120Y6069584D01*
X8688679Y6072936D01*
X8690305Y6075883D01*
X8692845Y6078169D01*
X8698331Y6081572D01*
X8702395Y6085687D01*
X8703614Y6087567D01*
X8706408Y6090513D01*
X8710168Y6092139D01*
X8714232Y6092139D01*
X8717991Y6090513D01*
X8720785Y6087567D01*
X8722004Y6085687D01*
X8726068Y6081572D01*
X8730996Y6078524D01*
X8736431Y6076594D01*
X8742781Y6075883D01*
X8755837Y6075883D01*
X8755837Y6117945D01*
X8718296Y6117945D01*
X8714384Y6118707D01*
X8711082Y6120942D01*
X8708898Y6124244D01*
X8708136Y6128105D01*
X8708136Y6165494D01*
X8708898Y6169355D01*
X8711082Y6172657D01*
X8714384Y6174892D01*
X8718296Y6175654D01*
X8755837Y6175654D01*
X8755837Y6217716D01*
X8756599Y6221628D01*
X8758834Y6224930D01*
X8762136Y6227114D01*
X8765997Y6227876D01*
X8798356Y6227876D01*
X8802268Y6227114D01*
X8805570Y6224930D01*
X8807754Y6221628D01*
X8808516Y6217716D01*
X8808516Y6175654D01*
X8848090Y6175654D01*
X8848090Y6191250D01*
X8847378Y6197549D01*
X8845499Y6203035D01*
X8842400Y6207912D01*
X8839758Y6210554D01*
X8837574Y6213856D01*
X8836761Y6217716D01*
X8837574Y6221628D01*
X8839758Y6224930D01*
X8843060Y6227114D01*
X8846921Y6227876D01*
X8866784Y6227876D01*
X8870645Y6227114D01*
X8873947Y6224930D01*
X9125508Y5973419D01*
X9132570Y5968085D01*
X9140139Y5964326D01*
X9148267Y5962040D01*
X9157157Y5961176D01*
X9971684Y5961176D01*
X9975545Y5960414D01*
X9978847Y5958230D01*
X10034930Y5902147D01*
X10037114Y5898845D01*
X10037876Y5894984D01*
X10037876Y4265015D01*
X10037114Y4261154D01*
X10034930Y4257852D01*
X9432747Y3655669D01*
X9429445Y3653485D01*
X9425584Y3652723D01*
G37*

%LPC*%
G36*
X8850528Y5326837D02*
G01*
X8854744Y5328462D01*
X8861653Y5332730D01*
X8867648Y5338216D01*
X8872575Y5344718D01*
X8876182Y5351983D01*
X8878417Y5359806D01*
X8879230Y5368391D01*
X8879230Y5384901D01*
X8850528Y5384901D01*
G37*
G36*
X8850528Y5480710D02*
G01*
X8879230Y5480710D01*
X8879230Y5497220D01*
X8878417Y5505805D01*
X8876182Y5513628D01*
X8872575Y5520893D01*
X8867648Y5527395D01*
X8861653Y5532882D01*
X8854744Y5537149D01*
X8850528Y5538774D01*
G37*
G36*
X8296554Y5570016D02*
G01*
X8338616Y5570016D01*
X8338616Y5583123D01*
X8337905Y5589422D01*
X8335975Y5594908D01*
X8332927Y5599785D01*
X8328812Y5603900D01*
X8323935Y5606999D01*
X8318449Y5608878D01*
X8312150Y5609590D01*
X8296554Y5609590D01*
G37*
G36*
X9301276Y5720283D02*
G01*
X9314383Y5720283D01*
X9314383Y5762345D01*
X9274810Y5762345D01*
X9274810Y5746750D01*
X9275521Y5740450D01*
X9277400Y5734964D01*
X9280499Y5730087D01*
X9284614Y5725972D01*
X9289491Y5722924D01*
X9294977Y5720994D01*
G37*
G36*
X9274810Y5820054D02*
G01*
X9314383Y5820054D01*
X9314383Y5862116D01*
X9301276Y5862116D01*
X9294977Y5861405D01*
X9289491Y5859475D01*
X9284614Y5856427D01*
X9280499Y5852312D01*
X9277400Y5847435D01*
X9275521Y5841949D01*
X9274810Y5835650D01*
G37*
G36*
X8808516Y5859983D02*
G01*
X8821623Y5859983D01*
X8827922Y5860694D01*
X8833408Y5862624D01*
X8838285Y5865672D01*
X8842400Y5869787D01*
X8845499Y5874664D01*
X8847378Y5880150D01*
X8848090Y5886450D01*
X8848090Y5902045D01*
X8808516Y5902045D01*
G37*
G36*
X8808516Y5959754D02*
G01*
X8848090Y5959754D01*
X8848090Y5975350D01*
X8847378Y5981649D01*
X8845499Y5987135D01*
X8842400Y5992012D01*
X8838285Y5996127D01*
X8833408Y5999175D01*
X8827922Y6001105D01*
X8821623Y6001816D01*
X8808516Y6001816D01*
G37*
G36*
X8808516Y6075883D02*
G01*
X8821623Y6075883D01*
X8827922Y6076594D01*
X8833408Y6078524D01*
X8838285Y6081572D01*
X8842400Y6085687D01*
X8845499Y6090564D01*
X8847378Y6096050D01*
X8848090Y6102350D01*
X8848090Y6117945D01*
X8808516Y6117945D01*
G37*

%LPD*%
G36*
X2106015Y2166823D02*
G01*
X2102154Y2167585D01*
X2098852Y2169769D01*
X2080869Y2187752D01*
X2078685Y2191054D01*
X2077923Y2194915D01*
X2077923Y2271826D01*
X2078786Y2275992D01*
X2081326Y2279396D01*
X2084019Y2281834D01*
X2087168Y2283714D01*
X2090775Y2284374D01*
X2107184Y2284374D01*
X2110536Y2283815D01*
X2113534Y2282190D01*
X2115769Y2279650D01*
X2119172Y2274214D01*
X2123287Y2270099D01*
X2128164Y2267000D01*
X2133650Y2265121D01*
X2139950Y2264410D01*
X2228850Y2264410D01*
X2235149Y2265121D01*
X2240635Y2267000D01*
X2245512Y2270099D01*
X2249627Y2274214D01*
X2253132Y2279853D01*
X2255418Y2282393D01*
X2258415Y2284018D01*
X2261768Y2284577D01*
X2275078Y2284577D01*
X2279142Y2283764D01*
X2282494Y2281326D01*
X2284628Y2277770D01*
X2285847Y2274265D01*
X2288946Y2269388D01*
X2293061Y2265273D01*
X2297938Y2262225D01*
X2303424Y2260295D01*
X2309723Y2259584D01*
X2408580Y2259584D01*
X2414930Y2260295D01*
X2421432Y2262581D01*
X2426614Y2263140D01*
X2429967Y2262581D01*
X2436520Y2260295D01*
X2442819Y2259584D01*
X2541676Y2259584D01*
X2548026Y2260295D01*
X2553462Y2262225D01*
X2558338Y2265273D01*
X2562453Y2269388D01*
X2565552Y2274265D01*
X2567432Y2279751D01*
X2568143Y2286050D01*
X2568143Y2374950D01*
X2567432Y2381250D01*
X2565552Y2386736D01*
X2562453Y2391613D01*
X2558338Y2395728D01*
X2553462Y2398776D01*
X2548026Y2400706D01*
X2541676Y2401417D01*
X2442819Y2401417D01*
X2436520Y2400706D01*
X2429967Y2398420D01*
X2424785Y2397861D01*
X2421432Y2398420D01*
X2414930Y2400706D01*
X2408580Y2401417D01*
X2309723Y2401417D01*
X2303424Y2400706D01*
X2297938Y2398776D01*
X2293061Y2395728D01*
X2288946Y2391613D01*
X2285847Y2386736D01*
X2284628Y2383231D01*
X2282494Y2379675D01*
X2279142Y2377236D01*
X2275078Y2376424D01*
X2261514Y2376424D01*
X2258161Y2376982D01*
X2255164Y2378608D01*
X2252929Y2381148D01*
X2249627Y2386431D01*
X2245512Y2390495D01*
X2243632Y2391714D01*
X2240686Y2394508D01*
X2239060Y2398268D01*
X2239060Y2402332D01*
X2240686Y2406091D01*
X2243632Y2408885D01*
X2245512Y2410104D01*
X2249627Y2414168D01*
X2252675Y2419096D01*
X2254605Y2424531D01*
X2255316Y2430881D01*
X2255316Y2443937D01*
X2213254Y2443937D01*
X2213254Y2406396D01*
X2212492Y2402484D01*
X2210257Y2399182D01*
X2206955Y2396998D01*
X2203094Y2396236D01*
X2165705Y2396236D01*
X2161844Y2396998D01*
X2158542Y2399182D01*
X2156307Y2402484D01*
X2155545Y2406396D01*
X2155545Y2443937D01*
X2106980Y2443937D01*
X2103069Y2444699D01*
X2099767Y2446934D01*
X2097582Y2450236D01*
X2096820Y2454097D01*
X2096820Y2486456D01*
X2097582Y2490368D01*
X2099767Y2493670D01*
X2103069Y2495854D01*
X2106980Y2496616D01*
X2155545Y2496616D01*
X2155545Y2536190D01*
X2139950Y2536190D01*
X2133650Y2535478D01*
X2128164Y2533599D01*
X2123287Y2530500D01*
X2119172Y2526385D01*
X2115566Y2520645D01*
X2112518Y2517546D01*
X2108504Y2515971D01*
X2104136Y2516276D01*
X2100326Y2518359D01*
X2097735Y2521813D01*
X2096820Y2526030D01*
X2096820Y2733040D01*
X2097582Y2736951D01*
X2099767Y2740202D01*
X2103069Y2742438D01*
X2106980Y2743200D01*
X2293162Y2743200D01*
X2297023Y2742438D01*
X2300325Y2740202D01*
X2302560Y2736951D01*
X2303322Y2733040D01*
X2302560Y2729128D01*
X2300325Y2725877D01*
X2298801Y2724302D01*
X2295702Y2719425D01*
X2293823Y2713939D01*
X2293112Y2707640D01*
X2293112Y2628138D01*
X2293823Y2621788D01*
X2295702Y2616352D01*
X2298801Y2611424D01*
X2302865Y2607360D01*
X2307793Y2604262D01*
X2309469Y2603652D01*
X2313025Y2601518D01*
X2315464Y2598166D01*
X2316276Y2594102D01*
X2316276Y2576220D01*
X2315616Y2572613D01*
X2313686Y2569464D01*
X2310790Y2567178D01*
X2307285Y2566111D01*
X2303424Y2565704D01*
X2297938Y2563774D01*
X2293061Y2560726D01*
X2288946Y2556611D01*
X2285898Y2551734D01*
X2283968Y2546248D01*
X2283256Y2539949D01*
X2283256Y2451049D01*
X2283968Y2444750D01*
X2285898Y2439263D01*
X2288946Y2434386D01*
X2293061Y2430272D01*
X2297938Y2427224D01*
X2303424Y2425293D01*
X2309723Y2424582D01*
X2408580Y2424582D01*
X2414930Y2425293D01*
X2421432Y2427579D01*
X2426614Y2428138D01*
X2429967Y2427579D01*
X2436520Y2425293D01*
X2442819Y2424582D01*
X2460904Y2424582D01*
X2460904Y2466644D01*
X2445207Y2466644D01*
X2441346Y2467406D01*
X2438044Y2469642D01*
X2435860Y2472944D01*
X2435047Y2476804D01*
X2435047Y2514193D01*
X2435860Y2518054D01*
X2438044Y2521356D01*
X2441346Y2523591D01*
X2445207Y2524353D01*
X2460904Y2524353D01*
X2460904Y2566416D01*
X2442819Y2566416D01*
X2436520Y2565704D01*
X2429967Y2563418D01*
X2424836Y2562860D01*
X2421432Y2563418D01*
X2414930Y2565704D01*
X2411374Y2567838D01*
X2408936Y2571242D01*
X2408123Y2575306D01*
X2408123Y2594102D01*
X2408936Y2598166D01*
X2411374Y2601518D01*
X2414930Y2603652D01*
X2416606Y2604262D01*
X2421534Y2607360D01*
X2425598Y2611424D01*
X2428697Y2616352D01*
X2430576Y2621788D01*
X2431288Y2628138D01*
X2431288Y2707640D01*
X2430576Y2713939D01*
X2428697Y2719425D01*
X2425598Y2724302D01*
X2424074Y2725877D01*
X2421839Y2729128D01*
X2421077Y2733040D01*
X2421839Y2736951D01*
X2424074Y2740202D01*
X2427376Y2742438D01*
X2431237Y2743200D01*
X2902762Y2743200D01*
X2906623Y2742438D01*
X2909925Y2740202D01*
X2912160Y2736951D01*
X2912922Y2733040D01*
X2912160Y2729128D01*
X2909925Y2725877D01*
X2908401Y2724302D01*
X2905302Y2719425D01*
X2903423Y2713939D01*
X2902712Y2707640D01*
X2902712Y2694381D01*
X2943860Y2694381D01*
X2943860Y2733040D01*
X2944622Y2736951D01*
X2946806Y2740202D01*
X2950108Y2742438D01*
X2954020Y2743200D01*
X2989580Y2743200D01*
X2993491Y2742438D01*
X2996793Y2740202D01*
X2998978Y2736951D01*
X2999740Y2733040D01*
X2999740Y2694381D01*
X3050540Y2694381D01*
X3054451Y2693619D01*
X3057702Y2691434D01*
X3059938Y2688132D01*
X3060700Y2684221D01*
X3060700Y2651506D01*
X3059938Y2647645D01*
X3057702Y2644343D01*
X3054451Y2642158D01*
X3050540Y2641346D01*
X2999740Y2641346D01*
X2999740Y2601620D01*
X3014421Y2601620D01*
X3020771Y2602331D01*
X3026206Y2604262D01*
X3031134Y2607360D01*
X3035198Y2611424D01*
X3038297Y2616352D01*
X3040176Y2621788D01*
X3040430Y2624023D01*
X3041853Y2628138D01*
X3044850Y2631287D01*
X3048914Y2632913D01*
X3053283Y2632659D01*
X3057144Y2630576D01*
X3059785Y2627122D01*
X3060700Y2622854D01*
X3060700Y2325268D01*
X3061462Y2323439D01*
X3219450Y2184603D01*
X3221888Y2181352D01*
X3222904Y2177389D01*
X3222244Y2173376D01*
X3220059Y2169922D01*
X3216706Y2167636D01*
X3212744Y2166823D01*
G37*

%LPC*%
G36*
X2523591Y2424582D02*
G01*
X2541676Y2424582D01*
X2548026Y2425293D01*
X2553462Y2427224D01*
X2558338Y2430272D01*
X2562453Y2434386D01*
X2565552Y2439263D01*
X2567432Y2444750D01*
X2568143Y2451049D01*
X2568143Y2466644D01*
X2523591Y2466644D01*
G37*
G36*
X2213254Y2496616D02*
G01*
X2255316Y2496616D01*
X2255316Y2509723D01*
X2254605Y2516022D01*
X2252675Y2521508D01*
X2249627Y2526385D01*
X2245512Y2530500D01*
X2240635Y2533599D01*
X2235149Y2535478D01*
X2228850Y2536190D01*
X2213254Y2536190D01*
G37*
G36*
X2523591Y2524353D02*
G01*
X2568143Y2524353D01*
X2568143Y2539949D01*
X2567432Y2546248D01*
X2565552Y2551734D01*
X2562453Y2556611D01*
X2558338Y2560726D01*
X2553462Y2563774D01*
X2548026Y2565704D01*
X2541676Y2566416D01*
X2523591Y2566416D01*
G37*
G36*
X2929178Y2601620D02*
G01*
X2943860Y2601620D01*
X2943860Y2641346D01*
X2902712Y2641346D01*
X2902712Y2628138D01*
X2903423Y2621788D01*
X2905302Y2616352D01*
X2908401Y2611424D01*
X2912465Y2607360D01*
X2917393Y2604262D01*
X2922828Y2602331D01*
G37*

%LPD*%
G36*
X6004560Y1435100D02*
G01*
X6000648Y1435862D01*
X5997397Y1438097D01*
X5995162Y1441348D01*
X5994400Y1445260D01*
X5994400Y3831183D01*
X5995162Y3835095D01*
X5997397Y3838397D01*
X6778802Y4619802D01*
X6782104Y4622038D01*
X6786016Y4622800D01*
X7305040Y4622800D01*
X7308951Y4622038D01*
X7312202Y4619802D01*
X7314438Y4616551D01*
X7315200Y4612640D01*
X7315200Y3620515D01*
X7315911Y3618788D01*
X7832902Y3101797D01*
X7835138Y3098495D01*
X7835900Y3094583D01*
X7835900Y1445260D01*
X7835138Y1441348D01*
X7832902Y1438097D01*
X7829651Y1435862D01*
X7825740Y1435100D01*
G37*

%LPD*%
G36*
X-78232Y25908D02*
G01*
X-82143Y26670D01*
X-85394Y28905D01*
X-87630Y32156D01*
X-88392Y36068D01*
X-88595Y6963918D01*
X-87782Y6967829D01*
X-85598Y6971080D01*
X-82296Y6973316D01*
X-78435Y6974078D01*
X985418Y6974078D01*
X988923Y6973468D01*
X992022Y6971690D01*
X994257Y6968947D01*
X995476Y6965645D01*
X997305Y6955739D01*
X1002944Y6936841D01*
X1009243Y6921703D01*
X1010666Y6918706D01*
X1018590Y6904329D01*
X1020368Y6901535D01*
X1029868Y6888175D01*
X1031951Y6885533D01*
X1045210Y6870953D01*
X1057452Y6860031D01*
X1060043Y6858000D01*
X1073404Y6848500D01*
X1076248Y6846722D01*
X1090574Y6838797D01*
X1093571Y6837324D01*
X1108760Y6831075D01*
X1111910Y6829958D01*
X1127658Y6825437D01*
X1130909Y6824675D01*
X1147064Y6821931D01*
X1150366Y6821576D01*
X1166723Y6820662D01*
X1170076Y6820662D01*
X1186434Y6821576D01*
X1189736Y6821931D01*
X1205890Y6824675D01*
X1209141Y6825437D01*
X1224889Y6829958D01*
X1228039Y6831075D01*
X1243177Y6837324D01*
X1256690Y6844588D01*
X1259382Y6845604D01*
X1262278Y6845808D01*
X1268730Y6845401D01*
X1270355Y6846265D01*
X1272794Y6852970D01*
X1274114Y6855459D01*
X1276045Y6857492D01*
X1279347Y6860082D01*
X1291539Y6870953D01*
X1293926Y6873341D01*
X1304848Y6885533D01*
X1306931Y6888175D01*
X1316431Y6901535D01*
X1318158Y6904329D01*
X1326134Y6918706D01*
X1327556Y6921703D01*
X1333855Y6936841D01*
X1339494Y6955739D01*
X1341323Y6965645D01*
X1342542Y6968947D01*
X1344828Y6971690D01*
X1347876Y6973468D01*
X1351381Y6974078D01*
X1663649Y6974078D01*
X1667611Y6973265D01*
X1670964Y6970979D01*
X1673148Y6967524D01*
X1673809Y6963511D01*
X1672793Y6959549D01*
X1670354Y6956298D01*
X1668322Y6954520D01*
X1402080Y6688277D01*
X1393139Y6678117D01*
X1385824Y6667144D01*
X1379982Y6655308D01*
X1375765Y6642811D01*
X1373174Y6629857D01*
X1372311Y6616344D01*
X1372311Y6083655D01*
X1373174Y6070142D01*
X1375765Y6057188D01*
X1379982Y6044692D01*
X1385824Y6032855D01*
X1393139Y6021882D01*
X1401876Y6011976D01*
X1411782Y6003290D01*
X1423568Y5995416D01*
X1426565Y5992368D01*
X1428038Y5988304D01*
X1427683Y5984036D01*
X1425600Y5980277D01*
X1422146Y5977737D01*
X1417980Y5976823D01*
X137922Y5976772D01*
X129184Y5975553D01*
X121158Y5972860D01*
X113792Y5968746D01*
X106883Y5963005D01*
X-8280Y5847791D01*
X-13614Y5840730D01*
X-17373Y5833160D01*
X-19659Y5825032D01*
X-20523Y5816142D01*
X-20472Y3947922D01*
X-19253Y3939184D01*
X-16560Y3931158D01*
X-12446Y3923792D01*
X-6705Y3916883D01*
X108508Y3801719D01*
X115570Y3796385D01*
X123139Y3792626D01*
X131267Y3790340D01*
X140157Y3789476D01*
X1309878Y3789527D01*
X1318615Y3790746D01*
X1326642Y3793439D01*
X1334008Y3797554D01*
X1340916Y3803294D01*
X1432255Y3894582D01*
X1435557Y3896817D01*
X1439468Y3897579D01*
X1443380Y3896766D01*
X1446631Y3894531D01*
X1448816Y3891229D01*
X1449578Y3887317D01*
X1447800Y3733850D01*
X1447800Y2744216D01*
X1448816Y2743200D01*
X1467916Y2743200D01*
X1471828Y2742438D01*
X1475130Y2740202D01*
X1477314Y2736951D01*
X1478076Y2733040D01*
X1478076Y2461615D01*
X1477314Y2457754D01*
X1475130Y2454452D01*
X1431747Y2411069D01*
X1428445Y2408885D01*
X1424584Y2408123D01*
X1368298Y2408123D01*
X1364234Y2408936D01*
X1360881Y2411374D01*
X1358747Y2414930D01*
X1358138Y2416606D01*
X1355039Y2421534D01*
X1350975Y2425598D01*
X1346047Y2428697D01*
X1340612Y2430576D01*
X1334262Y2431288D01*
X1254760Y2431288D01*
X1248460Y2430576D01*
X1242974Y2428697D01*
X1238097Y2425598D01*
X1233982Y2421534D01*
X1230934Y2416606D01*
X1228801Y2410561D01*
X1226667Y2407005D01*
X1223264Y2404567D01*
X1219200Y2403754D01*
X1215136Y2404567D01*
X1211732Y2407005D01*
X1209598Y2410561D01*
X1207465Y2416606D01*
X1204417Y2421534D01*
X1200302Y2425598D01*
X1195425Y2428697D01*
X1189939Y2430576D01*
X1183640Y2431288D01*
X1104138Y2431288D01*
X1097788Y2430576D01*
X1092352Y2428697D01*
X1087424Y2425598D01*
X1083360Y2421534D01*
X1080262Y2416606D01*
X1079652Y2414930D01*
X1077518Y2411374D01*
X1074166Y2408936D01*
X1070102Y2408123D01*
X811885Y2408123D01*
X807974Y2408885D01*
X804672Y2411069D01*
X802487Y2414371D01*
X801725Y2418283D01*
X801725Y2454452D01*
X801014Y2460752D01*
X799084Y2466238D01*
X795985Y2471115D01*
X791921Y2475230D01*
X786993Y2478278D01*
X781558Y2480208D01*
X775208Y2480919D01*
X596392Y2480919D01*
X590042Y2480208D01*
X584606Y2478278D01*
X579678Y2475230D01*
X575614Y2471115D01*
X572516Y2466238D01*
X570585Y2460752D01*
X569874Y2454452D01*
X569874Y2275586D01*
X570585Y2269236D01*
X572516Y2263800D01*
X575614Y2258872D01*
X579678Y2254808D01*
X584606Y2251710D01*
X590042Y2249830D01*
X596392Y2249068D01*
X775208Y2249068D01*
X781558Y2249830D01*
X786993Y2251710D01*
X791921Y2254808D01*
X795985Y2258872D01*
X799084Y2263800D01*
X801014Y2269236D01*
X801725Y2275586D01*
X801725Y2306116D01*
X802487Y2310028D01*
X804672Y2313330D01*
X807974Y2315514D01*
X811885Y2316276D01*
X1070102Y2316276D01*
X1074166Y2315464D01*
X1077518Y2313025D01*
X1079652Y2309469D01*
X1080262Y2307793D01*
X1083360Y2302865D01*
X1087424Y2298801D01*
X1092352Y2295702D01*
X1097788Y2293823D01*
X1104138Y2293112D01*
X1183640Y2293112D01*
X1189939Y2293823D01*
X1195425Y2295702D01*
X1200302Y2298801D01*
X1204417Y2302865D01*
X1207465Y2307793D01*
X1209598Y2313838D01*
X1211732Y2317394D01*
X1215136Y2319832D01*
X1219200Y2320645D01*
X1223264Y2319832D01*
X1226667Y2317394D01*
X1228801Y2313838D01*
X1230934Y2307793D01*
X1233982Y2302865D01*
X1238097Y2298801D01*
X1243888Y2295144D01*
X1246428Y2292908D01*
X1248054Y2289911D01*
X1248613Y2286558D01*
X1248613Y2126742D01*
X1247851Y2122881D01*
X1245666Y2119579D01*
X1163929Y2037791D01*
X1158595Y2030730D01*
X1154836Y2023160D01*
X1152499Y2015032D01*
X1151686Y2006142D01*
X1151686Y1900834D01*
X1150924Y1896973D01*
X1148740Y1893671D01*
X1145438Y1891487D01*
X1141526Y1890674D01*
X1120698Y1890674D01*
X1114348Y1889963D01*
X1108913Y1888083D01*
X1103985Y1884984D01*
X1099921Y1880920D01*
X1096822Y1875993D01*
X1094943Y1870557D01*
X1094232Y1864207D01*
X1094232Y1855876D01*
X1093419Y1851964D01*
X1091234Y1848662D01*
X1087932Y1846478D01*
X1084072Y1845716D01*
X516178Y1845716D01*
X512267Y1846478D01*
X508965Y1848662D01*
X506780Y1851964D01*
X506018Y1855876D01*
X506018Y1864207D01*
X505256Y1870557D01*
X503377Y1875993D01*
X500278Y1880920D01*
X496214Y1884984D01*
X491286Y1888083D01*
X485851Y1889963D01*
X479501Y1890674D01*
X325678Y1890674D01*
X319328Y1889963D01*
X313893Y1888083D01*
X308965Y1884984D01*
X304901Y1880920D01*
X301802Y1875993D01*
X299923Y1870557D01*
X299212Y1864207D01*
X299212Y1735378D01*
X299923Y1729028D01*
X301802Y1723593D01*
X304901Y1718665D01*
X308965Y1714601D01*
X313893Y1711502D01*
X319328Y1709623D01*
X325678Y1708861D01*
X479501Y1708861D01*
X485851Y1709623D01*
X491286Y1711502D01*
X496214Y1714601D01*
X500278Y1718665D01*
X503377Y1723593D01*
X505256Y1729028D01*
X506018Y1735378D01*
X506018Y1743710D01*
X506780Y1747621D01*
X508965Y1750923D01*
X512267Y1753107D01*
X516178Y1753870D01*
X1084072Y1753870D01*
X1087932Y1753107D01*
X1091234Y1750923D01*
X1093419Y1747621D01*
X1094232Y1743710D01*
X1094232Y1735378D01*
X1094943Y1729028D01*
X1096822Y1723593D01*
X1099921Y1718665D01*
X1103985Y1714601D01*
X1108913Y1711502D01*
X1114348Y1709623D01*
X1120698Y1708861D01*
X1274521Y1708861D01*
X1280871Y1709623D01*
X1286306Y1711502D01*
X1291234Y1714601D01*
X1295298Y1718665D01*
X1298397Y1723593D01*
X1300276Y1729028D01*
X1301038Y1735378D01*
X1301038Y1743760D01*
X1301800Y1747672D01*
X1303985Y1750974D01*
X1307287Y1753158D01*
X1311198Y1753920D01*
X1525117Y1753920D01*
X1528724Y1753260D01*
X1531874Y1751330D01*
X1534109Y1748434D01*
X1535176Y1744929D01*
X1535531Y1741728D01*
X1537462Y1736293D01*
X1540560Y1731365D01*
X1544624Y1727301D01*
X1550111Y1723847D01*
X1552651Y1721561D01*
X1554276Y1718614D01*
X1554886Y1715211D01*
X1554480Y1566519D01*
X1553616Y1562455D01*
X1551228Y1559102D01*
X1547672Y1556969D01*
X1543964Y1555699D01*
X1539087Y1552600D01*
X1534972Y1548485D01*
X1531924Y1543608D01*
X1529994Y1538122D01*
X1529283Y1531823D01*
X1529283Y1452981D01*
X1529994Y1446631D01*
X1531924Y1441196D01*
X1534972Y1436268D01*
X1539087Y1432204D01*
X1540967Y1430985D01*
X1543913Y1428191D01*
X1545539Y1424432D01*
X1545539Y1420368D01*
X1543913Y1416608D01*
X1540967Y1413814D01*
X1539087Y1412595D01*
X1534972Y1408531D01*
X1531924Y1403604D01*
X1529994Y1398168D01*
X1529283Y1391818D01*
X1529283Y1378762D01*
X1571345Y1378762D01*
X1571345Y1416304D01*
X1572107Y1420215D01*
X1574342Y1423517D01*
X1577644Y1425702D01*
X1581505Y1426464D01*
X1618894Y1426464D01*
X1622755Y1425702D01*
X1626057Y1423517D01*
X1628292Y1420215D01*
X1629054Y1416304D01*
X1629054Y1378762D01*
X1671116Y1378762D01*
X1671116Y1391818D01*
X1670405Y1398168D01*
X1668475Y1403604D01*
X1665427Y1408531D01*
X1661312Y1412595D01*
X1659432Y1413814D01*
X1656486Y1416608D01*
X1654860Y1420368D01*
X1654860Y1424432D01*
X1656486Y1428191D01*
X1659432Y1430985D01*
X1661312Y1432204D01*
X1665427Y1436268D01*
X1668475Y1441196D01*
X1670405Y1446631D01*
X1671116Y1452981D01*
X1671116Y1531823D01*
X1670405Y1538122D01*
X1668475Y1543608D01*
X1665427Y1548485D01*
X1661312Y1552600D01*
X1656435Y1555699D01*
X1653082Y1556816D01*
X1649526Y1559001D01*
X1647139Y1562354D01*
X1646275Y1566468D01*
X1646682Y1714957D01*
X1647240Y1718310D01*
X1648917Y1721307D01*
X1651507Y1723542D01*
X1657553Y1727301D01*
X1661617Y1731365D01*
X1664665Y1736293D01*
X1666798Y1742338D01*
X1668932Y1745894D01*
X1672336Y1748332D01*
X1676400Y1749145D01*
X1680464Y1748332D01*
X1683867Y1745894D01*
X1686001Y1742338D01*
X1688134Y1736293D01*
X1691182Y1731365D01*
X1695297Y1727301D01*
X1700174Y1724202D01*
X1705660Y1722323D01*
X1711960Y1721612D01*
X1791462Y1721612D01*
X1797812Y1722323D01*
X1803247Y1724202D01*
X1808175Y1727301D01*
X1812239Y1731365D01*
X1815338Y1736293D01*
X1816252Y1738884D01*
X1817979Y1741982D01*
X1820621Y1744268D01*
X1823923Y1745538D01*
X1826361Y1745996D01*
X1834642Y1748739D01*
X1842007Y1752854D01*
X1848916Y1758594D01*
X1900580Y1810308D01*
X1905914Y1817370D01*
X1909673Y1824939D01*
X1911959Y1833067D01*
X1912823Y1841957D01*
X1912823Y2148484D01*
X1913585Y2152345D01*
X1915769Y2155647D01*
X1968754Y2208631D01*
X1972056Y2210816D01*
X1975916Y2211578D01*
X1979828Y2210816D01*
X1983130Y2208631D01*
X1985314Y2205329D01*
X1986076Y2201418D01*
X1986127Y2169922D01*
X1987346Y2161184D01*
X1990039Y2153158D01*
X1994154Y2145792D01*
X1999894Y2138883D01*
X2027224Y2111552D01*
X2029561Y2107895D01*
X2030120Y2103577D01*
X2028850Y2099411D01*
X2025954Y2096160D01*
X2021941Y2094433D01*
X2011883Y2092452D01*
X2000961Y2088540D01*
X1990750Y2083003D01*
X1981504Y2075942D01*
X1973478Y2067560D01*
X1966772Y2058060D01*
X1961642Y2047646D01*
X1958136Y2036572D01*
X1956358Y2025091D01*
X1956358Y2013508D01*
X1958136Y2002028D01*
X1961642Y1990953D01*
X1966772Y1980539D01*
X1973478Y1971039D01*
X1981504Y1962657D01*
X1990750Y1955596D01*
X2000961Y1950059D01*
X2011883Y1946148D01*
X2023313Y1943912D01*
X2034895Y1943455D01*
X2046427Y1944827D01*
X2057654Y1947875D01*
X2068271Y1952650D01*
X2077974Y1958949D01*
X2086660Y1966671D01*
X2089150Y1969719D01*
X2092655Y1972411D01*
X2096973Y1973376D01*
X3372916Y1973376D01*
X3376828Y1972614D01*
X3380130Y1970430D01*
X3382314Y1967128D01*
X3383076Y1963216D01*
X3383127Y1280922D01*
X3384346Y1272184D01*
X3387039Y1264158D01*
X3391154Y1256792D01*
X3396894Y1249883D01*
X3601008Y1045819D01*
X3608070Y1040485D01*
X3615639Y1036726D01*
X3623767Y1034440D01*
X3632657Y1033576D01*
X4307840Y1033576D01*
X4311751Y1032814D01*
X4315002Y1030630D01*
X4317238Y1027328D01*
X4318000Y1023416D01*
X4318000Y174904D01*
X4317238Y171043D01*
X4315002Y167741D01*
X4311751Y165506D01*
X4296410Y159207D01*
X4293412Y157734D01*
X4279087Y149809D01*
X4276242Y148031D01*
X4262882Y138582D01*
X4260291Y136499D01*
X4248048Y125577D01*
X4234789Y110998D01*
X4232706Y108407D01*
X4223207Y94996D01*
X4221429Y92202D01*
X4213504Y77825D01*
X4212031Y74828D01*
X4205782Y59690D01*
X4204665Y56540D01*
X4201464Y45466D01*
X4199432Y41656D01*
X4195927Y39014D01*
X4191711Y38100D01*
X2984500Y38100D01*
X-2540Y25908D01*
G37*

%LPC*%
G36*
X614527Y249072D02*
G01*
X640740Y250088D01*
X666800Y253034D01*
X692607Y257911D01*
X717956Y264668D01*
X742696Y273354D01*
X766775Y283819D01*
X789940Y296113D01*
X812190Y310083D01*
X833272Y325628D01*
X853186Y342747D01*
X871728Y361340D01*
X888847Y381203D01*
X904443Y402336D01*
X918413Y424535D01*
X930656Y447751D01*
X941171Y471779D01*
X949807Y496570D01*
X956614Y521919D01*
X961491Y547674D01*
X964437Y573786D01*
X965403Y599998D01*
X964437Y626211D01*
X961491Y652272D01*
X956614Y678078D01*
X949807Y703427D01*
X941171Y728218D01*
X930656Y752246D01*
X918413Y775462D01*
X904443Y797661D01*
X888847Y818794D01*
X871728Y838657D01*
X853186Y857250D01*
X833272Y874318D01*
X812190Y889914D01*
X789940Y903884D01*
X766775Y916127D01*
X742696Y926642D01*
X717956Y935329D01*
X692607Y942086D01*
X666800Y946962D01*
X640740Y949909D01*
X614527Y950874D01*
X588264Y949909D01*
X562203Y946962D01*
X536397Y942086D01*
X511048Y935329D01*
X486308Y926642D01*
X462229Y916127D01*
X439064Y903884D01*
X416814Y889914D01*
X395732Y874318D01*
X375818Y857250D01*
X357276Y838657D01*
X340156Y818794D01*
X324561Y797661D01*
X310591Y775462D01*
X298348Y752246D01*
X287832Y728218D01*
X279196Y703427D01*
X272389Y678078D01*
X267512Y652272D01*
X264566Y626211D01*
X263601Y599998D01*
X264566Y573786D01*
X267512Y547674D01*
X272389Y521919D01*
X279196Y496570D01*
X287832Y471779D01*
X298348Y447751D01*
X310591Y424535D01*
X324561Y402336D01*
X340156Y381203D01*
X357276Y361340D01*
X375818Y342747D01*
X395732Y325628D01*
X416814Y310083D01*
X439064Y296113D01*
X462229Y283819D01*
X486308Y273354D01*
X511048Y264668D01*
X536397Y257911D01*
X562203Y253034D01*
X588264Y250088D01*
G37*
G36*
X1120698Y1258874D02*
G01*
X1152499Y1258874D01*
X1152499Y1310944D01*
X1094232Y1310944D01*
X1094232Y1285392D01*
X1094943Y1279042D01*
X1096822Y1273606D01*
X1099921Y1268679D01*
X1103985Y1264615D01*
X1108913Y1261516D01*
X1114348Y1259636D01*
G37*
G36*
X325678Y1258874D02*
G01*
X357479Y1258874D01*
X357479Y1310944D01*
X299212Y1310944D01*
X299212Y1285392D01*
X299923Y1279042D01*
X301802Y1273606D01*
X304901Y1268679D01*
X308965Y1264615D01*
X313893Y1261516D01*
X319328Y1259636D01*
G37*
G36*
X447700Y1258874D02*
G01*
X479501Y1258874D01*
X485851Y1259636D01*
X491286Y1261516D01*
X496214Y1264615D01*
X500278Y1268679D01*
X503377Y1273606D01*
X505256Y1279042D01*
X506018Y1285392D01*
X506018Y1310944D01*
X447700Y1310944D01*
G37*
G36*
X1242720Y1258874D02*
G01*
X1274521Y1258874D01*
X1280871Y1259636D01*
X1286306Y1261516D01*
X1291234Y1264615D01*
X1295298Y1268679D01*
X1298397Y1273606D01*
X1300276Y1279042D01*
X1301038Y1285392D01*
X1301038Y1310944D01*
X1242720Y1310944D01*
G37*
G36*
X1629054Y1286510D02*
G01*
X1644650Y1286510D01*
X1650949Y1287221D01*
X1656435Y1289100D01*
X1661312Y1292199D01*
X1665427Y1296314D01*
X1668475Y1301191D01*
X1670405Y1306677D01*
X1671116Y1312976D01*
X1671116Y1326083D01*
X1629054Y1326083D01*
G37*
G36*
X1555750Y1286510D02*
G01*
X1571345Y1286510D01*
X1571345Y1326083D01*
X1529283Y1326083D01*
X1529283Y1312976D01*
X1529994Y1306677D01*
X1531924Y1301191D01*
X1534972Y1296314D01*
X1539087Y1292199D01*
X1543964Y1289100D01*
X1549450Y1287221D01*
G37*
G36*
X1094232Y1388668D02*
G01*
X1152499Y1388668D01*
X1152499Y1440688D01*
X1120698Y1440688D01*
X1114348Y1439976D01*
X1108913Y1438097D01*
X1103985Y1434998D01*
X1099921Y1430934D01*
X1096822Y1426006D01*
X1094943Y1420571D01*
X1094232Y1414221D01*
G37*
G36*
X1242720Y1388668D02*
G01*
X1301038Y1388668D01*
X1301038Y1414221D01*
X1300276Y1420571D01*
X1298397Y1426006D01*
X1295298Y1430934D01*
X1291234Y1434998D01*
X1286306Y1438097D01*
X1280871Y1439976D01*
X1274521Y1440688D01*
X1242720Y1440688D01*
G37*
G36*
X447700Y1388668D02*
G01*
X506018Y1388668D01*
X506018Y1414221D01*
X505256Y1420571D01*
X503377Y1426006D01*
X500278Y1430934D01*
X496214Y1434998D01*
X491286Y1438097D01*
X485851Y1439976D01*
X479501Y1440688D01*
X447700Y1440688D01*
G37*
G36*
X299212Y1388668D02*
G01*
X357479Y1388668D01*
X357479Y1440688D01*
X325678Y1440688D01*
X319328Y1439976D01*
X313893Y1438097D01*
X308965Y1434998D01*
X304901Y1430934D01*
X301802Y1426006D01*
X299923Y1420571D01*
X299212Y1414221D01*
G37*
G36*
X685800Y2503119D02*
G01*
X700328Y2504033D01*
X714603Y2506776D01*
X728472Y2511247D01*
X741629Y2517444D01*
X753922Y2525268D01*
X765149Y2534513D01*
X775106Y2545130D01*
X783640Y2556916D01*
X790651Y2569667D01*
X796036Y2583180D01*
X799642Y2597302D01*
X801471Y2611729D01*
X801471Y2626258D01*
X799642Y2640736D01*
X796036Y2654808D01*
X790651Y2668320D01*
X783640Y2681122D01*
X775106Y2692857D01*
X765149Y2703474D01*
X753922Y2712770D01*
X741629Y2720543D01*
X728472Y2726740D01*
X714603Y2731262D01*
X700328Y2733954D01*
X685800Y2734868D01*
X671271Y2733954D01*
X656996Y2731262D01*
X643128Y2726740D01*
X629970Y2720543D01*
X617677Y2712770D01*
X606450Y2703474D01*
X596493Y2692857D01*
X587959Y2681122D01*
X580948Y2668320D01*
X575564Y2654808D01*
X571957Y2640736D01*
X570128Y2626258D01*
X570128Y2611729D01*
X571957Y2597302D01*
X575564Y2583180D01*
X580948Y2569667D01*
X587959Y2556916D01*
X596493Y2545130D01*
X606450Y2534513D01*
X617677Y2525268D01*
X629970Y2517444D01*
X643128Y2511247D01*
X656996Y2506776D01*
X671271Y2504033D01*
G37*
G36*
X737158Y2769362D02*
G01*
X741629Y2771444D01*
X753922Y2779268D01*
X765149Y2788513D01*
X775106Y2799130D01*
X783640Y2810916D01*
X789533Y2821635D01*
X737158Y2821635D01*
G37*
G36*
X634441Y2769362D02*
G01*
X634441Y2821635D01*
X582066Y2821635D01*
X587959Y2810916D01*
X596493Y2799130D01*
X606450Y2788513D01*
X617677Y2779268D01*
X629970Y2771444D01*
G37*
G36*
X582066Y2924352D02*
G01*
X634441Y2924352D01*
X634441Y2976676D01*
X629970Y2974543D01*
X617677Y2966770D01*
X606450Y2957474D01*
X596493Y2946857D01*
X587959Y2935122D01*
G37*
G36*
X737158Y2924352D02*
G01*
X789533Y2924352D01*
X783640Y2935122D01*
X775106Y2946857D01*
X765149Y2957474D01*
X753922Y2966770D01*
X741629Y2974543D01*
X737158Y2976676D01*
G37*
G36*
X685800Y3011119D02*
G01*
X700328Y3012033D01*
X714603Y3014776D01*
X728472Y3019247D01*
X741629Y3025444D01*
X753922Y3033268D01*
X765149Y3042513D01*
X775106Y3053130D01*
X783640Y3064916D01*
X790651Y3077667D01*
X796036Y3091180D01*
X799642Y3105302D01*
X801471Y3119729D01*
X801471Y3134258D01*
X799642Y3148736D01*
X796036Y3162808D01*
X790651Y3176320D01*
X783640Y3189122D01*
X775106Y3200857D01*
X765149Y3211474D01*
X753922Y3220770D01*
X741629Y3228543D01*
X728472Y3234740D01*
X714603Y3239262D01*
X700328Y3241954D01*
X685800Y3242868D01*
X671271Y3241954D01*
X656996Y3239262D01*
X643128Y3234740D01*
X629970Y3228543D01*
X617677Y3220770D01*
X606450Y3211474D01*
X596493Y3200857D01*
X587959Y3189122D01*
X580948Y3176320D01*
X575564Y3162808D01*
X571957Y3148736D01*
X570128Y3134258D01*
X570128Y3119729D01*
X571957Y3105302D01*
X575564Y3091180D01*
X580948Y3077667D01*
X587959Y3064916D01*
X596493Y3053130D01*
X606450Y3042513D01*
X617677Y3033268D01*
X629970Y3025444D01*
X643128Y3019247D01*
X656996Y3014776D01*
X671271Y3012033D01*
G37*
G36*
X685800Y3265119D02*
G01*
X700328Y3266033D01*
X714603Y3268776D01*
X728472Y3273247D01*
X741629Y3279444D01*
X753922Y3287268D01*
X765149Y3296513D01*
X775106Y3307130D01*
X783640Y3318916D01*
X790651Y3331667D01*
X796036Y3345179D01*
X799642Y3359302D01*
X801471Y3373729D01*
X801471Y3388258D01*
X799642Y3402736D01*
X796036Y3416808D01*
X790651Y3430320D01*
X783640Y3443122D01*
X775106Y3454857D01*
X765149Y3465474D01*
X753922Y3474770D01*
X741629Y3482543D01*
X728472Y3488740D01*
X714603Y3493262D01*
X700328Y3495954D01*
X685800Y3496868D01*
X671271Y3495954D01*
X656996Y3493262D01*
X643128Y3488740D01*
X629970Y3482543D01*
X617677Y3474770D01*
X606450Y3465474D01*
X596493Y3454857D01*
X587959Y3443122D01*
X580948Y3430320D01*
X575564Y3416808D01*
X571957Y3402736D01*
X570128Y3388258D01*
X570128Y3373729D01*
X571957Y3359302D01*
X575564Y3345179D01*
X580948Y3331667D01*
X587959Y3318916D01*
X596493Y3307130D01*
X606450Y3296513D01*
X617677Y3287268D01*
X629970Y3279444D01*
X643128Y3273247D01*
X656996Y3268776D01*
X671271Y3266033D01*
G37*
G36*
X685800Y3519119D02*
G01*
X700328Y3520033D01*
X714603Y3522776D01*
X728472Y3527247D01*
X741629Y3533444D01*
X753922Y3541268D01*
X765149Y3550513D01*
X775106Y3561130D01*
X783640Y3572916D01*
X790651Y3585667D01*
X796036Y3599179D01*
X799642Y3613302D01*
X801471Y3627729D01*
X801471Y3642258D01*
X799642Y3656736D01*
X796036Y3670808D01*
X790651Y3684320D01*
X783640Y3697122D01*
X775106Y3708857D01*
X765149Y3719474D01*
X753922Y3728770D01*
X741629Y3736543D01*
X728472Y3742740D01*
X714603Y3747262D01*
X700328Y3749954D01*
X685800Y3750868D01*
X671271Y3749954D01*
X656996Y3747262D01*
X643128Y3742740D01*
X629970Y3736543D01*
X617677Y3728770D01*
X606450Y3719474D01*
X596493Y3708857D01*
X587959Y3697122D01*
X580948Y3684320D01*
X575564Y3670808D01*
X571957Y3656736D01*
X570128Y3642258D01*
X570128Y3627729D01*
X571957Y3613302D01*
X575564Y3599179D01*
X580948Y3585667D01*
X587959Y3572916D01*
X596493Y3561130D01*
X606450Y3550513D01*
X617677Y3541268D01*
X629970Y3533444D01*
X643128Y3527247D01*
X656996Y3522776D01*
X671271Y3520033D01*
G37*
G36*
X614527Y6049111D02*
G01*
X640740Y6050076D01*
X666800Y6053023D01*
X692607Y6057900D01*
X717956Y6064707D01*
X742696Y6073343D01*
X766775Y6083858D01*
X789940Y6096101D01*
X812190Y6110071D01*
X833272Y6125667D01*
X853186Y6142786D01*
X871728Y6161328D01*
X888847Y6181191D01*
X904443Y6202324D01*
X918413Y6224524D01*
X930656Y6247739D01*
X941171Y6271818D01*
X949807Y6296558D01*
X956614Y6321907D01*
X961491Y6347714D01*
X964437Y6373774D01*
X965403Y6399987D01*
X964437Y6426200D01*
X961491Y6452311D01*
X956614Y6478066D01*
X949807Y6503416D01*
X941171Y6528206D01*
X930656Y6552234D01*
X918413Y6575450D01*
X904443Y6597650D01*
X888847Y6618782D01*
X871728Y6638645D01*
X853186Y6657238D01*
X833272Y6674358D01*
X812190Y6689902D01*
X789940Y6703872D01*
X766775Y6716166D01*
X742696Y6726631D01*
X717956Y6735318D01*
X692607Y6742125D01*
X666800Y6747002D01*
X640740Y6749897D01*
X614527Y6750913D01*
X588264Y6749897D01*
X562203Y6747002D01*
X536397Y6742125D01*
X511048Y6735318D01*
X486308Y6726631D01*
X462229Y6716166D01*
X439064Y6703872D01*
X416814Y6689902D01*
X395732Y6674358D01*
X375818Y6657238D01*
X357276Y6638645D01*
X340156Y6618782D01*
X324561Y6597650D01*
X310591Y6575450D01*
X298348Y6552234D01*
X287832Y6528206D01*
X279196Y6503416D01*
X272389Y6478066D01*
X267512Y6452311D01*
X264566Y6426200D01*
X263601Y6399987D01*
X264566Y6373774D01*
X267512Y6347714D01*
X272389Y6321907D01*
X279196Y6296558D01*
X287832Y6271818D01*
X298348Y6247739D01*
X310591Y6224524D01*
X324561Y6202324D01*
X340156Y6181191D01*
X357276Y6161328D01*
X375818Y6142786D01*
X395732Y6125667D01*
X416814Y6110071D01*
X439064Y6096101D01*
X462229Y6083858D01*
X486308Y6073343D01*
X511048Y6064707D01*
X536397Y6057900D01*
X562203Y6053023D01*
X588264Y6050076D01*
G37*

%LPD*%
G36*
X6997700Y5207000D02*
G01*
X6997700Y4546600D01*
X7327900Y4546600D01*
X7327900Y5207000D01*
G37*
D10*
X2191004Y2844800D02*
G01*
X2191004Y2914904D01*
X2283713Y3007613D01*
X2283713Y3302000D01*
X7531100Y3844010D02*
G01*
X7531100Y3683000D01*
X7607300Y3606800D01*
X9448800Y3606800D01*
X10083800Y4241800D01*
X10083800Y5918200D01*
X9994900Y6007100D01*
X9156700Y6007100D01*
X1027584Y5199992D02*
G01*
X1027684Y5194300D01*
X177800Y5194300D01*
X114300Y5130800D01*
X114300Y4114800D01*
X3632200Y2413000D02*
G01*
X3632200Y2552700D01*
X3683000Y2603500D01*
X3784600Y2603500D01*
X3835400Y2552700D01*
X3835400Y2423668D01*
X2279395Y4432300D02*
G01*
X2279395Y4565395D01*
X2362200Y4648200D01*
X2667000Y4648200D01*
X2794000Y4775200D01*
X279145Y2870200D02*
G01*
X203200Y2946400D01*
X203200Y3543300D01*
X292100Y3632200D01*
X393700Y3632200D01*
X482600Y3721100D01*
X203200Y2794000D02*
G01*
X279145Y2870200D01*
X683005Y2870200D01*
X685800Y2872994D01*
X2348743Y4002026D02*
G01*
X2348743Y4254500D01*
X2279500Y4323742D01*
X2279500Y4432300D01*
X3543300Y1905000D02*
G01*
X3632200Y1815845D01*
X3632200Y1422400D01*
X3721100Y1333500D01*
X3873500Y1333500D01*
X3962400Y1422400D01*
X3962400Y1868931D01*
X2032000Y2019300D02*
G01*
X3429000Y2019300D01*
X3429000Y1282700D01*
X3632200Y1079500D01*
X4483100Y1079500D01*
X4597400Y965200D01*
X4597400Y469900D01*
X4709668Y357631D01*
X5148579Y357631D01*
X2705100Y3784600D02*
G01*
X2616200Y3695700D01*
X2374900Y3695700D01*
X2283713Y3786886D01*
X2283713Y4002023D01*
D11*
X1473200Y6083300D02*
G01*
X1473200Y6616700D01*
X1485900Y6616700D01*
D10*
X402589Y1349755D02*
G01*
X288544Y1349755D01*
X203200Y1435100D01*
X203200Y2794000D01*
X342900Y3949700D02*
G01*
X342900Y4000500D01*
X203200Y4140200D01*
X203200Y4907285D01*
X295907Y4999992D01*
X1027584Y4999992D01*
X3835400Y1869059D02*
G01*
X3835400Y1651000D01*
X2543809Y4002023D02*
G01*
X2543809Y4169410D01*
X2717800Y4343400D01*
X2717800Y4419600D01*
X2667000Y4470400D01*
X2578100Y4470400D01*
X4095998Y2705100D02*
G01*
X4095998Y2953004D01*
X4127500Y2984505D01*
X4127500Y3136900D01*
X8458200Y5930900D02*
G01*
X8642200Y5930900D01*
X8835136Y5432805D02*
G01*
X8839200Y5436870D01*
X8839200Y5715000D01*
X8915400Y5791200D01*
X9340595Y5791200D01*
X8782304Y5930900D02*
G01*
X8902700Y5930900D01*
X9042400Y5791200D01*
X9154668Y5791200D01*
X9156700Y6007100D02*
G01*
X8890000Y6273800D01*
X8890000Y6273800D02*
G01*
X8072386Y6273800D01*
X7899151Y6100569D01*
X7899151Y5849876D01*
X9340601Y5791200D02*
G01*
X9340601Y5886195D01*
X9385300Y5930900D01*
X9944100Y5930900D01*
X10007600Y5867400D01*
X10007600Y4292600D01*
X9550400Y3835400D01*
X8915400Y3835400D01*
X8267700Y5543804D02*
G01*
X8267700Y5727700D01*
X8331200Y5791200D01*
X8994393Y5791200D01*
X8782199Y5930900D02*
G01*
X8782199Y6146800D01*
X8642200Y5930900D02*
G01*
X8642200Y6146800D01*
X1958797Y3302000D02*
G01*
X1958797Y3489502D01*
X1905000Y3543300D01*
X1727200Y3517900D02*
G01*
X1727200Y3200400D01*
X1778000Y3149600D01*
X1845563Y3149600D01*
X1893823Y3197860D01*
X1893823Y3302000D01*
X1739900Y3060700D02*
G01*
X1917700Y3060700D01*
X2023795Y3166795D01*
X2023795Y3302000D01*
X5156961Y4203700D02*
G01*
X3632200Y4203700D01*
X3403600Y3975100D01*
X3403600Y3581400D01*
X3276600Y3454400D01*
X2298700Y3454400D01*
X2153665Y3599434D01*
X2153665Y4002023D01*
X1822602Y2578100D02*
G01*
X2050900Y2576286D01*
X2032000Y2336800D02*
G01*
X2050900Y2336800D01*
X2050900Y2844800D01*
X1822704Y2844800D02*
G01*
X1892300Y2844800D01*
X2153665Y3106165D01*
X2153665Y3302000D01*
X1751837Y1790700D02*
G01*
X1816100Y1790700D01*
X1866900Y1841500D01*
X1866900Y2171700D01*
X2032000Y2336800D01*
X2184400Y2330295D02*
G01*
X2038504Y2330295D01*
X2032000Y2336800D01*
X2346449Y2330500D02*
G01*
X2346449Y2330500D01*
X2492247Y2330500D01*
X2050897Y2844800D02*
G01*
X2050897Y2901797D01*
X2218692Y3069592D01*
X2218692Y3302000D01*
X2673858Y3302000D02*
G01*
X2679700Y3296157D01*
X2679700Y2844800D01*
X2984500Y3048000D02*
G01*
X2984500Y2831238D01*
X2971800Y2818538D01*
X9481814Y5537200D02*
G01*
X9481814Y5389879D01*
X9548873Y5322826D01*
X9752073Y5322826D01*
X9918700Y5156200D01*
X9918700Y4343400D01*
X9550400Y3975100D01*
X8915400Y3975100D01*
X8770111Y5432805D02*
G01*
X8770111Y5288787D01*
X8826500Y5232400D01*
X9220200Y5232400D01*
X9288779Y5300979D01*
X9288779Y5537200D01*
X8705118Y5432803D02*
G01*
X8705118Y5288810D01*
X8667899Y5251587D01*
X8585200Y5251587D01*
X8585200Y5248722D01*
X8479977Y5143500D01*
X8364326Y5143500D01*
X8267700Y5403695D02*
G01*
X8171078Y5307073D01*
X8171078Y5143500D01*
X9480804Y5791200D02*
G01*
X9481820Y5537200D01*
X1542895Y2197100D02*
G01*
X1485900Y2197100D01*
X1422400Y2133600D01*
X1422400Y2019300D01*
X2971800Y2667762D02*
G01*
X2971038Y2667000D01*
X2489200Y2667000D01*
X1027584Y4599993D02*
G01*
X1027584Y4481984D01*
X952500Y4406900D01*
X850900Y4406900D01*
X1197610Y1799844D02*
G01*
X1600962Y1799844D01*
X1600962Y1790700D01*
X1600200Y1352397D02*
G01*
X1597606Y1349804D01*
X1197602Y1349804D01*
X1600962Y1790700D02*
G01*
X1600200Y1492504D01*
X1197602Y1799790D02*
G01*
X1197602Y2006600D01*
X1294536Y2103534D01*
X1294536Y2362200D01*
X402579Y1799790D02*
G01*
X1197602Y1799790D01*
X402579Y1349801D02*
G01*
X1197602Y1349801D01*
X685800Y2364994D02*
G01*
X688594Y2362200D01*
X1143863Y2362200D01*
X2673858Y4002023D02*
G01*
X2673858Y4172457D01*
X2781300Y4279900D01*
X2959100Y4279900D01*
X3035300Y4203700D01*
X3035300Y3733800D01*
X3200400Y4318000D02*
G01*
X3340100Y4318000D01*
X3529073Y4506973D01*
X3529073Y4736592D01*
X4099991Y5979998D02*
G01*
X4099991Y5611291D01*
X4051300Y5562600D01*
X4051300Y5105400D01*
X3911600Y5499100D02*
G01*
X3911600Y5067300D01*
X3789172Y4944871D01*
X3789172Y4736592D01*
X3464052Y4736592D02*
G01*
X3464052Y4899152D01*
X3568700Y5003800D01*
X3733800Y5003800D01*
X3789172Y4948428D01*
X3789172Y4894579D01*
X1027582Y4799990D02*
G01*
X1359509Y4799990D01*
X1447800Y4711700D01*
X1673402Y5308600D02*
G01*
X1478279Y5308600D01*
X1473200Y5303520D01*
X2184400Y2330297D02*
G01*
X2184603Y2330500D01*
X2359149Y2330500D01*
X2184400Y2470302D02*
G01*
X2184400Y2667000D01*
X2184400Y2667000D02*
G01*
X2190899Y2673499D01*
X2190899Y2844800D01*
X2492250Y2495499D02*
G01*
X2492250Y2663949D01*
X2489200Y2667000D01*
X2359149Y2495499D02*
G01*
X2362200Y2498552D01*
X2362200Y2667863D01*
X2218791Y3302000D02*
G01*
X2216000Y3299203D01*
X3529075Y5296407D02*
G01*
X3529075Y5065776D01*
X3454400Y4991100D01*
X2806700Y4991100D01*
X2540000Y4724400D01*
X1587500Y4724400D01*
X1311910Y4999989D01*
X1027684Y4999989D01*
X2478806Y4002001D02*
G01*
X2478806Y4244106D01*
X2578100Y4343400D01*
X1664462Y4533900D02*
G01*
X1664462Y4431537D01*
X1727200Y4368800D01*
X2019300Y4368800D01*
X1815236Y4533900D02*
G01*
X2070100Y4533900D01*
X2171700Y4432300D01*
X2279500Y4432300D01*
X1664563Y4533900D02*
G01*
X1664563Y4647336D01*
X1562100Y4749800D01*
X2419604Y4432300D02*
G01*
X2419604Y4515104D01*
X2476500Y4572000D01*
X3352800Y4572000D01*
X3399027Y4618228D01*
X3399027Y4736592D01*
X2419499Y4432300D02*
G01*
X2413817Y4426607D01*
X2413817Y4002001D01*
X2844800Y5358637D02*
G01*
X3162300Y5358637D01*
X3162300Y5366004D01*
X3162300Y5366004D02*
G01*
X3162300Y5448300D01*
X3200400Y5486400D01*
X3352800Y5486400D01*
X3399027Y5440171D01*
X3399027Y5296407D01*
X2425700Y6324600D02*
G01*
X2362200Y6324600D01*
X2301900Y6264300D01*
X2301900Y5991885D01*
X2701899Y5991885D02*
G01*
X2701899Y6194399D01*
X2755900Y6248400D01*
X4648200Y6248400D01*
X4700015Y6196584D01*
X4700015Y5979919D01*
X4406900Y5499100D02*
G01*
X4406900Y5651500D01*
X4500003Y5744603D01*
X4500003Y5980013D01*
X4299965Y5979921D02*
G01*
X4299965Y5557265D01*
X4178300Y5435600D01*
X4178300Y5041900D01*
X4051300Y4914900D01*
X4051300Y4597400D01*
X3924300Y4470400D01*
X3736847Y4470400D01*
X3659124Y4548123D01*
X3659124Y4736592D01*
X3724097Y4736490D02*
G01*
X3724097Y4594402D01*
X3771900Y4546600D01*
X3848100Y4546600D01*
X3898900Y4597400D01*
X3898900Y4724400D01*
X3399104Y4736490D02*
G01*
X3464102Y4736490D01*
X3403600Y6006337D02*
G01*
X3403600Y6159500D01*
X3492500Y6248400D01*
X3589020Y6248400D01*
X3581400Y6006236D02*
G01*
X3581400Y6153680D01*
X3676119Y6248400D01*
X3578329Y5499100D02*
G01*
X3601720Y5499100D01*
X3659124Y5446776D01*
X3659124Y5296407D01*
X2901899Y5991885D02*
G01*
X2901899Y5632500D01*
X2971800Y5562600D01*
X3391656Y5561837D01*
X3454400Y5499100D01*
X3578324Y5499100D01*
X3581400Y5855462D02*
G01*
X3758438Y5855462D01*
X3822700Y5791200D01*
X3822700Y5626100D01*
X3403600Y5855462D02*
G01*
X3403600Y5687060D01*
X3352800Y5626100D01*
X3724147Y5296407D02*
G01*
X3724147Y5534152D01*
X3632200Y5626100D01*
X3187700Y5626100D01*
X3124200Y5689600D01*
X3124200Y5981700D01*
X3784600Y5130800D02*
G01*
X3789095Y5135295D01*
X3789095Y5296509D01*
X3594100Y4736490D02*
G01*
X3594100Y4902200D01*
X2947263Y4775200D02*
G01*
X2794000Y4775200D01*
X4178300Y4889500D02*
G01*
X4305300Y5016500D01*
X4660900Y5016494D01*
X4800600Y5156194D01*
X4800600Y5322163D01*
X4900005Y5980013D02*
G01*
X4900005Y5666402D01*
X4965700Y5600705D01*
X4965700Y5372094D01*
X4915768Y5322163D01*
X4800600Y5322163D01*
X4597400Y5472836D02*
G01*
X4597400Y5611365D01*
X4700015Y5713984D01*
X4800600Y5472937D02*
G01*
X4800600Y5613400D01*
X4700015Y5713984D01*
X4700015Y5979921D01*
X4597400Y5322163D02*
G01*
X4597400Y5245100D01*
X4495800Y5143500D01*
X4279900Y5143500D01*
X4178300Y5041900D01*
X2984500Y5181600D02*
G01*
X2871063Y5181600D01*
X2844800Y5207863D01*
X2501900Y5991885D02*
G01*
X2501900Y6223000D01*
X2616200Y6337300D01*
X3505200Y6337300D01*
X3098038Y4775200D02*
G01*
X3187700Y4775200D01*
X3225800Y4813300D01*
X3225800Y4902200D01*
X3162300Y5225895D02*
G01*
X3244695Y5143500D01*
X3314700Y5143500D01*
X1294637Y2362200D02*
G01*
X1447800Y2362200D01*
X1524000Y2438400D01*
X1524000Y4152900D01*
X1587500Y4216400D01*
X1828800Y4216400D01*
X1893823Y4151376D01*
X1893823Y4002023D01*
X1828800Y4002023D02*
G01*
X1828800Y4114800D01*
X1790700Y4152900D01*
X1663700Y4152900D01*
X1612900Y4102100D01*
X1612900Y3771900D01*
X1682597Y2578100D02*
G01*
X1682597Y2844800D01*
X1683004Y2197100D02*
G01*
X1682495Y2578100D01*
X1682902Y2197100D02*
G01*
X1682902Y2019300D01*
X5151884Y2772661D02*
G01*
X5149601Y2349500D01*
X5289798Y2349500D02*
G01*
X5575300Y2349500D01*
X5664200Y2438400D01*
X5664200Y2772661D01*
X5659884Y2772661D01*
X5148597Y357746D02*
G01*
X5151909Y772690D01*
X5288534Y357634D02*
G01*
X5561584Y357634D01*
X5664200Y457200D01*
X5664200Y457200D02*
G01*
X5665304Y774837D01*
X3955900Y2705100D02*
G01*
X3962400Y2698595D01*
X3962400Y2423540D01*
X4095899Y2705100D02*
G01*
X4089400Y2698595D01*
X4089400Y2423540D01*
X3962400Y1869059D02*
G01*
X3962400Y2032000D01*
X4038600Y2108200D01*
X4140200Y2108200D01*
X4216400Y2032000D01*
X4216400Y1869059D01*
X4096021Y2108200D02*
G01*
X4089400Y2114829D01*
X4089400Y2423540D01*
X5405909Y772690D02*
G01*
X5405909Y1083790D01*
X5308600Y1181100D01*
X4178300Y1181100D01*
X4089400Y1270000D01*
X4089400Y1869059D01*
X4216400Y1384300D02*
G01*
X4216400Y1384300D01*
X4216400Y1869059D01*
X5659909Y772690D02*
G01*
X5659909Y1181100D01*
X5558309Y1282700D01*
X4318000Y1282700D01*
X4216400Y1384300D01*
X3429000Y2019300D02*
G01*
X3429000Y2032000D01*
X3517900Y2120900D01*
X3517900Y2616200D01*
X3606800Y2705100D01*
X3955795Y2705100D01*
D11*
X1027684Y5400039D02*
G01*
X1027684Y5612384D01*
X1143000Y5727700D01*
X1473200Y5727700D01*
D10*
X7442708Y5084571D02*
G01*
X7645400Y5084571D01*
X7643875Y4954523D01*
X7442708Y4954523D01*
X7442708Y4824476D02*
G01*
X7645400Y4824476D01*
X7645400Y4694428D01*
X7442708Y4694428D01*
X8640063Y4898136D02*
G01*
X8640063Y5006594D01*
D11*
X7782052Y5020818D02*
G01*
X7878318Y5020818D01*
X7881620Y5020884D01*
D10*
X8458200Y4826000D02*
G01*
X8598110Y4826000D01*
X8639868Y4867757D01*
X8640069Y4898138D01*
X8648700Y4749800D02*
G01*
X8705093Y4806187D01*
X8705093Y5006596D01*
X8336285Y4470400D02*
G01*
X8369300Y4470400D01*
X8394700Y4495800D01*
X8394700Y4762500D01*
X8458200Y4826000D01*
X8529314Y4470400D02*
G01*
X8496300Y4470400D01*
X8470900Y4508500D01*
X8470900Y4699000D01*
X8521700Y4749800D01*
X8648700Y4749800D01*
D11*
X8153400Y4470400D02*
G01*
X8336285Y4470400D01*
X7644643Y5020815D02*
G01*
X7907784Y5020815D01*
X8089900Y4838700D01*
X8089900Y4533900D01*
X8153400Y4470400D01*
X8966200Y4419600D02*
G01*
X9017000Y4470400D01*
X9187078Y4470400D01*
X8529421Y4470400D02*
G01*
X8712200Y4470400D01*
D10*
X8770111Y5006594D02*
G01*
X8770111Y4729987D01*
X8813800Y4686300D01*
X9220200Y4686300D01*
X9258300Y4648200D01*
X9258300Y4533900D01*
X9194800Y4470400D01*
X9187179Y4470400D01*
X8835136Y5006594D02*
G01*
X8835136Y4817363D01*
X8890000Y4762500D01*
X9283700Y4762500D01*
X9321800Y4724400D01*
X9321800Y4533900D01*
X9380220Y4475479D01*
X9380220Y4470400D01*
D11*
X6591300Y5549900D02*
G01*
X6592315Y5550915D01*
X6592315Y5852492D01*
X9380321Y4470400D02*
G01*
X9563100Y4470400D01*
X8089900Y5549900D02*
G01*
X8089900Y5850074D01*
X8092318Y5852492D01*
D10*
X6946900Y5765800D02*
G01*
X7061200Y5651500D01*
X7061200Y5543702D01*
X6946900Y5765800D02*
G01*
X6845300Y5664200D01*
X6845300Y5543702D01*
X6096000Y5615939D02*
G01*
X6096000Y5778500D01*
X6167374Y5849873D01*
X6399022Y5849873D01*
X6096000Y4825136D02*
G01*
X6096000Y5102860D01*
X6616700Y4813300D02*
G01*
X6757924Y4954523D01*
X6882891Y4954523D01*
X6882891Y4824476D02*
G01*
X6754875Y4824476D01*
X6311645Y4381500D01*
X5307838Y4381500D01*
X5307838Y4203700D02*
G01*
X6261100Y4203700D01*
X6751827Y4694428D01*
X6882891Y4694428D01*
X5307736Y4381500D02*
G01*
X5307736Y4572000D01*
X5638800Y4559300D02*
G01*
X5618225Y4579873D01*
X5537200Y4660900D01*
X5492750Y4705350D01*
X5307736Y4749800D02*
G01*
X5448300Y4749800D01*
X5626100Y4572000D01*
X5638800Y4559300D01*
X5638800Y4559300D02*
G01*
X6362700Y4559300D01*
X6616700Y4813300D01*
X2349500Y3543300D02*
G01*
X3238500Y3543300D01*
X3327400Y3632200D01*
X3327400Y4025900D01*
X3594100Y4292600D01*
X4724400Y4292600D01*
X4813300Y4381500D01*
X5156961Y4381500D01*
X2032000Y3771900D02*
G01*
X2023790Y3780109D01*
X2023790Y4002001D01*
X2608834Y4002023D02*
G01*
X2608834Y3828034D01*
X2578100Y3797300D01*
X2501900Y3797300D01*
X5156956Y4749800D02*
G01*
X4889500Y4749800D01*
X4813300Y4673600D01*
X4813300Y4483100D01*
X4711700Y4381500D01*
X3556000Y4381500D01*
X3225800Y4051300D01*
X3225800Y3683000D01*
X3175000Y3632200D01*
X2705100Y3632200D01*
X4927600Y4572000D02*
G01*
X5157063Y4572000D01*
X8640091Y5432803D02*
G01*
X8636000Y5436895D01*
X8636000Y5676900D01*
X5405884Y2772661D02*
G01*
X5405884Y2976115D01*
X5321300Y3060700D01*
X4330700Y3060700D01*
X4216400Y2946400D01*
X4216400Y2423665D01*
X4127500Y3136900D02*
G01*
X5575300Y3136900D01*
X5659884Y3052315D01*
X5659884Y2772661D01*
D11*
X7454900Y5418810D02*
G01*
X7644643Y5229067D01*
X7644643Y5020815D01*
D10*
X7454900Y5858763D02*
G01*
X7230363Y5858763D01*
X7137400Y5765800D01*
X6946900Y5765800D01*
X7454900Y5858789D02*
G01*
X7463690Y5849998D01*
X7454900Y5858763D02*
G01*
X7458963Y5854700D01*
X7620000Y5854700D01*
X7708900Y5765800D01*
X7708900Y5538215D01*
X7760970Y5487670D01*
X7862570Y5487670D01*
X7899145Y5524245D01*
X7899145Y5849873D01*
D11*
X7531100Y4283989D02*
G01*
X7645400Y4398289D01*
X7645400Y4762500D01*
D10*
X6946900Y5765800D02*
G01*
X6946900Y6121400D01*
X6908800Y6159500D01*
X6413500Y6159500D01*
X6388100Y6134100D01*
X6388100Y5849873D01*
X6399022Y5849873D01*
D11*
X7645400Y4762500D02*
G01*
X7797800Y4762500D01*
X7899400Y4660900D01*
X7899400Y4305300D01*
X8013700Y4191000D01*
X8737600Y4191000D01*
X8966200Y4419600D01*
D10*
X2348738Y3302000D02*
G01*
X2348738Y2832100D01*
X2362200Y2818637D01*
X1682495Y2844800D02*
G01*
X1682495Y2876295D01*
X1752600Y2946400D01*
X1892300Y2946400D01*
X2088895Y3142995D01*
X2088895Y3302000D01*
X1612900Y3200400D02*
G01*
X1612900Y3568700D01*
X1727200Y3683000D01*
X1955800Y3683000D01*
X2153665Y3485134D01*
X2153665Y3302000D01*
X2101900Y5991885D02*
G01*
X1877085Y5991885D01*
X1816100Y5930900D01*
X139700Y5930900D01*
X25400Y5816600D01*
X25400Y3949700D01*
X139700Y3835400D01*
X1308100Y3835400D01*
X1409700Y3937000D01*
X1409700Y4218688D01*
X1473200Y4279900D01*
X2133600Y4279900D01*
X2218692Y4194807D01*
X2218692Y4002026D01*
X1933394Y5403585D02*
G01*
X1933394Y5403585D01*
X1733804Y5403595D01*
X1673402Y5403595D01*
X1673352Y5213604D02*
G01*
X1759204Y5213604D01*
X1803400Y5257800D01*
X1803400Y5403595D01*
X1933447Y5403595D01*
X2501900Y4978400D02*
G01*
X2578100Y4978400D01*
X2679700Y5080000D01*
X2679700Y5308345D01*
X2728468Y5357621D01*
X2844800Y5358637D01*
X2844800Y5358536D02*
G01*
X2844800Y5537200D01*
X1933394Y5403585D02*
G01*
X1936902Y5407093D01*
X1936902Y5562600D01*
X1796897Y5562600D02*
G01*
X1511300Y5562600D01*
X1473200Y5524500D01*
X3464052Y5296407D02*
G01*
X3464052Y5127752D01*
X3390900Y5054600D01*
X2755900Y5054600D01*
X2514600Y4813300D01*
X1625600Y4813300D01*
X1239012Y5199887D01*
X1027684Y5199887D01*
X1930400Y4890363D02*
G01*
X1930400Y4813300D01*
X1930400Y5041036D02*
G01*
X1933394Y5044031D01*
X1933394Y5213593D01*
X1721002Y5054600D02*
G01*
X1879996Y5213593D01*
X1933394Y5213593D01*
X1580997Y5054600D02*
G01*
X1524000Y5054600D01*
X1473200Y5105400D01*
X1473200Y5303520D01*
X2398699Y5314695D02*
G01*
X2398699Y5493997D01*
X2400300Y5495597D01*
X2472989Y5495597D01*
X2705100Y5727700D01*
X2705100Y5991885D01*
X2701899Y5991885D01*
X2501900Y5991885D02*
G01*
X2501900Y5731202D01*
X2400300Y5629602D01*
X2198700Y5219700D02*
G01*
X2198700Y5493994D01*
X2197100Y5495594D01*
X2197100Y5629602D02*
G01*
X2400297Y5629602D01*
X2400300Y5629605D01*
X1930400Y5041137D02*
G01*
X2032000Y5041900D01*
X2095500Y4978400D01*
X2501900Y4978400D01*
X1933450Y5402579D02*
G01*
X2128514Y5402579D01*
X2198700Y5332394D01*
X2198700Y5219700D01*
X1673402Y5403595D02*
G01*
X1031237Y5403595D01*
X1027684Y5400042D01*
X2398699Y5124704D02*
G01*
X2353995Y5080000D01*
X2120900Y5080000D01*
X8171179Y5143500D02*
G01*
X8171179Y4998720D01*
X8216900Y4953000D01*
X8407400Y4953000D01*
X8623300Y5168900D01*
X9702800Y5168900D01*
X9804400Y5067300D01*
X9804400Y4394200D01*
X9512300Y4102100D01*
X8915400Y4102100D01*
X2032000Y2336800D02*
G01*
X2032000Y2171700D01*
X2082800Y2120900D01*
X3238500Y2120900D01*
X3327400Y2209800D01*
X3327400Y3365500D01*
X3492500Y3530600D01*
X3492500Y3937000D01*
X3670300Y4114800D01*
X4381500Y4114800D01*
X5149700Y2349500D02*
G01*
X5149700Y2241704D01*
X5232400Y2159000D01*
X5740400Y2159000D01*
X5854700Y2273300D01*
X5854700Y3175000D01*
X5727700Y3302000D01*
X4089400Y3302000D01*
X3949700Y3162300D01*
X3949700Y3015995D01*
X3955801Y2705100D01*
X6882891Y5084571D02*
G01*
X6438900Y5083810D01*
X6438900Y4923789D02*
G01*
X6438900Y4826000D01*
X6287261Y4674362D01*
X6096000Y4674362D01*
X6438900Y4923789D02*
G01*
X6534607Y5019497D01*
X6882790Y5019497D01*
D11*
X1473200Y6616700D02*
G01*
X1739900Y6883400D01*
X5372100Y6883400D01*
X5549900Y6705600D01*
X5549900Y5537200D01*
X5740400Y5346700D01*
X7099300Y5346700D01*
X7162800Y5283200D01*
X7162800Y5092700D01*
D10*
X1796795Y5562600D02*
G01*
X1790700Y5568695D01*
X1790700Y5740400D01*
X2197100Y5740400D01*
X2197100Y5629655D01*
D12*
G01*
X6438900Y4923789D03*
G01*
X6438900Y5083810D03*
D13*
G01*
X1936902Y5562600D03*
G01*
X1796897Y5562600D03*
G01*
X1580997Y5054600D03*
G01*
X1721002Y5054600D03*
D14*
G01*
X2400300Y5495594D03*
G01*
X2400300Y5629605D03*
G01*
X2197100Y5495594D03*
G01*
X2197100Y5629605D03*
D15*
G01*
X1933397Y5403595D03*
G01*
X1933397Y5213604D03*
G01*
X1673402Y5403595D03*
G01*
X1673402Y5213604D03*
G01*
X1673402Y5308600D03*
D16*
G01*
X2398699Y5124704D03*
G01*
X2398699Y5314695D03*
G01*
X2198700Y5219700D03*
D13*
G01*
X8642197Y6146800D03*
G01*
X8782202Y6146800D03*
G01*
X8782202Y5930900D03*
G01*
X8642197Y5930900D03*
D17*
G01*
X8267700Y5543702D03*
G01*
X8267700Y5403697D03*
D13*
G01*
X9340697Y5791200D03*
G01*
X9480702Y5791200D03*
D18*
G01*
X8364326Y5143500D03*
G01*
X8171073Y5143500D03*
D19*
G01*
X9288673Y5537200D03*
G01*
X9481926Y5537200D03*
D17*
G01*
X7061200Y5543702D03*
G01*
X7061200Y5403697D03*
G01*
X6845300Y5403697D03*
G01*
X6845300Y5543702D03*
D20*
G01*
X6096002Y5102854D03*
G01*
X6096002Y5615950D03*
D21*
G01*
X7454900Y5858789D03*
G01*
X7454900Y5418810D03*
G01*
X7531100Y3844010D03*
G01*
X7531100Y4283989D03*
D22*
G01*
X6096000Y4825124D03*
D23*
G01*
X6096000Y4674463D03*
D24*
G01*
X5157075Y4572000D03*
G01*
X5307724Y4572000D03*
D25*
G01*
X5307724Y4381500D03*
G01*
X5157075Y4381500D03*
G01*
X5307724Y4749800D03*
G01*
X5157075Y4749800D03*
G01*
X5307724Y4203700D03*
G01*
X5157075Y4203700D03*
D19*
G01*
X8336173Y4470400D03*
G01*
X8529426Y4470400D03*
G01*
X9187073Y4470400D03*
G01*
X9380326Y4470400D03*
D13*
G01*
X3955897Y2705100D03*
G01*
X4095902Y2705100D03*
G01*
X5148605Y357733D03*
G01*
X5288584Y357733D03*
G01*
X5149697Y2349500D03*
G01*
X5289702Y2349500D03*
D24*
G01*
X1601075Y1790700D03*
G01*
X1751724Y1790700D03*
D22*
G01*
X2971800Y2818524D03*
D23*
G01*
X2971800Y2667863D03*
D25*
G01*
X1294524Y2362200D03*
G01*
X1143875Y2362200D03*
D17*
G01*
X2184400Y2330297D03*
G01*
X2184400Y2470302D03*
D22*
G01*
X2362200Y2818524D03*
D23*
G01*
X2362200Y2667863D03*
D13*
G01*
X2050897Y2844800D03*
G01*
X2190902Y2844800D03*
G01*
X2279497Y4432300D03*
G01*
X2419502Y4432300D03*
G01*
X1542897Y2197100D03*
G01*
X1682902Y2197100D03*
G01*
X1682597Y2844800D03*
G01*
X1822602Y2844800D03*
D17*
G01*
X1600200Y1492402D03*
G01*
X1600200Y1352397D03*
D22*
G01*
X1930399Y5041024D03*
D23*
G01*
X1930400Y4890363D03*
D25*
G01*
X1815224Y4533900D03*
G01*
X1664575Y4533900D03*
D17*
G01*
X3162300Y5365902D03*
G01*
X3162300Y5225897D03*
D22*
G01*
X4800600Y5472824D03*
D23*
G01*
X4800600Y5322163D03*
D22*
G01*
X4597400Y5472824D03*
D23*
G01*
X4597400Y5322163D03*
D22*
G01*
X2844800Y5207875D03*
D23*
G01*
X2844800Y5358536D03*
D24*
G01*
X2947275Y4775200D03*
G01*
X3097924Y4775200D03*
D22*
G01*
X3581400Y6006224D03*
D23*
G01*
X3581400Y5855563D03*
D22*
G01*
X3403600Y6006224D03*
D23*
G01*
X3403600Y5855563D03*
D26*
G01*
X2901899Y6030010D03*
G01*
X2701899Y6030010D03*
G01*
X2501900Y6030010D03*
G01*
X2301900Y6030010D03*
G01*
X2101900Y6030010D03*
D27*
G01*
X3131896Y6595008D03*
G01*
X1871903Y6595008D03*
D26*
G01*
X4899990Y6030010D03*
G01*
X4699990Y6030010D03*
G01*
X4499990Y6030010D03*
G01*
X4299991Y6030010D03*
G01*
X4099991Y6030010D03*
D27*
G01*
X5129987Y6595008D03*
G01*
X3869994Y6595008D03*
D28*
G01*
X6592315Y5852490D03*
G01*
X6399098Y5850001D03*
D29*
G01*
X6099873Y6549999D03*
D30*
G01*
X6900138Y6549923D03*
D28*
G01*
X8092313Y5852490D03*
G01*
X7899095Y5850001D03*
D30*
G01*
X7599883Y6549999D03*
G01*
X8400135Y6549923D03*
D31*
G01*
X4897907Y2772689D03*
G01*
X5151907Y2772689D03*
G01*
X5405907Y2772689D03*
G01*
X5659907Y2772689D03*
G01*
X5659907Y3915892D03*
G01*
X5405907Y3915892D03*
G01*
X5151907Y3915892D03*
G01*
X4897907Y3915892D03*
G01*
X4897907Y772693D03*
G01*
X5151907Y772693D03*
G01*
X5405907Y772693D03*
G01*
X5659907Y772693D03*
G01*
X5659907Y1915896D03*
G01*
X5405907Y1915896D03*
G01*
X5151907Y1915896D03*
G01*
X4897907Y1915896D03*
D32*
G01*
X1027582Y5399989D03*
G01*
X1027582Y5199989D03*
G01*
X1027582Y4999989D03*
G01*
X1027582Y4799990D03*
G01*
X1027582Y4599990D03*
D33*
G01*
X462584Y5629986D03*
G01*
X462584Y4369993D03*
D34*
G01*
X1682597Y2578100D03*
G01*
X1822602Y2578100D03*
D35*
G01*
X402589Y1799793D03*
G01*
X1197610Y1799793D03*
G01*
X402589Y1349806D03*
G01*
X1197610Y1349806D03*
D36*
G01*
X8640089Y5006594D03*
G01*
X8705113Y5006594D03*
G01*
X8770111Y5006594D03*
G01*
X8835110Y5006594D03*
G01*
X8640089Y5432805D03*
G01*
X8705113Y5432805D03*
G01*
X8770111Y5432805D03*
G01*
X8835110Y5432805D03*
D37*
G01*
X6882790Y5084495D03*
G01*
X6882790Y5019497D03*
G01*
X6882790Y4954498D03*
G01*
X6882790Y4889500D03*
G01*
X6882790Y4824501D03*
G01*
X6882790Y4759502D03*
G01*
X6882790Y4694504D03*
G01*
X7442809Y4694504D03*
G01*
X7442809Y4759502D03*
G01*
X7442809Y4824501D03*
G01*
X7442809Y4889500D03*
G01*
X7442809Y4954498D03*
G01*
X7442809Y5019497D03*
G01*
X7442809Y5084495D03*
D38*
G01*
X7162800Y4889500D03*
D39*
G01*
X3399104Y4736490D03*
G01*
X3464102Y4736490D03*
G01*
X3529101Y4736490D03*
G01*
X3594100Y4736490D03*
G01*
X3659098Y4736490D03*
G01*
X3724097Y4736490D03*
G01*
X3789095Y4736490D03*
G01*
X3789095Y5296509D03*
G01*
X3724097Y5296509D03*
G01*
X3659098Y5296509D03*
G01*
X3594100Y5296509D03*
G01*
X3529101Y5296509D03*
G01*
X3464102Y5296509D03*
G01*
X3399104Y5296509D03*
D40*
G01*
X4216400Y2423540D03*
G01*
X4089400Y2423540D03*
G01*
X3962400Y2423540D03*
G01*
X3835400Y2423540D03*
G01*
X4216400Y1869059D03*
G01*
X4089400Y1869059D03*
G01*
X3962400Y1869059D03*
G01*
X3835400Y1869059D03*
D41*
G01*
X1828800Y3302000D03*
G01*
X1893798Y3302000D03*
G01*
X1958797Y3302000D03*
G01*
X2023795Y3302000D03*
G01*
X2088794Y3302000D03*
G01*
X2153793Y3302000D03*
G01*
X2218791Y3302000D03*
G01*
X2673807Y3302000D03*
G01*
X2608808Y3302000D03*
G01*
X2543809Y3302000D03*
G01*
X2478811Y3302000D03*
G01*
X2413812Y3302000D03*
G01*
X2348788Y3302000D03*
G01*
X2283790Y3302000D03*
G01*
X2283790Y4001998D03*
G01*
X2348788Y4001998D03*
G01*
X2413812Y4001998D03*
G01*
X2478811Y4001998D03*
G01*
X2543809Y4001998D03*
G01*
X2608808Y4001998D03*
G01*
X2673807Y4001998D03*
G01*
X2218791Y4001998D03*
G01*
X2153793Y4001998D03*
G01*
X2088794Y4001998D03*
G01*
X2023795Y4001998D03*
G01*
X1958797Y4001998D03*
G01*
X1893798Y4001998D03*
G01*
X1828800Y4001998D03*
D42*
G01*
X2359152Y2330500D03*
G01*
X2359152Y2495499D03*
G01*
X2492247Y2330500D03*
G01*
X2492247Y2495499D03*
D43*
G01*
X685800Y3634994D03*
G01*
X685800Y3380994D03*
G01*
X685800Y3126994D03*
G01*
X685800Y2872994D03*
G01*
X685800Y2618994D03*
D44*
G01*
X685800Y2364994D03*
D45*
G01*
X614502Y6399987D03*
G01*
X614502Y599998D03*
G01*
X7213600Y599998D03*
G01*
X9984993Y6399987D03*
D46*
G01*
X3124200Y5981700D03*
G01*
X2425700Y6324600D03*
G01*
X2501900Y4978400D03*
G01*
X3505200Y6337300D03*
G01*
X4406900Y5499100D03*
G01*
X4178300Y4889500D03*
G01*
X3898900Y4724400D03*
G01*
X3911600Y5499100D03*
G01*
X3822700Y5626100D03*
G01*
X3578326Y5499100D03*
G01*
X2984500Y5181600D03*
G01*
X3784600Y5130800D03*
G01*
X2794000Y4775200D03*
G01*
X3594100Y4902200D03*
G01*
X3225800Y4902200D03*
G01*
X3314700Y5143500D03*
G01*
X2019300Y4368800D03*
G01*
X2578100Y4470400D03*
G01*
X2578100Y4343400D03*
G01*
X2514600Y4826000D03*
G01*
X2489200Y2667000D03*
G01*
X2184400Y2667000D03*
G01*
X1473200Y5303520D03*
G01*
X1473200Y5524500D03*
G01*
X1447800Y4711700D03*
G01*
X2501900Y3797300D03*
G01*
X4051300Y5105400D03*
G01*
X2705100Y3784600D03*
G01*
X1612900Y3771900D03*
G01*
X3200400Y4318000D03*
G01*
X3035300Y3733800D03*
G01*
X2679700Y2844800D03*
G01*
X2032000Y2336800D03*
G01*
X850900Y4406900D03*
G01*
X1612900Y3200400D03*
G01*
X2984500Y3048000D03*
G01*
X1422400Y2019300D03*
G01*
X1682902Y2019300D03*
G01*
X2032000Y2019300D03*
G01*
X1473200Y5727700D03*
G01*
X4127500Y3136900D03*
G01*
X4216400Y1384300D03*
G01*
X1473200Y6083300D03*
G01*
X8712200Y4470400D03*
G01*
X6591300Y5549900D03*
G01*
X9563100Y4470400D03*
G01*
X8089900Y5549900D03*
G01*
X6946900Y5765800D03*
G01*
X1727200Y3517900D03*
G01*
X2349500Y3543300D03*
G01*
X2705100Y3632200D03*
G01*
X2032000Y3771900D03*
G01*
X4381500Y4114800D03*
G01*
X4927600Y4572000D03*
G01*
X8636000Y5676900D03*
G01*
X8915400Y3835400D03*
G01*
X8915400Y3975100D03*
G01*
X8915400Y4102100D03*
G01*
X1739900Y3060700D03*
G01*
X1905000Y3543300D03*
G01*
X8458200Y5930900D03*
G01*
X3835400Y1651000D03*
G01*
X342900Y3949700D03*
G01*
X3543300Y1905000D03*
G01*
X482600Y3721100D03*
G01*
X114300Y4114800D03*
G01*
X3632200Y2413000D03*
G01*
X6273800Y3340100D03*
G01*
X6438900Y3340100D03*
G01*
X6604000Y3340100D03*
G01*
X7086600Y3340100D03*
G01*
X6921500Y3340100D03*
G01*
X7416800Y3340100D03*
G01*
X7251700Y3340100D03*
G01*
X7251700Y3187700D03*
G01*
X7416800Y3187700D03*
G01*
X6921500Y3187700D03*
G01*
X7086600Y3187700D03*
G01*
X6604000Y3187700D03*
G01*
X6769100Y3187700D03*
G01*
X6438900Y3187700D03*
G01*
X6273800Y3187700D03*
G01*
X7251700Y3035300D03*
G01*
X7416800Y3035300D03*
G01*
X6921500Y3035300D03*
G01*
X7086600Y3035300D03*
G01*
X6604000Y3035300D03*
G01*
X6769100Y3035300D03*
G01*
X6438900Y3035300D03*
G01*
X6273800Y3035300D03*
G01*
X6273800Y2578100D03*
G01*
X6438900Y2578100D03*
G01*
X6769100Y2578100D03*
G01*
X6604000Y2578100D03*
G01*
X7086600Y2578100D03*
G01*
X6921500Y2578100D03*
G01*
X7416800Y2578100D03*
G01*
X7251700Y2578100D03*
G01*
X6273800Y2730500D03*
G01*
X6438900Y2730500D03*
G01*
X6769100Y2730500D03*
G01*
X6604000Y2730500D03*
G01*
X7086600Y2730500D03*
G01*
X6921500Y2730500D03*
G01*
X7416800Y2730500D03*
G01*
X7251700Y2730500D03*
G01*
X7251700Y2882900D03*
G01*
X7416800Y2882900D03*
G01*
X6921500Y2882900D03*
G01*
X7086600Y2882900D03*
G01*
X6604000Y2882900D03*
G01*
X6769100Y2882900D03*
G01*
X6438900Y2882900D03*
G01*
X6273800Y2882900D03*
G01*
X6261100Y2120900D03*
G01*
X6426200Y2120900D03*
G01*
X6756400Y2120900D03*
G01*
X6591300Y2120900D03*
G01*
X7073900Y2120900D03*
G01*
X6908800Y2120900D03*
G01*
X7404100Y2120900D03*
G01*
X7239000Y2120900D03*
G01*
X6261100Y2273300D03*
G01*
X6426200Y2273300D03*
G01*
X6756400Y2273300D03*
G01*
X6591300Y2273300D03*
G01*
X7073900Y2273300D03*
G01*
X6908800Y2273300D03*
G01*
X7404100Y2273300D03*
G01*
X7239000Y2273300D03*
G01*
X7239000Y2425700D03*
G01*
X7404100Y2425700D03*
G01*
X6908800Y2425700D03*
G01*
X7073900Y2425700D03*
G01*
X6591300Y2425700D03*
G01*
X6756400Y2425700D03*
G01*
X6426200Y2425700D03*
G01*
X6261100Y2425700D03*
G01*
X6261100Y1676400D03*
G01*
X6426200Y1676400D03*
G01*
X6756400Y1676400D03*
G01*
X6591300Y1676400D03*
G01*
X7073900Y1676400D03*
G01*
X6908800Y1676400D03*
G01*
X7404100Y1676400D03*
G01*
X7239000Y1676400D03*
G01*
X6261100Y1828800D03*
G01*
X6426200Y1828800D03*
G01*
X6756400Y1828800D03*
G01*
X6591300Y1828800D03*
G01*
X7073900Y1828800D03*
G01*
X6908800Y1828800D03*
G01*
X7404100Y1828800D03*
G01*
X7239000Y1828800D03*
G01*
X7239000Y1981200D03*
G01*
X7404100Y1981200D03*
G01*
X6908800Y1981200D03*
G01*
X7073900Y1981200D03*
G01*
X6591300Y1981200D03*
G01*
X6756400Y1981200D03*
G01*
X6426200Y1981200D03*
G01*
X6261100Y1981200D03*
G01*
X7251700Y3492500D03*
G01*
X6921500Y3492500D03*
G01*
X7086600Y3492500D03*
G01*
X6604000Y3492500D03*
G01*
X6769100Y3492500D03*
G01*
X6438900Y3492500D03*
G01*
X6273800Y3492500D03*
G01*
X6273800Y3644900D03*
G01*
X6438900Y3644900D03*
G01*
X6769100Y3644900D03*
G01*
X6604000Y3644900D03*
G01*
X7086600Y3644900D03*
G01*
X6921500Y3644900D03*
G01*
X7061200Y4267200D03*
G01*
X7226300Y4267200D03*
G01*
X6743700Y4267200D03*
G01*
X6908800Y4267200D03*
G01*
X6578600Y4267200D03*
G01*
X7061200Y4406900D03*
G01*
X7226300Y4406900D03*
G01*
X6743700Y4406900D03*
G01*
X6908800Y4406900D03*
G01*
X7061200Y4533900D03*
G01*
X7226300Y4533900D03*
G01*
X6908800Y4533900D03*
G01*
X2844800Y5537200D03*
G01*
X2120900Y5080000D03*
G01*
X6769100Y3340100D03*
M02*
