M48
METRIC,LZ,000.000
;FILE_FORMAT=3:3
;TYPE=PLATED
;Layer: PTH_Through
;EasyEDA v6.5.46, 2024-09-04 15:34:20
;d73e3e6912d945eb9b412824c50a840e,79071ce94af74c669a867ceed4e6d4b3,10
;Gerber Generator version 0.2
;Holesize 1 = 0.305 mm
T01C0.305
;Holesize 2 = 0.306 mm
T02C0.306
;Holesize 3 = 0.600 mm
T03C0.600
;Holesize 4 = 0.920 mm
T04C0.920
;Holesize 5 = 1.101 mm
T05C1.101
;Holesize 6 = 1.403 mm
T06C1.403
;Holesize 7 = 2.301 mm
T07C2.301
;Holesize 8 = 3.000 mm
T08C3.000
%
G05
G90
T01
X069215Y046355
X068707Y048768
X050038Y021590
X049657Y015367
X087884Y058039
X085471Y056134
X083439Y053879
X040513Y036830
X057658Y025908
X056642Y025146
X056007Y027559
X056896Y028321
X042291Y048260
X043180Y049276
X051689Y046482
X047371Y048260
X057150Y043053
X057150Y046863
X054991Y037846
X053467Y044323
X047879Y046228
X060579Y043053
X058547Y043053
X054483Y039497
X055372Y041148
X045339Y036195
X042545Y033401
X075946Y005080
X088900Y015367
X093345Y014732
X067818Y014478
X064389Y014478
X016129Y056515
X017780Y056515
X030734Y042291
X029718Y041656
X054991Y011938
X053086Y012700
X058039Y012700
X059182Y018669
X060198Y011176
X057023Y011176
X055118Y021717
X055118Y017399
X054102Y016510
X048514Y012700
X046355Y017399
X045683Y033057
X045720Y034290
X043307Y031877
X044450Y031877
X042418Y016129
X038100Y011938
X061722Y046101
X061722Y043053
X061722Y031877
X059563Y031877
X045720Y035433
X042545Y032258
X028829Y039624
X031623Y043815
X005080Y027559
X003302Y027559
X005334Y042291
X001651Y042291
X027000Y016078
X077978Y005842
X025019Y006350
X019000Y012319
X036068Y012319
X044000Y011176
X075946Y006532
X059055Y006532
X094234Y012700
T02
X063520Y030988
X063520Y027813
X063520Y026035
X033782Y032027
X033782Y030804
X033782Y029534
X103505Y041678
X103505Y039985
X103505Y038009
X063681Y067767
X063681Y065767
X063681Y063767
X063681Y061767
X063681Y059767
X063681Y057767
X065681Y067767
X065681Y065767
X065681Y063767
X065681Y061767
X065681Y059767
X065681Y057767
X065681Y055767
X067681Y067767
X067681Y065767
X067681Y063767
X067681Y061767
X067681Y059767
X067681Y057767
X067681Y055767
X067681Y053767
X069681Y067767
X069681Y065767
X069681Y063767
X069681Y061767
X069681Y059767
X069681Y057767
X069681Y055767
X069681Y053767
X069681Y051767
X071681Y067767
X071681Y065767
X071681Y063767
X071681Y061767
X071681Y059767
X071681Y057767
X071681Y055767
X071681Y053767
X071681Y051767
X071681Y049767
X073681Y067767
X073681Y065767
X073681Y063767
X073681Y061767
X073681Y059767
X073681Y057767
X073681Y055767
X073681Y053767
X073681Y051767
X073681Y049767
X075681Y067767
X075681Y065767
X075681Y063767
X075681Y061767
X075681Y059767
X075681Y057767
X075681Y055767
X075681Y053767
X077681Y067767
X077681Y065767
X077681Y063767
X077681Y061767
X077681Y059767
X077681Y057767
X077681Y055767
X079681Y067767
X079681Y065767
X079681Y063767
X079681Y061767
X079681Y059767
X079681Y057767
X079681Y055767
X081681Y065767
X081681Y063767
X081681Y061767
X081681Y059767
X081681Y057767
X081681Y055767
X063804Y067767
X063804Y065767
X063804Y063767
X063804Y061767
X063804Y059767
X063804Y057767
X065804Y067767
X065804Y065767
X065804Y063767
X065804Y061767
X065804Y059767
X065804Y057767
X065804Y055767
X067804Y067767
X067804Y065767
X067804Y063767
X067804Y061767
X067804Y059767
X067804Y057767
X067804Y055767
X067804Y053767
X067804Y041767
X067804Y039767
X067804Y037767
X067804Y035767
X067804Y033767
X069804Y067767
X069804Y065767
X069804Y063767
X069804Y061767
X069804Y059767
X069804Y057767
X069804Y055767
X069804Y053767
X069804Y051767
X069804Y041767
X069804Y039767
X069804Y037767
X069804Y035767
X069804Y033767
X071804Y067767
X071804Y065767
X071804Y063767
X071804Y061767
X071804Y059767
X071804Y057767
X071804Y055767
X071804Y053767
X071804Y051767
X071804Y049767
X071804Y041767
X071804Y039767
X071804Y037767
X071804Y035767
X071804Y033767
X073804Y067767
X073804Y065767
X073804Y063767
X073804Y061767
X073804Y059767
X073804Y057767
X073804Y055767
X073804Y053767
X073804Y051767
X073804Y049767
X073804Y041767
X073804Y039767
X073804Y037767
X073804Y035767
X073804Y033767
X075804Y067767
X075804Y065767
X075804Y063767
X075804Y061767
X075804Y059767
X075804Y057767
X075804Y055767
X075804Y053767
X075804Y041767
X075804Y039767
X075804Y037767
X075804Y035767
X075804Y033767
X077804Y067767
X077804Y065767
X077804Y063767
X077804Y061767
X077804Y059767
X077804Y057767
X077804Y055767
X077804Y039767
X077804Y037767
X077804Y035767
X077804Y033767
X079804Y067767
X079804Y065767
X079804Y063767
X079804Y061767
X079804Y059767
X079804Y057767
X079804Y055767
X079804Y037767
X079804Y035767
X079804Y033767
X081804Y065767
X081804Y063767
X081804Y061767
X081804Y059767
X081804Y057767
X081804Y055767
X081804Y035767
X081804Y033767
X083804Y035767
T03
X094361Y067437
X092075Y043688
X039497Y034163
X080518Y050292
T04
X051184Y053594G85X051178Y053594
X053683Y053594G85X053678Y053594
X053683Y055594G85X053678Y055594
X051184Y055594G85X051178Y055594
T05
X039878Y021590
X042418Y021590
X044958Y021590
X086741Y033909
X086741Y036449
X086741Y038989
X089535Y002286
X089535Y004826
X089535Y007366
X084963Y002286
X084963Y004826
X084963Y007366
T06
X099695Y048387
X099695Y053467
X099695Y017526
X099695Y022606
X099695Y027813
X099695Y032893
X006762Y022352
X006762Y017272
T07
X046411Y058304G85X046411Y058304
X058451Y058304G85X058451Y058304
T08
X006145Y064000
X006145Y006000
X099850Y064000
X099850Y006000
M30
