G04 Layer: TopPasteMaskLayer*
G04 EasyEDA v6.5.46, 2024-09-04 15:34:20*
G04 d73e3e6912d945eb9b412824c50a840e,79071ce94af74c669a867ceed4e6d4b3,10*
G04 Gerber Generator version 0.2*
G04 Scale: 100 percent, Rotated: No, Reflected: No *
G04 Dimensions in millimeters *
G04 leading zeros omitted , absolute positions ,4 integer and 5 decimal *
%FSLAX45Y45*%
%MOMM*%

%AMMACRO1*4,1,8,3.495,4.16,3.495,-4.16,-1.585,-4.16,-1.585,-5.4,-3.495,-5.4,-3.495,5.4,-1.585,5.4,-1.585,4.16,3.495,4.16,0*%
%ADD10R,0.9000X0.8000*%
%ADD11R,0.8000X0.9000*%
%ADD12R,2.0000X1.8000*%
%ADD13R,2.0000X2.0000*%
%ADD14R,1.4999X3.4000*%
%ADD15R,1.4000X3.1001*%
%ADD16O,1.7314926000000002X0.3430016*%
%ADD17O,2.0379944X0.5739892*%
%ADD18R,1.7000X0.4000*%
%ADD19R,4.4200X1.4224*%
%ADD20R,1.4000X0.4000*%
%ADD21R,2.6500X4.0000*%
%ADD22O,0.3800094X1.4500098000000001*%
%ADD23MACRO1*%
%ADD24R,3.0000X1.0700*%
%ADD25R,0.7800X0.9901*%
%ADD26R,1.7000X1.8000*%
%ADD27R,0.0141X1.8000*%

%LPD*%
G36*
X3770579Y3840937D02*
G01*
X3764178Y3834536D01*
X3764178Y3760978D01*
X3770579Y3754577D01*
X3820922Y3754577D01*
X3848354Y3783939D01*
X3848354Y3811574D01*
X3820922Y3840937D01*
G37*
G36*
X3927297Y3842105D02*
G01*
X3899915Y3812692D01*
X3899915Y3785057D01*
X3927297Y3755694D01*
X3977640Y3755694D01*
X3984040Y3762095D01*
X3984040Y3835704D01*
X3977640Y3842105D01*
G37*
G36*
X3754018Y3613708D02*
G01*
X3748989Y3608679D01*
X3748989Y3528720D01*
X3754018Y3523691D01*
X3833977Y3523691D01*
X3839006Y3528720D01*
X3839006Y3551478D01*
X3802024Y3551478D01*
X3802024Y3584498D01*
X3839006Y3584498D01*
X3839006Y3608679D01*
X3833977Y3613708D01*
G37*
G36*
X3913987Y3613708D02*
G01*
X3909009Y3608679D01*
X3909009Y3584498D01*
X3947007Y3584498D01*
X3947007Y3551478D01*
X3909009Y3551478D01*
X3909009Y3528720D01*
X3913987Y3523691D01*
X3992981Y3523691D01*
X3998010Y3528720D01*
X3998010Y3608679D01*
X3992981Y3613708D01*
G37*
G36*
X5112918Y3829608D02*
G01*
X5107889Y3824579D01*
X5107889Y3744620D01*
X5112918Y3739591D01*
X5192877Y3739591D01*
X5197906Y3744620D01*
X5197906Y3767378D01*
X5160924Y3767378D01*
X5160924Y3800398D01*
X5197906Y3800398D01*
X5197906Y3824579D01*
X5192877Y3829608D01*
G37*
G36*
X5272887Y3829608D02*
G01*
X5267909Y3824579D01*
X5267909Y3800398D01*
X5305907Y3800398D01*
X5305907Y3767378D01*
X5267909Y3767378D01*
X5267909Y3744620D01*
X5272887Y3739591D01*
X5351881Y3739591D01*
X5356910Y3744620D01*
X5356910Y3824579D01*
X5351881Y3829608D01*
G37*
G36*
X5271922Y3664508D02*
G01*
X5266893Y3659479D01*
X5266893Y3636721D01*
X5303875Y3636721D01*
X5303875Y3603701D01*
X5266893Y3603701D01*
X5266893Y3579520D01*
X5271922Y3574491D01*
X5351881Y3574491D01*
X5356910Y3579520D01*
X5356910Y3659479D01*
X5351881Y3664508D01*
G37*
G36*
X5112918Y3664508D02*
G01*
X5107889Y3659479D01*
X5107889Y3579520D01*
X5112918Y3574491D01*
X5191912Y3574491D01*
X5196890Y3579520D01*
X5196890Y3603701D01*
X5158892Y3603701D01*
X5158892Y3636721D01*
X5196890Y3636721D01*
X5196890Y3659479D01*
X5191912Y3664508D01*
G37*
G36*
X5087518Y2597708D02*
G01*
X5082489Y2592679D01*
X5082489Y2512720D01*
X5087518Y2507691D01*
X5167477Y2507691D01*
X5172506Y2512720D01*
X5172506Y2535478D01*
X5135524Y2535478D01*
X5135524Y2568498D01*
X5172506Y2568498D01*
X5172506Y2592679D01*
X5167477Y2597708D01*
G37*
G36*
X5247487Y2597708D02*
G01*
X5242509Y2592679D01*
X5242509Y2568498D01*
X5280507Y2568498D01*
X5280507Y2535478D01*
X5242509Y2535478D01*
X5242509Y2512720D01*
X5247487Y2507691D01*
X5326481Y2507691D01*
X5331510Y2512720D01*
X5331510Y2592679D01*
X5326481Y2597708D01*
G37*
G36*
X5087518Y2407208D02*
G01*
X5082489Y2402179D01*
X5082489Y2322220D01*
X5087518Y2317191D01*
X5167477Y2317191D01*
X5172506Y2322220D01*
X5172506Y2344978D01*
X5135524Y2344978D01*
X5135524Y2377998D01*
X5172506Y2377998D01*
X5172506Y2402179D01*
X5167477Y2407208D01*
G37*
G36*
X5247487Y2407208D02*
G01*
X5242509Y2402179D01*
X5242509Y2377998D01*
X5280507Y2377998D01*
X5280507Y2344978D01*
X5242509Y2344978D01*
X5242509Y2322220D01*
X5247487Y2317191D01*
X5326481Y2317191D01*
X5331510Y2322220D01*
X5331510Y2402179D01*
X5326481Y2407208D01*
G37*
G36*
X5087518Y2204008D02*
G01*
X5082489Y2198979D01*
X5082489Y2119020D01*
X5087518Y2113991D01*
X5167477Y2113991D01*
X5172506Y2119020D01*
X5172506Y2141778D01*
X5135524Y2141778D01*
X5135524Y2174798D01*
X5172506Y2174798D01*
X5172506Y2198979D01*
X5167477Y2204008D01*
G37*
G36*
X5247487Y2204008D02*
G01*
X5242509Y2198979D01*
X5242509Y2174798D01*
X5280507Y2174798D01*
X5280507Y2141778D01*
X5242509Y2141778D01*
X5242509Y2119020D01*
X5247487Y2113991D01*
X5326481Y2113991D01*
X5331510Y2119020D01*
X5331510Y2198979D01*
X5326481Y2204008D01*
G37*
G36*
X5087518Y1988108D02*
G01*
X5082489Y1983079D01*
X5082489Y1903120D01*
X5087518Y1898091D01*
X5167477Y1898091D01*
X5172506Y1903120D01*
X5172506Y1925878D01*
X5135524Y1925878D01*
X5135524Y1958898D01*
X5172506Y1958898D01*
X5172506Y1983079D01*
X5167477Y1988108D01*
G37*
G36*
X5247487Y1988108D02*
G01*
X5242509Y1983079D01*
X5242509Y1958898D01*
X5280507Y1958898D01*
X5280507Y1925878D01*
X5242509Y1925878D01*
X5242509Y1903120D01*
X5247487Y1898091D01*
X5326481Y1898091D01*
X5331510Y1903120D01*
X5331510Y1983079D01*
X5326481Y1988108D01*
G37*
G36*
X5087518Y1784908D02*
G01*
X5082489Y1779879D01*
X5082489Y1699920D01*
X5087518Y1694891D01*
X5167477Y1694891D01*
X5172506Y1699920D01*
X5172506Y1722678D01*
X5135524Y1722678D01*
X5135524Y1755698D01*
X5172506Y1755698D01*
X5172506Y1779879D01*
X5167477Y1784908D01*
G37*
G36*
X5247487Y1784908D02*
G01*
X5242509Y1779879D01*
X5242509Y1755698D01*
X5280507Y1755698D01*
X5280507Y1722678D01*
X5242509Y1722678D01*
X5242509Y1699920D01*
X5247487Y1694891D01*
X5326481Y1694891D01*
X5331510Y1699920D01*
X5331510Y1779879D01*
X5326481Y1784908D01*
G37*
G36*
X5246522Y1581708D02*
G01*
X5241493Y1576679D01*
X5241493Y1553921D01*
X5278475Y1553921D01*
X5278475Y1520901D01*
X5241493Y1520901D01*
X5241493Y1496720D01*
X5246522Y1491691D01*
X5326481Y1491691D01*
X5331510Y1496720D01*
X5331510Y1576679D01*
X5326481Y1581708D01*
G37*
G36*
X5087518Y1581708D02*
G01*
X5082489Y1576679D01*
X5082489Y1496720D01*
X5087518Y1491691D01*
X5166512Y1491691D01*
X5171490Y1496720D01*
X5171490Y1520901D01*
X5133492Y1520901D01*
X5133492Y1553921D01*
X5171490Y1553921D01*
X5171490Y1576679D01*
X5166512Y1581708D01*
G37*
G36*
X6535318Y4718608D02*
G01*
X6530289Y4713579D01*
X6530289Y4633620D01*
X6535318Y4628591D01*
X6615277Y4628591D01*
X6620306Y4633620D01*
X6620306Y4656378D01*
X6583324Y4656378D01*
X6583324Y4689398D01*
X6620306Y4689398D01*
X6620306Y4713579D01*
X6615277Y4718608D01*
G37*
G36*
X6695287Y4718608D02*
G01*
X6690309Y4713579D01*
X6690309Y4689398D01*
X6728307Y4689398D01*
X6728307Y4656378D01*
X6690309Y4656378D01*
X6690309Y4633620D01*
X6695287Y4628591D01*
X6774281Y4628591D01*
X6779310Y4633620D01*
X6779310Y4713579D01*
X6774281Y4718608D01*
G37*
G36*
X6694322Y4528108D02*
G01*
X6689293Y4523079D01*
X6689293Y4500321D01*
X6726275Y4500321D01*
X6726275Y4467301D01*
X6689293Y4467301D01*
X6689293Y4443120D01*
X6694322Y4438091D01*
X6774281Y4438091D01*
X6779310Y4443120D01*
X6779310Y4523079D01*
X6774281Y4528108D01*
G37*
G36*
X6535318Y4528108D02*
G01*
X6530289Y4523079D01*
X6530289Y4443120D01*
X6535318Y4438091D01*
X6614312Y4438091D01*
X6619290Y4443120D01*
X6619290Y4467301D01*
X6581292Y4467301D01*
X6581292Y4500321D01*
X6619290Y4500321D01*
X6619290Y4523079D01*
X6614312Y4528108D01*
G37*
G36*
X8736787Y4907686D02*
G01*
X8731808Y4902708D01*
X8732316Y4860696D01*
X8776309Y4860696D01*
X8776309Y4815687D01*
X8731300Y4815687D01*
X8731808Y4774692D01*
X8736787Y4769713D01*
X8851798Y4769713D01*
X8856827Y4774692D01*
X8856827Y4902708D01*
X8851798Y4907686D01*
G37*
G36*
X8521801Y4907686D02*
G01*
X8516823Y4902708D01*
X8516823Y4774692D01*
X8521801Y4769713D01*
X8636812Y4769713D01*
X8641791Y4774692D01*
X8641283Y4815687D01*
X8597290Y4815687D01*
X8597290Y4860696D01*
X8641791Y4860696D01*
X8641791Y4902708D01*
X8636812Y4907686D01*
G37*
G36*
X8374380Y2842310D02*
G01*
X8364423Y2832303D01*
X8364423Y2679496D01*
X8374380Y2669489D01*
X8502904Y2669489D01*
X8512911Y2679496D01*
X8512911Y2716530D01*
X8502904Y2726537D01*
X8472424Y2726537D01*
X8462416Y2736545D01*
X8462416Y2775254D01*
X8472424Y2785262D01*
X8502904Y2785262D01*
X8512911Y2795270D01*
X8512911Y2832303D01*
X8502904Y2842310D01*
G37*
G36*
X8692896Y2842310D02*
G01*
X8682888Y2832303D01*
X8682888Y2795270D01*
X8692896Y2785262D01*
X8723376Y2785262D01*
X8733383Y2775254D01*
X8733383Y2736545D01*
X8723376Y2726537D01*
X8692896Y2726537D01*
X8682888Y2716530D01*
X8682888Y2679496D01*
X8692896Y2669489D01*
X8821420Y2669489D01*
X8831376Y2679496D01*
X8831376Y2832303D01*
X8821420Y2842310D01*
G37*
G36*
X573024Y4790287D02*
G01*
X567994Y4785309D01*
X567994Y4670298D01*
X573024Y4665319D01*
X614984Y4665776D01*
X614984Y4709820D01*
X659993Y4709820D01*
X659993Y4664811D01*
X700989Y4665319D01*
X706018Y4670298D01*
X706018Y4785309D01*
X700989Y4790287D01*
G37*
G36*
X573024Y4575302D02*
G01*
X567994Y4570323D01*
X567994Y4455312D01*
X573024Y4450283D01*
X700989Y4450283D01*
X706018Y4455312D01*
X706018Y4570323D01*
X700989Y4575302D01*
X659993Y4574794D01*
X659993Y4530801D01*
X614984Y4530801D01*
X614984Y4575302D01*
G37*
G36*
X573024Y3304387D02*
G01*
X567994Y3299409D01*
X567994Y3184398D01*
X573024Y3179419D01*
X614984Y3179876D01*
X614984Y3223920D01*
X659993Y3223920D01*
X659993Y3178911D01*
X700989Y3179419D01*
X706018Y3184398D01*
X706018Y3299409D01*
X700989Y3304387D01*
G37*
G36*
X573024Y3089402D02*
G01*
X567994Y3084423D01*
X567994Y2969412D01*
X573024Y2964383D01*
X700989Y2964383D01*
X706018Y2969412D01*
X706018Y3084423D01*
X700989Y3089402D01*
X659993Y3088894D01*
X659993Y3044901D01*
X614984Y3044901D01*
X614984Y3089402D01*
G37*
G36*
X10143388Y1223975D02*
G01*
X10133431Y1214018D01*
X10133431Y1180541D01*
X10143388Y1170533D01*
X10173919Y1170533D01*
X10183876Y1160526D01*
X10183876Y1125474D01*
X10173919Y1115466D01*
X10143388Y1115466D01*
X10133431Y1105458D01*
X10133431Y1071981D01*
X10143388Y1062024D01*
X10271912Y1062024D01*
X10281920Y1071981D01*
X10281920Y1214018D01*
X10271912Y1223975D01*
G37*
G36*
X9844887Y1223975D02*
G01*
X9834930Y1214018D01*
X9834930Y1071981D01*
X9844887Y1062024D01*
X9973411Y1062024D01*
X9983419Y1071981D01*
X9983419Y1105458D01*
X9973411Y1115466D01*
X9942931Y1115466D01*
X9932924Y1125474D01*
X9932924Y1160526D01*
X9942931Y1170533D01*
X9973411Y1170533D01*
X9983419Y1180541D01*
X9983419Y1214018D01*
X9973411Y1223975D01*
G37*
G36*
X9271101Y1211986D02*
G01*
X9266072Y1207008D01*
X9266072Y1078992D01*
X9271101Y1074013D01*
X9386112Y1074013D01*
X9391091Y1078992D01*
X9390583Y1121003D01*
X9346590Y1121003D01*
X9346590Y1166012D01*
X9391599Y1166012D01*
X9391091Y1207008D01*
X9386112Y1211986D01*
G37*
G36*
X9486087Y1211986D02*
G01*
X9481108Y1207008D01*
X9481616Y1166012D01*
X9525609Y1166012D01*
X9525609Y1121003D01*
X9481108Y1121003D01*
X9481108Y1078992D01*
X9486087Y1074013D01*
X9601098Y1074013D01*
X9606076Y1078992D01*
X9606076Y1207008D01*
X9601098Y1211986D01*
G37*
G36*
X6694322Y4909108D02*
G01*
X6689293Y4904079D01*
X6689293Y4881321D01*
X6726275Y4881321D01*
X6726275Y4848301D01*
X6689293Y4848301D01*
X6689293Y4824120D01*
X6694322Y4819091D01*
X6774281Y4819091D01*
X6779310Y4824120D01*
X6779310Y4904079D01*
X6774281Y4909108D01*
G37*
G36*
X6535318Y4909108D02*
G01*
X6530289Y4904079D01*
X6530289Y4824120D01*
X6535318Y4819091D01*
X6614312Y4819091D01*
X6619290Y4824120D01*
X6619290Y4848301D01*
X6581292Y4848301D01*
X6581292Y4881321D01*
X6619290Y4881321D01*
X6619290Y4904079D01*
X6614312Y4909108D01*
G37*
G36*
X5271922Y4159808D02*
G01*
X5266893Y4154779D01*
X5266893Y4132021D01*
X5303875Y4132021D01*
X5303875Y4099001D01*
X5266893Y4099001D01*
X5266893Y4074820D01*
X5271922Y4069791D01*
X5351881Y4069791D01*
X5356910Y4074820D01*
X5356910Y4154779D01*
X5351881Y4159808D01*
G37*
G36*
X5112918Y4159808D02*
G01*
X5107889Y4154779D01*
X5107889Y4074820D01*
X5112918Y4069791D01*
X5191912Y4069791D01*
X5196890Y4074820D01*
X5196890Y4099001D01*
X5158892Y4099001D01*
X5158892Y4132021D01*
X5196890Y4132021D01*
X5196890Y4154779D01*
X5191912Y4159808D01*
G37*
G36*
X5112918Y3994708D02*
G01*
X5107889Y3989679D01*
X5107889Y3909720D01*
X5112918Y3904691D01*
X5192877Y3904691D01*
X5197906Y3909720D01*
X5197906Y3932478D01*
X5160924Y3932478D01*
X5160924Y3965498D01*
X5197906Y3965498D01*
X5197906Y3989679D01*
X5192877Y3994708D01*
G37*
G36*
X5272887Y3994708D02*
G01*
X5267909Y3989679D01*
X5267909Y3965498D01*
X5305907Y3965498D01*
X5305907Y3932478D01*
X5267909Y3932478D01*
X5267909Y3909720D01*
X5272887Y3904691D01*
X5351881Y3904691D01*
X5356910Y3909720D01*
X5356910Y3989679D01*
X5351881Y3994708D01*
G37*
G36*
X8457692Y6164427D02*
G01*
X8452713Y6159398D01*
X8452713Y6044387D01*
X8457692Y6039408D01*
X8499703Y6039916D01*
X8499703Y6083909D01*
X8544712Y6083909D01*
X8544712Y6038900D01*
X8585708Y6039408D01*
X8590686Y6044387D01*
X8590686Y6159398D01*
X8585708Y6164427D01*
G37*
G36*
X8457692Y5949391D02*
G01*
X8452713Y5944412D01*
X8452713Y5829401D01*
X8457692Y5824423D01*
X8585708Y5824423D01*
X8590686Y5829401D01*
X8590686Y5944412D01*
X8585708Y5949391D01*
X8544712Y5948883D01*
X8544712Y5904890D01*
X8499703Y5904890D01*
X8499703Y5949391D01*
G37*
D10*
G01*
X3581400Y3663797D03*
G01*
X3581400Y3803802D03*
G01*
X3378200Y3803802D03*
G01*
X3378200Y3663797D03*
D11*
G01*
X5784697Y4495800D03*
G01*
X5924702Y4495800D03*
G01*
X4654702Y4660900D03*
G01*
X4514697Y4660900D03*
G01*
X6521297Y2288895D03*
G01*
X6661302Y2288895D03*
G01*
X1187602Y6019800D03*
G01*
X1047597Y6019800D03*
G01*
X565302Y4991100D03*
G01*
X425297Y4991100D03*
G01*
X565302Y3517900D03*
G01*
X425297Y3517900D03*
G01*
X7676997Y5267604D03*
G01*
X7817002Y5267604D03*
D10*
G01*
X9169400Y5952693D03*
G01*
X9169400Y6092697D03*
G01*
X8966200Y6092697D03*
G01*
X8966200Y5952693D03*
D11*
G01*
X7867802Y5029200D03*
G01*
X7727797Y5029200D03*
D12*
G01*
X8690000Y6743700D03*
G01*
X9089999Y6743700D03*
D13*
G01*
X8957589Y4368800D03*
G01*
X8517610Y4368800D03*
D14*
G01*
X3599992Y878789D03*
G01*
X3799992Y878789D03*
G01*
X3999991Y878789D03*
G01*
X4199991Y878789D03*
G01*
X4399991Y878789D03*
D15*
G01*
X3369995Y313791D03*
G01*
X4629988Y313791D03*
D14*
G01*
X5299989Y878789D03*
G01*
X5499988Y878789D03*
G01*
X5699988Y878789D03*
G01*
X5899988Y878789D03*
G01*
X6099987Y878789D03*
D15*
G01*
X5069992Y313791D03*
G01*
X6329984Y313791D03*
D14*
G01*
X6999986Y878789D03*
G01*
X7199985Y878789D03*
G01*
X7399985Y878789D03*
G01*
X7599984Y878789D03*
G01*
X7799984Y878789D03*
D15*
G01*
X6769988Y313791D03*
G01*
X8029981Y313791D03*
D14*
G01*
X1899996Y878789D03*
G01*
X2099995Y878789D03*
G01*
X2299995Y878789D03*
G01*
X2499995Y878789D03*
G01*
X2699994Y878789D03*
D15*
G01*
X1669999Y313791D03*
G01*
X2929991Y313791D03*
D16*
G01*
X5531688Y4293692D03*
G01*
X5531688Y4358690D03*
G01*
X5531688Y4423689D03*
G01*
X5531688Y4488687D03*
G01*
X5531688Y4553686D03*
G01*
X5531688Y4618710D03*
G01*
X5531688Y4683709D03*
G01*
X5531688Y4748707D03*
G01*
X4958537Y4293692D03*
G01*
X4958537Y4358690D03*
G01*
X4958537Y4423689D03*
G01*
X4958537Y4488687D03*
G01*
X4958537Y4553686D03*
G01*
X4958537Y4618710D03*
G01*
X4958537Y4683709D03*
G01*
X4958537Y4748707D03*
D17*
G01*
X1450289Y6654800D03*
G01*
X1450289Y6527800D03*
G01*
X1450289Y6400800D03*
G01*
X1450289Y6273800D03*
G01*
X1450289Y6146800D03*
G01*
X1450289Y6019800D03*
G01*
X1450289Y5892800D03*
G01*
X2004110Y6654800D03*
G01*
X2004110Y6527800D03*
G01*
X2004110Y6400800D03*
G01*
X2004110Y6273800D03*
G01*
X2004110Y6146800D03*
G01*
X2004110Y6019800D03*
G01*
X2004110Y5892800D03*
D18*
G01*
X5727090Y2280691D03*
G01*
X5727090Y2215692D03*
G01*
X5727090Y2150694D03*
G01*
X5727090Y2085695D03*
G01*
X5727090Y2020696D03*
G01*
X5727090Y1955698D03*
G01*
X5727090Y1890699D03*
G01*
X6287109Y1890699D03*
G01*
X6287109Y1955698D03*
G01*
X6287109Y2020696D03*
G01*
X6287109Y2085695D03*
G01*
X6287109Y2150694D03*
G01*
X6287109Y2215692D03*
G01*
X6287109Y2280691D03*
D19*
G01*
X1037793Y5245100D03*
G01*
X1037793Y4991100D03*
G01*
X1037793Y4737100D03*
G01*
X1037793Y4483100D03*
G01*
X2619806Y4483100D03*
G01*
X2619806Y4737100D03*
G01*
X2619806Y4991100D03*
G01*
X2619806Y5245100D03*
G01*
X1037793Y3771900D03*
G01*
X1037793Y3517900D03*
G01*
X1037793Y3263900D03*
G01*
X1037793Y3009900D03*
G01*
X2619806Y3009900D03*
G01*
X2619806Y3263900D03*
G01*
X2619806Y3517900D03*
G01*
X2619806Y3771900D03*
D20*
G01*
X7162190Y4779695D03*
G01*
X7162190Y4714697D03*
G01*
X7162190Y4649698D03*
G01*
X7162190Y4584700D03*
G01*
X7162190Y4519701D03*
G01*
X7162190Y4454702D03*
G01*
X7162190Y4389704D03*
G01*
X7722209Y4389704D03*
G01*
X7722209Y4454702D03*
G01*
X7722209Y4519701D03*
G01*
X7722209Y4584700D03*
G01*
X7722209Y4649698D03*
G01*
X7722209Y4714697D03*
G01*
X7722209Y4779695D03*
D21*
G01*
X7442200Y4584700D03*
D10*
G01*
X8750300Y6089802D03*
G01*
X8750300Y5949797D03*
D22*
G01*
X8652789Y5190210D03*
G01*
X8717813Y5190210D03*
G01*
X8782811Y5190210D03*
G01*
X8847810Y5190210D03*
G01*
X8652789Y5630189D03*
G01*
X8717813Y5630189D03*
G01*
X8782811Y5630189D03*
G01*
X8847810Y5630189D03*
D23*
G01*
X7454552Y1981202D03*
D24*
G01*
X8522055Y2235200D03*
G01*
X8522055Y1981200D03*
G01*
X8522055Y1727200D03*
D11*
G01*
X7854797Y2755900D03*
G01*
X7994802Y2755900D03*
D25*
G01*
X5784697Y4114800D03*
G01*
X5924702Y4114800D03*
D26*
G01*
X8877300Y2187752D03*
G01*
X8877300Y1749247D03*
D25*
G01*
X5784697Y3949700D03*
G01*
X5924702Y3949700D03*
M02*
