G04 Layer: BottomLayer*
G04 EasyEDA v6.5.46, 2024-09-04 15:34:20*
G04 d73e3e6912d945eb9b412824c50a840e,79071ce94af74c669a867ceed4e6d4b3,10*
G04 Gerber Generator version 0.2*
G04 Scale: 100 percent, Rotated: No, Reflected: No *
G04 Dimensions in millimeters *
G04 leading zeros omitted , absolute positions ,4 integer and 5 decimal *
%FSLAX45Y45*%
%MOMM*%

%ADD10C,0.4000*%
%ADD11C,1.5000*%
%ADD12R,1.7000X1.7000*%
%ADD13C,1.7000*%
%ADD14C,1.4310*%
%ADD15C,3.4501*%
%ADD16C,3.0000*%
%ADD17C,6.5000*%
%ADD18C,1.0000*%
%ADD19C,0.6096*%
%ADD20C,0.6090*%
%ADD21C,0.6100*%
%ADD22C,0.0138*%

%LPD*%
G36*
X6689293Y3144723D02*
G01*
X6685432Y3145485D01*
X6682130Y3147669D01*
X6645097Y3184702D01*
X6642862Y3188004D01*
X6642100Y3191916D01*
X6642100Y4186783D01*
X6642862Y4190695D01*
X6645097Y4193997D01*
X6778802Y4327702D01*
X6782104Y4329938D01*
X6786016Y4330700D01*
X7288784Y4330700D01*
X7289800Y4331716D01*
X7289800Y4875784D01*
X7289088Y4877511D01*
X7267397Y4899202D01*
X7265162Y4902504D01*
X7264400Y4906416D01*
X7264247Y4914747D01*
X7263384Y4914900D01*
X7090816Y4914900D01*
X7086904Y4915662D01*
X7083602Y4917897D01*
X6293662Y5707837D01*
X6291478Y5711088D01*
X6290716Y5715000D01*
X6291478Y5718911D01*
X6293662Y5722162D01*
X6298996Y5727750D01*
X6299200Y5728716D01*
X6299200Y6847840D01*
X6299962Y6851751D01*
X6302197Y6855002D01*
X6305448Y6857238D01*
X6309360Y6858000D01*
X8359140Y6858000D01*
X8363051Y6857238D01*
X8366302Y6855002D01*
X8368538Y6851751D01*
X8369300Y6847840D01*
X8369300Y5681116D01*
X8368538Y5677204D01*
X8366302Y5673902D01*
X8192566Y5500166D01*
X8184083Y5493105D01*
X8091474Y5400497D01*
X8088172Y5398262D01*
X8084261Y5397500D01*
X7760716Y5397500D01*
X7758988Y5396788D01*
X7595311Y5233111D01*
X7594600Y5231384D01*
X7594600Y4319016D01*
X7595311Y4317288D01*
X8152688Y3759911D01*
X8154416Y3759200D01*
X8612632Y3759200D01*
X8616848Y3758285D01*
X8620302Y3755694D01*
X8622334Y3751935D01*
X8622690Y3747617D01*
X8621217Y3743604D01*
X8618169Y3740505D01*
X8607755Y3733749D01*
X8596934Y3724554D01*
X8587384Y3714038D01*
X8579256Y3702405D01*
X8574786Y3693769D01*
X8625230Y3693769D01*
X8625230Y3749040D01*
X8626043Y3752951D01*
X8628227Y3756202D01*
X8631529Y3758437D01*
X8635390Y3759200D01*
X8712809Y3759200D01*
X8716670Y3758437D01*
X8719972Y3756202D01*
X8722156Y3752951D01*
X8722969Y3749040D01*
X8722969Y3693769D01*
X8773414Y3693769D01*
X8768943Y3702405D01*
X8760815Y3714038D01*
X8751265Y3724554D01*
X8740444Y3733749D01*
X8730030Y3740505D01*
X8727033Y3743604D01*
X8725509Y3747617D01*
X8725865Y3751935D01*
X8727897Y3755694D01*
X8731351Y3758285D01*
X8735568Y3759200D01*
X8795816Y3759200D01*
X8799728Y3758437D01*
X8803030Y3756202D01*
X8805214Y3752951D01*
X8805976Y3749040D01*
X8805976Y3528060D01*
X8805214Y3524148D01*
X8803030Y3520897D01*
X8799728Y3518662D01*
X8795816Y3517900D01*
X8421116Y3517900D01*
X8419388Y3517188D01*
X8370011Y3467811D01*
X8369300Y3466084D01*
X8369300Y3191916D01*
X8368538Y3188004D01*
X8366302Y3184702D01*
X8329269Y3147669D01*
X8325967Y3145485D01*
X8322106Y3144723D01*
G37*

%LPC*%
G36*
X8625230Y3545433D02*
G01*
X8625230Y3596030D01*
X8574684Y3596030D01*
X8575802Y3593592D01*
X8583168Y3581450D01*
X8592007Y3570325D01*
X8602218Y3560470D01*
X8613597Y3551986D01*
G37*
G36*
X8722969Y3545433D02*
G01*
X8734602Y3551986D01*
X8745982Y3560470D01*
X8756192Y3570325D01*
X8765032Y3581450D01*
X8772398Y3593592D01*
X8773515Y3596030D01*
X8722969Y3596030D01*
G37*

%LPD*%
G36*
X86360Y114300D02*
G01*
X82448Y115062D01*
X79197Y117297D01*
X76962Y120548D01*
X76200Y124460D01*
X76200Y6911340D01*
X76962Y6915251D01*
X79197Y6918502D01*
X82448Y6920738D01*
X86360Y6921500D01*
X3812540Y6921500D01*
X3816451Y6920738D01*
X3819702Y6918502D01*
X3821937Y6915251D01*
X3822700Y6911340D01*
X3822700Y3764838D01*
X3821937Y3760978D01*
X3819753Y3757676D01*
X3814368Y3752240D01*
X3810660Y3747312D01*
X3807510Y3744569D01*
X3803497Y3743350D01*
X3799332Y3743807D01*
X3795725Y3745941D01*
X3793286Y3749344D01*
X3792423Y3753459D01*
X3792372Y3926078D01*
X3791153Y3934815D01*
X3788460Y3942842D01*
X3784346Y3950208D01*
X3778605Y3957116D01*
X3663391Y4072280D01*
X3656329Y4077614D01*
X3648760Y4081373D01*
X3640632Y4083659D01*
X3631742Y4084523D01*
X3172815Y4084523D01*
X3168954Y4085285D01*
X3165652Y4087469D01*
X3122269Y4130852D01*
X3120085Y4134154D01*
X3119323Y4138015D01*
X3119323Y4193590D01*
X3119780Y4196638D01*
X3122218Y4200906D01*
X3126333Y4209846D01*
X3128873Y4219295D01*
X3129737Y4229100D01*
X3128873Y4238904D01*
X3126333Y4248353D01*
X3122218Y4257294D01*
X3116580Y4265320D01*
X3109620Y4272280D01*
X3101594Y4277918D01*
X3092653Y4282033D01*
X3083204Y4284573D01*
X3073400Y4285437D01*
X3063595Y4284573D01*
X3054146Y4282033D01*
X3045206Y4277918D01*
X3037179Y4272280D01*
X3030220Y4265320D01*
X3024581Y4257294D01*
X3020466Y4248353D01*
X3017926Y4238904D01*
X3017062Y4229100D01*
X3017621Y4222394D01*
X3017266Y4218584D01*
X3015488Y4215231D01*
X3012592Y4212742D01*
X3008985Y4211472D01*
X3005175Y4211624D01*
X3001670Y4213199D01*
X2999994Y4214418D01*
X2991053Y4218533D01*
X2981604Y4221073D01*
X2971800Y4221937D01*
X2961995Y4221073D01*
X2952546Y4218533D01*
X2943250Y4214215D01*
X2939338Y4213301D01*
X2935325Y4213961D01*
X2931922Y4216146D01*
X2929636Y4219448D01*
X2928823Y4223461D01*
X2928823Y4243984D01*
X2929585Y4247845D01*
X2931769Y4251147D01*
X3013252Y4332630D01*
X3016554Y4334814D01*
X3020415Y4335576D01*
X3126790Y4335576D01*
X3129838Y4335119D01*
X3134106Y4332681D01*
X3143046Y4328566D01*
X3152495Y4326026D01*
X3162300Y4325162D01*
X3172104Y4326026D01*
X3181553Y4328566D01*
X3190494Y4332681D01*
X3198520Y4338320D01*
X3205480Y4345279D01*
X3211118Y4353306D01*
X3215233Y4362246D01*
X3217773Y4371695D01*
X3218637Y4381500D01*
X3217773Y4391304D01*
X3215233Y4400753D01*
X3211118Y4409694D01*
X3205480Y4417720D01*
X3198520Y4424680D01*
X3190494Y4430318D01*
X3181553Y4434433D01*
X3172104Y4436973D01*
X3162300Y4437837D01*
X3152495Y4436973D01*
X3143046Y4434433D01*
X3134106Y4430318D01*
X3129838Y4427880D01*
X3126790Y4427423D01*
X2995422Y4427372D01*
X2986684Y4426153D01*
X2978658Y4423460D01*
X2971292Y4419346D01*
X2964383Y4413605D01*
X2849219Y4298391D01*
X2843885Y4291330D01*
X2840126Y4283760D01*
X2837840Y4275632D01*
X2836976Y4266742D01*
X2836976Y3997909D01*
X2836519Y3994861D01*
X2834081Y3990594D01*
X2829966Y3981653D01*
X2827426Y3972204D01*
X2826562Y3962400D01*
X2827426Y3952595D01*
X2829966Y3943146D01*
X2834081Y3934206D01*
X2839720Y3926179D01*
X2846679Y3919220D01*
X2854706Y3913581D01*
X2863646Y3909466D01*
X2873095Y3906926D01*
X2882900Y3906062D01*
X2892704Y3906926D01*
X2902153Y3909466D01*
X2911094Y3913581D01*
X2919120Y3919220D01*
X2926080Y3926179D01*
X2931718Y3934206D01*
X2935833Y3943146D01*
X2938373Y3952595D01*
X2939237Y3962400D01*
X2938373Y3972204D01*
X2935833Y3981653D01*
X2931718Y3990594D01*
X2929280Y3994861D01*
X2928823Y3997909D01*
X2928823Y4004818D01*
X2929585Y4008729D01*
X2931769Y4012031D01*
X2935071Y4014215D01*
X2938983Y4014978D01*
X2942844Y4014215D01*
X2946146Y4012031D01*
X3042208Y3916019D01*
X3049270Y3910685D01*
X3056839Y3906926D01*
X3064967Y3904640D01*
X3073857Y3903776D01*
X3532784Y3903776D01*
X3536645Y3903014D01*
X3539947Y3900830D01*
X3596030Y3844747D01*
X3598214Y3841445D01*
X3598976Y3837584D01*
X3599027Y3109722D01*
X3600246Y3100984D01*
X3602939Y3092958D01*
X3607054Y3085592D01*
X3612794Y3078683D01*
X3819702Y2871774D01*
X3821937Y2868472D01*
X3822700Y2864561D01*
X3822700Y1478838D01*
X3821937Y1474927D01*
X3819702Y1471625D01*
X3776319Y1428191D01*
X3770985Y1421130D01*
X3767226Y1413560D01*
X3764940Y1405432D01*
X3764076Y1396542D01*
X3764076Y1229309D01*
X3763619Y1226261D01*
X3761181Y1221994D01*
X3757066Y1213053D01*
X3754526Y1203604D01*
X3753662Y1193800D01*
X3754526Y1183995D01*
X3757066Y1174546D01*
X3761181Y1165606D01*
X3766820Y1157579D01*
X3773779Y1150620D01*
X3781806Y1144981D01*
X3790746Y1140866D01*
X3800195Y1138326D01*
X3810000Y1137462D01*
X3811676Y1137615D01*
X3815791Y1137107D01*
X3819398Y1134973D01*
X3821836Y1131570D01*
X3822700Y1127455D01*
X3822700Y640283D01*
X3821937Y636371D01*
X3819702Y633069D01*
X3816451Y630885D01*
X3812540Y630123D01*
X2575915Y630123D01*
X2572054Y630885D01*
X2568752Y633069D01*
X2559456Y642366D01*
X2557830Y644499D01*
X2556814Y646938D01*
X2554833Y654253D01*
X2550718Y663194D01*
X2545080Y671220D01*
X2538120Y678180D01*
X2530094Y683818D01*
X2521153Y687933D01*
X2511704Y690473D01*
X2501900Y691337D01*
X2492095Y690473D01*
X2482646Y687933D01*
X2473706Y683818D01*
X2465679Y678180D01*
X2458720Y671220D01*
X2453081Y663194D01*
X2448966Y654253D01*
X2446426Y644804D01*
X2445562Y635000D01*
X2446426Y625195D01*
X2448966Y615746D01*
X2453081Y606806D01*
X2458720Y598779D01*
X2465679Y591820D01*
X2473706Y586181D01*
X2482646Y582066D01*
X2489962Y580085D01*
X2492400Y579069D01*
X2494534Y577443D01*
X2521508Y550519D01*
X2528570Y545185D01*
X2536139Y541426D01*
X2544267Y539140D01*
X2553157Y538276D01*
X3812540Y538276D01*
X3816451Y537514D01*
X3819702Y535330D01*
X3821937Y532028D01*
X3822700Y528116D01*
X3822700Y124460D01*
X3821937Y120548D01*
X3819702Y117297D01*
X3816451Y115062D01*
X3812540Y114300D01*
G37*

%LPC*%
G36*
X614527Y249123D02*
G01*
X640740Y250088D01*
X666800Y253034D01*
X692607Y257911D01*
X717956Y264718D01*
X742696Y273354D01*
X766775Y283870D01*
X789940Y296113D01*
X812190Y310083D01*
X833272Y325678D01*
X853186Y342798D01*
X871728Y361340D01*
X888847Y381203D01*
X904443Y402336D01*
X918413Y424535D01*
X930656Y447751D01*
X941171Y471830D01*
X949807Y496570D01*
X956614Y521919D01*
X961491Y547725D01*
X964437Y573786D01*
X965403Y599998D01*
X964437Y626211D01*
X961491Y652322D01*
X956614Y678078D01*
X949807Y703427D01*
X941171Y728218D01*
X930656Y752246D01*
X918413Y775462D01*
X904443Y797661D01*
X888847Y818794D01*
X871728Y838657D01*
X853186Y857250D01*
X833272Y874369D01*
X812190Y889914D01*
X789940Y903884D01*
X766775Y916178D01*
X742696Y926642D01*
X717956Y935329D01*
X692607Y942136D01*
X666800Y947013D01*
X640740Y949909D01*
X614527Y950925D01*
X588264Y949909D01*
X562203Y947013D01*
X536397Y942136D01*
X511048Y935329D01*
X486308Y926642D01*
X462229Y916178D01*
X439064Y903884D01*
X416814Y889914D01*
X395732Y874369D01*
X375818Y857250D01*
X357276Y838657D01*
X340156Y818794D01*
X324561Y797661D01*
X310591Y775462D01*
X298348Y752246D01*
X287832Y728218D01*
X279196Y703427D01*
X272389Y678078D01*
X267512Y652322D01*
X264566Y626211D01*
X263601Y599998D01*
X264566Y573786D01*
X267512Y547725D01*
X272389Y521919D01*
X279196Y496570D01*
X287832Y471830D01*
X298348Y447751D01*
X310591Y424535D01*
X324561Y402336D01*
X340156Y381203D01*
X357276Y361340D01*
X375818Y342798D01*
X395732Y325678D01*
X416814Y310083D01*
X439064Y296113D01*
X462229Y283870D01*
X486308Y273354D01*
X511048Y264718D01*
X536397Y257911D01*
X562203Y253034D01*
X588264Y250088D01*
G37*
G36*
X1900021Y1175562D02*
G01*
X1909775Y1176426D01*
X1919274Y1178966D01*
X1928164Y1183081D01*
X1932432Y1185519D01*
X1935480Y1185976D01*
X3571290Y1185976D01*
X3574338Y1185519D01*
X3578606Y1183081D01*
X3587546Y1178966D01*
X3596995Y1176426D01*
X3606800Y1175562D01*
X3616604Y1176426D01*
X3626053Y1178966D01*
X3634994Y1183081D01*
X3643020Y1188720D01*
X3649979Y1195679D01*
X3655618Y1203706D01*
X3659733Y1212646D01*
X3662273Y1222095D01*
X3663137Y1231900D01*
X3662273Y1241704D01*
X3659733Y1251153D01*
X3655618Y1260094D01*
X3649979Y1268120D01*
X3643020Y1275080D01*
X3634994Y1280718D01*
X3626053Y1284833D01*
X3616604Y1287373D01*
X3606800Y1288237D01*
X3596995Y1287373D01*
X3587546Y1284833D01*
X3578606Y1280718D01*
X3574338Y1278280D01*
X3571290Y1277823D01*
X1935480Y1277823D01*
X1932432Y1278280D01*
X1928164Y1280718D01*
X1919274Y1284833D01*
X1909775Y1287373D01*
X1900021Y1288237D01*
X1890217Y1287373D01*
X1880717Y1284833D01*
X1871827Y1280718D01*
X1863750Y1275080D01*
X1856841Y1268120D01*
X1851202Y1260094D01*
X1847037Y1251153D01*
X1844497Y1241704D01*
X1843633Y1231900D01*
X1844497Y1222095D01*
X1847037Y1212646D01*
X1851202Y1203706D01*
X1856841Y1195679D01*
X1863750Y1188720D01*
X1871827Y1183081D01*
X1880717Y1178966D01*
X1890217Y1176426D01*
G37*
G36*
X594868Y1571345D02*
G01*
X594868Y1645869D01*
X520395Y1645869D01*
X527761Y1632813D01*
X538276Y1618030D01*
X550214Y1604416D01*
X563524Y1592122D01*
X578002Y1581251D01*
X593547Y1571955D01*
G37*
G36*
X757529Y1571498D02*
G01*
X766724Y1576425D01*
X781761Y1586534D01*
X795680Y1598117D01*
X808329Y1611071D01*
X819556Y1625295D01*
X829259Y1640586D01*
X831900Y1645869D01*
X757529Y1645869D01*
G37*
G36*
X757529Y1808530D02*
G01*
X831900Y1808530D01*
X829259Y1813814D01*
X819556Y1829104D01*
X808329Y1843328D01*
X795680Y1856282D01*
X781761Y1867865D01*
X766724Y1877974D01*
X757529Y1882902D01*
G37*
G36*
X520395Y1808530D02*
G01*
X594868Y1808530D01*
X594868Y1883054D01*
X593547Y1882444D01*
X578002Y1873148D01*
X563524Y1862277D01*
X550214Y1849983D01*
X538276Y1836369D01*
X527761Y1821586D01*
G37*
G36*
X680720Y2059381D02*
G01*
X698804Y2060752D01*
X716584Y2064004D01*
X734009Y2069084D01*
X750773Y2075891D01*
X766724Y2084425D01*
X781761Y2094534D01*
X795680Y2106117D01*
X808329Y2119071D01*
X819556Y2133295D01*
X829259Y2148586D01*
X837387Y2164740D01*
X843737Y2181707D01*
X848360Y2199233D01*
X851153Y2217115D01*
X852068Y2235200D01*
X851153Y2253284D01*
X848360Y2271166D01*
X843737Y2288692D01*
X837387Y2305659D01*
X829259Y2321814D01*
X819556Y2337104D01*
X808329Y2351328D01*
X795680Y2364282D01*
X781761Y2375865D01*
X766724Y2385974D01*
X750773Y2394508D01*
X734009Y2401316D01*
X716584Y2406396D01*
X698804Y2409647D01*
X680720Y2411018D01*
X662635Y2410561D01*
X644652Y2408224D01*
X627024Y2404110D01*
X609955Y2398115D01*
X593547Y2390444D01*
X578002Y2381148D01*
X563524Y2370277D01*
X550214Y2357983D01*
X538276Y2344369D01*
X527761Y2329586D01*
X518871Y2313838D01*
X511606Y2297226D01*
X506120Y2280005D01*
X502412Y2262276D01*
X500532Y2244242D01*
X500532Y2226157D01*
X502412Y2208123D01*
X506120Y2190394D01*
X511606Y2173173D01*
X518871Y2156561D01*
X527761Y2140813D01*
X538276Y2126030D01*
X550214Y2112416D01*
X563524Y2100122D01*
X578002Y2089251D01*
X593547Y2079955D01*
X609955Y2072284D01*
X627024Y2066289D01*
X644652Y2062175D01*
X662635Y2059838D01*
G37*
G36*
X330200Y2699562D02*
G01*
X340004Y2700426D01*
X349453Y2702966D01*
X358394Y2707081D01*
X362661Y2709519D01*
X365709Y2709976D01*
X472490Y2709976D01*
X475538Y2709519D01*
X479806Y2707081D01*
X488746Y2702966D01*
X498195Y2700426D01*
X508000Y2699562D01*
X517804Y2700426D01*
X527253Y2702966D01*
X536194Y2707081D01*
X544220Y2712720D01*
X551180Y2719679D01*
X556818Y2727706D01*
X560933Y2736646D01*
X563473Y2746095D01*
X564337Y2755900D01*
X563473Y2765704D01*
X560933Y2775153D01*
X556818Y2784094D01*
X551180Y2792120D01*
X544220Y2799080D01*
X536194Y2804718D01*
X527253Y2808833D01*
X517804Y2811373D01*
X508000Y2812237D01*
X498195Y2811373D01*
X488746Y2808833D01*
X479806Y2804718D01*
X475538Y2802280D01*
X472490Y2801823D01*
X365709Y2801823D01*
X362661Y2802280D01*
X358394Y2804718D01*
X349453Y2808833D01*
X340004Y2811373D01*
X330200Y2812237D01*
X320395Y2811373D01*
X310946Y2808833D01*
X302006Y2804718D01*
X293979Y2799080D01*
X287020Y2792120D01*
X281381Y2784094D01*
X277266Y2775153D01*
X274726Y2765704D01*
X273862Y2755900D01*
X274726Y2746095D01*
X277266Y2736646D01*
X281381Y2727706D01*
X287020Y2719679D01*
X293979Y2712720D01*
X302006Y2707081D01*
X310946Y2702966D01*
X320395Y2700426D01*
G37*
G36*
X165100Y4172762D02*
G01*
X174904Y4173626D01*
X184353Y4176166D01*
X193294Y4180281D01*
X197561Y4182719D01*
X200609Y4183176D01*
X497890Y4183176D01*
X500938Y4182719D01*
X505206Y4180281D01*
X514146Y4176166D01*
X523595Y4173626D01*
X533400Y4172762D01*
X543204Y4173626D01*
X552653Y4176166D01*
X561594Y4180281D01*
X569620Y4185920D01*
X576580Y4192879D01*
X582218Y4200906D01*
X586333Y4209846D01*
X588873Y4219295D01*
X589737Y4229100D01*
X588873Y4238904D01*
X586333Y4248353D01*
X582218Y4257294D01*
X576580Y4265320D01*
X569620Y4272280D01*
X561594Y4277918D01*
X552653Y4282033D01*
X543204Y4284573D01*
X533400Y4285437D01*
X523595Y4284573D01*
X514146Y4282033D01*
X505206Y4277918D01*
X500938Y4275480D01*
X497890Y4275023D01*
X200609Y4275023D01*
X197561Y4275480D01*
X193294Y4277918D01*
X184353Y4282033D01*
X174904Y4284573D01*
X165100Y4285437D01*
X155295Y4284573D01*
X145846Y4282033D01*
X136906Y4277918D01*
X128879Y4272280D01*
X121920Y4265320D01*
X116281Y4257294D01*
X112166Y4248353D01*
X109626Y4238904D01*
X108762Y4229100D01*
X109626Y4219295D01*
X112166Y4209846D01*
X116281Y4200906D01*
X121920Y4192879D01*
X128879Y4185920D01*
X136906Y4180281D01*
X145846Y4176166D01*
X155295Y4173626D01*
G37*
G36*
X1612900Y5595162D02*
G01*
X1622704Y5596026D01*
X1632153Y5598566D01*
X1641093Y5602681D01*
X1645361Y5605119D01*
X1648409Y5605576D01*
X1742490Y5605576D01*
X1745538Y5605119D01*
X1749806Y5602681D01*
X1758746Y5598566D01*
X1768195Y5596026D01*
X1778000Y5595162D01*
X1787804Y5596026D01*
X1797253Y5598566D01*
X1806193Y5602681D01*
X1814220Y5608320D01*
X1821180Y5615279D01*
X1826818Y5623306D01*
X1830933Y5632246D01*
X1833473Y5641695D01*
X1834337Y5651500D01*
X1833473Y5661304D01*
X1830933Y5670753D01*
X1826818Y5679694D01*
X1821180Y5687720D01*
X1814220Y5694680D01*
X1806193Y5700318D01*
X1797253Y5704433D01*
X1787804Y5706973D01*
X1778000Y5707837D01*
X1768195Y5706973D01*
X1758746Y5704433D01*
X1749806Y5700318D01*
X1745538Y5697880D01*
X1742490Y5697423D01*
X1648409Y5697423D01*
X1645361Y5697880D01*
X1641093Y5700318D01*
X1632153Y5704433D01*
X1622704Y5706973D01*
X1612900Y5707837D01*
X1603095Y5706973D01*
X1593646Y5704433D01*
X1584706Y5700318D01*
X1576679Y5694680D01*
X1569720Y5687720D01*
X1564081Y5679694D01*
X1559966Y5670753D01*
X1557426Y5661304D01*
X1556562Y5651500D01*
X1557426Y5641695D01*
X1559966Y5632246D01*
X1564081Y5623306D01*
X1569720Y5615279D01*
X1576679Y5608320D01*
X1584706Y5602681D01*
X1593646Y5598566D01*
X1603095Y5596026D01*
G37*
G36*
X614527Y6049111D02*
G01*
X640740Y6050076D01*
X666800Y6053023D01*
X692607Y6057900D01*
X717956Y6064707D01*
X742696Y6073343D01*
X766775Y6083858D01*
X789940Y6096101D01*
X812190Y6110071D01*
X833272Y6125667D01*
X853186Y6142786D01*
X871728Y6161328D01*
X888847Y6181191D01*
X904443Y6202324D01*
X918413Y6224524D01*
X930656Y6247739D01*
X941171Y6271818D01*
X949807Y6296558D01*
X956614Y6321907D01*
X961491Y6347714D01*
X964437Y6373774D01*
X965403Y6399987D01*
X964437Y6426200D01*
X961491Y6452311D01*
X956614Y6478066D01*
X949807Y6503416D01*
X941171Y6528206D01*
X930656Y6552234D01*
X918413Y6575450D01*
X904443Y6597650D01*
X888847Y6618782D01*
X871728Y6638645D01*
X853186Y6657238D01*
X833272Y6674358D01*
X812190Y6689902D01*
X789940Y6703872D01*
X766775Y6716166D01*
X742696Y6726631D01*
X717956Y6735318D01*
X692607Y6742125D01*
X666800Y6747002D01*
X640740Y6749897D01*
X614527Y6750913D01*
X588264Y6749897D01*
X562203Y6747002D01*
X536397Y6742125D01*
X511048Y6735318D01*
X486308Y6726631D01*
X462229Y6716166D01*
X439064Y6703872D01*
X416814Y6689902D01*
X395732Y6674358D01*
X375818Y6657238D01*
X357276Y6638645D01*
X340156Y6618782D01*
X324561Y6597650D01*
X310591Y6575450D01*
X298348Y6552234D01*
X287832Y6528206D01*
X279196Y6503416D01*
X272389Y6478066D01*
X267512Y6452311D01*
X264566Y6426200D01*
X263601Y6399987D01*
X264566Y6373774D01*
X267512Y6347714D01*
X272389Y6321907D01*
X279196Y6296558D01*
X287832Y6271818D01*
X298348Y6247739D01*
X310591Y6224524D01*
X324561Y6202324D01*
X340156Y6181191D01*
X357276Y6161328D01*
X375818Y6142786D01*
X395732Y6125667D01*
X416814Y6110071D01*
X439064Y6096101D01*
X462229Y6083858D01*
X486308Y6073343D01*
X511048Y6064707D01*
X536397Y6057900D01*
X562203Y6053023D01*
X588264Y6050076D01*
G37*

%LPD*%
G36*
X8611616Y114300D02*
G01*
X8607399Y115214D01*
X8603945Y117754D01*
X8601862Y121513D01*
X8601557Y125831D01*
X8602980Y129844D01*
X8604605Y132384D01*
X8606485Y137871D01*
X8607196Y144170D01*
X8607196Y313029D01*
X8606485Y319328D01*
X8604605Y324815D01*
X8601506Y329692D01*
X8597392Y333806D01*
X8592515Y336905D01*
X8587028Y338785D01*
X8580729Y339496D01*
X8411870Y339496D01*
X8405571Y338785D01*
X8400084Y336905D01*
X8395208Y333806D01*
X8391093Y329692D01*
X8387994Y324815D01*
X8386114Y319328D01*
X8385403Y313029D01*
X8385403Y271983D01*
X8384641Y268071D01*
X8382406Y264769D01*
X8379104Y262585D01*
X8375243Y261823D01*
X7795615Y261823D01*
X7791754Y262585D01*
X7788452Y264769D01*
X7643469Y409752D01*
X7641285Y413054D01*
X7640523Y416915D01*
X7640523Y472490D01*
X7640980Y475538D01*
X7643418Y479806D01*
X7647533Y488746D01*
X7650073Y498195D01*
X7650937Y508000D01*
X7650073Y517804D01*
X7648041Y525526D01*
X7647736Y529183D01*
X7648803Y532739D01*
X7651038Y535686D01*
X7654188Y537616D01*
X7657846Y538276D01*
X7762290Y538276D01*
X7765338Y537819D01*
X7769606Y535381D01*
X7778546Y531266D01*
X7787995Y528726D01*
X7797800Y527862D01*
X7807604Y528726D01*
X7817053Y531266D01*
X7825994Y535381D01*
X7834020Y541020D01*
X7840980Y547979D01*
X7846618Y556006D01*
X7850733Y564946D01*
X7853273Y574395D01*
X7854137Y584200D01*
X7853273Y594004D01*
X7850733Y603453D01*
X7846618Y612394D01*
X7840980Y620420D01*
X7834020Y627380D01*
X7825994Y633018D01*
X7817053Y637133D01*
X7807604Y639673D01*
X7797800Y640537D01*
X7787995Y639673D01*
X7778546Y637133D01*
X7769606Y633018D01*
X7765338Y630580D01*
X7762290Y630123D01*
X7659776Y630123D01*
X7656118Y630783D01*
X7652969Y632714D01*
X7650683Y635660D01*
X7649667Y639216D01*
X7650937Y653237D01*
X7650073Y663041D01*
X7647533Y672490D01*
X7643418Y681431D01*
X7637780Y689457D01*
X7630820Y696417D01*
X7622794Y702056D01*
X7613853Y706170D01*
X7604404Y708710D01*
X7594600Y709574D01*
X7584795Y708710D01*
X7575346Y706170D01*
X7566406Y702056D01*
X7562138Y699617D01*
X7559090Y699160D01*
X5941009Y699160D01*
X5937961Y699617D01*
X5933694Y702056D01*
X5924753Y706170D01*
X5915304Y708710D01*
X5905500Y709574D01*
X5895695Y708710D01*
X5886246Y706170D01*
X5877306Y702056D01*
X5869279Y696417D01*
X5862320Y689457D01*
X5856681Y681431D01*
X5852566Y672490D01*
X5850026Y663041D01*
X5849162Y653237D01*
X5850432Y639216D01*
X5849416Y635660D01*
X5847130Y632714D01*
X5843981Y630783D01*
X5840323Y630123D01*
X3934460Y630123D01*
X3930548Y630885D01*
X3927297Y633069D01*
X3925062Y636371D01*
X3924300Y640283D01*
X3924300Y1442161D01*
X3925062Y1446072D01*
X3927297Y1449374D01*
X3940352Y1462430D01*
X3943654Y1464614D01*
X3947515Y1465376D01*
X4141978Y1465427D01*
X4150715Y1466646D01*
X4158742Y1469339D01*
X4166108Y1473454D01*
X4173016Y1479194D01*
X4249166Y1555343D01*
X4251299Y1556969D01*
X4253738Y1557985D01*
X4261053Y1559966D01*
X4269994Y1564081D01*
X4278020Y1569720D01*
X4284980Y1576679D01*
X4290618Y1584706D01*
X4294733Y1593646D01*
X4297273Y1603095D01*
X4298137Y1612900D01*
X4297273Y1622704D01*
X4294733Y1632153D01*
X4290618Y1641093D01*
X4284980Y1649120D01*
X4278020Y1656080D01*
X4269994Y1661718D01*
X4261053Y1665833D01*
X4251604Y1668373D01*
X4241800Y1669237D01*
X4231995Y1668373D01*
X4222546Y1665833D01*
X4213606Y1661718D01*
X4205579Y1656080D01*
X4198620Y1649120D01*
X4192981Y1641093D01*
X4188866Y1632153D01*
X4186885Y1624838D01*
X4185869Y1622399D01*
X4184243Y1620266D01*
X4124147Y1560169D01*
X4120845Y1557985D01*
X4116984Y1557223D01*
X3934460Y1557223D01*
X3930548Y1557985D01*
X3927297Y1560169D01*
X3925062Y1563471D01*
X3924300Y1567383D01*
X3924300Y2037943D01*
X3925062Y2041804D01*
X3927297Y2045106D01*
X3930548Y2047341D01*
X3934460Y2048103D01*
X4072229Y2048103D01*
X4078528Y2048814D01*
X4084015Y2050694D01*
X4088892Y2053793D01*
X4093006Y2057907D01*
X4096105Y2062784D01*
X4097985Y2068271D01*
X4098696Y2074570D01*
X4098696Y2243429D01*
X4097985Y2249728D01*
X4096105Y2255215D01*
X4093006Y2260092D01*
X4088892Y2264206D01*
X4084015Y2267305D01*
X4078528Y2269185D01*
X4072229Y2269896D01*
X3934460Y2269896D01*
X3930548Y2270658D01*
X3927297Y2272893D01*
X3925062Y2276195D01*
X3924300Y2280056D01*
X3924300Y2742641D01*
X3925062Y2746552D01*
X3927297Y2749854D01*
X3930548Y2752039D01*
X3934460Y2752801D01*
X3938371Y2752039D01*
X3941622Y2749854D01*
X4032808Y2658719D01*
X4039870Y2653385D01*
X4047439Y2649626D01*
X4055567Y2647340D01*
X4064457Y2646476D01*
X4599584Y2646476D01*
X4603445Y2645714D01*
X4606747Y2643530D01*
X4675530Y2574747D01*
X4677714Y2571445D01*
X4678476Y2567584D01*
X4678476Y1797761D01*
X4677664Y1793748D01*
X4675378Y1790446D01*
X4671974Y1788261D01*
X4667961Y1787601D01*
X4664049Y1788515D01*
X4654753Y1792833D01*
X4645304Y1795373D01*
X4635500Y1796237D01*
X4625695Y1795373D01*
X4616246Y1792833D01*
X4607306Y1788718D01*
X4599279Y1783080D01*
X4592320Y1776120D01*
X4586681Y1768093D01*
X4582566Y1759153D01*
X4580026Y1749704D01*
X4579162Y1739900D01*
X4580026Y1730095D01*
X4582566Y1720646D01*
X4586681Y1711706D01*
X4589119Y1707438D01*
X4589576Y1704390D01*
X4589627Y1484122D01*
X4590846Y1475384D01*
X4593539Y1467358D01*
X4597654Y1459992D01*
X4603394Y1453083D01*
X4793843Y1262634D01*
X4795469Y1260500D01*
X4796485Y1258062D01*
X4798466Y1250746D01*
X4802581Y1241806D01*
X4808220Y1233779D01*
X4815179Y1226820D01*
X4823206Y1221181D01*
X4832146Y1217066D01*
X4841595Y1214526D01*
X4851400Y1213662D01*
X4861204Y1214526D01*
X4870653Y1217066D01*
X4879594Y1221181D01*
X4887620Y1226820D01*
X4894580Y1233779D01*
X4900218Y1241806D01*
X4903216Y1248257D01*
X4905502Y1251407D01*
X4908753Y1253490D01*
X4912563Y1254150D01*
X4916373Y1253337D01*
X4919573Y1251204D01*
X4934610Y1236268D01*
X4941570Y1230985D01*
X4949139Y1227226D01*
X4957267Y1224940D01*
X4966157Y1224076D01*
X5273090Y1224076D01*
X5276138Y1223619D01*
X5280406Y1221181D01*
X5289346Y1217066D01*
X5298795Y1214526D01*
X5308600Y1213662D01*
X5318404Y1214526D01*
X5327853Y1217066D01*
X5336794Y1221181D01*
X5344820Y1226820D01*
X5351780Y1233779D01*
X5357418Y1241806D01*
X5360416Y1248257D01*
X5362702Y1251407D01*
X5365953Y1253490D01*
X5369814Y1254150D01*
X5373573Y1253337D01*
X5376824Y1251153D01*
X5441543Y1186434D01*
X5443169Y1184300D01*
X5444185Y1181862D01*
X5446166Y1174546D01*
X5450281Y1165606D01*
X5455920Y1157579D01*
X5462879Y1150620D01*
X5470906Y1144981D01*
X5479846Y1140866D01*
X5489295Y1138326D01*
X5499100Y1137462D01*
X5508904Y1138326D01*
X5518353Y1140866D01*
X5527294Y1144981D01*
X5535320Y1150620D01*
X5542280Y1157579D01*
X5547918Y1165606D01*
X5552033Y1174546D01*
X5554573Y1183995D01*
X5555437Y1193800D01*
X5554573Y1203604D01*
X5552033Y1213053D01*
X5547918Y1221994D01*
X5542280Y1230020D01*
X5535320Y1236980D01*
X5527294Y1242618D01*
X5518353Y1246733D01*
X5511038Y1248714D01*
X5508599Y1249730D01*
X5506466Y1251356D01*
X5460034Y1297787D01*
X5457850Y1301089D01*
X5457037Y1304950D01*
X5456224Y1615592D01*
X5456682Y1618691D01*
X5459018Y1622806D01*
X5463133Y1631746D01*
X5465673Y1641195D01*
X5466537Y1651000D01*
X5465673Y1660804D01*
X5463133Y1670253D01*
X5459018Y1679193D01*
X5453380Y1687220D01*
X5446420Y1694180D01*
X5438394Y1699818D01*
X5429453Y1703933D01*
X5420004Y1706473D01*
X5410200Y1707337D01*
X5400395Y1706473D01*
X5390946Y1703933D01*
X5382006Y1699818D01*
X5373979Y1694180D01*
X5367020Y1687220D01*
X5361381Y1679193D01*
X5357266Y1670253D01*
X5354726Y1660804D01*
X5353862Y1651000D01*
X5354726Y1641195D01*
X5357266Y1631746D01*
X5361381Y1622806D01*
X5363921Y1618437D01*
X5364378Y1615389D01*
X5364988Y1401521D01*
X5364124Y1397406D01*
X5361686Y1394002D01*
X5358028Y1391869D01*
X5353862Y1391412D01*
X5346242Y1392123D01*
X5039715Y1392123D01*
X5035854Y1392885D01*
X5032552Y1395069D01*
X4964176Y1463446D01*
X4962042Y1466646D01*
X4961178Y1470355D01*
X4961788Y1474114D01*
X4963769Y1477416D01*
X4966766Y1479702D01*
X4970475Y1480769D01*
X4975504Y1481226D01*
X4984953Y1483766D01*
X4993894Y1487881D01*
X5001920Y1493520D01*
X5008880Y1500479D01*
X5014518Y1508506D01*
X5018633Y1517446D01*
X5021173Y1526895D01*
X5022037Y1536700D01*
X5021173Y1546504D01*
X5018633Y1555953D01*
X5014518Y1564894D01*
X5008880Y1572920D01*
X5001920Y1579880D01*
X4993894Y1585518D01*
X4984953Y1589633D01*
X4981041Y1590700D01*
X4977130Y1592732D01*
X4974437Y1596237D01*
X4973523Y1600504D01*
X4973523Y2095754D01*
X4974183Y2099411D01*
X4976114Y2102561D01*
X4979060Y2104796D01*
X4982616Y2105863D01*
X4986274Y2105558D01*
X4993995Y2103526D01*
X5003800Y2102662D01*
X5013604Y2103526D01*
X5023053Y2106066D01*
X5031994Y2110181D01*
X5040020Y2115820D01*
X5046980Y2122779D01*
X5052618Y2130806D01*
X5056733Y2139746D01*
X5059273Y2149195D01*
X5060137Y2159000D01*
X5059273Y2168804D01*
X5056733Y2178253D01*
X5052618Y2187194D01*
X5050180Y2191461D01*
X5049723Y2194509D01*
X5049672Y2770378D01*
X5048453Y2779115D01*
X5045760Y2787142D01*
X5041646Y2794508D01*
X5035905Y2801416D01*
X4933391Y2903880D01*
X4926330Y2909214D01*
X4918760Y2912973D01*
X4910632Y2915259D01*
X4901742Y2916123D01*
X4150715Y2916123D01*
X4146854Y2916885D01*
X4143552Y2919069D01*
X3927297Y3135325D01*
X3925062Y3138627D01*
X3924300Y3142538D01*
X3924300Y3728161D01*
X3925062Y3732072D01*
X3927297Y3735374D01*
X3953052Y3761130D01*
X3956354Y3763314D01*
X3960215Y3764076D01*
X4078884Y3764076D01*
X4082745Y3763314D01*
X4086047Y3761130D01*
X4091330Y3755847D01*
X4093514Y3752545D01*
X4094276Y3748684D01*
X4094276Y3740861D01*
X4093464Y3736848D01*
X4091178Y3733546D01*
X4087774Y3731361D01*
X4083761Y3730701D01*
X4079849Y3731615D01*
X4070553Y3735933D01*
X4061104Y3738473D01*
X4051300Y3739337D01*
X4041495Y3738473D01*
X4032046Y3735933D01*
X4023106Y3731818D01*
X4015079Y3726179D01*
X4008120Y3719220D01*
X4002481Y3711194D01*
X3998366Y3702253D01*
X3995826Y3692804D01*
X3994962Y3683000D01*
X3995826Y3673195D01*
X3998366Y3663746D01*
X4002481Y3654806D01*
X4004919Y3650538D01*
X4005376Y3647490D01*
X4005427Y3173222D01*
X4006646Y3164484D01*
X4009339Y3156458D01*
X4013454Y3149092D01*
X4019194Y3142183D01*
X4172508Y2988919D01*
X4179570Y2983585D01*
X4187139Y2979826D01*
X4195267Y2977540D01*
X4204157Y2976676D01*
X8828278Y2976727D01*
X8837015Y2977946D01*
X8845042Y2980639D01*
X8852408Y2984754D01*
X8859316Y2990494D01*
X8949080Y3080308D01*
X8954414Y3087370D01*
X8958173Y3094939D01*
X8960459Y3103067D01*
X8961323Y3111957D01*
X8961272Y4116578D01*
X8960053Y4125315D01*
X8957360Y4133342D01*
X8953246Y4140708D01*
X8947505Y4147616D01*
X8895791Y4199280D01*
X8888730Y4204614D01*
X8881160Y4208373D01*
X8873032Y4210659D01*
X8864142Y4211523D01*
X8036915Y4211523D01*
X8033054Y4212285D01*
X8029752Y4214469D01*
X8011769Y4232452D01*
X8009585Y4235754D01*
X8008823Y4239615D01*
X8008823Y5094884D01*
X8009585Y5098745D01*
X8011769Y5102047D01*
X8248700Y5338978D01*
X8252002Y5341162D01*
X8255863Y5341924D01*
X8308441Y5341924D01*
X8311540Y5341467D01*
X8315706Y5339080D01*
X8324646Y5334965D01*
X8334095Y5332425D01*
X8343900Y5331561D01*
X8353704Y5332425D01*
X8363153Y5334965D01*
X8372094Y5339080D01*
X8380120Y5344718D01*
X8387080Y5351678D01*
X8392718Y5359704D01*
X8396833Y5368645D01*
X8399373Y5378094D01*
X8400237Y5387898D01*
X8399373Y5397703D01*
X8398154Y5402326D01*
X8397849Y5405983D01*
X8398916Y5409539D01*
X8401151Y5412486D01*
X8404352Y5414416D01*
X8407958Y5415076D01*
X8472678Y5415127D01*
X8481415Y5416346D01*
X8489442Y5419039D01*
X8496808Y5423154D01*
X8503716Y5428894D01*
X8580780Y5506008D01*
X8586114Y5513070D01*
X8589873Y5520639D01*
X8592159Y5528767D01*
X8593023Y5537657D01*
X8593023Y5577890D01*
X8593480Y5580938D01*
X8595918Y5585206D01*
X8600033Y5594146D01*
X8602573Y5603595D01*
X8603437Y5613400D01*
X8602573Y5623204D01*
X8600033Y5632653D01*
X8595918Y5641594D01*
X8593480Y5645861D01*
X8593023Y5648909D01*
X8593023Y5704484D01*
X8593785Y5708345D01*
X8595969Y5711647D01*
X8639352Y5755030D01*
X8642654Y5757214D01*
X8646515Y5757976D01*
X8752890Y5757976D01*
X8755938Y5757519D01*
X8760206Y5755081D01*
X8769146Y5750966D01*
X8778595Y5748426D01*
X8788400Y5747562D01*
X8798204Y5748426D01*
X8807653Y5750966D01*
X8816594Y5755081D01*
X8824620Y5760720D01*
X8831580Y5767679D01*
X8837218Y5775706D01*
X8841333Y5784646D01*
X8843873Y5794095D01*
X8844737Y5803900D01*
X8843873Y5813704D01*
X8841333Y5823153D01*
X8837218Y5832094D01*
X8831580Y5840120D01*
X8824620Y5847080D01*
X8816594Y5852718D01*
X8807653Y5856833D01*
X8798204Y5859373D01*
X8788400Y5860237D01*
X8778595Y5859373D01*
X8769146Y5856833D01*
X8760206Y5852718D01*
X8755938Y5850280D01*
X8752890Y5849823D01*
X8621522Y5849772D01*
X8612784Y5848553D01*
X8604758Y5845860D01*
X8597392Y5841746D01*
X8590483Y5836005D01*
X8513419Y5758891D01*
X8508085Y5751830D01*
X8504326Y5744260D01*
X8502040Y5736132D01*
X8501176Y5727242D01*
X8501176Y5648909D01*
X8500719Y5645861D01*
X8498281Y5641594D01*
X8494166Y5632653D01*
X8491626Y5623204D01*
X8490762Y5613400D01*
X8491626Y5603595D01*
X8494166Y5594146D01*
X8498281Y5585206D01*
X8500719Y5580938D01*
X8501176Y5577890D01*
X8501176Y5560415D01*
X8500414Y5556554D01*
X8498230Y5553252D01*
X8454847Y5509869D01*
X8451545Y5507685D01*
X8447684Y5506923D01*
X8260486Y5506923D01*
X8256574Y5507685D01*
X8253272Y5509869D01*
X8251088Y5513171D01*
X8250326Y5517083D01*
X8251088Y5520944D01*
X8253272Y5524246D01*
X8387435Y5658358D01*
X8391245Y5663133D01*
X8393734Y5668365D01*
X8395004Y5674004D01*
X8395208Y5677204D01*
X8395208Y6857441D01*
X8394496Y6863740D01*
X8392566Y6869226D01*
X8389518Y6874103D01*
X8385403Y6878218D01*
X8380526Y6881266D01*
X8375040Y6883196D01*
X8368741Y6883908D01*
X6299758Y6883908D01*
X6293459Y6883196D01*
X6287973Y6881266D01*
X6283096Y6878218D01*
X6278981Y6874103D01*
X6275933Y6869226D01*
X6274003Y6863740D01*
X6273292Y6857441D01*
X6273292Y5742635D01*
X6272530Y5738774D01*
X6270294Y5735472D01*
X6268567Y5733745D01*
X6264605Y5728766D01*
X6262116Y5723534D01*
X6260795Y5717895D01*
X6260795Y5712104D01*
X6262116Y5706465D01*
X6264605Y5701233D01*
X6268567Y5696254D01*
X7068058Y4896764D01*
X7072833Y4892954D01*
X7078065Y4890465D01*
X7083704Y4889195D01*
X7086904Y4888992D01*
X7237069Y4888992D01*
X7241336Y4888077D01*
X7244842Y4885436D01*
X7246366Y4883607D01*
X7260894Y4869027D01*
X7263130Y4865725D01*
X7263892Y4861864D01*
X7263892Y4366768D01*
X7263130Y4362856D01*
X7260894Y4359605D01*
X7257643Y4357370D01*
X7253731Y4356608D01*
X6782104Y4356608D01*
X6776059Y4355947D01*
X6770573Y4354017D01*
X6765645Y4350918D01*
X6763258Y4348835D01*
X6623964Y4209542D01*
X6620154Y4204766D01*
X6617665Y4199534D01*
X6616395Y4193895D01*
X6616192Y4190695D01*
X6616192Y3188004D01*
X6616852Y3181959D01*
X6618782Y3176473D01*
X6621881Y3171545D01*
X6623964Y3169158D01*
X6631127Y3162046D01*
X6633311Y3158744D01*
X6634073Y3154883D01*
X6633311Y3150971D01*
X6631127Y3147669D01*
X6627825Y3145485D01*
X6623913Y3144723D01*
X6387490Y3144723D01*
X6384442Y3145180D01*
X6380175Y3147568D01*
X6371285Y3151733D01*
X6361836Y3154273D01*
X6352032Y3155137D01*
X6342227Y3154273D01*
X6332778Y3151733D01*
X6323888Y3147568D01*
X6319621Y3145180D01*
X6316573Y3144723D01*
X6230061Y3144723D01*
X6226048Y3145536D01*
X6222746Y3147822D01*
X6220561Y3151225D01*
X6219901Y3155238D01*
X6220815Y3159150D01*
X6225133Y3168446D01*
X6227673Y3177895D01*
X6228537Y3187700D01*
X6227673Y3197504D01*
X6225133Y3206953D01*
X6221018Y3215894D01*
X6215380Y3223920D01*
X6208420Y3230880D01*
X6200394Y3236518D01*
X6191453Y3240633D01*
X6182004Y3243173D01*
X6172200Y3244037D01*
X6162395Y3243173D01*
X6152946Y3240633D01*
X6144006Y3236518D01*
X6139738Y3234080D01*
X6136690Y3233623D01*
X5991809Y3233623D01*
X5988761Y3234080D01*
X5984494Y3236518D01*
X5975553Y3240633D01*
X5966104Y3243173D01*
X5956300Y3244037D01*
X5946495Y3243173D01*
X5937046Y3240633D01*
X5928106Y3236518D01*
X5920079Y3230880D01*
X5913120Y3223920D01*
X5907481Y3215894D01*
X5903366Y3206953D01*
X5900826Y3197504D01*
X5899962Y3187700D01*
X5900826Y3177895D01*
X5903366Y3168446D01*
X5907684Y3159150D01*
X5908598Y3155238D01*
X5907938Y3151225D01*
X5905754Y3147822D01*
X5902452Y3145536D01*
X5898438Y3144723D01*
X5834634Y3144723D01*
X5830773Y3145485D01*
X5827471Y3147669D01*
X5763869Y3211271D01*
X5761685Y3214573D01*
X5760923Y3218434D01*
X5760923Y4269790D01*
X5761380Y4272838D01*
X5763818Y4277106D01*
X5767933Y4286046D01*
X5770473Y4295495D01*
X5771337Y4305300D01*
X5770473Y4315104D01*
X5767933Y4324553D01*
X5763818Y4333494D01*
X5758180Y4341520D01*
X5751220Y4348480D01*
X5743194Y4354118D01*
X5734253Y4358233D01*
X5724804Y4360773D01*
X5715000Y4361637D01*
X5705195Y4360773D01*
X5695746Y4358233D01*
X5686450Y4353915D01*
X5682538Y4353001D01*
X5678525Y4353661D01*
X5675122Y4355846D01*
X5672836Y4359148D01*
X5672023Y4363161D01*
X5672023Y4497984D01*
X5672785Y4501845D01*
X5674969Y4505147D01*
X5748680Y4578908D01*
X5754014Y4585970D01*
X5757773Y4593539D01*
X5760059Y4601667D01*
X5760923Y4610557D01*
X5760923Y4650790D01*
X5761380Y4653838D01*
X5763818Y4658106D01*
X5767933Y4667046D01*
X5770473Y4676495D01*
X5771337Y4686300D01*
X5770473Y4696104D01*
X5767933Y4705553D01*
X5763818Y4714494D01*
X5758180Y4722520D01*
X5751220Y4729480D01*
X5743194Y4735118D01*
X5734253Y4739233D01*
X5724804Y4741773D01*
X5715000Y4742637D01*
X5705195Y4741773D01*
X5695746Y4739233D01*
X5686806Y4735118D01*
X5678779Y4729480D01*
X5671820Y4722520D01*
X5666181Y4714494D01*
X5662066Y4705553D01*
X5659526Y4696104D01*
X5658662Y4686300D01*
X5659526Y4676495D01*
X5662066Y4667046D01*
X5666181Y4658106D01*
X5668619Y4653838D01*
X5669076Y4650790D01*
X5669076Y4633315D01*
X5668314Y4629454D01*
X5666130Y4626152D01*
X5600446Y4560468D01*
X5597144Y4558284D01*
X5593283Y4557522D01*
X5589371Y4558284D01*
X5586069Y4560468D01*
X5583885Y4563770D01*
X5583123Y4567682D01*
X5583072Y5284978D01*
X5581853Y5293715D01*
X5579160Y5301742D01*
X5575046Y5309108D01*
X5569305Y5316016D01*
X5492191Y5393080D01*
X5485130Y5398414D01*
X5477560Y5402173D01*
X5469331Y5404510D01*
X5462930Y5405272D01*
X5459780Y5405323D01*
X5456631Y5405831D01*
X5453837Y5407355D01*
X5451652Y5409590D01*
X5443677Y5420868D01*
X5434584Y5430621D01*
X5424271Y5439003D01*
X5412892Y5445912D01*
X5403291Y5450078D01*
X5400090Y5452313D01*
X5397957Y5455564D01*
X5397195Y5459374D01*
X5397957Y5463235D01*
X5400090Y5466486D01*
X5403291Y5468721D01*
X5412892Y5472887D01*
X5424271Y5479796D01*
X5434584Y5488178D01*
X5443677Y5497931D01*
X5451348Y5508752D01*
X5457444Y5520588D01*
X5461914Y5533136D01*
X5464606Y5546140D01*
X5465521Y5559399D01*
X5464606Y5572658D01*
X5461914Y5585663D01*
X5457444Y5598210D01*
X5451348Y5610047D01*
X5443677Y5620867D01*
X5434584Y5630621D01*
X5424271Y5639003D01*
X5412892Y5645912D01*
X5400700Y5651195D01*
X5387898Y5654802D01*
X5374741Y5656630D01*
X5361432Y5656630D01*
X5348274Y5654802D01*
X5335473Y5651195D01*
X5323281Y5645912D01*
X5311902Y5639003D01*
X5301589Y5630621D01*
X5292496Y5620867D01*
X5284825Y5610047D01*
X5283555Y5607507D01*
X5281168Y5604510D01*
X5277916Y5602630D01*
X5274157Y5601309D01*
X5266690Y5597144D01*
X5259781Y5591403D01*
X5211419Y5542991D01*
X5206085Y5535930D01*
X5202326Y5528360D01*
X5201259Y5524652D01*
X5199227Y5520842D01*
X5195773Y5518200D01*
X5191506Y5517286D01*
X5160213Y5517286D01*
X5160213Y5471718D01*
X5162905Y5472887D01*
X5174284Y5479796D01*
X5182616Y5486552D01*
X5185968Y5488381D01*
X5189728Y5488838D01*
X5193385Y5487873D01*
X5196433Y5485638D01*
X5198465Y5482437D01*
X5199176Y5478678D01*
X5199176Y5440121D01*
X5198465Y5436362D01*
X5196433Y5433161D01*
X5193385Y5430926D01*
X5189728Y5429961D01*
X5185968Y5430418D01*
X5182616Y5432247D01*
X5174284Y5439003D01*
X5162905Y5445912D01*
X5153304Y5450078D01*
X5150764Y5451856D01*
X5147310Y5452160D01*
X5137912Y5454802D01*
X5124754Y5456631D01*
X5111445Y5456631D01*
X5098288Y5454802D01*
X5088890Y5452160D01*
X5085435Y5451856D01*
X5082895Y5450078D01*
X5073294Y5445912D01*
X5061915Y5439003D01*
X5051602Y5430621D01*
X5042509Y5420868D01*
X5034838Y5410047D01*
X5028742Y5398211D01*
X5024272Y5385663D01*
X5021580Y5372658D01*
X5020665Y5359400D01*
X5021580Y5346141D01*
X5024272Y5333136D01*
X5028742Y5320588D01*
X5034838Y5308752D01*
X5042509Y5297932D01*
X5051602Y5288178D01*
X5061915Y5279796D01*
X5073294Y5272887D01*
X5085486Y5267604D01*
X5098288Y5263997D01*
X5111445Y5262168D01*
X5124754Y5262168D01*
X5137912Y5263997D01*
X5150713Y5267604D01*
X5162905Y5272887D01*
X5174284Y5279796D01*
X5182616Y5286552D01*
X5185968Y5288381D01*
X5189728Y5288838D01*
X5193385Y5287873D01*
X5196433Y5285638D01*
X5198465Y5282438D01*
X5199176Y5278678D01*
X5199227Y5078222D01*
X5200446Y5069484D01*
X5203139Y5061458D01*
X5207254Y5054092D01*
X5212994Y5047183D01*
X5399430Y4860747D01*
X5401614Y4857445D01*
X5402376Y4853584D01*
X5402376Y4480509D01*
X5401614Y4476648D01*
X5399430Y4473346D01*
X5396128Y4471111D01*
X5392216Y4470349D01*
X5388356Y4471111D01*
X5385054Y4473346D01*
X5382920Y4475480D01*
X5374894Y4481118D01*
X5365953Y4485233D01*
X5356504Y4487773D01*
X5346700Y4488637D01*
X5336895Y4487773D01*
X5327446Y4485233D01*
X5318506Y4481118D01*
X5314238Y4478680D01*
X5311190Y4478223D01*
X4861915Y4478223D01*
X4858054Y4478985D01*
X4854752Y4481169D01*
X4836769Y4499152D01*
X4834585Y4502454D01*
X4833823Y4506315D01*
X4833823Y4587290D01*
X4834280Y4590338D01*
X4836718Y4594606D01*
X4840833Y4603546D01*
X4843373Y4612995D01*
X4844237Y4622800D01*
X4843373Y4632604D01*
X4840833Y4642053D01*
X4836718Y4650994D01*
X4831080Y4659020D01*
X4824120Y4665980D01*
X4816094Y4671618D01*
X4807153Y4675733D01*
X4797704Y4678273D01*
X4787900Y4679137D01*
X4778095Y4678273D01*
X4768646Y4675733D01*
X4759706Y4671618D01*
X4751679Y4665980D01*
X4744720Y4659020D01*
X4739081Y4650994D01*
X4734966Y4642053D01*
X4732426Y4632604D01*
X4731562Y4622800D01*
X4732426Y4612995D01*
X4734966Y4603546D01*
X4739081Y4594606D01*
X4741519Y4590338D01*
X4741976Y4587290D01*
X4742027Y4481322D01*
X4743246Y4472584D01*
X4745939Y4464558D01*
X4750054Y4457192D01*
X4755794Y4450283D01*
X4807508Y4398619D01*
X4814570Y4393285D01*
X4822139Y4389526D01*
X4830267Y4387240D01*
X4839157Y4386376D01*
X5311190Y4386376D01*
X5314238Y4385919D01*
X5318506Y4383481D01*
X5327446Y4379366D01*
X5336895Y4376826D01*
X5346700Y4375962D01*
X5356504Y4376826D01*
X5365953Y4379366D01*
X5374894Y4383481D01*
X5382920Y4389120D01*
X5385054Y4391253D01*
X5388356Y4393488D01*
X5392216Y4394250D01*
X5396128Y4393488D01*
X5399430Y4391253D01*
X5401614Y4387951D01*
X5402376Y4384090D01*
X5402376Y3985209D01*
X5401919Y3982161D01*
X5399481Y3977894D01*
X5395366Y3968953D01*
X5392826Y3959504D01*
X5391962Y3949700D01*
X5392826Y3939895D01*
X5395366Y3930446D01*
X5399481Y3921506D01*
X5405120Y3913479D01*
X5412079Y3906520D01*
X5420106Y3900881D01*
X5429046Y3896766D01*
X5438495Y3894226D01*
X5448300Y3893362D01*
X5458104Y3894226D01*
X5467553Y3896766D01*
X5476494Y3900881D01*
X5484520Y3906520D01*
X5491480Y3913479D01*
X5497118Y3921506D01*
X5501233Y3930446D01*
X5503773Y3939895D01*
X5504637Y3949700D01*
X5503773Y3959504D01*
X5501233Y3968953D01*
X5497118Y3977894D01*
X5494680Y3982161D01*
X5494223Y3985209D01*
X5494223Y4056938D01*
X5495036Y4060951D01*
X5497322Y4064254D01*
X5500725Y4066438D01*
X5504738Y4067098D01*
X5508650Y4066184D01*
X5517946Y4061866D01*
X5527395Y4059326D01*
X5537200Y4058462D01*
X5547004Y4059326D01*
X5556453Y4061866D01*
X5565749Y4066184D01*
X5569661Y4067098D01*
X5573674Y4066438D01*
X5577078Y4064254D01*
X5579364Y4060951D01*
X5580176Y4056938D01*
X5580176Y3934815D01*
X5579414Y3930954D01*
X5577230Y3927652D01*
X5491734Y3842156D01*
X5489600Y3840530D01*
X5487162Y3839514D01*
X5479846Y3837533D01*
X5470906Y3833418D01*
X5462879Y3827779D01*
X5455920Y3820820D01*
X5450281Y3812794D01*
X5446166Y3803853D01*
X5443626Y3794404D01*
X5442762Y3784600D01*
X5443626Y3774795D01*
X5446166Y3765346D01*
X5450281Y3756406D01*
X5455920Y3748379D01*
X5462879Y3741420D01*
X5470906Y3735781D01*
X5479846Y3731666D01*
X5489295Y3729126D01*
X5499100Y3728262D01*
X5508904Y3729126D01*
X5518353Y3731666D01*
X5527294Y3735781D01*
X5535320Y3741420D01*
X5542280Y3748379D01*
X5547918Y3756406D01*
X5552033Y3765346D01*
X5554014Y3772662D01*
X5555030Y3775100D01*
X5556656Y3777234D01*
X5651754Y3872331D01*
X5655056Y3874515D01*
X5658916Y3875278D01*
X5662828Y3874515D01*
X5666130Y3872331D01*
X5668314Y3869029D01*
X5669076Y3865118D01*
X5669127Y3193440D01*
X5670346Y3184702D01*
X5673039Y3176727D01*
X5677204Y3169208D01*
X5681218Y3164179D01*
X5683351Y3161944D01*
X5685485Y3158642D01*
X5686247Y3154730D01*
X5685434Y3150920D01*
X5683199Y3147618D01*
X5679948Y3145485D01*
X5676087Y3144723D01*
X4502861Y3144723D01*
X4498848Y3145536D01*
X4495546Y3147822D01*
X4493361Y3151225D01*
X4492701Y3155238D01*
X4493615Y3159150D01*
X4497933Y3168446D01*
X4499508Y3174288D01*
X4500575Y3176828D01*
X4502302Y3179013D01*
X4574286Y3247847D01*
X4576318Y3249371D01*
X4578705Y3250336D01*
X4587595Y3252724D01*
X4596536Y3256838D01*
X4604562Y3262477D01*
X4611522Y3269437D01*
X4617161Y3277463D01*
X4621276Y3286404D01*
X4623816Y3295853D01*
X4624679Y3305657D01*
X4623816Y3315462D01*
X4621276Y3324910D01*
X4617161Y3333851D01*
X4611522Y3341878D01*
X4604562Y3348837D01*
X4596536Y3354476D01*
X4590491Y3357270D01*
X4587392Y3359505D01*
X4585360Y3362706D01*
X4584598Y3366465D01*
X4585360Y3370224D01*
X4587392Y3373424D01*
X4590491Y3375660D01*
X4600194Y3380181D01*
X4608220Y3385820D01*
X4615180Y3392779D01*
X4620818Y3400806D01*
X4624933Y3409746D01*
X4627473Y3419195D01*
X4628337Y3429000D01*
X4627473Y3438804D01*
X4624933Y3448253D01*
X4620818Y3457194D01*
X4615180Y3465220D01*
X4608220Y3472179D01*
X4600143Y3477818D01*
X4597450Y3480612D01*
X4595977Y3484219D01*
X4595977Y3488080D01*
X4597450Y3491687D01*
X4600143Y3494481D01*
X4608220Y3500120D01*
X4615180Y3507079D01*
X4620818Y3515106D01*
X4624933Y3524046D01*
X4627473Y3533495D01*
X4628337Y3543300D01*
X4627473Y3553104D01*
X4624933Y3562553D01*
X4620818Y3571494D01*
X4615180Y3579520D01*
X4608220Y3586479D01*
X4600194Y3592118D01*
X4591253Y3596233D01*
X4581804Y3598773D01*
X4572000Y3599637D01*
X4562195Y3598773D01*
X4552746Y3596233D01*
X4543806Y3592118D01*
X4535779Y3586479D01*
X4528820Y3579520D01*
X4523181Y3571494D01*
X4519066Y3562553D01*
X4517085Y3555237D01*
X4516069Y3552799D01*
X4514443Y3550665D01*
X4247134Y3283356D01*
X4245000Y3281730D01*
X4242562Y3280714D01*
X4235246Y3278733D01*
X4226306Y3274618D01*
X4218279Y3268979D01*
X4211320Y3262020D01*
X4203192Y3250336D01*
X4199839Y3248304D01*
X4196029Y3247644D01*
X4192219Y3248456D01*
X4189018Y3250692D01*
X4186834Y3253943D01*
X4186123Y3257803D01*
X4186072Y3773678D01*
X4184853Y3782415D01*
X4182160Y3790442D01*
X4178046Y3797808D01*
X4172305Y3804716D01*
X4133291Y3843680D01*
X4126229Y3849014D01*
X4118660Y3852773D01*
X4110532Y3855059D01*
X4101642Y3855923D01*
X3934714Y3855872D01*
X3930751Y3856532D01*
X3927348Y3858717D01*
X3925112Y3862070D01*
X3924300Y3866032D01*
X3924300Y6911340D01*
X3925062Y6915251D01*
X3927297Y6918502D01*
X3930548Y6920738D01*
X3934460Y6921500D01*
X10492740Y6921500D01*
X10496651Y6920738D01*
X10499902Y6918502D01*
X10502138Y6915251D01*
X10502900Y6911340D01*
X10502900Y124460D01*
X10502138Y120548D01*
X10499902Y117297D01*
X10496651Y115062D01*
X10492740Y114300D01*
X9068816Y114300D01*
X9064599Y115214D01*
X9061145Y117754D01*
X9059062Y121513D01*
X9058757Y125831D01*
X9060180Y129844D01*
X9061805Y132384D01*
X9063685Y137871D01*
X9064396Y144170D01*
X9064396Y313029D01*
X9063685Y319328D01*
X9061805Y324815D01*
X9058706Y329692D01*
X9054592Y333806D01*
X9049715Y336905D01*
X9044228Y338785D01*
X9037929Y339496D01*
X8869070Y339496D01*
X8862771Y338785D01*
X8857284Y336905D01*
X8852408Y333806D01*
X8848293Y329692D01*
X8845194Y324815D01*
X8843314Y319328D01*
X8842603Y313029D01*
X8842603Y144170D01*
X8843314Y137871D01*
X8845194Y132384D01*
X8846820Y129844D01*
X8848242Y125831D01*
X8847937Y121513D01*
X8845854Y117754D01*
X8842400Y115214D01*
X8838184Y114300D01*
G37*

%LPC*%
G36*
X9984994Y249123D02*
G01*
X10011206Y250088D01*
X10037267Y253034D01*
X10063073Y257911D01*
X10088422Y264718D01*
X10113162Y273354D01*
X10137241Y283870D01*
X10160457Y296113D01*
X10182656Y310083D01*
X10203789Y325678D01*
X10223652Y342798D01*
X10242194Y361340D01*
X10259314Y381203D01*
X10274909Y402336D01*
X10288879Y424535D01*
X10301122Y447751D01*
X10311638Y471830D01*
X10320274Y496570D01*
X10327081Y521919D01*
X10331958Y547725D01*
X10334904Y573786D01*
X10335869Y599998D01*
X10334904Y626211D01*
X10331958Y652322D01*
X10327081Y678078D01*
X10320274Y703427D01*
X10311638Y728218D01*
X10301122Y752246D01*
X10288879Y775462D01*
X10274909Y797661D01*
X10259314Y818794D01*
X10242194Y838657D01*
X10223652Y857250D01*
X10203789Y874369D01*
X10182656Y889914D01*
X10160457Y903884D01*
X10137241Y916178D01*
X10113162Y926642D01*
X10088422Y935329D01*
X10063073Y942136D01*
X10037267Y947013D01*
X10011206Y949909D01*
X9984994Y950925D01*
X9958781Y949909D01*
X9932670Y947013D01*
X9906914Y942136D01*
X9881565Y935329D01*
X9856774Y926642D01*
X9832746Y916178D01*
X9809530Y903884D01*
X9787331Y889914D01*
X9766198Y874369D01*
X9746335Y857250D01*
X9727742Y838657D01*
X9710623Y818794D01*
X9695078Y797661D01*
X9681108Y775462D01*
X9668814Y752246D01*
X9658350Y728218D01*
X9649663Y703427D01*
X9642856Y678078D01*
X9637979Y652322D01*
X9635083Y626211D01*
X9634067Y599998D01*
X9635083Y573786D01*
X9637979Y547725D01*
X9642856Y521919D01*
X9649663Y496570D01*
X9658350Y471830D01*
X9668814Y447751D01*
X9681108Y424535D01*
X9695078Y402336D01*
X9710623Y381203D01*
X9727742Y361340D01*
X9746335Y342798D01*
X9766198Y325678D01*
X9787331Y310083D01*
X9809530Y296113D01*
X9832746Y283870D01*
X9856774Y273354D01*
X9881565Y264718D01*
X9906914Y257911D01*
X9932670Y253034D01*
X9958781Y250088D01*
G37*
G36*
X8946388Y371957D02*
G01*
X8960612Y371957D01*
X8974683Y373735D01*
X8988450Y377342D01*
X9001607Y382676D01*
X9014002Y389686D01*
X9025382Y398170D01*
X9035592Y408025D01*
X9044432Y419150D01*
X9051798Y431292D01*
X9057589Y444296D01*
X9061602Y457911D01*
X9063888Y471932D01*
X9064345Y486156D01*
X9062974Y500278D01*
X9059824Y514146D01*
X9054896Y527507D01*
X9048343Y540105D01*
X9040215Y551738D01*
X9030665Y562254D01*
X9019844Y571449D01*
X9007906Y579221D01*
X8995105Y585368D01*
X8981643Y589838D01*
X8967673Y592582D01*
X8953500Y593496D01*
X8939326Y592582D01*
X8925356Y589838D01*
X8911894Y585368D01*
X8899093Y579221D01*
X8887155Y571449D01*
X8876334Y562254D01*
X8866784Y551738D01*
X8858656Y540105D01*
X8852103Y527507D01*
X8847175Y514146D01*
X8844026Y500278D01*
X8842654Y486156D01*
X8843111Y471932D01*
X8845397Y457911D01*
X8849461Y444296D01*
X8855202Y431292D01*
X8862568Y419150D01*
X8871407Y408025D01*
X8881618Y398170D01*
X8892997Y389686D01*
X8905392Y382676D01*
X8918549Y377342D01*
X8932316Y373735D01*
G37*
G36*
X8489188Y371957D02*
G01*
X8503412Y371957D01*
X8517483Y373735D01*
X8531250Y377342D01*
X8544407Y382676D01*
X8556802Y389686D01*
X8568182Y398170D01*
X8578392Y408025D01*
X8587232Y419150D01*
X8594598Y431292D01*
X8600389Y444296D01*
X8604402Y457911D01*
X8606688Y471932D01*
X8607145Y486156D01*
X8605774Y500278D01*
X8602624Y514146D01*
X8597696Y527507D01*
X8591143Y540105D01*
X8583015Y551738D01*
X8573465Y562254D01*
X8562644Y571449D01*
X8550706Y579221D01*
X8537905Y585368D01*
X8524443Y589838D01*
X8510473Y592582D01*
X8496300Y593496D01*
X8482126Y592582D01*
X8468156Y589838D01*
X8454694Y585368D01*
X8441893Y579221D01*
X8429955Y571449D01*
X8419134Y562254D01*
X8409584Y551738D01*
X8401456Y540105D01*
X8394903Y527507D01*
X8389975Y514146D01*
X8386825Y500278D01*
X8385454Y486156D01*
X8385911Y471932D01*
X8388197Y457911D01*
X8392261Y444296D01*
X8398002Y431292D01*
X8405368Y419150D01*
X8414207Y408025D01*
X8424418Y398170D01*
X8435797Y389686D01*
X8448192Y382676D01*
X8461349Y377342D01*
X8475116Y373735D01*
G37*
G36*
X8447430Y637133D02*
G01*
X8447430Y687730D01*
X8396884Y687730D01*
X8398002Y685292D01*
X8405368Y673150D01*
X8414207Y662025D01*
X8424418Y652170D01*
X8435797Y643686D01*
G37*
G36*
X8545169Y637133D02*
G01*
X8556802Y643686D01*
X8568182Y652170D01*
X8578392Y662025D01*
X8587232Y673150D01*
X8594598Y685292D01*
X8595715Y687730D01*
X8545169Y687730D01*
G37*
G36*
X8904630Y637133D02*
G01*
X8904630Y687730D01*
X8854084Y687730D01*
X8855202Y685292D01*
X8862568Y673150D01*
X8871407Y662025D01*
X8881618Y652170D01*
X8892997Y643686D01*
G37*
G36*
X9002369Y637133D02*
G01*
X9014002Y643686D01*
X9025382Y652170D01*
X9035592Y662025D01*
X9044432Y673150D01*
X9051798Y685292D01*
X9052915Y687730D01*
X9002369Y687730D01*
G37*
G36*
X8854186Y785469D02*
G01*
X8904630Y785469D01*
X8904630Y835914D01*
X8899093Y833221D01*
X8887155Y825449D01*
X8876334Y816254D01*
X8866784Y805738D01*
X8858656Y794105D01*
G37*
G36*
X8396986Y785469D02*
G01*
X8447430Y785469D01*
X8447430Y835914D01*
X8441893Y833221D01*
X8429955Y825449D01*
X8419134Y816254D01*
X8409584Y805738D01*
X8401456Y794105D01*
G37*
G36*
X9002369Y785469D02*
G01*
X9052814Y785469D01*
X9048343Y794105D01*
X9040215Y805738D01*
X9030665Y816254D01*
X9019844Y825449D01*
X9007906Y833221D01*
X9002369Y835914D01*
G37*
G36*
X8545169Y785469D02*
G01*
X8595614Y785469D01*
X8591143Y794105D01*
X8583015Y805738D01*
X8573465Y816254D01*
X8562644Y825449D01*
X8550706Y833221D01*
X8545169Y835914D01*
G37*
G36*
X5803900Y1213662D02*
G01*
X5813704Y1214526D01*
X5823153Y1217066D01*
X5832094Y1221181D01*
X5840120Y1226820D01*
X5847080Y1233779D01*
X5852718Y1241806D01*
X5856833Y1250746D01*
X5858814Y1258062D01*
X5859830Y1260500D01*
X5861456Y1262634D01*
X5951880Y1353108D01*
X5957214Y1360170D01*
X5960973Y1367739D01*
X5963259Y1375867D01*
X5964123Y1384757D01*
X5964123Y1831390D01*
X5964580Y1834438D01*
X5967018Y1838706D01*
X5971133Y1847646D01*
X5973673Y1857095D01*
X5974537Y1866900D01*
X5973673Y1876704D01*
X5971133Y1886153D01*
X5967018Y1895093D01*
X5961380Y1903120D01*
X5954420Y1910080D01*
X5946394Y1915718D01*
X5937453Y1919833D01*
X5928004Y1922373D01*
X5918200Y1923237D01*
X5908395Y1922373D01*
X5898946Y1919833D01*
X5890006Y1915718D01*
X5881979Y1910080D01*
X5875020Y1903120D01*
X5869381Y1895093D01*
X5865266Y1886153D01*
X5862726Y1876704D01*
X5861862Y1866900D01*
X5862726Y1857095D01*
X5865266Y1847646D01*
X5869381Y1838706D01*
X5871819Y1834438D01*
X5872276Y1831390D01*
X5872276Y1407515D01*
X5871514Y1403654D01*
X5869330Y1400352D01*
X5796534Y1327556D01*
X5794400Y1325930D01*
X5791962Y1324914D01*
X5784646Y1322933D01*
X5775706Y1318818D01*
X5767679Y1313180D01*
X5760720Y1306220D01*
X5755081Y1298194D01*
X5750966Y1289253D01*
X5748426Y1279804D01*
X5747562Y1270000D01*
X5748426Y1260195D01*
X5750966Y1250746D01*
X5755081Y1241806D01*
X5760720Y1233779D01*
X5767679Y1226820D01*
X5775706Y1221181D01*
X5784646Y1217066D01*
X5794095Y1214526D01*
G37*
G36*
X6438900Y1391462D02*
G01*
X6448704Y1392326D01*
X6458153Y1394866D01*
X6467094Y1398981D01*
X6471361Y1401419D01*
X6474409Y1401876D01*
X6746290Y1401876D01*
X6749338Y1401419D01*
X6753606Y1398981D01*
X6762546Y1394866D01*
X6771995Y1392326D01*
X6781800Y1391462D01*
X6791604Y1392326D01*
X6801053Y1394866D01*
X6809994Y1398981D01*
X6818020Y1404620D01*
X6824980Y1411579D01*
X6830618Y1419606D01*
X6834733Y1428546D01*
X6837273Y1437995D01*
X6838137Y1447800D01*
X6837273Y1457604D01*
X6834733Y1467053D01*
X6830618Y1475994D01*
X6824980Y1484020D01*
X6818020Y1490980D01*
X6809994Y1496618D01*
X6801053Y1500733D01*
X6791604Y1503273D01*
X6781800Y1504137D01*
X6771995Y1503273D01*
X6762546Y1500733D01*
X6753606Y1496618D01*
X6749338Y1494180D01*
X6746290Y1493723D01*
X6474409Y1493723D01*
X6471361Y1494180D01*
X6467094Y1496618D01*
X6458153Y1500733D01*
X6448704Y1503273D01*
X6438900Y1504137D01*
X6429095Y1503273D01*
X6419646Y1500733D01*
X6410706Y1496618D01*
X6402679Y1490980D01*
X6395720Y1484020D01*
X6390081Y1475994D01*
X6385966Y1467053D01*
X6383426Y1457604D01*
X6382562Y1447800D01*
X6383426Y1437995D01*
X6385966Y1428546D01*
X6390081Y1419606D01*
X6395720Y1411579D01*
X6402679Y1404620D01*
X6410706Y1398981D01*
X6419646Y1394866D01*
X6429095Y1392326D01*
G37*
G36*
X9334500Y1416862D02*
G01*
X9344304Y1417726D01*
X9353753Y1420266D01*
X9362694Y1424381D01*
X9370720Y1430020D01*
X9377680Y1436979D01*
X9383318Y1445006D01*
X9387433Y1453946D01*
X9389973Y1463395D01*
X9390837Y1473200D01*
X9389973Y1483004D01*
X9387433Y1492453D01*
X9383318Y1501394D01*
X9377680Y1509420D01*
X9370720Y1516380D01*
X9362694Y1522018D01*
X9353753Y1526133D01*
X9344304Y1528673D01*
X9334500Y1529537D01*
X9324695Y1528673D01*
X9315246Y1526133D01*
X9306306Y1522018D01*
X9302038Y1519580D01*
X9298990Y1519123D01*
X8976715Y1519123D01*
X8972854Y1519885D01*
X8969552Y1522069D01*
X8947556Y1544066D01*
X8945930Y1546199D01*
X8944914Y1548638D01*
X8942933Y1555953D01*
X8938818Y1564894D01*
X8933180Y1572920D01*
X8926220Y1579880D01*
X8918194Y1585518D01*
X8909253Y1589633D01*
X8899804Y1592173D01*
X8890000Y1593037D01*
X8880195Y1592173D01*
X8870746Y1589633D01*
X8861806Y1585518D01*
X8853779Y1579880D01*
X8846820Y1572920D01*
X8841181Y1564894D01*
X8837066Y1555953D01*
X8834526Y1546504D01*
X8833662Y1536700D01*
X8834526Y1526895D01*
X8837066Y1517446D01*
X8841181Y1508506D01*
X8846820Y1500479D01*
X8853779Y1493520D01*
X8861806Y1487881D01*
X8870746Y1483766D01*
X8878062Y1481785D01*
X8880500Y1480769D01*
X8882634Y1479143D01*
X8922308Y1439519D01*
X8929370Y1434185D01*
X8936939Y1430426D01*
X8945067Y1428140D01*
X8953957Y1427276D01*
X9298990Y1427276D01*
X9302038Y1426819D01*
X9306306Y1424381D01*
X9315246Y1420266D01*
X9324695Y1417726D01*
G37*
G36*
X9964978Y1576781D02*
G01*
X9983063Y1577238D01*
X10001046Y1579575D01*
X10018674Y1583690D01*
X10035743Y1589684D01*
X10052151Y1597355D01*
X10067696Y1606651D01*
X10082174Y1617522D01*
X10095484Y1629816D01*
X10107422Y1643430D01*
X10117937Y1658213D01*
X10126827Y1673961D01*
X10134092Y1690573D01*
X10139578Y1707794D01*
X10143286Y1725523D01*
X10145166Y1743557D01*
X10145166Y1761642D01*
X10143286Y1779676D01*
X10139578Y1797405D01*
X10134092Y1814626D01*
X10126827Y1831238D01*
X10117937Y1846986D01*
X10107422Y1861769D01*
X10095484Y1875383D01*
X10082174Y1887677D01*
X10067696Y1898548D01*
X10052151Y1907844D01*
X10035743Y1915515D01*
X10018674Y1921510D01*
X10001046Y1925624D01*
X9983063Y1927961D01*
X9964978Y1928418D01*
X9946894Y1927047D01*
X9929114Y1923796D01*
X9911689Y1918716D01*
X9894925Y1911908D01*
X9878974Y1903374D01*
X9863937Y1893265D01*
X9850018Y1881682D01*
X9837369Y1868728D01*
X9826142Y1854504D01*
X9816439Y1839214D01*
X9808311Y1823059D01*
X9801961Y1806092D01*
X9797338Y1788566D01*
X9794544Y1770684D01*
X9793630Y1752600D01*
X9794544Y1734515D01*
X9797338Y1716633D01*
X9801961Y1699107D01*
X9808311Y1682140D01*
X9816439Y1665986D01*
X9826142Y1650695D01*
X9837369Y1636471D01*
X9850018Y1623517D01*
X9863937Y1611934D01*
X9878974Y1601825D01*
X9894925Y1593291D01*
X9911689Y1586484D01*
X9929114Y1581404D01*
X9946894Y1578152D01*
G37*
G36*
X4245356Y2048154D02*
G01*
X4259478Y2049525D01*
X4273346Y2052675D01*
X4286707Y2057603D01*
X4299305Y2064156D01*
X4310938Y2072284D01*
X4321454Y2081834D01*
X4330649Y2092655D01*
X4338421Y2104593D01*
X4344568Y2117394D01*
X4349038Y2130856D01*
X4351782Y2144826D01*
X4352696Y2159000D01*
X4351782Y2173173D01*
X4349038Y2187143D01*
X4344568Y2200605D01*
X4338421Y2213406D01*
X4330649Y2225344D01*
X4321454Y2236165D01*
X4310938Y2245715D01*
X4299305Y2253843D01*
X4286707Y2260396D01*
X4273346Y2265324D01*
X4259478Y2268474D01*
X4245356Y2269845D01*
X4231132Y2269388D01*
X4217111Y2267102D01*
X4203496Y2263038D01*
X4190492Y2257298D01*
X4178350Y2249932D01*
X4167225Y2241092D01*
X4157370Y2230882D01*
X4148886Y2219502D01*
X4141876Y2207107D01*
X4136542Y2193950D01*
X4132935Y2180183D01*
X4131157Y2166112D01*
X4131157Y2151888D01*
X4132935Y2137816D01*
X4136542Y2124049D01*
X4141876Y2110892D01*
X4148886Y2098497D01*
X4157370Y2087118D01*
X4167225Y2076907D01*
X4178350Y2068068D01*
X4190492Y2060702D01*
X4203496Y2054910D01*
X4217111Y2050897D01*
X4231132Y2048611D01*
G37*
G36*
X4499356Y2048154D02*
G01*
X4513478Y2049525D01*
X4527346Y2052675D01*
X4540707Y2057603D01*
X4553305Y2064156D01*
X4564938Y2072284D01*
X4575454Y2081834D01*
X4584649Y2092655D01*
X4592421Y2104593D01*
X4598568Y2117394D01*
X4603038Y2130856D01*
X4605782Y2144826D01*
X4606696Y2159000D01*
X4605782Y2173173D01*
X4603038Y2187143D01*
X4598568Y2200605D01*
X4592421Y2213406D01*
X4584649Y2225344D01*
X4575454Y2236165D01*
X4564938Y2245715D01*
X4553305Y2253843D01*
X4540707Y2260396D01*
X4527346Y2265324D01*
X4513478Y2268474D01*
X4499356Y2269845D01*
X4485132Y2269388D01*
X4471111Y2267102D01*
X4457496Y2263038D01*
X4444492Y2257298D01*
X4432350Y2249932D01*
X4421225Y2241092D01*
X4411370Y2230882D01*
X4402886Y2219502D01*
X4395876Y2207107D01*
X4390542Y2193950D01*
X4386935Y2180183D01*
X4385157Y2166112D01*
X4385157Y2151888D01*
X4386935Y2137816D01*
X4390542Y2124049D01*
X4395876Y2110892D01*
X4402886Y2098497D01*
X4411370Y2087118D01*
X4421225Y2076907D01*
X4432350Y2068068D01*
X4444492Y2060702D01*
X4457496Y2054910D01*
X4471111Y2050897D01*
X4485132Y2048611D01*
G37*
G36*
X10050830Y2104745D02*
G01*
X10052151Y2105355D01*
X10067696Y2114651D01*
X10082174Y2125522D01*
X10095484Y2137816D01*
X10107422Y2151430D01*
X10117937Y2166213D01*
X10125303Y2179269D01*
X10050830Y2179269D01*
G37*
G36*
X9888169Y2104898D02*
G01*
X9888169Y2179269D01*
X9813798Y2179269D01*
X9816439Y2173986D01*
X9826142Y2158695D01*
X9837369Y2144471D01*
X9850018Y2131517D01*
X9863937Y2119934D01*
X9878974Y2109825D01*
G37*
G36*
X9813798Y2341930D02*
G01*
X9888169Y2341930D01*
X9888169Y2416302D01*
X9878974Y2411374D01*
X9863937Y2401265D01*
X9850018Y2389682D01*
X9837369Y2376728D01*
X9826142Y2362504D01*
X9816439Y2347214D01*
G37*
G36*
X10050830Y2341930D02*
G01*
X10125303Y2341930D01*
X10117937Y2354986D01*
X10107422Y2369769D01*
X10095484Y2383383D01*
X10082174Y2395677D01*
X10067696Y2406548D01*
X10052151Y2415844D01*
X10050830Y2416454D01*
G37*
G36*
X5664200Y2458262D02*
G01*
X5674004Y2459126D01*
X5683453Y2461666D01*
X5692394Y2465781D01*
X5700420Y2471420D01*
X5707380Y2478379D01*
X5713018Y2486406D01*
X5717133Y2495346D01*
X5719673Y2504795D01*
X5720537Y2514600D01*
X5719673Y2524404D01*
X5717641Y2532126D01*
X5717336Y2535783D01*
X5718403Y2539339D01*
X5720638Y2542286D01*
X5723788Y2544216D01*
X5727446Y2544876D01*
X5730290Y2544876D01*
X5733338Y2544419D01*
X5737606Y2541981D01*
X5746546Y2537866D01*
X5755995Y2535326D01*
X5765800Y2534462D01*
X5775604Y2535326D01*
X5785053Y2537866D01*
X5793994Y2541981D01*
X5802020Y2547620D01*
X5808980Y2554579D01*
X5814618Y2562606D01*
X5818733Y2571546D01*
X5821273Y2580995D01*
X5822137Y2590800D01*
X5821273Y2600604D01*
X5818733Y2610053D01*
X5814618Y2618994D01*
X5808980Y2627020D01*
X5802020Y2633980D01*
X5793994Y2639618D01*
X5785053Y2643733D01*
X5775604Y2646273D01*
X5765800Y2647137D01*
X5755995Y2646273D01*
X5748274Y2644241D01*
X5744616Y2643936D01*
X5741060Y2645003D01*
X5738114Y2647238D01*
X5736183Y2650388D01*
X5735523Y2654046D01*
X5735523Y2796590D01*
X5735980Y2799638D01*
X5738418Y2803906D01*
X5742533Y2812846D01*
X5745073Y2822295D01*
X5745937Y2832100D01*
X5745073Y2841904D01*
X5742533Y2851353D01*
X5738418Y2860294D01*
X5732780Y2868320D01*
X5725820Y2875280D01*
X5717794Y2880918D01*
X5708853Y2885033D01*
X5699404Y2887573D01*
X5689600Y2888437D01*
X5679795Y2887573D01*
X5670346Y2885033D01*
X5661406Y2880918D01*
X5653379Y2875280D01*
X5646420Y2868320D01*
X5640781Y2860294D01*
X5636666Y2851353D01*
X5634126Y2841904D01*
X5633262Y2832100D01*
X5634126Y2822295D01*
X5634583Y2820466D01*
X5634888Y2816656D01*
X5633720Y2812999D01*
X5631332Y2810052D01*
X5627979Y2808173D01*
X5624220Y2807665D01*
X5610504Y2811373D01*
X5600700Y2812237D01*
X5590895Y2811373D01*
X5581446Y2808833D01*
X5572506Y2804718D01*
X5564479Y2799080D01*
X5557520Y2792120D01*
X5551881Y2784094D01*
X5547766Y2775153D01*
X5545226Y2765704D01*
X5544362Y2755900D01*
X5545226Y2746095D01*
X5547766Y2736646D01*
X5551881Y2727706D01*
X5554319Y2723438D01*
X5554776Y2720390D01*
X5554827Y2576322D01*
X5556046Y2567584D01*
X5558739Y2559558D01*
X5562854Y2552192D01*
X5568594Y2545283D01*
X5606643Y2507234D01*
X5608269Y2505100D01*
X5609285Y2502662D01*
X5611266Y2495346D01*
X5615381Y2486406D01*
X5621020Y2478379D01*
X5627979Y2471420D01*
X5636006Y2465781D01*
X5644946Y2461666D01*
X5654395Y2459126D01*
G37*
G36*
X6352032Y2547162D02*
G01*
X6361836Y2548026D01*
X6371285Y2550566D01*
X6380175Y2554732D01*
X6388252Y2560370D01*
X6395161Y2567279D01*
X6400800Y2575356D01*
X6404965Y2584246D01*
X6407505Y2593695D01*
X6408369Y2603500D01*
X6407505Y2613304D01*
X6404965Y2622753D01*
X6400800Y2631643D01*
X6398412Y2635910D01*
X6397955Y2638958D01*
X6397955Y2745841D01*
X6398412Y2748889D01*
X6400800Y2753156D01*
X6404965Y2762046D01*
X6407505Y2771495D01*
X6408369Y2781300D01*
X6407505Y2791104D01*
X6404965Y2800553D01*
X6400800Y2809443D01*
X6395161Y2817520D01*
X6388252Y2824429D01*
X6380175Y2830068D01*
X6371285Y2834233D01*
X6361836Y2836773D01*
X6352032Y2837637D01*
X6342227Y2836773D01*
X6332778Y2834233D01*
X6323888Y2830068D01*
X6315811Y2824429D01*
X6308902Y2817520D01*
X6303264Y2809443D01*
X6299098Y2800553D01*
X6296558Y2791104D01*
X6295694Y2781300D01*
X6296558Y2771495D01*
X6299098Y2762046D01*
X6303264Y2753156D01*
X6305651Y2748889D01*
X6306108Y2745841D01*
X6306108Y2638958D01*
X6305651Y2635910D01*
X6303264Y2631643D01*
X6299098Y2622753D01*
X6296558Y2613304D01*
X6295694Y2603500D01*
X6296558Y2593695D01*
X6299098Y2584246D01*
X6303264Y2575356D01*
X6308902Y2567279D01*
X6315811Y2560370D01*
X6323888Y2554732D01*
X6332778Y2550566D01*
X6342227Y2548026D01*
G37*
G36*
X9964978Y2605481D02*
G01*
X9983063Y2605938D01*
X10001046Y2608275D01*
X10018674Y2612390D01*
X10035743Y2618384D01*
X10052151Y2626055D01*
X10067696Y2635351D01*
X10082174Y2646222D01*
X10095484Y2658516D01*
X10107422Y2672130D01*
X10117937Y2686913D01*
X10126827Y2702661D01*
X10134092Y2719273D01*
X10139578Y2736494D01*
X10143286Y2754223D01*
X10145166Y2772257D01*
X10145166Y2790342D01*
X10143286Y2808376D01*
X10139578Y2826105D01*
X10134092Y2843326D01*
X10126827Y2859938D01*
X10117937Y2875686D01*
X10107422Y2890469D01*
X10095484Y2904083D01*
X10082174Y2916377D01*
X10067696Y2927248D01*
X10052151Y2936544D01*
X10035743Y2944215D01*
X10018674Y2950210D01*
X10001046Y2954324D01*
X9983063Y2956661D01*
X9964978Y2957118D01*
X9946894Y2955747D01*
X9929114Y2952496D01*
X9911689Y2947416D01*
X9894925Y2940608D01*
X9878974Y2932074D01*
X9863937Y2921965D01*
X9850018Y2910382D01*
X9837369Y2897428D01*
X9826142Y2883204D01*
X9816439Y2867914D01*
X9808311Y2851759D01*
X9801961Y2834792D01*
X9797338Y2817266D01*
X9794544Y2799384D01*
X9793630Y2781300D01*
X9794544Y2763215D01*
X9797338Y2745333D01*
X9801961Y2727807D01*
X9808311Y2710840D01*
X9816439Y2694686D01*
X9826142Y2679395D01*
X9837369Y2665171D01*
X9850018Y2652217D01*
X9863937Y2640634D01*
X9878974Y2630525D01*
X9894925Y2621991D01*
X9911689Y2615184D01*
X9929114Y2610104D01*
X9946894Y2606852D01*
G37*
G36*
X10050830Y3133445D02*
G01*
X10052151Y3134055D01*
X10067696Y3143351D01*
X10082174Y3154222D01*
X10095484Y3166516D01*
X10107422Y3180130D01*
X10117937Y3194913D01*
X10125303Y3207969D01*
X10050830Y3207969D01*
G37*
G36*
X9888169Y3133598D02*
G01*
X9888169Y3207969D01*
X9813798Y3207969D01*
X9816439Y3202686D01*
X9826142Y3187395D01*
X9837369Y3173171D01*
X9850018Y3160217D01*
X9863937Y3148634D01*
X9878974Y3138525D01*
G37*
G36*
X9813798Y3370630D02*
G01*
X9888169Y3370630D01*
X9888169Y3445001D01*
X9878974Y3440074D01*
X9863937Y3429965D01*
X9850018Y3418382D01*
X9837369Y3405428D01*
X9826142Y3391204D01*
X9816439Y3375914D01*
G37*
G36*
X10050830Y3370630D02*
G01*
X10125303Y3370630D01*
X10117937Y3383686D01*
X10107422Y3398469D01*
X10095484Y3412083D01*
X10082174Y3424377D01*
X10067696Y3435248D01*
X10052151Y3444544D01*
X10050830Y3445154D01*
G37*
G36*
X5854700Y4248962D02*
G01*
X5864504Y4249826D01*
X5873953Y4252366D01*
X5882894Y4256481D01*
X5887161Y4258919D01*
X5890209Y4259376D01*
X6022390Y4259376D01*
X6025438Y4258919D01*
X6029706Y4256481D01*
X6038646Y4252366D01*
X6048095Y4249826D01*
X6057900Y4248962D01*
X6067704Y4249826D01*
X6077153Y4252366D01*
X6086094Y4256481D01*
X6094120Y4262120D01*
X6101080Y4269079D01*
X6106718Y4277156D01*
X6109512Y4279849D01*
X6113119Y4281322D01*
X6116980Y4281322D01*
X6120587Y4279849D01*
X6123381Y4277156D01*
X6129020Y4269079D01*
X6135979Y4262120D01*
X6144006Y4256481D01*
X6152946Y4252366D01*
X6162395Y4249826D01*
X6172200Y4248962D01*
X6182004Y4249826D01*
X6191453Y4252366D01*
X6200394Y4256481D01*
X6208420Y4262120D01*
X6215380Y4269079D01*
X6221018Y4277106D01*
X6225133Y4286046D01*
X6227673Y4295495D01*
X6228537Y4305300D01*
X6227673Y4315104D01*
X6225133Y4324553D01*
X6221018Y4333494D01*
X6218580Y4337761D01*
X6218123Y4340809D01*
X6218123Y4574590D01*
X6218580Y4577638D01*
X6221018Y4581906D01*
X6225133Y4590846D01*
X6227673Y4600295D01*
X6228537Y4610100D01*
X6227673Y4619904D01*
X6225133Y4629353D01*
X6221018Y4638294D01*
X6215380Y4646320D01*
X6208420Y4653280D01*
X6200394Y4658918D01*
X6191453Y4663033D01*
X6182004Y4665573D01*
X6172200Y4666437D01*
X6162395Y4665573D01*
X6152946Y4663033D01*
X6144006Y4658918D01*
X6135979Y4653280D01*
X6129020Y4646320D01*
X6123381Y4638294D01*
X6119266Y4629353D01*
X6116726Y4619904D01*
X6115862Y4610100D01*
X6116726Y4600295D01*
X6119266Y4590846D01*
X6123381Y4581906D01*
X6125819Y4577638D01*
X6126276Y4574590D01*
X6126276Y4340809D01*
X6125819Y4337761D01*
X6123381Y4333443D01*
X6120587Y4330750D01*
X6116980Y4329277D01*
X6113119Y4329277D01*
X6109512Y4330750D01*
X6106718Y4333443D01*
X6101080Y4341520D01*
X6094120Y4348480D01*
X6086094Y4354118D01*
X6077153Y4358233D01*
X6067704Y4360773D01*
X6057900Y4361637D01*
X6048095Y4360773D01*
X6038646Y4358233D01*
X6029706Y4354118D01*
X6025438Y4351680D01*
X6022390Y4351223D01*
X5890209Y4351223D01*
X5887161Y4351680D01*
X5882894Y4354118D01*
X5873953Y4358233D01*
X5864504Y4360773D01*
X5854700Y4361637D01*
X5844895Y4360773D01*
X5835446Y4358233D01*
X5826506Y4354118D01*
X5818479Y4348480D01*
X5811520Y4341520D01*
X5805881Y4333494D01*
X5801766Y4324553D01*
X5799226Y4315104D01*
X5798362Y4305300D01*
X5799226Y4295495D01*
X5801766Y4286046D01*
X5805881Y4277106D01*
X5811520Y4269079D01*
X5818479Y4262120D01*
X5826506Y4256481D01*
X5835446Y4252366D01*
X5844895Y4249826D01*
G37*
G36*
X6921500Y4579162D02*
G01*
X6931304Y4580026D01*
X6940753Y4582566D01*
X6949694Y4586681D01*
X6957720Y4592320D01*
X6964680Y4599279D01*
X6970318Y4607306D01*
X6974433Y4616246D01*
X6976973Y4625695D01*
X6977837Y4635500D01*
X6976973Y4645304D01*
X6974433Y4654753D01*
X6970318Y4663694D01*
X6967880Y4667961D01*
X6967423Y4671009D01*
X6967372Y4827778D01*
X6966153Y4836515D01*
X6963460Y4844542D01*
X6959346Y4851908D01*
X6953605Y4858816D01*
X6928256Y4884166D01*
X6926630Y4886299D01*
X6925614Y4888738D01*
X6923633Y4896053D01*
X6919518Y4904994D01*
X6913880Y4913020D01*
X6906920Y4919980D01*
X6898894Y4925618D01*
X6889953Y4929733D01*
X6880504Y4932273D01*
X6870700Y4933137D01*
X6860895Y4932273D01*
X6851446Y4929733D01*
X6842506Y4925618D01*
X6834479Y4919980D01*
X6827520Y4913020D01*
X6821881Y4904994D01*
X6817766Y4896053D01*
X6815226Y4886604D01*
X6814362Y4876800D01*
X6815226Y4866995D01*
X6817766Y4857546D01*
X6821881Y4848606D01*
X6827520Y4840579D01*
X6834479Y4833620D01*
X6842506Y4827981D01*
X6851446Y4823866D01*
X6858762Y4821885D01*
X6861200Y4820869D01*
X6863334Y4819243D01*
X6872630Y4809947D01*
X6874814Y4806645D01*
X6875576Y4802784D01*
X6875576Y4671009D01*
X6875119Y4667961D01*
X6872681Y4663694D01*
X6868566Y4654753D01*
X6866026Y4645304D01*
X6865162Y4635500D01*
X6866026Y4625695D01*
X6868566Y4616246D01*
X6872681Y4607306D01*
X6878320Y4599279D01*
X6885279Y4592320D01*
X6893306Y4586681D01*
X6902246Y4582566D01*
X6911695Y4580026D01*
G37*
G36*
X5168900Y4591862D02*
G01*
X5178704Y4592726D01*
X5188153Y4595266D01*
X5197094Y4599381D01*
X5205120Y4605020D01*
X5212080Y4611979D01*
X5217718Y4620006D01*
X5221833Y4628946D01*
X5224373Y4638395D01*
X5225237Y4648200D01*
X5224373Y4658004D01*
X5221833Y4667453D01*
X5217718Y4676394D01*
X5215280Y4680661D01*
X5214823Y4683709D01*
X5214772Y4891278D01*
X5213553Y4900015D01*
X5210860Y4908042D01*
X5206746Y4915408D01*
X5201005Y4922316D01*
X5161991Y4961280D01*
X5154930Y4966614D01*
X5147360Y4970373D01*
X5139232Y4972659D01*
X5130342Y4973523D01*
X4353509Y4973523D01*
X4350461Y4973980D01*
X4346194Y4976418D01*
X4337253Y4980533D01*
X4327804Y4983073D01*
X4318000Y4983937D01*
X4308195Y4983073D01*
X4298746Y4980533D01*
X4289806Y4976418D01*
X4281779Y4970780D01*
X4274820Y4963820D01*
X4269181Y4955794D01*
X4265066Y4946853D01*
X4262526Y4937404D01*
X4261662Y4927600D01*
X4262526Y4917795D01*
X4265066Y4908346D01*
X4269181Y4899406D01*
X4274820Y4891379D01*
X4276953Y4889246D01*
X4279188Y4885944D01*
X4279950Y4882083D01*
X4279188Y4878171D01*
X4276953Y4874869D01*
X4273651Y4872685D01*
X4269790Y4871923D01*
X4264609Y4871923D01*
X4261561Y4872380D01*
X4257294Y4874818D01*
X4248353Y4878933D01*
X4238904Y4881473D01*
X4229100Y4882337D01*
X4219295Y4881473D01*
X4209846Y4878933D01*
X4200906Y4874818D01*
X4192879Y4869180D01*
X4185920Y4862220D01*
X4180281Y4854194D01*
X4176166Y4845253D01*
X4173626Y4835804D01*
X4172762Y4826000D01*
X4173626Y4816195D01*
X4176166Y4806746D01*
X4180281Y4797806D01*
X4185920Y4789779D01*
X4192879Y4782820D01*
X4200906Y4777181D01*
X4209846Y4773066D01*
X4219295Y4770526D01*
X4229100Y4769662D01*
X4238904Y4770526D01*
X4248353Y4773066D01*
X4257294Y4777181D01*
X4261561Y4779619D01*
X4264609Y4780076D01*
X4701590Y4780076D01*
X4704638Y4779619D01*
X4708906Y4777181D01*
X4717846Y4773066D01*
X4727295Y4770526D01*
X4737100Y4769662D01*
X4746904Y4770526D01*
X4756353Y4773066D01*
X4765294Y4777181D01*
X4773320Y4782820D01*
X4780280Y4789779D01*
X4785918Y4797806D01*
X4790033Y4806746D01*
X4792573Y4816195D01*
X4793437Y4826000D01*
X4792573Y4835804D01*
X4790033Y4845253D01*
X4785918Y4854194D01*
X4780280Y4862220D01*
X4778146Y4864354D01*
X4775911Y4867656D01*
X4775149Y4871516D01*
X4775911Y4875428D01*
X4778146Y4878730D01*
X4781448Y4880914D01*
X4785309Y4881676D01*
X5107584Y4881676D01*
X5111445Y4880914D01*
X5114747Y4878730D01*
X5120030Y4873447D01*
X5122214Y4870145D01*
X5122976Y4866284D01*
X5122976Y4683709D01*
X5122519Y4680661D01*
X5120081Y4676394D01*
X5115966Y4667453D01*
X5113426Y4658004D01*
X5112562Y4648200D01*
X5113426Y4638395D01*
X5115966Y4628946D01*
X5120081Y4620006D01*
X5125720Y4611979D01*
X5132679Y4605020D01*
X5140706Y4599381D01*
X5149646Y4595266D01*
X5159095Y4592726D01*
G37*
G36*
X9964978Y4662881D02*
G01*
X9983063Y4663338D01*
X10001046Y4665675D01*
X10018674Y4669790D01*
X10035743Y4675784D01*
X10052151Y4683455D01*
X10067696Y4692751D01*
X10082174Y4703622D01*
X10095484Y4715916D01*
X10107422Y4729530D01*
X10117937Y4744313D01*
X10126827Y4760061D01*
X10134092Y4776673D01*
X10139578Y4793894D01*
X10143286Y4811623D01*
X10145166Y4829657D01*
X10145166Y4847742D01*
X10143286Y4865776D01*
X10139578Y4883505D01*
X10134092Y4900726D01*
X10126827Y4917338D01*
X10117937Y4933086D01*
X10107422Y4947869D01*
X10095484Y4961483D01*
X10082174Y4973777D01*
X10067696Y4984648D01*
X10052151Y4993944D01*
X10035743Y5001615D01*
X10018674Y5007610D01*
X10001046Y5011724D01*
X9983063Y5014061D01*
X9964978Y5014518D01*
X9946894Y5013147D01*
X9929114Y5009896D01*
X9911689Y5004816D01*
X9894925Y4998008D01*
X9878974Y4989474D01*
X9863937Y4979365D01*
X9850018Y4967782D01*
X9837369Y4954828D01*
X9826142Y4940604D01*
X9816439Y4925314D01*
X9808311Y4909159D01*
X9801961Y4892192D01*
X9797338Y4874666D01*
X9794544Y4856784D01*
X9793630Y4838700D01*
X9794544Y4820615D01*
X9797338Y4802733D01*
X9801961Y4785207D01*
X9808311Y4768240D01*
X9816439Y4752086D01*
X9826142Y4736795D01*
X9837369Y4722571D01*
X9850018Y4709617D01*
X9863937Y4698034D01*
X9878974Y4687925D01*
X9894925Y4679391D01*
X9911689Y4672584D01*
X9929114Y4667504D01*
X9946894Y4664252D01*
G37*
G36*
X10050830Y5190845D02*
G01*
X10052151Y5191455D01*
X10067696Y5200751D01*
X10082174Y5211622D01*
X10095484Y5223916D01*
X10107422Y5237530D01*
X10117937Y5252313D01*
X10125303Y5265369D01*
X10050830Y5265369D01*
G37*
G36*
X9888169Y5190998D02*
G01*
X9888169Y5265369D01*
X9813798Y5265369D01*
X9816439Y5260086D01*
X9826142Y5244795D01*
X9837369Y5230571D01*
X9850018Y5217617D01*
X9863937Y5206034D01*
X9878974Y5195925D01*
G37*
G36*
X9813798Y5428030D02*
G01*
X9888169Y5428030D01*
X9888169Y5502402D01*
X9878974Y5497474D01*
X9863937Y5487365D01*
X9850018Y5475782D01*
X9837369Y5462828D01*
X9826142Y5448604D01*
X9816439Y5433314D01*
G37*
G36*
X10050830Y5428030D02*
G01*
X10125303Y5428030D01*
X10117937Y5441086D01*
X10107422Y5455869D01*
X10095484Y5469483D01*
X10082174Y5481777D01*
X10067696Y5492648D01*
X10052151Y5501944D01*
X10050830Y5502554D01*
G37*
G36*
X5075986Y5471718D02*
G01*
X5075986Y5517286D01*
X5030419Y5517286D01*
X5034838Y5508752D01*
X5042509Y5497931D01*
X5051602Y5488178D01*
X5061915Y5479796D01*
X5073294Y5472887D01*
G37*
G36*
X5030419Y5601512D02*
G01*
X5075986Y5601512D01*
X5075986Y5647080D01*
X5073294Y5645912D01*
X5061915Y5639003D01*
X5051602Y5630621D01*
X5042509Y5620867D01*
X5034838Y5610047D01*
G37*
G36*
X5160213Y5601512D02*
G01*
X5205780Y5601512D01*
X5201361Y5610047D01*
X5193690Y5620867D01*
X5184597Y5630621D01*
X5174284Y5639003D01*
X5162905Y5645912D01*
X5160213Y5647080D01*
G37*
G36*
X5845098Y5631992D02*
G01*
X5864555Y5632958D01*
X5883808Y5635802D01*
X5902706Y5640527D01*
X5921044Y5647080D01*
X5938621Y5655411D01*
X5955334Y5665419D01*
X5970981Y5677001D01*
X5985408Y5690108D01*
X5998464Y5704535D01*
X6010046Y5720181D01*
X6020054Y5736844D01*
X6028385Y5754471D01*
X6034938Y5772810D01*
X6039662Y5791708D01*
X6042558Y5810961D01*
X6043523Y5830366D01*
X6042558Y5849823D01*
X6039662Y5869076D01*
X6034938Y5887974D01*
X6028385Y5906312D01*
X6020054Y5923940D01*
X6010046Y5940602D01*
X5998464Y5956249D01*
X5985408Y5970676D01*
X5970981Y5983732D01*
X5955334Y5995365D01*
X5938621Y6005372D01*
X5921044Y6013704D01*
X5902706Y6020257D01*
X5883808Y6024981D01*
X5864555Y6027826D01*
X5845098Y6028791D01*
X5825642Y6027826D01*
X5806389Y6024981D01*
X5787491Y6020257D01*
X5769152Y6013704D01*
X5751576Y6005372D01*
X5734862Y5995365D01*
X5719216Y5983732D01*
X5704789Y5970676D01*
X5691733Y5956249D01*
X5680151Y5940602D01*
X5670143Y5923940D01*
X5661812Y5906312D01*
X5655259Y5887974D01*
X5650534Y5869076D01*
X5647639Y5849823D01*
X5646674Y5830366D01*
X5647639Y5810961D01*
X5650534Y5791708D01*
X5655259Y5772810D01*
X5661812Y5754471D01*
X5670143Y5736844D01*
X5680151Y5720181D01*
X5691733Y5704535D01*
X5704789Y5690108D01*
X5719216Y5677001D01*
X5734862Y5665419D01*
X5751576Y5655411D01*
X5769152Y5647080D01*
X5787491Y5640527D01*
X5806389Y5635802D01*
X5825642Y5632958D01*
G37*
G36*
X4641138Y5631992D02*
G01*
X4660544Y5632958D01*
X4679797Y5635802D01*
X4698695Y5640527D01*
X4717034Y5647080D01*
X4734661Y5655411D01*
X4751324Y5665419D01*
X4766970Y5677001D01*
X4781397Y5690108D01*
X4794504Y5704535D01*
X4806086Y5720181D01*
X4816094Y5736844D01*
X4824425Y5754471D01*
X4830978Y5772810D01*
X4835702Y5791708D01*
X4838547Y5810961D01*
X4839512Y5830366D01*
X4838547Y5849823D01*
X4835702Y5869076D01*
X4830978Y5887974D01*
X4824425Y5906312D01*
X4816094Y5923940D01*
X4806086Y5940602D01*
X4794504Y5956249D01*
X4781397Y5970676D01*
X4766970Y5983732D01*
X4751324Y5995365D01*
X4734661Y6005372D01*
X4717034Y6013704D01*
X4698695Y6020257D01*
X4679797Y6024981D01*
X4660544Y6027826D01*
X4641138Y6028791D01*
X4621682Y6027826D01*
X4602429Y6024981D01*
X4583531Y6020257D01*
X4565192Y6013704D01*
X4547565Y6005372D01*
X4530902Y5995365D01*
X4515256Y5983732D01*
X4500829Y5970676D01*
X4487773Y5956249D01*
X4476140Y5940602D01*
X4466132Y5923940D01*
X4457801Y5906312D01*
X4451248Y5887974D01*
X4446524Y5869076D01*
X4443679Y5849823D01*
X4442714Y5830366D01*
X4443679Y5810961D01*
X4446524Y5791708D01*
X4451248Y5772810D01*
X4457801Y5754471D01*
X4466132Y5736844D01*
X4476140Y5720181D01*
X4487773Y5704535D01*
X4500829Y5690108D01*
X4515256Y5677001D01*
X4530902Y5665419D01*
X4547565Y5655411D01*
X4565192Y5647080D01*
X4583531Y5640527D01*
X4602429Y5635802D01*
X4621682Y5632958D01*
G37*
G36*
X9984994Y6049111D02*
G01*
X10011206Y6050076D01*
X10037267Y6053023D01*
X10063073Y6057900D01*
X10088422Y6064707D01*
X10113162Y6073343D01*
X10137241Y6083858D01*
X10160457Y6096101D01*
X10182656Y6110071D01*
X10203789Y6125667D01*
X10223652Y6142786D01*
X10242194Y6161328D01*
X10259314Y6181191D01*
X10274909Y6202324D01*
X10288879Y6224524D01*
X10301122Y6247739D01*
X10311638Y6271818D01*
X10320274Y6296558D01*
X10327081Y6321907D01*
X10331958Y6347714D01*
X10334904Y6373774D01*
X10335869Y6399987D01*
X10334904Y6426200D01*
X10331958Y6452311D01*
X10327081Y6478066D01*
X10320274Y6503416D01*
X10311638Y6528206D01*
X10301122Y6552234D01*
X10288879Y6575450D01*
X10274909Y6597650D01*
X10259314Y6618782D01*
X10242194Y6638645D01*
X10223652Y6657238D01*
X10203789Y6674358D01*
X10182656Y6689902D01*
X10160457Y6703872D01*
X10137241Y6716166D01*
X10113162Y6726631D01*
X10088422Y6735318D01*
X10063073Y6742125D01*
X10037267Y6747002D01*
X10011206Y6749897D01*
X9984994Y6750913D01*
X9958781Y6749897D01*
X9932670Y6747002D01*
X9906914Y6742125D01*
X9881565Y6735318D01*
X9856774Y6726631D01*
X9832746Y6716166D01*
X9809530Y6703872D01*
X9787331Y6689902D01*
X9766198Y6674358D01*
X9746335Y6657238D01*
X9727742Y6638645D01*
X9710623Y6618782D01*
X9695078Y6597650D01*
X9681108Y6575450D01*
X9668814Y6552234D01*
X9658350Y6528206D01*
X9649663Y6503416D01*
X9642856Y6478066D01*
X9637979Y6452311D01*
X9635083Y6426200D01*
X9634067Y6399987D01*
X9635083Y6373774D01*
X9637979Y6347714D01*
X9642856Y6321907D01*
X9649663Y6296558D01*
X9658350Y6271818D01*
X9668814Y6247739D01*
X9681108Y6224524D01*
X9695078Y6202324D01*
X9710623Y6181191D01*
X9727742Y6161328D01*
X9746335Y6142786D01*
X9766198Y6125667D01*
X9787331Y6110071D01*
X9809530Y6096101D01*
X9832746Y6083858D01*
X9856774Y6073343D01*
X9881565Y6064707D01*
X9906914Y6057900D01*
X9932670Y6053023D01*
X9958781Y6050076D01*
G37*

%LPD*%
D10*
X3949700Y3416300D02*
G01*
X3949700Y3162300D01*
X4165600Y2946400D01*
X9626600Y2946400D01*
X9969500Y3289300D01*
X9423400Y1270000D02*
G01*
X9423400Y2120900D01*
X9563100Y2260600D01*
X9969500Y2260600D01*
D11*
X10350500Y3998465D02*
G01*
X10350500Y3800909D01*
X10350500Y4167799D02*
G01*
X10350500Y3998465D01*
X10350500Y4355947D02*
G01*
X10350500Y4167799D01*
X9969500Y5346700D02*
G01*
X10185400Y5346700D01*
X10350500Y5181600D01*
X10350500Y4355947D01*
X9207500Y4368800D02*
G01*
X9347200Y4368800D01*
X9423400Y4445000D01*
X9423400Y5181600D01*
X9588500Y5346700D01*
X10350500Y3390900D02*
G01*
X10350500Y2400300D01*
X10223500Y2273300D01*
X9982200Y2273300D01*
X9969500Y2260600D01*
X10350500Y3800909D02*
G01*
X10350500Y3390900D01*
X10248900Y3289300D01*
X9969500Y3289300D01*
X9969500Y5346700D02*
G01*
X9588500Y5346700D01*
X9436100Y6743700D02*
G01*
X9525000Y6654800D01*
X9525000Y5410200D01*
X9588500Y5346700D01*
D10*
X4241800Y1612900D02*
G01*
X4140200Y1511300D01*
X3924300Y1511300D01*
X3810000Y1397000D01*
X3810000Y1193800D01*
X8343900Y5387847D02*
G01*
X8232647Y5387847D01*
X7962900Y5118100D01*
X7962900Y4216400D01*
X8013700Y4165600D01*
X8864600Y4165600D01*
X8915400Y4114800D01*
X8915400Y3111500D01*
X8826500Y3022600D01*
X4203700Y3022600D01*
X4051300Y3175000D01*
X4051300Y3683000D01*
X6352039Y2781300D02*
G01*
X6352039Y2603500D01*
X5715000Y4686300D02*
G01*
X5715000Y4610100D01*
X5626100Y4521200D01*
X5626100Y3911600D01*
X5499100Y3784600D01*
X7594600Y653239D02*
G01*
X5905500Y653239D01*
X4399991Y1117600D02*
G01*
X5702300Y1117600D01*
X1899996Y1231900D02*
G01*
X3606800Y1231900D01*
X7797800Y584200D02*
G01*
X2552700Y584200D01*
X2501900Y635000D01*
X9207500Y4368800D02*
G01*
X8318500Y4368800D01*
X8178800Y4508500D01*
X8178800Y4902200D01*
X8051800Y5029200D01*
X6921500Y4635500D02*
G01*
X6921500Y4826000D01*
X6870700Y4876800D01*
X5003800Y2159000D02*
G01*
X4965700Y2159000D01*
X4927600Y2120900D01*
X4927600Y1574800D01*
X4965700Y1536700D01*
X8788400Y5803900D02*
G01*
X8623300Y5803900D01*
X8547100Y5727700D01*
X8547100Y5613400D01*
X8343900Y5387847D02*
G01*
X8232647Y5387847D01*
X7962900Y5118100D01*
X7962900Y4216400D01*
X8013700Y4165600D01*
X8864600Y4165600D01*
X8915400Y4114800D01*
X8915400Y3111500D01*
X8826500Y3022600D01*
X4902200Y3022600D01*
X5664200Y2514600D02*
G01*
X5600700Y2578100D01*
X5600700Y2755900D01*
X5765800Y2590800D02*
G01*
X5715000Y2590800D01*
X5689600Y2616200D01*
X5689600Y2832100D01*
X4229100Y4826000D02*
G01*
X4737100Y4826000D01*
X4318000Y4927600D02*
G01*
X5130800Y4927600D01*
X5168900Y4889500D01*
X5168900Y4648200D01*
X5346700Y4432300D02*
G01*
X4838700Y4432300D01*
X4787900Y4483100D01*
X4787900Y4622800D01*
X6057900Y4305300D02*
G01*
X5854700Y4305300D01*
X5811428Y3098800D02*
G01*
X5715000Y3195228D01*
X5715000Y4305300D01*
X5448300Y3949700D02*
G01*
X5448300Y4876800D01*
X5245100Y5080000D01*
X5245100Y5511800D01*
X5292597Y5559297D01*
X5368036Y5559297D01*
X5537200Y4114800D02*
G01*
X5537200Y5283200D01*
X5461000Y5359400D01*
X5368036Y5359400D01*
X4533900Y3619500D02*
G01*
X4254500Y3340100D01*
X8496300Y736600D02*
G01*
X8953500Y736600D01*
X8496300Y228600D02*
G01*
X8483600Y215900D01*
X7772400Y215900D01*
X7594600Y393700D01*
X7594600Y508000D01*
X8890000Y1536700D02*
G01*
X8953500Y1473200D01*
X9334500Y1473200D01*
X6781800Y1447800D02*
G01*
X6438900Y1447800D01*
X1612900Y5651500D02*
G01*
X1778000Y5651500D01*
X8547100Y5613400D02*
G01*
X8547100Y5537200D01*
X8470900Y5461000D01*
X8216900Y5461000D01*
X7899400Y5143500D01*
X7899400Y4165600D01*
X7962900Y4102100D01*
X8801100Y4102100D01*
X8851900Y4051300D01*
X8851900Y3175000D01*
X8775700Y3098800D01*
X6352039Y3098800D01*
X6352039Y3098800D02*
G01*
X4241800Y3098800D01*
X4140200Y3200400D01*
X4140200Y3771900D01*
X4102100Y3810000D01*
X3937000Y3810000D01*
X3848100Y3721100D01*
X3848100Y3149600D01*
X4127500Y2870200D01*
X4902200Y2870200D01*
X5003800Y2768600D01*
X5003800Y2159000D01*
X5803900Y1270000D02*
G01*
X5918200Y1384300D01*
X5918200Y1866900D01*
X6019800Y1117600D02*
G01*
X5702300Y1117600D01*
X5511800Y1739900D02*
G01*
X5511800Y2171700D01*
X5702300Y1117600D02*
G01*
X5702300Y1536700D01*
X5511800Y1727200D01*
X5511800Y1739900D01*
X5411215Y1281684D02*
G01*
X5410200Y1651000D01*
X4851400Y1270000D02*
G01*
X4635500Y1485900D01*
X4635500Y1739900D01*
X4568332Y3305667D02*
G01*
X4445000Y3187700D01*
X4445000Y3187700D01*
X4572000Y3429000D02*
G01*
X4330700Y3187700D01*
X6172200Y4610100D02*
G01*
X6172200Y4305300D01*
X6172200Y4305300D01*
X6172200Y3187700D02*
G01*
X5956300Y3187700D01*
X4572000Y3543300D02*
G01*
X4254500Y3225800D01*
X2971800Y4165600D02*
G01*
X2971800Y4051300D01*
X3073400Y3949700D01*
X3556000Y3949700D01*
X3644900Y3860800D01*
X3644900Y3111500D01*
X4064000Y2692400D01*
X4622800Y2692400D01*
X4724400Y2590800D01*
X4724400Y1511300D01*
X4965700Y1270000D01*
X5308600Y1270000D01*
X3073400Y4229100D02*
G01*
X3073400Y4114800D01*
X3149600Y4038600D01*
X3632200Y4038600D01*
X3746500Y3924300D01*
X3746500Y3124200D01*
X4089400Y2781300D01*
X4711700Y2781300D01*
X4826000Y2667000D01*
X4826000Y1536700D01*
X5016500Y1346200D01*
X5346700Y1346200D01*
X5499100Y1193800D01*
X2882900Y3962400D02*
G01*
X2882900Y4267200D01*
X2997200Y4381500D01*
X3162300Y4381500D01*
X508000Y2755900D02*
G01*
X330200Y2755900D01*
X533400Y4229100D02*
G01*
X165100Y4229100D01*
X2700020Y1607820D02*
G01*
X2565400Y1742439D01*
X676198Y1727200D01*
D12*
G01*
X3987800Y2159000D03*
D13*
G01*
X4241800Y2159000D03*
G01*
X4495800Y2159000D03*
D14*
G01*
X5118100Y5359400D03*
G01*
X5368086Y5359400D03*
G01*
X5368086Y5559399D03*
G01*
X5118100Y5559399D03*
D15*
G01*
X4641113Y5830392D03*
G01*
X5845098Y5830392D03*
D16*
G01*
X9969500Y4838700D03*
G01*
X9969500Y5346700D03*
D12*
G01*
X8674100Y3390900D03*
D13*
G01*
X8674100Y3644900D03*
G01*
X8674100Y3898900D03*
D12*
G01*
X8953500Y228600D03*
D13*
G01*
X8953500Y482600D03*
G01*
X8953500Y736600D03*
D16*
G01*
X9969500Y1752600D03*
G01*
X9969500Y2260600D03*
G01*
X9969500Y2781300D03*
G01*
X9969500Y3289300D03*
G01*
X676198Y2235200D03*
G01*
X676198Y1727200D03*
D12*
G01*
X8496300Y228600D03*
D13*
G01*
X8496300Y482600D03*
G01*
X8496300Y736600D03*
D17*
G01*
X614502Y6399987D03*
G01*
X614502Y599998D03*
G01*
X9984993Y6399987D03*
G01*
X9984993Y599998D03*
D18*
G01*
X9436100Y6743700D03*
G01*
X9207500Y4368800D03*
G01*
X3949700Y3416300D03*
G01*
X8051800Y5029200D03*
D19*
G01*
X6921500Y4635500D03*
G01*
X6870700Y4876800D03*
G01*
X5003800Y2159000D03*
G01*
X4965700Y1536700D03*
G01*
X8788400Y5803900D03*
G01*
X8547100Y5613400D03*
G01*
X8343900Y5387898D03*
G01*
X4051300Y3683000D03*
G01*
X5765800Y2590800D03*
G01*
X5664200Y2514600D03*
G01*
X5600700Y2755900D03*
G01*
X5689600Y2832100D03*
G01*
X4229100Y4826000D03*
G01*
X4318000Y4927600D03*
G01*
X5168900Y4648200D03*
G01*
X4737100Y4826000D03*
G01*
X5715000Y4305300D03*
G01*
X5715000Y4686300D03*
G01*
X5499100Y3784600D03*
G01*
X5346700Y4432300D03*
G01*
X4787900Y4622800D03*
G01*
X6057900Y4305300D03*
G01*
X5854700Y4305300D03*
G01*
X5448300Y3949700D03*
G01*
X5537200Y4114800D03*
G01*
X4533900Y3619500D03*
G01*
X4254500Y3340100D03*
G01*
X7594600Y508000D03*
G01*
X8890000Y1536700D03*
G01*
X9334500Y1473200D03*
G01*
X6781800Y1447800D03*
G01*
X6438900Y1447800D03*
G01*
X1612900Y5651500D03*
G01*
X1778000Y5651500D03*
G01*
X3073400Y4229100D03*
G01*
X2971800Y4165600D03*
G01*
X5499100Y1193800D03*
G01*
X5308600Y1270000D03*
G01*
X5803900Y1270000D03*
G01*
X5918200Y1866900D03*
G01*
X6019800Y1117600D03*
G01*
X5702300Y1117600D03*
G01*
X5511800Y2171700D03*
G01*
X5511800Y1739900D03*
G01*
X5410200Y1651000D03*
G01*
X4851400Y1270000D03*
G01*
X4635500Y1739900D03*
G01*
X4568342Y3305657D03*
G01*
X4572000Y3429000D03*
G01*
X4330700Y3187700D03*
G01*
X4445000Y3187700D03*
G01*
X4241800Y1612900D03*
G01*
X3810000Y1193800D03*
G01*
X6172200Y4610100D03*
G01*
X6172200Y4305300D03*
G01*
X6172200Y3187700D03*
G01*
X5956300Y3187700D03*
G01*
X4572000Y3543300D03*
G01*
X4254500Y3225800D03*
G01*
X2882900Y3962400D03*
G01*
X3162300Y4381500D03*
G01*
X508000Y2755900D03*
G01*
X330200Y2755900D03*
G01*
X533400Y4229100D03*
G01*
X165100Y4229100D03*
G01*
X2700020Y1607820D03*
G01*
X7797800Y584200D03*
G01*
X2501900Y635000D03*
G01*
X1899996Y1231900D03*
G01*
X3606800Y1231900D03*
G01*
X4399991Y1117600D03*
G01*
X7594600Y653237D03*
G01*
X5905500Y653237D03*
G01*
X9423400Y1270000D03*
D20*
G01*
X6352031Y3098800D03*
G01*
X6352031Y2781300D03*
G01*
X6352031Y2603500D03*
G01*
X3378200Y3202660D03*
G01*
X3378200Y3080359D03*
G01*
X3378200Y2953359D03*
G01*
X10350500Y4167809D03*
G01*
X10350500Y3998468D03*
G01*
X10350500Y3800906D03*
D21*
G01*
X6368059Y6776694D03*
G01*
X6368059Y6576695D03*
G01*
X6368059Y6376695D03*
G01*
X6368059Y6176695D03*
G01*
X6368059Y5976696D03*
G01*
X6368059Y5776696D03*
G01*
X6568059Y6776694D03*
G01*
X6568059Y6576695D03*
G01*
X6568059Y6376695D03*
G01*
X6568059Y6176695D03*
G01*
X6568059Y5976696D03*
G01*
X6568059Y5776696D03*
G01*
X6568059Y5576696D03*
G01*
X6768058Y6776694D03*
G01*
X6768058Y6576695D03*
G01*
X6768058Y6376695D03*
G01*
X6768058Y6176695D03*
G01*
X6768058Y5976696D03*
G01*
X6768058Y5776696D03*
G01*
X6768058Y5576696D03*
G01*
X6768058Y5376697D03*
G01*
X6968058Y6776694D03*
G01*
X6968058Y6576695D03*
G01*
X6968058Y6376695D03*
G01*
X6968058Y6176695D03*
G01*
X6968058Y5976696D03*
G01*
X6968058Y5776696D03*
G01*
X6968058Y5576696D03*
G01*
X6968058Y5376697D03*
G01*
X6968058Y5176697D03*
G01*
X7168057Y6776694D03*
G01*
X7168057Y6576695D03*
G01*
X7168057Y6376695D03*
G01*
X7168057Y6176695D03*
G01*
X7168057Y5976696D03*
G01*
X7168057Y5776696D03*
G01*
X7168057Y5576696D03*
G01*
X7168057Y5376697D03*
G01*
X7168057Y5176697D03*
G01*
X7168057Y4976698D03*
G01*
X7368057Y6776694D03*
G01*
X7368057Y6576695D03*
G01*
X7368057Y6376695D03*
G01*
X7368057Y6176695D03*
G01*
X7368057Y5976696D03*
G01*
X7368057Y5776696D03*
G01*
X7368057Y5576696D03*
G01*
X7368057Y5376697D03*
G01*
X7368057Y5176697D03*
G01*
X7368057Y4976698D03*
G01*
X7568056Y6776694D03*
G01*
X7568056Y6576695D03*
G01*
X7568056Y6376695D03*
G01*
X7568056Y6176695D03*
G01*
X7568056Y5976696D03*
G01*
X7568056Y5776696D03*
G01*
X7568056Y5576696D03*
G01*
X7568056Y5376697D03*
G01*
X7768056Y6776694D03*
G01*
X7768056Y6576695D03*
G01*
X7768056Y6376695D03*
G01*
X7768056Y6176695D03*
G01*
X7768056Y5976696D03*
G01*
X7768056Y5776696D03*
G01*
X7768056Y5576696D03*
G01*
X7968056Y6776694D03*
G01*
X7968056Y6576695D03*
G01*
X7968056Y6376695D03*
G01*
X7968056Y6176695D03*
G01*
X7968056Y5976696D03*
G01*
X7968056Y5776696D03*
G01*
X7968056Y5576696D03*
G01*
X8168055Y6576695D03*
G01*
X8168055Y6376695D03*
G01*
X8168055Y6176695D03*
G01*
X8168055Y5976696D03*
G01*
X8168055Y5776696D03*
G01*
X8168055Y5576696D03*
G01*
X6380403Y6776694D03*
G01*
X6380403Y6576695D03*
G01*
X6380403Y6376695D03*
G01*
X6380403Y6176695D03*
G01*
X6380403Y5976696D03*
G01*
X6380403Y5776696D03*
G01*
X6580403Y6776694D03*
G01*
X6580403Y6576695D03*
G01*
X6580403Y6376695D03*
G01*
X6580403Y6176695D03*
G01*
X6580403Y5976696D03*
G01*
X6580403Y5776696D03*
G01*
X6580403Y5576696D03*
G01*
X6780402Y6776694D03*
G01*
X6780402Y6576695D03*
G01*
X6780402Y6376695D03*
G01*
X6780402Y6176695D03*
G01*
X6780402Y5976696D03*
G01*
X6780402Y5776696D03*
G01*
X6780402Y5576696D03*
G01*
X6780402Y5376697D03*
G01*
X6780402Y4176699D03*
G01*
X6780402Y3976700D03*
G01*
X6780402Y3776700D03*
G01*
X6780402Y3576701D03*
G01*
X6780402Y3376701D03*
G01*
X6980402Y6776694D03*
G01*
X6980402Y6576695D03*
G01*
X6980402Y6376695D03*
G01*
X6980402Y6176695D03*
G01*
X6980402Y5976696D03*
G01*
X6980402Y5776696D03*
G01*
X6980402Y5576696D03*
G01*
X6980402Y5376697D03*
G01*
X6980402Y5176697D03*
G01*
X6980402Y4176699D03*
G01*
X6980402Y3976700D03*
G01*
X6980402Y3776700D03*
G01*
X6980402Y3576701D03*
G01*
X6980402Y3376701D03*
G01*
X7180402Y6776694D03*
G01*
X7180402Y6576695D03*
G01*
X7180402Y6376695D03*
G01*
X7180402Y6176695D03*
G01*
X7180402Y5976696D03*
G01*
X7180402Y5776696D03*
G01*
X7180402Y5576696D03*
G01*
X7180402Y5376697D03*
G01*
X7180402Y5176697D03*
G01*
X7180402Y4976698D03*
G01*
X7180402Y4176699D03*
G01*
X7180402Y3976700D03*
G01*
X7180402Y3776700D03*
G01*
X7180402Y3576701D03*
G01*
X7180402Y3376701D03*
G01*
X7380401Y6776694D03*
G01*
X7380401Y6576695D03*
G01*
X7380401Y6376695D03*
G01*
X7380401Y6176695D03*
G01*
X7380401Y5976696D03*
G01*
X7380401Y5776696D03*
G01*
X7380401Y5576696D03*
G01*
X7380401Y5376697D03*
G01*
X7380401Y5176697D03*
G01*
X7380401Y4976698D03*
G01*
X7380401Y4176699D03*
G01*
X7380401Y3976700D03*
G01*
X7380401Y3776700D03*
G01*
X7380401Y3576701D03*
G01*
X7380401Y3376701D03*
G01*
X7580401Y6776694D03*
G01*
X7580401Y6576695D03*
G01*
X7580401Y6376695D03*
G01*
X7580401Y6176695D03*
G01*
X7580401Y5976696D03*
G01*
X7580401Y5776696D03*
G01*
X7580401Y5576696D03*
G01*
X7580401Y5376697D03*
G01*
X7580401Y4176699D03*
G01*
X7580401Y3976700D03*
G01*
X7580401Y3776700D03*
G01*
X7580401Y3576701D03*
G01*
X7580401Y3376701D03*
G01*
X7780400Y6776694D03*
G01*
X7780400Y6576695D03*
G01*
X7780400Y6376695D03*
G01*
X7780400Y6176695D03*
G01*
X7780400Y5976696D03*
G01*
X7780400Y5776696D03*
G01*
X7780400Y5576696D03*
G01*
X7780400Y3976700D03*
G01*
X7780400Y3776700D03*
G01*
X7780400Y3576701D03*
G01*
X7780400Y3376701D03*
G01*
X7980400Y6776694D03*
G01*
X7980400Y6576695D03*
G01*
X7980400Y6376695D03*
G01*
X7980400Y6176695D03*
G01*
X7980400Y5976696D03*
G01*
X7980400Y5776696D03*
G01*
X7980400Y5576696D03*
G01*
X7980400Y3776700D03*
G01*
X7980400Y3576701D03*
G01*
X7980400Y3376701D03*
G01*
X8180400Y6576695D03*
G01*
X8180400Y6376695D03*
G01*
X8180400Y6176695D03*
G01*
X8180400Y5976696D03*
G01*
X8180400Y5776696D03*
G01*
X8180400Y5576696D03*
G01*
X8180400Y3576701D03*
G01*
X8180400Y3376701D03*
G01*
X8380399Y3576701D03*
M02*
