G04 Layer: TopSilkscreenLayer*
G04 EasyEDA v6.5.46, 2024-09-04 15:34:20*
G04 d73e3e6912d945eb9b412824c50a840e,79071ce94af74c669a867ceed4e6d4b3,10*
G04 Gerber Generator version 0.2*
G04 Scale: 100 percent, Rotated: No, Reflected: No *
G04 Dimensions in millimeters *
G04 leading zeros omitted , absolute positions ,4 integer and 5 decimal *
%FSLAX45Y45*%
%MOMM*%

%ADD10C,0.2032*%
%ADD11C,0.1524*%
%ADD12C,0.2540*%
%ADD13C,0.1270*%
%ADD14C,0.1999*%
%ADD15C,0.1001*%
%ADD16C,0.1520*%
%ADD17C,0.3000*%
%ADD18C,0.4000*%
%ADD19C,0.4250*%
%ADD20C,0.5000*%
%ADD21C,0.0137*%

%LPD*%
D10*
X2362200Y6885178D02*
G01*
X2436113Y6691376D01*
X2510027Y6885178D02*
G01*
X2436113Y6691376D01*
X2626359Y6885178D02*
G01*
X2598674Y6876034D01*
X2580131Y6848347D01*
X2570988Y6802120D01*
X2570988Y6774434D01*
X2580131Y6728205D01*
X2598674Y6700520D01*
X2626359Y6691376D01*
X2644902Y6691376D01*
X2672588Y6700520D01*
X2691129Y6728205D01*
X2700274Y6774434D01*
X2700274Y6802120D01*
X2691129Y6848347D01*
X2672588Y6876034D01*
X2644902Y6885178D01*
X2626359Y6885178D01*
X2770377Y6737350D02*
G01*
X2761234Y6728205D01*
X2770377Y6719062D01*
X2779775Y6728205D01*
X2770377Y6737350D01*
X2849879Y6838950D02*
G01*
X2849879Y6848347D01*
X2859024Y6866889D01*
X2868422Y6876034D01*
X2886709Y6885178D01*
X2923793Y6885178D01*
X2942336Y6876034D01*
X2951479Y6866889D01*
X2960624Y6848347D01*
X2960624Y6829805D01*
X2951479Y6811263D01*
X2932938Y6783578D01*
X2840736Y6691376D01*
X2970022Y6691376D01*
D11*
X3900170Y2452115D02*
G01*
X3900170Y2369057D01*
X3894836Y2353310D01*
X3889756Y2348229D01*
X3879341Y2343150D01*
X3868927Y2343150D01*
X3858513Y2348229D01*
X3853179Y2353310D01*
X3848100Y2369057D01*
X3848100Y2379471D01*
X3934459Y2452115D02*
G01*
X3934459Y2343150D01*
X3934459Y2452115D02*
G01*
X3975861Y2343150D01*
X4017518Y2452115D02*
G01*
X3975861Y2343150D01*
X4017518Y2452115D02*
G01*
X4017518Y2343150D01*
X4051808Y2452115D02*
G01*
X4051808Y2343150D01*
X4051808Y2452115D02*
G01*
X4098543Y2452115D01*
X4114038Y2447036D01*
X4119372Y2441702D01*
X4124452Y2431287D01*
X4124452Y2415794D01*
X4119372Y2405379D01*
X4114038Y2400300D01*
X4098543Y2394965D01*
X4051808Y2394965D01*
X4210811Y2452115D02*
G01*
X4158741Y2379471D01*
X4236720Y2379471D01*
X4210811Y2452115D02*
G01*
X4210811Y2343150D01*
X3555491Y3430788D02*
G01*
X3545077Y3425454D01*
X3534663Y3415040D01*
X3529584Y3404880D01*
X3529584Y3384052D01*
X3534663Y3373638D01*
X3545077Y3363224D01*
X3555491Y3357890D01*
X3571240Y3352810D01*
X3597147Y3352810D01*
X3612641Y3357890D01*
X3623056Y3363224D01*
X3633470Y3373638D01*
X3638550Y3384052D01*
X3638550Y3404880D01*
X3633470Y3415040D01*
X3623056Y3425454D01*
X3612641Y3430788D01*
X3529584Y3475492D02*
G01*
X3529584Y3532642D01*
X3571240Y3501400D01*
X3571240Y3516894D01*
X3576320Y3527308D01*
X3581400Y3532642D01*
X3597147Y3537722D01*
X3607561Y3537722D01*
X3623056Y3532642D01*
X3633470Y3522228D01*
X3638550Y3506480D01*
X3638550Y3490986D01*
X3633470Y3475492D01*
X3628390Y3470158D01*
X3617975Y3465078D01*
X3339591Y3430788D02*
G01*
X3329177Y3425454D01*
X3318763Y3415040D01*
X3313684Y3404880D01*
X3313684Y3384052D01*
X3318763Y3373638D01*
X3329177Y3363224D01*
X3339591Y3357890D01*
X3355340Y3352810D01*
X3381247Y3352810D01*
X3396741Y3357890D01*
X3407156Y3363224D01*
X3417570Y3373638D01*
X3422650Y3384052D01*
X3422650Y3404880D01*
X3417570Y3415040D01*
X3407156Y3425454D01*
X3396741Y3430788D01*
X3313684Y3516894D02*
G01*
X3386327Y3465078D01*
X3386327Y3543056D01*
X3313684Y3516894D02*
G01*
X3422650Y3516894D01*
X5869177Y4699507D02*
G01*
X5863843Y4709921D01*
X5853429Y4720336D01*
X5843270Y4725415D01*
X5822441Y4725415D01*
X5812027Y4720336D01*
X5801613Y4709921D01*
X5796279Y4699507D01*
X5791200Y4683760D01*
X5791200Y4657852D01*
X5796279Y4642357D01*
X5801613Y4631944D01*
X5812027Y4621529D01*
X5822441Y4616450D01*
X5843270Y4616450D01*
X5853429Y4621529D01*
X5863843Y4631944D01*
X5869177Y4642357D01*
X5976111Y4725415D02*
G01*
X5924295Y4616450D01*
X5903468Y4725415D02*
G01*
X5976111Y4725415D01*
X4535677Y4864607D02*
G01*
X4530343Y4875021D01*
X4519929Y4885436D01*
X4509770Y4890515D01*
X4488941Y4890515D01*
X4478527Y4885436D01*
X4468113Y4875021D01*
X4462779Y4864607D01*
X4457700Y4848860D01*
X4457700Y4822952D01*
X4462779Y4807457D01*
X4468113Y4797044D01*
X4478527Y4786629D01*
X4488941Y4781550D01*
X4509770Y4781550D01*
X4519929Y4786629D01*
X4530343Y4797044D01*
X4535677Y4807457D01*
X4595875Y4890515D02*
G01*
X4580381Y4885436D01*
X4575047Y4875021D01*
X4575047Y4864607D01*
X4580381Y4854194D01*
X4590795Y4848860D01*
X4611370Y4843779D01*
X4627118Y4838700D01*
X4637531Y4828286D01*
X4642611Y4817871D01*
X4642611Y4802123D01*
X4637531Y4791710D01*
X4632197Y4786629D01*
X4616704Y4781550D01*
X4595875Y4781550D01*
X4580381Y4786629D01*
X4575047Y4791710D01*
X4569968Y4802123D01*
X4569968Y4817871D01*
X4575047Y4828286D01*
X4585461Y4838700D01*
X4601209Y4843779D01*
X4621784Y4848860D01*
X4632197Y4854194D01*
X4637531Y4864607D01*
X4637531Y4875021D01*
X4632197Y4885436D01*
X4616704Y4890515D01*
X4595875Y4890515D01*
X6859777Y2314803D02*
G01*
X6854443Y2325217D01*
X6844029Y2335631D01*
X6833870Y2340711D01*
X6813041Y2340711D01*
X6802627Y2335631D01*
X6792213Y2325217D01*
X6786879Y2314803D01*
X6781800Y2299055D01*
X6781800Y2273147D01*
X6786879Y2257653D01*
X6792213Y2247239D01*
X6802627Y2236825D01*
X6813041Y2231745D01*
X6833870Y2231745D01*
X6844029Y2236825D01*
X6854443Y2247239D01*
X6859777Y2257653D01*
X6961631Y2304389D02*
G01*
X6956297Y2288895D01*
X6945884Y2278481D01*
X6930390Y2273147D01*
X6925309Y2273147D01*
X6909561Y2278481D01*
X6899147Y2288895D01*
X6894068Y2304389D01*
X6894068Y2309469D01*
X6899147Y2325217D01*
X6909561Y2335631D01*
X6925309Y2340711D01*
X6930390Y2340711D01*
X6945884Y2335631D01*
X6956297Y2325217D01*
X6961631Y2304389D01*
X6961631Y2278481D01*
X6956297Y2252319D01*
X6945884Y2236825D01*
X6930390Y2231745D01*
X6919975Y2231745D01*
X6904481Y2236825D01*
X6899147Y2247239D01*
X763778Y6033007D02*
G01*
X758444Y6043421D01*
X748029Y6053836D01*
X737870Y6058915D01*
X717042Y6058915D01*
X706628Y6053836D01*
X696213Y6043421D01*
X690879Y6033007D01*
X685800Y6017260D01*
X685800Y5991352D01*
X690879Y5975857D01*
X696213Y5965444D01*
X706628Y5955029D01*
X717042Y5949950D01*
X737870Y5949950D01*
X748029Y5955029D01*
X758444Y5965444D01*
X763778Y5975857D01*
X798068Y6038087D02*
G01*
X808481Y6043421D01*
X823976Y6058915D01*
X823976Y5949950D01*
X889507Y6058915D02*
G01*
X873760Y6053836D01*
X863600Y6038087D01*
X858265Y6012179D01*
X858265Y5996686D01*
X863600Y5970523D01*
X873760Y5955029D01*
X889507Y5949950D01*
X899921Y5949950D01*
X915415Y5955029D01*
X925829Y5970523D01*
X930910Y5996686D01*
X930910Y6012179D01*
X925829Y6038087D01*
X915415Y6053836D01*
X899921Y6058915D01*
X889507Y6058915D01*
X547878Y5182107D02*
G01*
X542544Y5192521D01*
X532129Y5202936D01*
X521970Y5208015D01*
X501142Y5208015D01*
X490728Y5202936D01*
X480313Y5192521D01*
X474979Y5182107D01*
X469900Y5166360D01*
X469900Y5140452D01*
X474979Y5124957D01*
X480313Y5114544D01*
X490728Y5104129D01*
X501142Y5099050D01*
X521970Y5099050D01*
X532129Y5104129D01*
X542544Y5114544D01*
X547878Y5124957D01*
X582168Y5187187D02*
G01*
X592581Y5192521D01*
X608076Y5208015D01*
X608076Y5099050D01*
X642365Y5187187D02*
G01*
X652779Y5192521D01*
X668273Y5208015D01*
X668273Y5099050D01*
X547878Y3708907D02*
G01*
X542544Y3719321D01*
X532129Y3729736D01*
X521970Y3734815D01*
X501142Y3734815D01*
X490728Y3729736D01*
X480313Y3719321D01*
X474979Y3708907D01*
X469900Y3693160D01*
X469900Y3667252D01*
X474979Y3651757D01*
X480313Y3641344D01*
X490728Y3630929D01*
X501142Y3625850D01*
X521970Y3625850D01*
X532129Y3630929D01*
X542544Y3641344D01*
X547878Y3651757D01*
X582168Y3713987D02*
G01*
X592581Y3719321D01*
X608076Y3734815D01*
X608076Y3625850D01*
X652779Y3734815D02*
G01*
X709929Y3734815D01*
X678687Y3693160D01*
X694436Y3693160D01*
X704850Y3688079D01*
X709929Y3683000D01*
X715010Y3667252D01*
X715010Y3656837D01*
X709929Y3641344D01*
X699515Y3630929D01*
X684021Y3625850D01*
X668273Y3625850D01*
X652779Y3630929D01*
X647700Y3636010D01*
X642365Y3646423D01*
X8015488Y5283707D02*
G01*
X8010154Y5294121D01*
X7999740Y5304536D01*
X7989580Y5309615D01*
X7968752Y5309615D01*
X7958338Y5304536D01*
X7947924Y5294121D01*
X7942590Y5283707D01*
X7937510Y5267960D01*
X7937510Y5242052D01*
X7942590Y5226557D01*
X7947924Y5216144D01*
X7958338Y5205729D01*
X7968752Y5200650D01*
X7989580Y5200650D01*
X7999740Y5205729D01*
X8010154Y5216144D01*
X8015488Y5226557D01*
X8049778Y5288787D02*
G01*
X8060192Y5294121D01*
X8075686Y5309615D01*
X8075686Y5200650D01*
X8172460Y5309615D02*
G01*
X8120390Y5309615D01*
X8115310Y5262879D01*
X8120390Y5267960D01*
X8135884Y5273294D01*
X8151632Y5273294D01*
X8167126Y5267960D01*
X8177540Y5257800D01*
X8182620Y5242052D01*
X8182620Y5231637D01*
X8177540Y5216144D01*
X8167126Y5205729D01*
X8151632Y5200650D01*
X8135884Y5200650D01*
X8120390Y5205729D01*
X8115310Y5210810D01*
X8109976Y5221223D01*
X9130791Y6313688D02*
G01*
X9120377Y6308354D01*
X9109963Y6297940D01*
X9104884Y6287780D01*
X9104884Y6266952D01*
X9109963Y6256538D01*
X9120377Y6246124D01*
X9130791Y6240790D01*
X9146540Y6235710D01*
X9172447Y6235710D01*
X9187941Y6240790D01*
X9198356Y6246124D01*
X9208770Y6256538D01*
X9213850Y6266952D01*
X9213850Y6287780D01*
X9208770Y6297940D01*
X9198356Y6308354D01*
X9187941Y6313688D01*
X9125711Y6347978D02*
G01*
X9120377Y6358392D01*
X9104884Y6373886D01*
X9213850Y6373886D01*
X9104884Y6480820D02*
G01*
X9213850Y6429004D01*
X9104884Y6408176D02*
G01*
X9104884Y6480820D01*
X8927591Y6313688D02*
G01*
X8917177Y6308354D01*
X8906763Y6297940D01*
X8901684Y6287780D01*
X8901684Y6266952D01*
X8906763Y6256538D01*
X8917177Y6246124D01*
X8927591Y6240790D01*
X8943340Y6235710D01*
X8969247Y6235710D01*
X8984741Y6240790D01*
X8995156Y6246124D01*
X9005570Y6256538D01*
X9010650Y6266952D01*
X9010650Y6287780D01*
X9005570Y6297940D01*
X8995156Y6308354D01*
X8984741Y6313688D01*
X8922511Y6347978D02*
G01*
X8917177Y6358392D01*
X8901684Y6373886D01*
X9010650Y6373886D01*
X8901684Y6434084D02*
G01*
X8906763Y6418590D01*
X8917177Y6413510D01*
X8927591Y6413510D01*
X8938006Y6418590D01*
X8943340Y6429004D01*
X8948420Y6449832D01*
X8953500Y6465326D01*
X8963913Y6475740D01*
X8974327Y6480820D01*
X8990075Y6480820D01*
X9000490Y6475740D01*
X9005570Y6470660D01*
X9010650Y6454912D01*
X9010650Y6434084D01*
X9005570Y6418590D01*
X9000490Y6413510D01*
X8990075Y6408176D01*
X8974327Y6408176D01*
X8963913Y6413510D01*
X8953500Y6423670D01*
X8948420Y6439418D01*
X8943340Y6460246D01*
X8938006Y6470660D01*
X8927591Y6475740D01*
X8917177Y6475740D01*
X8906763Y6470660D01*
X8901684Y6454912D01*
X8901684Y6434084D01*
X7964690Y4902715D02*
G01*
X7959356Y4913129D01*
X7948942Y4923543D01*
X7938782Y4928623D01*
X7917954Y4928623D01*
X7907540Y4923543D01*
X7897126Y4913129D01*
X7891792Y4902715D01*
X7886712Y4886967D01*
X7886712Y4861059D01*
X7891792Y4845565D01*
X7897126Y4835151D01*
X7907540Y4824737D01*
X7917954Y4819657D01*
X7938782Y4819657D01*
X7948942Y4824737D01*
X7959356Y4835151D01*
X7964690Y4845565D01*
X7998980Y4907795D02*
G01*
X8009394Y4913129D01*
X8024888Y4928623D01*
X8024888Y4819657D01*
X8121662Y4913129D02*
G01*
X8116328Y4923543D01*
X8100834Y4928623D01*
X8090420Y4928623D01*
X8074672Y4923543D01*
X8064512Y4907795D01*
X8059178Y4881887D01*
X8059178Y4855979D01*
X8064512Y4835151D01*
X8074672Y4824737D01*
X8090420Y4819657D01*
X8095500Y4819657D01*
X8111248Y4824737D01*
X8121662Y4835151D01*
X8126742Y4850645D01*
X8126742Y4855979D01*
X8121662Y4871473D01*
X8111248Y4881887D01*
X8095500Y4886967D01*
X8090420Y4886967D01*
X8074672Y4881887D01*
X8064512Y4871473D01*
X8059178Y4855979D01*
X8369300Y6808215D02*
G01*
X8369300Y6699250D01*
X8369300Y6808215D02*
G01*
X8405622Y6808215D01*
X8421370Y6803136D01*
X8431529Y6792721D01*
X8436863Y6782308D01*
X8441943Y6766560D01*
X8441943Y6740652D01*
X8436863Y6725158D01*
X8431529Y6714744D01*
X8421370Y6704329D01*
X8405622Y6699250D01*
X8369300Y6699250D01*
X8476234Y6787387D02*
G01*
X8486647Y6792721D01*
X8502395Y6808215D01*
X8502395Y6699250D01*
X8902710Y4687315D02*
G01*
X8902710Y4578350D01*
X8902710Y4687315D02*
G01*
X8939032Y4687315D01*
X8954780Y4682236D01*
X8964940Y4671821D01*
X8970274Y4661407D01*
X8975354Y4645660D01*
X8975354Y4619752D01*
X8970274Y4604257D01*
X8964940Y4593844D01*
X8954780Y4583429D01*
X8939032Y4578350D01*
X8902710Y4578350D01*
X9014978Y4661407D02*
G01*
X9014978Y4666487D01*
X9020058Y4676902D01*
X9025392Y4682236D01*
X9035806Y4687315D01*
X9056380Y4687315D01*
X9066794Y4682236D01*
X9072128Y4676902D01*
X9077208Y4666487D01*
X9077208Y4656073D01*
X9072128Y4645660D01*
X9061714Y4630165D01*
X9009644Y4578350D01*
X9082542Y4578350D01*
X4052061Y1309115D02*
G01*
X4052061Y1226057D01*
X4046727Y1210310D01*
X4041647Y1205229D01*
X4031234Y1200150D01*
X4020820Y1200150D01*
X4010406Y1205229D01*
X4005072Y1210310D01*
X3999991Y1226057D01*
X3999991Y1236471D01*
X4091431Y1283207D02*
G01*
X4091431Y1288287D01*
X4096511Y1298702D01*
X4101845Y1304036D01*
X4112259Y1309115D01*
X4133088Y1309115D01*
X4143502Y1304036D01*
X4148581Y1298702D01*
X4153661Y1288287D01*
X4153661Y1277873D01*
X4148581Y1267460D01*
X4138168Y1251965D01*
X4086352Y1200150D01*
X4158995Y1200150D01*
X5752058Y1309115D02*
G01*
X5752058Y1226057D01*
X5746724Y1210310D01*
X5741644Y1205229D01*
X5731230Y1200150D01*
X5720816Y1200150D01*
X5710402Y1205229D01*
X5705068Y1210310D01*
X5699988Y1226057D01*
X5699988Y1236471D01*
X5796508Y1309115D02*
G01*
X5853658Y1309115D01*
X5822670Y1267460D01*
X5838164Y1267460D01*
X5848578Y1262379D01*
X5853658Y1257300D01*
X5858992Y1241552D01*
X5858992Y1231137D01*
X5853658Y1215644D01*
X5843498Y1205229D01*
X5827750Y1200150D01*
X5812256Y1200150D01*
X5796508Y1205229D01*
X5791428Y1210310D01*
X5786348Y1220723D01*
X7452055Y1309115D02*
G01*
X7452055Y1226057D01*
X7446721Y1210310D01*
X7441641Y1205229D01*
X7431227Y1200150D01*
X7420813Y1200150D01*
X7410399Y1205229D01*
X7405065Y1210310D01*
X7399985Y1226057D01*
X7399985Y1236471D01*
X7538161Y1309115D02*
G01*
X7486345Y1236471D01*
X7564069Y1236471D01*
X7538161Y1309115D02*
G01*
X7538161Y1200150D01*
X2352067Y1309115D02*
G01*
X2352067Y1226057D01*
X2346733Y1210310D01*
X2341653Y1205229D01*
X2331237Y1200150D01*
X2320825Y1200150D01*
X2310409Y1205229D01*
X2305077Y1210310D01*
X2299995Y1226057D01*
X2299995Y1236471D01*
X2448587Y1309115D02*
G01*
X2396517Y1309115D01*
X2391437Y1262379D01*
X2396517Y1267460D01*
X2412265Y1272794D01*
X2427759Y1272794D01*
X2443507Y1267460D01*
X2453667Y1257300D01*
X2459001Y1241552D01*
X2459001Y1231137D01*
X2453667Y1215644D01*
X2443507Y1205229D01*
X2427759Y1200150D01*
X2412265Y1200150D01*
X2396517Y1205229D01*
X2391437Y1210310D01*
X2386357Y1220723D01*
X6249670Y6414515D02*
G01*
X6249670Y6331457D01*
X6244336Y6315710D01*
X6239256Y6310629D01*
X6228841Y6305550D01*
X6218427Y6305550D01*
X6208013Y6310629D01*
X6202679Y6315710D01*
X6197600Y6331457D01*
X6197600Y6341871D01*
X6346190Y6399021D02*
G01*
X6341109Y6409436D01*
X6325361Y6414515D01*
X6314947Y6414515D01*
X6299454Y6409436D01*
X6289040Y6393687D01*
X6283959Y6367779D01*
X6283959Y6341871D01*
X6289040Y6321044D01*
X6299454Y6310629D01*
X6314947Y6305550D01*
X6320281Y6305550D01*
X6335775Y6310629D01*
X6346190Y6321044D01*
X6351270Y6336537D01*
X6351270Y6341871D01*
X6346190Y6357365D01*
X6335775Y6367779D01*
X6320281Y6372860D01*
X6314947Y6372860D01*
X6299454Y6367779D01*
X6289040Y6357365D01*
X6283959Y6341871D01*
X9396984Y5119370D02*
G01*
X9480041Y5119370D01*
X9495790Y5114036D01*
X9500870Y5108955D01*
X9505950Y5098542D01*
X9505950Y5088128D01*
X9500870Y5077713D01*
X9495790Y5072379D01*
X9480041Y5067300D01*
X9469627Y5067300D01*
X9396984Y5179568D02*
G01*
X9402063Y5163820D01*
X9412477Y5158739D01*
X9422891Y5158739D01*
X9433306Y5163820D01*
X9438640Y5174234D01*
X9443720Y5195062D01*
X9448800Y5210810D01*
X9459213Y5220970D01*
X9469627Y5226304D01*
X9485375Y5226304D01*
X9495790Y5220970D01*
X9500870Y5215889D01*
X9505950Y5200395D01*
X9505950Y5179568D01*
X9500870Y5163820D01*
X9495790Y5158739D01*
X9485375Y5153660D01*
X9469627Y5153660D01*
X9459213Y5158739D01*
X9448800Y5169154D01*
X9443720Y5184647D01*
X9438640Y5205476D01*
X9433306Y5215889D01*
X9422891Y5220970D01*
X9412477Y5220970D01*
X9402063Y5215889D01*
X9396984Y5200395D01*
X9396984Y5179568D01*
X8888973Y3519159D02*
G01*
X8972031Y3519159D01*
X8987779Y3513825D01*
X8992859Y3508745D01*
X8997939Y3498331D01*
X8997939Y3487917D01*
X8992859Y3477503D01*
X8987779Y3472169D01*
X8972031Y3467089D01*
X8961617Y3467089D01*
X8888973Y3553449D02*
G01*
X8997939Y3553449D01*
X8888973Y3553449D02*
G01*
X8997939Y3594851D01*
X8888973Y3636507D02*
G01*
X8997939Y3594851D01*
X8888973Y3636507D02*
G01*
X8997939Y3636507D01*
X8888973Y3670797D02*
G01*
X8997939Y3670797D01*
X8888973Y3670797D02*
G01*
X8888973Y3717533D01*
X8894053Y3733027D01*
X8899387Y3738361D01*
X8909801Y3743441D01*
X8925295Y3743441D01*
X8935709Y3738361D01*
X8940789Y3733027D01*
X8946123Y3717533D01*
X8946123Y3670797D01*
X8909801Y3777731D02*
G01*
X8904467Y3788145D01*
X8888973Y3803639D01*
X8997939Y3803639D01*
X8876273Y1017259D02*
G01*
X8959331Y1017259D01*
X8975079Y1011925D01*
X8980159Y1006845D01*
X8985239Y996431D01*
X8985239Y986017D01*
X8980159Y975603D01*
X8975079Y970269D01*
X8959331Y965189D01*
X8948917Y965189D01*
X8876273Y1051549D02*
G01*
X8985239Y1051549D01*
X8876273Y1051549D02*
G01*
X8985239Y1092951D01*
X8876273Y1134607D02*
G01*
X8985239Y1092951D01*
X8876273Y1134607D02*
G01*
X8985239Y1134607D01*
X8876273Y1168897D02*
G01*
X8985239Y1168897D01*
X8876273Y1168897D02*
G01*
X8876273Y1215633D01*
X8881353Y1231127D01*
X8886687Y1236461D01*
X8897101Y1241541D01*
X8912595Y1241541D01*
X8923009Y1236461D01*
X8928089Y1231127D01*
X8933423Y1215633D01*
X8933423Y1168897D01*
X8902181Y1281165D02*
G01*
X8897101Y1281165D01*
X8886687Y1286245D01*
X8881353Y1291579D01*
X8876273Y1301739D01*
X8876273Y1322567D01*
X8881353Y1332981D01*
X8886687Y1338315D01*
X8897101Y1343395D01*
X8907515Y1343395D01*
X8917929Y1338315D01*
X8933423Y1327901D01*
X8985239Y1275831D01*
X8985239Y1348729D01*
X4089405Y3861815D02*
G01*
X4089405Y3752850D01*
X4089405Y3752850D02*
G01*
X4151635Y3752850D01*
X4185925Y3840987D02*
G01*
X4196339Y3846321D01*
X4212087Y3861815D01*
X4212087Y3752850D01*
X4089402Y3620515D02*
G01*
X4089402Y3511550D01*
X4089402Y3620515D02*
G01*
X4136138Y3620515D01*
X4151632Y3615436D01*
X4156966Y3610102D01*
X4162046Y3599687D01*
X4162046Y3589273D01*
X4156966Y3578860D01*
X4151632Y3573779D01*
X4136138Y3568700D01*
X4089402Y3568700D01*
X4125724Y3568700D02*
G01*
X4162046Y3511550D01*
X4196336Y3599687D02*
G01*
X4206750Y3605021D01*
X4222498Y3620515D01*
X4222498Y3511550D01*
X4838700Y3836415D02*
G01*
X4838700Y3727450D01*
X4838700Y3836415D02*
G01*
X4885436Y3836415D01*
X4900929Y3831336D01*
X4906263Y3826002D01*
X4911343Y3815587D01*
X4911343Y3805173D01*
X4906263Y3794760D01*
X4900929Y3789679D01*
X4885436Y3784600D01*
X4838700Y3784600D01*
X4875022Y3784600D02*
G01*
X4911343Y3727450D01*
X4997704Y3836415D02*
G01*
X4945634Y3763771D01*
X5023611Y3763771D01*
X4997704Y3836415D02*
G01*
X4997704Y3727450D01*
X4838700Y3658615D02*
G01*
X4838700Y3549650D01*
X4838700Y3658615D02*
G01*
X4885436Y3658615D01*
X4900929Y3653536D01*
X4906263Y3648202D01*
X4911343Y3637787D01*
X4911343Y3627373D01*
X4906263Y3616960D01*
X4900929Y3611879D01*
X4885436Y3606800D01*
X4838700Y3606800D01*
X4875022Y3606800D02*
G01*
X4911343Y3549650D01*
X5008118Y3658615D02*
G01*
X4956047Y3658615D01*
X4950968Y3611879D01*
X4956047Y3616960D01*
X4971795Y3622294D01*
X4987290Y3622294D01*
X5002784Y3616960D01*
X5013197Y3606800D01*
X5018531Y3591052D01*
X5018531Y3580637D01*
X5013197Y3565144D01*
X5002784Y3554729D01*
X4987290Y3549650D01*
X4971795Y3549650D01*
X4956047Y3554729D01*
X4950968Y3559810D01*
X4945634Y3570223D01*
X5156200Y4954015D02*
G01*
X5156200Y4876037D01*
X5161279Y4860544D01*
X5171693Y4850129D01*
X5187441Y4845050D01*
X5197856Y4845050D01*
X5213350Y4850129D01*
X5223763Y4860544D01*
X5228843Y4876037D01*
X5228843Y4954015D01*
X5268468Y4928107D02*
G01*
X5268468Y4933187D01*
X5273547Y4943602D01*
X5278881Y4948936D01*
X5289295Y4954015D01*
X5309870Y4954015D01*
X5320284Y4948936D01*
X5325618Y4943602D01*
X5330697Y4933187D01*
X5330697Y4922773D01*
X5325618Y4912360D01*
X5315204Y4896865D01*
X5263134Y4845050D01*
X5336031Y4845050D01*
X1625600Y6909810D02*
G01*
X1625600Y6831832D01*
X1630679Y6816338D01*
X1641094Y6805924D01*
X1656842Y6800844D01*
X1667255Y6800844D01*
X1682750Y6805924D01*
X1693163Y6816338D01*
X1698244Y6831832D01*
X1698244Y6909810D01*
X1742947Y6909810D02*
G01*
X1800097Y6909810D01*
X1769110Y6868154D01*
X1784604Y6868154D01*
X1795018Y6863074D01*
X1800097Y6857994D01*
X1805431Y6842246D01*
X1805431Y6831832D01*
X1800097Y6816338D01*
X1789684Y6805924D01*
X1774189Y6800844D01*
X1758695Y6800844D01*
X1742947Y6805924D01*
X1737868Y6811004D01*
X1732534Y6821418D01*
X6096000Y2502915D02*
G01*
X6096000Y2424937D01*
X6101079Y2409444D01*
X6111493Y2399029D01*
X6127241Y2393950D01*
X6137656Y2393950D01*
X6153150Y2399029D01*
X6163563Y2409444D01*
X6168643Y2424937D01*
X6168643Y2502915D01*
X6255004Y2502915D02*
G01*
X6202934Y2430271D01*
X6280911Y2430271D01*
X6255004Y2502915D02*
G01*
X6255004Y2393950D01*
X1701800Y4230115D02*
G01*
X1701800Y4152137D01*
X1706879Y4136644D01*
X1717294Y4126229D01*
X1733042Y4121150D01*
X1743455Y4121150D01*
X1758950Y4126229D01*
X1769363Y4136644D01*
X1774444Y4152137D01*
X1774444Y4230115D01*
X1871218Y4230115D02*
G01*
X1819147Y4230115D01*
X1814068Y4183379D01*
X1819147Y4188460D01*
X1834895Y4193794D01*
X1850389Y4193794D01*
X1865884Y4188460D01*
X1876297Y4178300D01*
X1881631Y4162552D01*
X1881631Y4152137D01*
X1876297Y4136644D01*
X1865884Y4126229D01*
X1850389Y4121150D01*
X1834895Y4121150D01*
X1819147Y4126229D01*
X1814068Y4131310D01*
X1808734Y4141723D01*
X1739900Y2769615D02*
G01*
X1739900Y2691637D01*
X1744979Y2676144D01*
X1755394Y2665729D01*
X1771142Y2660650D01*
X1781555Y2660650D01*
X1797050Y2665729D01*
X1807463Y2676144D01*
X1812544Y2691637D01*
X1812544Y2769615D01*
X1909318Y2754121D02*
G01*
X1903984Y2764536D01*
X1888489Y2769615D01*
X1878076Y2769615D01*
X1862581Y2764536D01*
X1852168Y2748787D01*
X1846834Y2722879D01*
X1846834Y2696971D01*
X1852168Y2676144D01*
X1862581Y2665729D01*
X1878076Y2660650D01*
X1883410Y2660650D01*
X1898904Y2665729D01*
X1909318Y2676144D01*
X1914397Y2691637D01*
X1914397Y2696971D01*
X1909318Y2712465D01*
X1898904Y2722879D01*
X1883410Y2727960D01*
X1878076Y2727960D01*
X1862581Y2722879D01*
X1852168Y2712465D01*
X1846834Y2696971D01*
X7366000Y4265320D02*
G01*
X7366000Y4187342D01*
X7371079Y4171848D01*
X7381493Y4161434D01*
X7397241Y4156354D01*
X7407656Y4156354D01*
X7423150Y4161434D01*
X7433563Y4171848D01*
X7438643Y4187342D01*
X7438643Y4265320D01*
X7545831Y4265320D02*
G01*
X7493761Y4156354D01*
X7472934Y4265320D02*
G01*
X7545831Y4265320D01*
X9402063Y2033270D02*
G01*
X9485122Y2033270D01*
X9500870Y2027936D01*
X9505950Y2022855D01*
X9511029Y2012442D01*
X9511029Y2002028D01*
X9505950Y1991613D01*
X9500870Y1986279D01*
X9485122Y1981200D01*
X9474708Y1981200D01*
X9422891Y2067560D02*
G01*
X9417558Y2077720D01*
X9402063Y2093468D01*
X9511029Y2093468D01*
X9464293Y2127757D02*
G01*
X9464293Y2221229D01*
X9422891Y2255520D02*
G01*
X9417558Y2265934D01*
X9402063Y2281428D01*
X9511029Y2281428D01*
X9402063Y3061970D02*
G01*
X9485122Y3061970D01*
X9500870Y3056636D01*
X9505950Y3051555D01*
X9511029Y3041142D01*
X9511029Y3030728D01*
X9505950Y3020313D01*
X9500870Y3014979D01*
X9485122Y3009900D01*
X9474708Y3009900D01*
X9422891Y3096260D02*
G01*
X9417558Y3106420D01*
X9402063Y3122168D01*
X9511029Y3122168D01*
X9464293Y3156457D02*
G01*
X9464293Y3249929D01*
X9427972Y3289300D02*
G01*
X9422891Y3289300D01*
X9412477Y3294634D01*
X9407143Y3299713D01*
X9402063Y3310128D01*
X9402063Y3330955D01*
X9407143Y3341370D01*
X9412477Y3346450D01*
X9422891Y3351784D01*
X9433306Y3351784D01*
X9443720Y3346450D01*
X9459213Y3336289D01*
X9511029Y3284220D01*
X9511029Y3356863D01*
X4749901Y2617215D02*
G01*
X4749901Y2508250D01*
X4749901Y2617215D02*
G01*
X4796637Y2617215D01*
X4812131Y2612136D01*
X4817465Y2606802D01*
X4822545Y2596387D01*
X4822545Y2585973D01*
X4817465Y2575560D01*
X4812131Y2570479D01*
X4796637Y2565400D01*
X4749901Y2565400D01*
X4786223Y2565400D02*
G01*
X4822545Y2508250D01*
X4919065Y2601721D02*
G01*
X4913985Y2612136D01*
X4898491Y2617215D01*
X4888077Y2617215D01*
X4872329Y2612136D01*
X4861915Y2596387D01*
X4856835Y2570479D01*
X4856835Y2544571D01*
X4861915Y2523744D01*
X4872329Y2513329D01*
X4888077Y2508250D01*
X4893157Y2508250D01*
X4908905Y2513329D01*
X4919065Y2523744D01*
X4924399Y2539237D01*
X4924399Y2544571D01*
X4919065Y2560065D01*
X4908905Y2570479D01*
X4893157Y2575560D01*
X4888077Y2575560D01*
X4872329Y2570479D01*
X4861915Y2560065D01*
X4856835Y2544571D01*
X4749800Y2414015D02*
G01*
X4749800Y2305050D01*
X4749800Y2414015D02*
G01*
X4796536Y2414015D01*
X4812029Y2408936D01*
X4817363Y2403602D01*
X4822443Y2393187D01*
X4822443Y2382773D01*
X4817363Y2372360D01*
X4812029Y2367279D01*
X4796536Y2362200D01*
X4749800Y2362200D01*
X4786122Y2362200D02*
G01*
X4822443Y2305050D01*
X4929631Y2414015D02*
G01*
X4877561Y2305050D01*
X4856734Y2414015D02*
G01*
X4929631Y2414015D01*
X4749800Y2210815D02*
G01*
X4749800Y2101850D01*
X4749800Y2210815D02*
G01*
X4796536Y2210815D01*
X4812029Y2205736D01*
X4817363Y2200402D01*
X4822443Y2189987D01*
X4822443Y2179573D01*
X4817363Y2169160D01*
X4812029Y2164079D01*
X4796536Y2159000D01*
X4749800Y2159000D01*
X4786122Y2159000D02*
G01*
X4822443Y2101850D01*
X4882895Y2210815D02*
G01*
X4867147Y2205736D01*
X4862068Y2195321D01*
X4862068Y2184907D01*
X4867147Y2174494D01*
X4877561Y2169160D01*
X4898390Y2164079D01*
X4913884Y2159000D01*
X4924297Y2148586D01*
X4929631Y2138171D01*
X4929631Y2122423D01*
X4924297Y2112010D01*
X4919218Y2106929D01*
X4903470Y2101850D01*
X4882895Y2101850D01*
X4867147Y2106929D01*
X4862068Y2112010D01*
X4856734Y2122423D01*
X4856734Y2138171D01*
X4862068Y2148586D01*
X4872481Y2159000D01*
X4887975Y2164079D01*
X4908804Y2169160D01*
X4919218Y2174494D01*
X4924297Y2184907D01*
X4924297Y2195321D01*
X4919218Y2205736D01*
X4903470Y2210815D01*
X4882895Y2210815D01*
X4749800Y2007615D02*
G01*
X4749800Y1898650D01*
X4749800Y2007615D02*
G01*
X4796536Y2007615D01*
X4812029Y2002536D01*
X4817363Y1997202D01*
X4822443Y1986787D01*
X4822443Y1976373D01*
X4817363Y1965960D01*
X4812029Y1960879D01*
X4796536Y1955800D01*
X4749800Y1955800D01*
X4786122Y1955800D02*
G01*
X4822443Y1898650D01*
X4924297Y1971294D02*
G01*
X4919218Y1955800D01*
X4908804Y1945386D01*
X4893309Y1940052D01*
X4887975Y1940052D01*
X4872481Y1945386D01*
X4862068Y1955800D01*
X4856734Y1971294D01*
X4856734Y1976373D01*
X4862068Y1992121D01*
X4872481Y2002536D01*
X4887975Y2007615D01*
X4893309Y2007615D01*
X4908804Y2002536D01*
X4919218Y1992121D01*
X4924297Y1971294D01*
X4924297Y1945386D01*
X4919218Y1919223D01*
X4908804Y1903729D01*
X4893309Y1898650D01*
X4882895Y1898650D01*
X4867147Y1903729D01*
X4862068Y1914144D01*
X4749800Y1791715D02*
G01*
X4749800Y1682750D01*
X4749800Y1791715D02*
G01*
X4796536Y1791715D01*
X4812029Y1786636D01*
X4817363Y1781302D01*
X4822443Y1770887D01*
X4822443Y1760473D01*
X4817363Y1750060D01*
X4812029Y1744979D01*
X4796536Y1739900D01*
X4749800Y1739900D01*
X4786122Y1739900D02*
G01*
X4822443Y1682750D01*
X4856734Y1770887D02*
G01*
X4867147Y1776221D01*
X4882895Y1791715D01*
X4882895Y1682750D01*
X4948174Y1791715D02*
G01*
X4932679Y1786636D01*
X4922265Y1770887D01*
X4917186Y1744979D01*
X4917186Y1729486D01*
X4922265Y1703323D01*
X4932679Y1687829D01*
X4948174Y1682750D01*
X4958588Y1682750D01*
X4974336Y1687829D01*
X4984750Y1703323D01*
X4989829Y1729486D01*
X4989829Y1744979D01*
X4984750Y1770887D01*
X4974336Y1786636D01*
X4958588Y1791715D01*
X4948174Y1791715D01*
X4749800Y1588515D02*
G01*
X4749800Y1479550D01*
X4749800Y1588515D02*
G01*
X4796536Y1588515D01*
X4812029Y1583436D01*
X4817363Y1578102D01*
X4822443Y1567687D01*
X4822443Y1557273D01*
X4817363Y1546860D01*
X4812029Y1541779D01*
X4796536Y1536700D01*
X4749800Y1536700D01*
X4786122Y1536700D02*
G01*
X4822443Y1479550D01*
X4856734Y1567687D02*
G01*
X4867147Y1573021D01*
X4882895Y1588515D01*
X4882895Y1479550D01*
X4917186Y1567687D02*
G01*
X4927600Y1573021D01*
X4943093Y1588515D01*
X4943093Y1479550D01*
X6210401Y4738115D02*
G01*
X6210401Y4629150D01*
X6210401Y4738115D02*
G01*
X6257137Y4738115D01*
X6272631Y4733036D01*
X6277965Y4727702D01*
X6283045Y4717287D01*
X6283045Y4706873D01*
X6277965Y4696460D01*
X6272631Y4691379D01*
X6257137Y4686300D01*
X6210401Y4686300D01*
X6246723Y4686300D02*
G01*
X6283045Y4629150D01*
X6317335Y4717287D02*
G01*
X6327749Y4722621D01*
X6343243Y4738115D01*
X6343243Y4629150D01*
X6387947Y4738115D02*
G01*
X6445097Y4738115D01*
X6413855Y4696460D01*
X6429603Y4696460D01*
X6440017Y4691379D01*
X6445097Y4686300D01*
X6450431Y4670552D01*
X6450431Y4660137D01*
X6445097Y4644644D01*
X6434683Y4634229D01*
X6419189Y4629150D01*
X6403695Y4629150D01*
X6387947Y4634229D01*
X6382867Y4639310D01*
X6377533Y4649723D01*
X6210401Y4534915D02*
G01*
X6210401Y4425950D01*
X6210401Y4534915D02*
G01*
X6257137Y4534915D01*
X6272631Y4529836D01*
X6277965Y4524502D01*
X6283045Y4514087D01*
X6283045Y4503673D01*
X6277965Y4493260D01*
X6272631Y4488179D01*
X6257137Y4483100D01*
X6210401Y4483100D01*
X6246723Y4483100D02*
G01*
X6283045Y4425950D01*
X6317335Y4514087D02*
G01*
X6327749Y4519421D01*
X6343243Y4534915D01*
X6343243Y4425950D01*
X6429603Y4534915D02*
G01*
X6377533Y4462271D01*
X6455511Y4462271D01*
X6429603Y4534915D02*
G01*
X6429603Y4425950D01*
X8902776Y5055615D02*
G01*
X8902776Y4946650D01*
X8902776Y5055615D02*
G01*
X8949512Y5055615D01*
X8965006Y5050536D01*
X8970340Y5045202D01*
X8975420Y5034787D01*
X8975420Y5024373D01*
X8970340Y5013960D01*
X8965006Y5008879D01*
X8949512Y5003800D01*
X8902776Y5003800D01*
X8939098Y5003800D02*
G01*
X8975420Y4946650D01*
X9009710Y5034787D02*
G01*
X9020124Y5040121D01*
X9035618Y5055615D01*
X9035618Y4946650D01*
X9132392Y5055615D02*
G01*
X9080322Y5055615D01*
X9075242Y5008879D01*
X9080322Y5013960D01*
X9096070Y5019294D01*
X9111564Y5019294D01*
X9127058Y5013960D01*
X9137472Y5003800D01*
X9142806Y4988052D01*
X9142806Y4977637D01*
X9137472Y4962144D01*
X9127058Y4951729D01*
X9111564Y4946650D01*
X9096070Y4946650D01*
X9080322Y4951729D01*
X9075242Y4956810D01*
X9069908Y4967223D01*
X8711691Y6304178D02*
G01*
X8701277Y6298844D01*
X8690863Y6288430D01*
X8685784Y6278270D01*
X8685784Y6257442D01*
X8690863Y6247028D01*
X8701277Y6236614D01*
X8711691Y6231280D01*
X8727440Y6226200D01*
X8753347Y6226200D01*
X8768841Y6231280D01*
X8779256Y6236614D01*
X8789670Y6247028D01*
X8794750Y6257442D01*
X8794750Y6278270D01*
X8789670Y6288430D01*
X8779256Y6298844D01*
X8768841Y6304178D01*
X8706611Y6338468D02*
G01*
X8701277Y6348882D01*
X8685784Y6364376D01*
X8794750Y6364376D01*
X8722106Y6466230D02*
G01*
X8737600Y6461150D01*
X8748013Y6450736D01*
X8753347Y6434988D01*
X8753347Y6429908D01*
X8748013Y6414160D01*
X8737600Y6404000D01*
X8722106Y6398666D01*
X8717025Y6398666D01*
X8701277Y6404000D01*
X8690863Y6414160D01*
X8685784Y6429908D01*
X8685784Y6434988D01*
X8690863Y6450736D01*
X8701277Y6461150D01*
X8722106Y6466230D01*
X8748013Y6466230D01*
X8774175Y6461150D01*
X8789670Y6450736D01*
X8794750Y6434988D01*
X8794750Y6424574D01*
X8789670Y6409080D01*
X8779256Y6404000D01*
X1243634Y1954529D02*
G01*
X1160576Y1954529D01*
X1144828Y1959863D01*
X1139748Y1964944D01*
X1134668Y1975357D01*
X1134668Y1985771D01*
X1139748Y1996186D01*
X1144828Y2001520D01*
X1160576Y2006600D01*
X1170990Y2006600D01*
X1243634Y1847595D02*
G01*
X1134668Y1899665D01*
X1243634Y1920239D02*
G01*
X1243634Y1847595D01*
X8469884Y1017270D02*
G01*
X8552941Y1017270D01*
X8568690Y1011936D01*
X8573770Y1006855D01*
X8578850Y996442D01*
X8578850Y986028D01*
X8573770Y975613D01*
X8568690Y970279D01*
X8552941Y965200D01*
X8542527Y965200D01*
X8469884Y1051560D02*
G01*
X8578850Y1051560D01*
X8469884Y1051560D02*
G01*
X8578850Y1092962D01*
X8469884Y1134618D02*
G01*
X8578850Y1092962D01*
X8469884Y1134618D02*
G01*
X8578850Y1134618D01*
X8469884Y1168907D02*
G01*
X8578850Y1168907D01*
X8469884Y1168907D02*
G01*
X8469884Y1215644D01*
X8474963Y1231137D01*
X8480297Y1236471D01*
X8490711Y1241552D01*
X8506206Y1241552D01*
X8516620Y1236471D01*
X8521700Y1231137D01*
X8527034Y1215644D01*
X8527034Y1168907D01*
X8469884Y1286255D02*
G01*
X8469884Y1343405D01*
X8511540Y1312163D01*
X8511540Y1327912D01*
X8516620Y1338326D01*
X8521700Y1343405D01*
X8537447Y1348739D01*
X8547861Y1348739D01*
X8563356Y1343405D01*
X8573770Y1332992D01*
X8578850Y1317497D01*
X8578850Y1301750D01*
X8573770Y1286255D01*
X8568690Y1281176D01*
X8558275Y1275842D01*
X8724900Y5855715D02*
G01*
X8724900Y5777737D01*
X8729979Y5762244D01*
X8740393Y5751829D01*
X8756141Y5746750D01*
X8766556Y5746750D01*
X8782050Y5751829D01*
X8792463Y5762244D01*
X8797543Y5777737D01*
X8797543Y5855715D01*
X8857995Y5855715D02*
G01*
X8842247Y5850636D01*
X8837168Y5840221D01*
X8837168Y5829807D01*
X8842247Y5819394D01*
X8852661Y5814060D01*
X8873490Y5808979D01*
X8888984Y5803900D01*
X8899397Y5793486D01*
X8904731Y5783071D01*
X8904731Y5767323D01*
X8899397Y5756910D01*
X8894318Y5751829D01*
X8878570Y5746750D01*
X8857995Y5746750D01*
X8842247Y5751829D01*
X8837168Y5756910D01*
X8831834Y5767323D01*
X8831834Y5783071D01*
X8837168Y5793486D01*
X8847581Y5803900D01*
X8863075Y5808979D01*
X8883904Y5814060D01*
X8894318Y5819394D01*
X8899397Y5829807D01*
X8899397Y5840221D01*
X8894318Y5850636D01*
X8878570Y5855715D01*
X8857995Y5855715D01*
X6883400Y2007615D02*
G01*
X6883400Y1929637D01*
X6888479Y1914144D01*
X6898893Y1903729D01*
X6914641Y1898650D01*
X6925056Y1898650D01*
X6940550Y1903729D01*
X6950963Y1914144D01*
X6956043Y1929637D01*
X6956043Y2007615D01*
X6990334Y1986787D02*
G01*
X7000747Y1992121D01*
X7016495Y2007615D01*
X7016495Y1898650D01*
X8599677Y2997707D02*
G01*
X8594343Y3008121D01*
X8583929Y3018536D01*
X8573770Y3023615D01*
X8552941Y3023615D01*
X8542527Y3018536D01*
X8532113Y3008121D01*
X8526779Y2997707D01*
X8521700Y2981960D01*
X8521700Y2956052D01*
X8526779Y2940557D01*
X8532113Y2930144D01*
X8542527Y2919729D01*
X8552941Y2914650D01*
X8573770Y2914650D01*
X8583929Y2919729D01*
X8594343Y2930144D01*
X8599677Y2940557D01*
X8633968Y3002787D02*
G01*
X8644381Y3008121D01*
X8659875Y3023615D01*
X8659875Y2914650D01*
X7863077Y2997707D02*
G01*
X7857743Y3008121D01*
X7847329Y3018536D01*
X7837170Y3023615D01*
X7816341Y3023615D01*
X7805927Y3018536D01*
X7795513Y3008121D01*
X7790179Y2997707D01*
X7785100Y2981960D01*
X7785100Y2956052D01*
X7790179Y2940557D01*
X7795513Y2930144D01*
X7805927Y2919729D01*
X7816341Y2914650D01*
X7837170Y2914650D01*
X7847329Y2919729D01*
X7857743Y2930144D01*
X7863077Y2940557D01*
X7902447Y2997707D02*
G01*
X7902447Y3002787D01*
X7907781Y3013202D01*
X7912861Y3018536D01*
X7923275Y3023615D01*
X7944104Y3023615D01*
X7954518Y3018536D01*
X7959597Y3013202D01*
X7964931Y3002787D01*
X7964931Y2992373D01*
X7959597Y2981960D01*
X7949184Y2966465D01*
X7897368Y2914650D01*
X7970011Y2914650D01*
X6097777Y4140707D02*
G01*
X6092443Y4151121D01*
X6082029Y4161536D01*
X6071870Y4166615D01*
X6051041Y4166615D01*
X6040627Y4161536D01*
X6030213Y4151121D01*
X6024879Y4140707D01*
X6019800Y4124960D01*
X6019800Y4099052D01*
X6024879Y4083557D01*
X6030213Y4073144D01*
X6040627Y4062729D01*
X6051041Y4057650D01*
X6071870Y4057650D01*
X6082029Y4062729D01*
X6092443Y4073144D01*
X6097777Y4083557D01*
X6194297Y4151121D02*
G01*
X6189218Y4161536D01*
X6173470Y4166615D01*
X6163309Y4166615D01*
X6147561Y4161536D01*
X6137147Y4145787D01*
X6132068Y4119879D01*
X6132068Y4093971D01*
X6137147Y4073144D01*
X6147561Y4062729D01*
X6163309Y4057650D01*
X6168390Y4057650D01*
X6183884Y4062729D01*
X6194297Y4073144D01*
X6199631Y4088637D01*
X6199631Y4093971D01*
X6194297Y4109465D01*
X6183884Y4119879D01*
X6168390Y4124960D01*
X6163309Y4124960D01*
X6147561Y4119879D01*
X6137147Y4109465D01*
X6132068Y4093971D01*
X457707Y4633721D02*
G01*
X468121Y4639055D01*
X478536Y4649470D01*
X483615Y4659629D01*
X483615Y4680457D01*
X478536Y4690871D01*
X468121Y4701286D01*
X457707Y4706620D01*
X441960Y4711700D01*
X416052Y4711700D01*
X400557Y4706620D01*
X390144Y4701286D01*
X379729Y4690871D01*
X374650Y4680457D01*
X374650Y4659629D01*
X379729Y4649470D01*
X390144Y4639055D01*
X400557Y4633721D01*
X462787Y4599431D02*
G01*
X468121Y4589018D01*
X483615Y4573523D01*
X374650Y4573523D01*
X457707Y4533900D02*
G01*
X462787Y4533900D01*
X473202Y4528820D01*
X478536Y4523739D01*
X483615Y4513326D01*
X483615Y4492497D01*
X478536Y4482084D01*
X473202Y4476750D01*
X462787Y4471670D01*
X452373Y4471670D01*
X441960Y4476750D01*
X426465Y4487163D01*
X374650Y4539234D01*
X374650Y4466589D01*
X470407Y3173221D02*
G01*
X480821Y3178555D01*
X491236Y3188970D01*
X496315Y3199129D01*
X496315Y3219957D01*
X491236Y3230371D01*
X480821Y3240786D01*
X470407Y3246120D01*
X454660Y3251200D01*
X428752Y3251200D01*
X413257Y3246120D01*
X402844Y3240786D01*
X392429Y3230371D01*
X387350Y3219957D01*
X387350Y3199129D01*
X392429Y3188970D01*
X402844Y3178555D01*
X413257Y3173221D01*
X475487Y3138931D02*
G01*
X480821Y3128518D01*
X496315Y3113023D01*
X387350Y3113023D01*
X496315Y3026663D02*
G01*
X423671Y3078734D01*
X423671Y3000755D01*
X496315Y3026663D02*
G01*
X387350Y3026663D01*
X8825484Y2324100D02*
G01*
X8934450Y2324100D01*
X8825484Y2324100D02*
G01*
X8825484Y2360421D01*
X8830563Y2376170D01*
X8840977Y2386329D01*
X8851391Y2391663D01*
X8867140Y2396744D01*
X8893047Y2396744D01*
X8908541Y2391663D01*
X8918956Y2386329D01*
X8929370Y2376170D01*
X8934450Y2360421D01*
X8934450Y2324100D01*
X8825484Y2441447D02*
G01*
X8825484Y2498597D01*
X8867140Y2467610D01*
X8867140Y2483104D01*
X8872220Y2493518D01*
X8877300Y2498597D01*
X8893047Y2503931D01*
X8903461Y2503931D01*
X8918956Y2498597D01*
X8929370Y2488184D01*
X8934450Y2472689D01*
X8934450Y2457195D01*
X8929370Y2441447D01*
X8924290Y2436368D01*
X8913875Y2431034D01*
X10033005Y1410715D02*
G01*
X10033005Y1301750D01*
X10033005Y1301750D02*
G01*
X10095235Y1301750D01*
X10129525Y1410715D02*
G01*
X10129525Y1301750D01*
X10129525Y1410715D02*
G01*
X10197089Y1410715D01*
X10129525Y1358900D02*
G01*
X10171181Y1358900D01*
X10129525Y1301750D02*
G01*
X10197089Y1301750D01*
X10231379Y1410715D02*
G01*
X10231379Y1301750D01*
X10231379Y1410715D02*
G01*
X10267955Y1410715D01*
X10283449Y1405636D01*
X10293863Y1395221D01*
X10298943Y1384807D01*
X10304277Y1369060D01*
X10304277Y1343152D01*
X10298943Y1327657D01*
X10293863Y1317244D01*
X10283449Y1306829D01*
X10267955Y1301750D01*
X10231379Y1301750D01*
X10338567Y1389887D02*
G01*
X10348981Y1395221D01*
X10364475Y1410715D01*
X10364475Y1301750D01*
X9436100Y1385315D02*
G01*
X9436100Y1276350D01*
X9436100Y1385315D02*
G01*
X9482836Y1385315D01*
X9498329Y1380236D01*
X9503663Y1374902D01*
X9508743Y1364487D01*
X9508743Y1354073D01*
X9503663Y1343660D01*
X9498329Y1338579D01*
X9482836Y1333500D01*
X9436100Y1333500D01*
X9472422Y1333500D02*
G01*
X9508743Y1276350D01*
X9574275Y1385315D02*
G01*
X9558781Y1380236D01*
X9548368Y1364487D01*
X9543034Y1338579D01*
X9543034Y1323086D01*
X9548368Y1296923D01*
X9558781Y1281429D01*
X9574275Y1276350D01*
X9584690Y1276350D01*
X9600184Y1281429D01*
X9610597Y1296923D01*
X9615931Y1323086D01*
X9615931Y1338579D01*
X9610597Y1364487D01*
X9600184Y1380236D01*
X9584690Y1385315D01*
X9574275Y1385315D01*
X6210300Y4941315D02*
G01*
X6210300Y4832350D01*
X6210300Y4941315D02*
G01*
X6257036Y4941315D01*
X6272529Y4936236D01*
X6277863Y4930902D01*
X6282943Y4920487D01*
X6282943Y4910073D01*
X6277863Y4899660D01*
X6272529Y4894579D01*
X6257036Y4889500D01*
X6210300Y4889500D01*
X6246622Y4889500D02*
G01*
X6282943Y4832350D01*
X6317234Y4920487D02*
G01*
X6327647Y4925821D01*
X6343395Y4941315D01*
X6343395Y4832350D01*
X6382765Y4915407D02*
G01*
X6382765Y4920487D01*
X6388100Y4930902D01*
X6393179Y4936236D01*
X6403593Y4941315D01*
X6424422Y4941315D01*
X6434836Y4936236D01*
X6439915Y4930902D01*
X6445250Y4920487D01*
X6445250Y4910073D01*
X6439915Y4899660D01*
X6429502Y4884165D01*
X6377686Y4832350D01*
X6450329Y4832350D01*
X6097777Y3975607D02*
G01*
X6092443Y3986021D01*
X6082029Y3996436D01*
X6071870Y4001515D01*
X6051041Y4001515D01*
X6040627Y3996436D01*
X6030213Y3986021D01*
X6024879Y3975607D01*
X6019800Y3959860D01*
X6019800Y3933952D01*
X6024879Y3918457D01*
X6030213Y3908044D01*
X6040627Y3897629D01*
X6051041Y3892550D01*
X6071870Y3892550D01*
X6082029Y3897629D01*
X6092443Y3908044D01*
X6097777Y3918457D01*
X6194297Y4001515D02*
G01*
X6142481Y4001515D01*
X6137147Y3954779D01*
X6142481Y3959860D01*
X6157975Y3965194D01*
X6173470Y3965194D01*
X6189218Y3959860D01*
X6199631Y3949700D01*
X6204711Y3933952D01*
X6204711Y3923537D01*
X6199631Y3908044D01*
X6189218Y3897629D01*
X6173470Y3892550D01*
X6157975Y3892550D01*
X6142481Y3897629D01*
X6137147Y3902710D01*
X6132068Y3913123D01*
X4838700Y4166615D02*
G01*
X4838700Y4057650D01*
X4838700Y4166615D02*
G01*
X4885436Y4166615D01*
X4900929Y4161536D01*
X4906263Y4156202D01*
X4911343Y4145787D01*
X4911343Y4135373D01*
X4906263Y4124960D01*
X4900929Y4119879D01*
X4885436Y4114800D01*
X4838700Y4114800D01*
X4875022Y4114800D02*
G01*
X4911343Y4057650D01*
X4950968Y4140707D02*
G01*
X4950968Y4145787D01*
X4956047Y4156202D01*
X4961381Y4161536D01*
X4971795Y4166615D01*
X4992370Y4166615D01*
X5002784Y4161536D01*
X5008118Y4156202D01*
X5013197Y4145787D01*
X5013197Y4135373D01*
X5008118Y4124960D01*
X4997704Y4109465D01*
X4945634Y4057650D01*
X5018531Y4057650D01*
X4838700Y4001515D02*
G01*
X4838700Y3892550D01*
X4838700Y4001515D02*
G01*
X4885436Y4001515D01*
X4900929Y3996436D01*
X4906263Y3991102D01*
X4911343Y3980687D01*
X4911343Y3970273D01*
X4906263Y3959860D01*
X4900929Y3954779D01*
X4885436Y3949700D01*
X4838700Y3949700D01*
X4875022Y3949700D02*
G01*
X4911343Y3892550D01*
X4956047Y4001515D02*
G01*
X5013197Y4001515D01*
X4982209Y3959860D01*
X4997704Y3959860D01*
X5008118Y3954779D01*
X5013197Y3949700D01*
X5018531Y3933952D01*
X5018531Y3923537D01*
X5013197Y3908044D01*
X5002784Y3897629D01*
X4987290Y3892550D01*
X4971795Y3892550D01*
X4956047Y3897629D01*
X4950968Y3902710D01*
X4945634Y3913123D01*
X8469884Y6235700D02*
G01*
X8578850Y6235700D01*
X8469884Y6235700D02*
G01*
X8469884Y6282436D01*
X8474963Y6297929D01*
X8480297Y6303263D01*
X8490711Y6308344D01*
X8501125Y6308344D01*
X8511540Y6303263D01*
X8516620Y6297929D01*
X8521700Y6282436D01*
X8521700Y6235700D01*
X8521700Y6272021D02*
G01*
X8578850Y6308344D01*
X8490711Y6342634D02*
G01*
X8485377Y6353047D01*
X8469884Y6368795D01*
X8578850Y6368795D01*
X8485377Y6465315D02*
G01*
X8474963Y6460236D01*
X8469884Y6444487D01*
X8469884Y6434073D01*
X8474963Y6418579D01*
X8490711Y6408165D01*
X8516620Y6403086D01*
X8542527Y6403086D01*
X8563356Y6408165D01*
X8573770Y6418579D01*
X8578850Y6434073D01*
X8578850Y6439407D01*
X8573770Y6454902D01*
X8563356Y6465315D01*
X8547861Y6470650D01*
X8542527Y6470650D01*
X8527034Y6465315D01*
X8516620Y6454902D01*
X8511540Y6439407D01*
X8511540Y6434073D01*
X8516620Y6418579D01*
X8527034Y6408165D01*
X8542527Y6403086D01*
G36*
X8439861Y4519015D02*
G01*
X8439505Y4478832D01*
X8485479Y4478375D01*
X8485581Y4519015D01*
G37*
G36*
X8440724Y4259224D02*
G01*
X8440318Y4218990D01*
X8486292Y4218533D01*
X8486444Y4259224D01*
G37*
G36*
X8729573Y1703476D02*
G01*
X8729573Y1657756D01*
X8782405Y1657756D01*
X8782405Y1703476D01*
G37*
G36*
X8972194Y1703476D02*
G01*
X8972194Y1657756D01*
X9025026Y1657756D01*
X9025026Y1703476D01*
G37*
G36*
X9781540Y1231595D02*
G01*
X9781540Y1054354D01*
X9796780Y1054354D01*
X9796780Y1231595D01*
G37*
D12*
X3861790Y2288997D02*
G01*
X4631791Y2288997D01*
X4631791Y2029002D01*
X3861790Y2029002D01*
X3861790Y2288997D01*
X3861790Y2288997D02*
G01*
X4121784Y2288997D01*
X4121784Y2038985D01*
X3861790Y2038985D01*
X3861790Y2288997D01*
X3621377Y3594798D02*
G01*
X3541374Y3594798D01*
X3652362Y3705773D02*
G01*
X3652362Y3625776D01*
X3510396Y3705773D02*
G01*
X3510396Y3625776D01*
X3652944Y3763363D02*
G01*
X3652944Y3843362D01*
X3621961Y3874345D02*
G01*
X3541963Y3874345D01*
X3510983Y3763363D02*
G01*
X3510983Y3843362D01*
X3338222Y3872801D02*
G01*
X3418225Y3872801D01*
X3307237Y3761826D02*
G01*
X3307237Y3841823D01*
X3449203Y3761826D02*
G01*
X3449203Y3841823D01*
X3306655Y3704236D02*
G01*
X3306655Y3624237D01*
X3337638Y3593254D02*
G01*
X3417636Y3593254D01*
X3448616Y3704236D02*
G01*
X3448616Y3624237D01*
X5715698Y4455822D02*
G01*
X5715698Y4535825D01*
X5826673Y4424837D02*
G01*
X5746676Y4424837D01*
X5826673Y4566803D02*
G01*
X5746676Y4566803D01*
X5884263Y4424255D02*
G01*
X5964262Y4424255D01*
X5995245Y4455238D02*
G01*
X5995245Y4535236D01*
X5884263Y4566216D02*
G01*
X5964262Y4566216D01*
X4723701Y4700877D02*
G01*
X4723701Y4620874D01*
X4612726Y4731862D02*
G01*
X4692723Y4731862D01*
X4612726Y4589896D02*
G01*
X4692723Y4589896D01*
X4555136Y4732444D02*
G01*
X4475137Y4732444D01*
X4444154Y4701461D02*
G01*
X4444154Y4621463D01*
X4555136Y4590483D02*
G01*
X4475137Y4590483D01*
X6452298Y2248918D02*
G01*
X6452298Y2328920D01*
X6563273Y2217933D02*
G01*
X6483276Y2217933D01*
X6563273Y2359898D02*
G01*
X6483276Y2359898D01*
X6620863Y2217351D02*
G01*
X6700862Y2217351D01*
X6731845Y2248334D02*
G01*
X6731845Y2328331D01*
X6620863Y2359312D02*
G01*
X6700862Y2359312D01*
X1256601Y6059777D02*
G01*
X1256601Y5979774D01*
X1145626Y6090762D02*
G01*
X1225623Y6090762D01*
X1145626Y5948796D02*
G01*
X1225623Y5948796D01*
X1088036Y6091344D02*
G01*
X1008037Y6091344D01*
X977054Y6060361D02*
G01*
X977054Y5980363D01*
X1088036Y5949383D02*
G01*
X1008037Y5949383D01*
X634301Y5031077D02*
G01*
X634301Y4951074D01*
X523326Y5062062D02*
G01*
X603323Y5062062D01*
X523326Y4920096D02*
G01*
X603323Y4920096D01*
X465736Y5062644D02*
G01*
X385737Y5062644D01*
X354754Y5031661D02*
G01*
X354754Y4951663D01*
X465736Y4920683D02*
G01*
X385737Y4920683D01*
X634301Y3557877D02*
G01*
X634301Y3477874D01*
X523326Y3588862D02*
G01*
X603323Y3588862D01*
X523326Y3446896D02*
G01*
X603323Y3446896D01*
X465736Y3589444D02*
G01*
X385737Y3589444D01*
X354754Y3558461D02*
G01*
X354754Y3478463D01*
X465736Y3447483D02*
G01*
X385737Y3447483D01*
X7607995Y5227619D02*
G01*
X7607995Y5307622D01*
X7718971Y5196634D02*
G01*
X7638973Y5196634D01*
X7718971Y5338599D02*
G01*
X7638973Y5338599D01*
X7776560Y5196052D02*
G01*
X7856560Y5196052D01*
X7887543Y5227035D02*
G01*
X7887543Y5307032D01*
X7776560Y5338013D02*
G01*
X7856560Y5338013D01*
X9209377Y5883694D02*
G01*
X9129374Y5883694D01*
X9240362Y5994669D02*
G01*
X9240362Y5914671D01*
X9098396Y5994669D02*
G01*
X9098396Y5914671D01*
X9240944Y6052258D02*
G01*
X9240944Y6132258D01*
X9209961Y6163241D02*
G01*
X9129963Y6163241D01*
X9098983Y6052258D02*
G01*
X9098983Y6132258D01*
X8926222Y6161697D02*
G01*
X9006225Y6161697D01*
X8895237Y6050721D02*
G01*
X8895237Y6130719D01*
X9037203Y6050721D02*
G01*
X9037203Y6130719D01*
X8894655Y5993132D02*
G01*
X8894655Y5913132D01*
X8925638Y5882149D02*
G01*
X9005636Y5882149D01*
X9036616Y5993132D02*
G01*
X9036616Y5913132D01*
X7936801Y5069177D02*
G01*
X7936801Y4989174D01*
X7825826Y5100162D02*
G01*
X7905823Y5100162D01*
X7825826Y4958196D02*
G01*
X7905823Y4958196D01*
X7768236Y5100744D02*
G01*
X7688237Y5100744D01*
X7657254Y5069761D02*
G01*
X7657254Y4989763D01*
X7768236Y4958783D02*
G01*
X7688237Y4958783D01*
D13*
X8833002Y6718703D02*
G01*
X8890203Y6748602D01*
X8890203Y6748602D02*
G01*
X8890203Y6710502D01*
X8949001Y6719702D02*
G01*
X8890203Y6748602D01*
X8890203Y6748602D02*
G01*
X8890203Y6786702D01*
X8836002Y6778703D02*
G01*
X8890203Y6748602D01*
X8943002Y6779701D02*
G01*
X8890203Y6748602D01*
D12*
X9120002Y6883702D02*
G01*
X8660002Y6883702D01*
X9120002Y6603702D02*
G01*
X8660002Y6603702D01*
D13*
X8949001Y6719702D02*
G01*
X8949001Y6779701D01*
X8833002Y6718703D02*
G01*
X8833002Y6778703D01*
X8966001Y6749702D02*
G01*
X8817002Y6749702D01*
D12*
X9120002Y6603702D02*
G01*
X9120002Y6630588D01*
X9120002Y6856816D02*
G01*
X9120002Y6883702D01*
X8660002Y6603702D02*
G01*
X8660002Y6630588D01*
X8660002Y6856816D02*
G01*
X8660002Y6883702D01*
D11*
X8649208Y4511420D02*
G01*
X8649208Y4226179D01*
X8477981Y4511420D02*
G01*
X8997218Y4511420D01*
X8996928Y4251238D02*
G01*
X8997596Y4227316D01*
X8997218Y4511420D02*
G01*
X8997886Y4487499D01*
X8477981Y4226179D02*
G01*
X8997218Y4226179D01*
D14*
X4499990Y938809D02*
G01*
X4699990Y938809D01*
X4699990Y498805D01*
X3499993Y938809D02*
G01*
X3299993Y938809D01*
X3299993Y498805D01*
X4519980Y178790D02*
G01*
X3480003Y178790D01*
X6199987Y938809D02*
G01*
X6399987Y938809D01*
X6399987Y498805D01*
X5199989Y938809D02*
G01*
X4999990Y938809D01*
X4999990Y498805D01*
X6219977Y178790D02*
G01*
X5179999Y178790D01*
X7899984Y938809D02*
G01*
X8099983Y938809D01*
X8099983Y498805D01*
X6899986Y938809D02*
G01*
X6699986Y938809D01*
X6699986Y498805D01*
X7919974Y178790D02*
G01*
X6879996Y178790D01*
X2799996Y938809D02*
G01*
X2999996Y938809D01*
X2999996Y498805D01*
X1799998Y938809D02*
G01*
X1599999Y938809D01*
X1599999Y498805D01*
X2819986Y178790D02*
G01*
X1780009Y178790D01*
D15*
X4991100Y5287390D02*
G01*
X4641113Y5287390D01*
X4641113Y5580405D01*
X5491099Y5287390D02*
G01*
X5845098Y5287390D01*
X5845098Y5580405D01*
X5841111Y6080404D02*
G01*
X5841111Y6858406D01*
X4641113Y6858406D01*
X4641113Y6080404D01*
D12*
X9720579Y4597400D02*
G01*
X9720579Y5598160D01*
X9723120Y4538979D02*
G01*
X9707879Y4597400D01*
X9634220Y4538979D02*
G01*
X9723120Y4538979D01*
X9649459Y4597400D02*
G01*
X9634220Y4538979D01*
X9649459Y4597400D02*
G01*
X9547859Y4597400D01*
X9707879Y4597400D02*
G01*
X9649459Y4597400D01*
X9720579Y4597400D02*
G01*
X9707879Y4597400D01*
X10226040Y4597400D02*
G01*
X9720579Y4597400D01*
X10299700Y4597400D02*
G01*
X10226040Y4597400D01*
X10299700Y5598160D02*
G01*
X10299700Y4597400D01*
X10226040Y5598160D02*
G01*
X10299700Y5598160D01*
X9720579Y5598160D02*
G01*
X10226040Y5598160D01*
X9547859Y5598160D02*
G01*
X9720579Y5598160D01*
X9547859Y4597400D02*
G01*
X9547859Y5598160D01*
X10226040Y4597400D02*
G01*
X10226040Y5598160D01*
X8544102Y3264890D02*
G01*
X8544102Y4034891D01*
X8804097Y4034891D01*
X8804097Y3264890D01*
X8544102Y3264890D01*
X8544102Y3264890D02*
G01*
X8544102Y3524885D01*
X8794115Y3524885D01*
X8794115Y3264890D01*
X8544102Y3264890D01*
X8823502Y102590D02*
G01*
X8823502Y872591D01*
X9083497Y872591D01*
X9083497Y102590D01*
X8823502Y102590D01*
X8823502Y102590D02*
G01*
X8823502Y362585D01*
X9073515Y362585D01*
X9073515Y102590D01*
X8823502Y102590D01*
D16*
X3746332Y3732151D02*
G01*
X3822532Y3732151D01*
X3999334Y3732151D02*
G01*
X3923134Y3732151D01*
X3999334Y3864272D02*
G01*
X3923134Y3864272D01*
D11*
X3999334Y3864272D02*
G01*
X4014563Y3849029D01*
X4014563Y3747386D01*
X3999334Y3732151D01*
D16*
X3746332Y3864272D02*
G01*
X3822532Y3864272D01*
D11*
X3746332Y3732151D02*
G01*
X3731089Y3747386D01*
X3731089Y3849029D01*
X3746332Y3864272D01*
X3830878Y3634760D02*
G01*
X3734991Y3634760D01*
X3734991Y3502639D01*
X3830878Y3502639D01*
X3916121Y3634760D02*
G01*
X4012008Y3634760D01*
X4012008Y3502639D01*
X3916121Y3502639D01*
X5189778Y3850660D02*
G01*
X5093891Y3850660D01*
X5093891Y3718539D01*
X5189778Y3718539D01*
X5275021Y3850660D02*
G01*
X5370908Y3850660D01*
X5370908Y3718539D01*
X5275021Y3718539D01*
X5275021Y3553439D02*
G01*
X5370908Y3553439D01*
X5370908Y3685560D01*
X5275021Y3685560D01*
X5189778Y3553439D02*
G01*
X5093891Y3553439D01*
X5093891Y3685560D01*
X5189778Y3685560D01*
X5067983Y4778822D02*
G01*
X5422267Y4778822D01*
X5422267Y4263577D01*
X5067983Y4263577D01*
X5067983Y4778822D01*
X1575056Y6713921D02*
G01*
X1879338Y6713921D01*
X1879338Y5833678D01*
X1575056Y5833678D01*
X1575056Y6713921D01*
D12*
X5847079Y2337155D02*
G01*
X5938520Y2337155D01*
X6075679Y2337155D02*
G01*
X6167120Y2337155D01*
X6232100Y2335695D02*
G01*
X6232100Y2324130D01*
X6232100Y1847260D02*
G01*
X6232100Y1835696D01*
X5782099Y1835696D01*
X5782099Y1847260D01*
X5782099Y2324130D02*
G01*
X5782099Y2335695D01*
X6167120Y2337155D02*
G01*
X6232100Y2337155D01*
X5847079Y2337155D02*
G01*
X5782099Y2337155D01*
D11*
X1324279Y5406717D02*
G01*
X2333317Y5406717D01*
X2333317Y4321479D01*
X1324279Y4321479D01*
X1324279Y5406717D01*
X1324279Y3933517D02*
G01*
X2333317Y3933517D01*
X2333317Y2848279D01*
X1324279Y2848279D01*
X1324279Y3933517D01*
D12*
X7247199Y4346590D02*
G01*
X7247199Y4334700D01*
X7247199Y4836160D02*
G01*
X7247199Y4822809D01*
X7637200Y4346590D02*
G01*
X7637200Y4334700D01*
X7637200Y4836160D02*
G01*
X7637200Y4822809D01*
X7510779Y4836160D02*
G01*
X7637200Y4836160D01*
X7247199Y4836160D02*
G01*
X7373620Y4836160D01*
X7637200Y4334700D02*
G01*
X7247199Y4334700D01*
X9720579Y1511300D02*
G01*
X9720579Y2512060D01*
X9723120Y1452879D02*
G01*
X9707879Y1511300D01*
X9634220Y1452879D02*
G01*
X9723120Y1452879D01*
X9649459Y1511300D02*
G01*
X9634220Y1452879D01*
X9649459Y1511300D02*
G01*
X9547859Y1511300D01*
X9707879Y1511300D02*
G01*
X9649459Y1511300D01*
X9720579Y1511300D02*
G01*
X9707879Y1511300D01*
X10226040Y1511300D02*
G01*
X9720579Y1511300D01*
X10299700Y1511300D02*
G01*
X10226040Y1511300D01*
X10299700Y2512060D02*
G01*
X10299700Y1511300D01*
X10226040Y2512060D02*
G01*
X10299700Y2512060D01*
X9720579Y2512060D02*
G01*
X10226040Y2512060D01*
X9547859Y2512060D02*
G01*
X9720579Y2512060D01*
X9547859Y1511300D02*
G01*
X9547859Y2512060D01*
X10226040Y1511300D02*
G01*
X10226040Y2512060D01*
X9720579Y2540000D02*
G01*
X9720579Y3540760D01*
X9723120Y2481579D02*
G01*
X9707879Y2540000D01*
X9634220Y2481579D02*
G01*
X9723120Y2481579D01*
X9649459Y2540000D02*
G01*
X9634220Y2481579D01*
X9649459Y2540000D02*
G01*
X9547859Y2540000D01*
X9707879Y2540000D02*
G01*
X9649459Y2540000D01*
X9720579Y2540000D02*
G01*
X9707879Y2540000D01*
X10226040Y2540000D02*
G01*
X9720579Y2540000D01*
X10299700Y2540000D02*
G01*
X10226040Y2540000D01*
X10299700Y3540760D02*
G01*
X10299700Y2540000D01*
X10226040Y3540760D02*
G01*
X10299700Y3540760D01*
X9720579Y3540760D02*
G01*
X10226040Y3540760D01*
X9547859Y3540760D02*
G01*
X9720579Y3540760D01*
X9547859Y2540000D02*
G01*
X9547859Y3540760D01*
X10226040Y2540000D02*
G01*
X10226040Y3540760D01*
D11*
X5164378Y2618760D02*
G01*
X5068491Y2618760D01*
X5068491Y2486639D01*
X5164378Y2486639D01*
X5249621Y2618760D02*
G01*
X5345508Y2618760D01*
X5345508Y2486639D01*
X5249621Y2486639D01*
X5164378Y2428260D02*
G01*
X5068491Y2428260D01*
X5068491Y2296139D01*
X5164378Y2296139D01*
X5249621Y2428260D02*
G01*
X5345508Y2428260D01*
X5345508Y2296139D01*
X5249621Y2296139D01*
X5164378Y2225060D02*
G01*
X5068491Y2225060D01*
X5068491Y2092939D01*
X5164378Y2092939D01*
X5249621Y2225060D02*
G01*
X5345508Y2225060D01*
X5345508Y2092939D01*
X5249621Y2092939D01*
X5164378Y2009160D02*
G01*
X5068491Y2009160D01*
X5068491Y1877039D01*
X5164378Y1877039D01*
X5249621Y2009160D02*
G01*
X5345508Y2009160D01*
X5345508Y1877039D01*
X5249621Y1877039D01*
X5164378Y1805960D02*
G01*
X5068491Y1805960D01*
X5068491Y1673839D01*
X5164378Y1673839D01*
X5249621Y1805960D02*
G01*
X5345508Y1805960D01*
X5345508Y1673839D01*
X5249621Y1673839D01*
X5249621Y1470639D02*
G01*
X5345508Y1470639D01*
X5345508Y1602760D01*
X5249621Y1602760D01*
X5164378Y1470639D02*
G01*
X5068491Y1470639D01*
X5068491Y1602760D01*
X5164378Y1602760D01*
X6612178Y4739660D02*
G01*
X6516291Y4739660D01*
X6516291Y4607539D01*
X6612178Y4607539D01*
X6697421Y4739660D02*
G01*
X6793308Y4739660D01*
X6793308Y4607539D01*
X6697421Y4607539D01*
X6697421Y4417039D02*
G01*
X6793308Y4417039D01*
X6793308Y4549160D01*
X6697421Y4549160D01*
X6612178Y4417039D02*
G01*
X6516291Y4417039D01*
X6516291Y4549160D01*
X6612178Y4549160D01*
X8639180Y4930409D02*
G01*
X8510686Y4930409D01*
X8510686Y4746990D01*
X8639180Y4746990D01*
X8734419Y4930409D02*
G01*
X8862913Y4930409D01*
X8862913Y4746990D01*
X8734419Y4746990D01*
D12*
X8710322Y6158801D02*
G01*
X8790325Y6158801D01*
X8679337Y6047826D02*
G01*
X8679337Y6127823D01*
X8821303Y6047826D02*
G01*
X8821303Y6127823D01*
X8678755Y5990236D02*
G01*
X8678755Y5910237D01*
X8709738Y5879254D02*
G01*
X8789736Y5879254D01*
X8820716Y5990236D02*
G01*
X8820716Y5910237D01*
X925118Y2476500D02*
G01*
X925118Y1475739D01*
X922578Y2534920D02*
G01*
X937818Y2476500D01*
X1011478Y2534920D02*
G01*
X922578Y2534920D01*
X996238Y2476500D02*
G01*
X1011478Y2534920D01*
X996238Y2476500D02*
G01*
X1097838Y2476500D01*
X937818Y2476500D02*
G01*
X996238Y2476500D01*
X925118Y2476500D02*
G01*
X937818Y2476500D01*
X419658Y2476500D02*
G01*
X925118Y2476500D01*
X345998Y2476500D02*
G01*
X419658Y2476500D01*
X345998Y1475739D02*
G01*
X345998Y2476500D01*
X419658Y1475739D02*
G01*
X345998Y1475739D01*
X925118Y1475739D02*
G01*
X419658Y1475739D01*
X1097838Y1475739D02*
G01*
X925118Y1475739D01*
X1097838Y2476500D02*
G01*
X1097838Y1475739D01*
X419658Y2476500D02*
G01*
X419658Y1475739D01*
X8366302Y102590D02*
G01*
X8366302Y872591D01*
X8626297Y872591D01*
X8626297Y102590D01*
X8366302Y102590D01*
X8366302Y102590D02*
G01*
X8366302Y362585D01*
X8616315Y362585D01*
X8616315Y102590D01*
X8366302Y102590D01*
D11*
X8592680Y5303060D02*
G01*
X8592680Y5517339D01*
X8907919Y5517339D01*
X8907919Y5303060D01*
X8592680Y5303060D01*
D12*
X8343549Y2275204D02*
G01*
X8137050Y2275204D01*
X8343549Y2275204D02*
G01*
X8343549Y2195205D01*
X8137050Y2195205D01*
X8343549Y2021204D02*
G01*
X8137050Y2021204D01*
X8343549Y2021204D02*
G01*
X8343549Y1941205D01*
X8137050Y1941205D01*
X8343549Y1767204D02*
G01*
X8137050Y1767204D01*
X8343549Y1767204D02*
G01*
X8343549Y1687205D01*
X8137050Y1687205D01*
X7319164Y1473205D02*
G01*
X8137050Y1473205D01*
X8137050Y2489205D01*
X7319164Y2489205D01*
D11*
X8356780Y2646639D02*
G01*
X8505278Y2646639D01*
X8505278Y2865160D02*
G01*
X8356780Y2865160D01*
X8341540Y2849920D02*
G01*
X8341540Y2661879D01*
X8839019Y2646639D02*
G01*
X8690521Y2646639D01*
X8690521Y2865160D02*
G01*
X8839019Y2865160D01*
X8854259Y2849920D02*
G01*
X8854259Y2661879D01*
D12*
X7785798Y2715922D02*
G01*
X7785798Y2795925D01*
X7896773Y2684937D02*
G01*
X7816776Y2684937D01*
X7896773Y2826903D02*
G01*
X7816776Y2826903D01*
X7954363Y2684355D02*
G01*
X8034362Y2684355D01*
X8065345Y2715338D02*
G01*
X8065345Y2795336D01*
X7954363Y2826316D02*
G01*
X8034362Y2826316D01*
D11*
X725360Y4441680D02*
G01*
X725360Y4582680D01*
X544639Y4582680D02*
G01*
X544639Y4441680D01*
X559879Y4426440D02*
G01*
X710120Y4426440D01*
X725360Y4803919D02*
G01*
X725360Y4662919D01*
X544639Y4662919D02*
G01*
X544639Y4803919D01*
X559879Y4819159D02*
G01*
X710120Y4819159D01*
X725360Y2955780D02*
G01*
X725360Y3096780D01*
X544639Y3096780D02*
G01*
X544639Y2955780D01*
X559879Y2940540D02*
G01*
X710120Y2940540D01*
X725360Y3318019D02*
G01*
X725360Y3177019D01*
X544639Y3177019D02*
G01*
X544639Y3318019D01*
X559879Y3333259D02*
G01*
X710120Y3333259D01*
X8737178Y1848817D02*
G01*
X9017421Y1848817D01*
X8737178Y1695876D02*
G01*
X8737178Y2241123D01*
X9017421Y1695876D02*
G01*
X9017421Y2241123D01*
X8737178Y2241123D02*
G01*
X8777330Y2241123D01*
X9017421Y2241123D02*
G01*
X8977269Y2241123D01*
X10141023Y1039136D02*
G01*
X10304764Y1039136D01*
X10304764Y1246863D01*
X10141023Y1246863D01*
X9975786Y1039136D02*
G01*
X9827287Y1039136D01*
X9812045Y1054379D01*
X9812045Y1231620D01*
X9827287Y1246863D01*
X9975786Y1246863D01*
X9483719Y1051290D02*
G01*
X9612213Y1051290D01*
X9612213Y1234709D01*
X9483719Y1234709D01*
X9388480Y1051290D02*
G01*
X9259986Y1051290D01*
X9259986Y1234709D01*
X9388480Y1234709D01*
X6697421Y4798039D02*
G01*
X6793308Y4798039D01*
X6793308Y4930160D01*
X6697421Y4930160D01*
X6612178Y4798039D02*
G01*
X6516291Y4798039D01*
X6516291Y4930160D01*
X6612178Y4930160D01*
X5275021Y4048739D02*
G01*
X5370908Y4048739D01*
X5370908Y4180860D01*
X5275021Y4180860D01*
X5189778Y4048739D02*
G01*
X5093891Y4048739D01*
X5093891Y4180860D01*
X5189778Y4180860D01*
X5189778Y4015760D02*
G01*
X5093891Y4015760D01*
X5093891Y3883639D01*
X5189778Y3883639D01*
X5275021Y4015760D02*
G01*
X5370908Y4015760D01*
X5370908Y3883639D01*
X5275021Y3883639D01*
X8429990Y5946780D02*
G01*
X8429990Y5818286D01*
X8613409Y5818286D01*
X8613409Y5946780D01*
X8429990Y6042019D02*
G01*
X8429990Y6170513D01*
X8613409Y6170513D01*
X8613409Y6042019D01*
D12*
G75*
G01*
X3621961Y3874351D02*
G02*
X3652944Y3843368I0J-30983D01*
G75*
G01*
X3510978Y3843368D02*
G02*
X3541964Y3874351I30983J0D01*
G75*
G01*
X3652363Y3625781D02*
G02*
X3621377Y3594799I-30983J0D01*
G75*
G01*
X3541380Y3594799D02*
G02*
X3510397Y3625781I0J30982D01*
G75*
G01*
X3337639Y3593249D02*
G02*
X3306656Y3624232I0J30983D01*
G75*
G01*
X3448622Y3624232D02*
G02*
X3417636Y3593249I-30983J0D01*
G75*
G01*
X3307237Y3841819D02*
G02*
X3338223Y3872801I30983J0D01*
G75*
G01*
X3418220Y3872801D02*
G02*
X3449203Y3841819I0J-30982D01*
G75*
G01*
X5995251Y4455239D02*
G02*
X5964268Y4424256I-30983J0D01*
G75*
G01*
X5964268Y4566222D02*
G02*
X5995251Y4535236I0J-30983D01*
G75*
G01*
X5746681Y4424837D02*
G02*
X5715699Y4455823I0J30983D01*
G75*
G01*
X5715699Y4535820D02*
G02*
X5746681Y4566803I30982J0D01*
G75*
G01*
X4444149Y4701461D02*
G02*
X4475132Y4732444I30983J0D01*
G75*
G01*
X4475132Y4590478D02*
G02*
X4444149Y4621464I0J30983D01*
G75*
G01*
X4692719Y4731863D02*
G02*
X4723701Y4700877I0J-30983D01*
G75*
G01*
X4723701Y4620880D02*
G02*
X4692719Y4589897I-30982J0D01*
G75*
G01*
X6731851Y2248334D02*
G02*
X6700868Y2217351I-30983J0D01*
G75*
G01*
X6700868Y2359317D02*
G02*
X6731851Y2328332I0J-30983D01*
G75*
G01*
X6483281Y2217933D02*
G02*
X6452299Y2248919I0J30983D01*
G75*
G01*
X6452299Y2328916D02*
G02*
X6483281Y2359899I30982J0D01*
G75*
G01*
X977049Y6060361D02*
G02*
X1008032Y6091344I30983J0D01*
G75*
G01*
X1008032Y5949378D02*
G02*
X977049Y5980364I0J30983D01*
G75*
G01*
X1225619Y6090763D02*
G02*
X1256601Y6059777I0J-30983D01*
G75*
G01*
X1256601Y5979780D02*
G02*
X1225619Y5948797I-30982J0D01*
G75*
G01*
X354749Y5031661D02*
G02*
X385732Y5062644I30983J0D01*
G75*
G01*
X385732Y4920678D02*
G02*
X354749Y4951664I0J30983D01*
G75*
G01*
X603319Y5062063D02*
G02*
X634301Y5031077I0J-30983D01*
G75*
G01*
X634301Y4951080D02*
G02*
X603319Y4920097I-30982J0D01*
G75*
G01*
X354749Y3558461D02*
G02*
X385732Y3589444I30983J0D01*
G75*
G01*
X385732Y3447478D02*
G02*
X354749Y3478464I0J30983D01*
G75*
G01*
X603319Y3588863D02*
G02*
X634301Y3557877I0J-30983D01*
G75*
G01*
X634301Y3477880D02*
G02*
X603319Y3446897I-30982J0D01*
G75*
G01*
X7887548Y5227036D02*
G02*
X7856565Y5196053I-30983J0D01*
G75*
G01*
X7856565Y5338018D02*
G02*
X7887548Y5307033I0J-30983D01*
G75*
G01*
X7638979Y5196634D02*
G02*
X7607996Y5227620I0J30983D01*
G75*
G01*
X7607996Y5307617D02*
G02*
X7638979Y5338600I30983J0D01*
G75*
G01*
X9209961Y6163247D02*
G02*
X9240944Y6132264I0J-30983D01*
G75*
G01*
X9098978Y6132264D02*
G02*
X9129964Y6163247I30983J0D01*
G75*
G01*
X9240363Y5914677D02*
G02*
X9209377Y5883694I-30983J0D01*
G75*
G01*
X9129380Y5883694D02*
G02*
X9098397Y5914677I0J30983D01*
G75*
G01*
X8925639Y5882145D02*
G02*
X8894656Y5913128I0J30983D01*
G75*
G01*
X9036622Y5913128D02*
G02*
X9005636Y5882145I-30983J0D01*
G75*
G01*
X8895237Y6130714D02*
G02*
X8926223Y6161697I30983J0D01*
G75*
G01*
X9006220Y6161697D02*
G02*
X9037203Y6130714I0J-30983D01*
G75*
G01*
X7657249Y5069761D02*
G02*
X7688232Y5100744I30983J0D01*
G75*
G01*
X7688232Y4958778D02*
G02*
X7657249Y4989764I0J30983D01*
G75*
G01*
X7905819Y5100163D02*
G02*
X7936801Y5069177I0J-30983D01*
G75*
G01*
X7936801Y4989180D02*
G02*
X7905819Y4958197I-30982J0D01*
D14*
G75*
G01*
X5118100Y5189398D02*
G03*
X5118100Y5169408I504J-9995D01*
G75*
G01*
X5118100Y5169408D02*
G03*
X5118100Y5189398I-504J9995D01*
D12*
G75*
G01*
X6075680Y2337156D02*
G02*
X5938520Y2337156I-68580J0D01*
G75*
G01*
X7510780Y4836160D02*
G02*
X7373620Y4836160I-68580J75395D01*
G75*
G01*
X8709739Y5879249D02*
G02*
X8678756Y5910232I0J30983D01*
G75*
G01*
X8820722Y5910232D02*
G02*
X8789736Y5879249I-30983J0D01*
G75*
G01*
X8679337Y6127819D02*
G02*
X8710323Y6158801I30983J0D01*
G75*
G01*
X8790320Y6158801D02*
G02*
X8821303Y6127819I0J-30982D01*
D11*
G75*
G01*
X8356780Y2865161D02*
G03*
X8341540Y2849921I0J-15240D01*
G75*
G01*
X8341540Y2661879D02*
G03*
X8356780Y2646639I15240J0D01*
G75*
G01*
X8839020Y2865161D02*
G02*
X8854260Y2849921I0J-15240D01*
G75*
G01*
X8854260Y2661879D02*
G02*
X8839020Y2646639I-15240J0D01*
D12*
G75*
G01*
X8065351Y2715339D02*
G02*
X8034368Y2684356I-30983J0D01*
G75*
G01*
X8034368Y2826322D02*
G02*
X8065351Y2795336I0J-30983D01*
G75*
G01*
X7816781Y2684937D02*
G02*
X7785799Y2715923I0J30983D01*
G75*
G01*
X7785799Y2795920D02*
G02*
X7816781Y2826903I30982J0D01*
D11*
G75*
G01*
X544640Y4441680D02*
G03*
X559880Y4426440I15240J0D01*
G75*
G01*
X710120Y4426440D02*
G03*
X725360Y4441680I0J15240D01*
G75*
G01*
X544640Y4803920D02*
G02*
X559880Y4819160I15240J0D01*
G75*
G01*
X710120Y4819160D02*
G02*
X725360Y4803920I0J-15240D01*
G75*
G01*
X544640Y2955780D02*
G03*
X559880Y2940540I15240J0D01*
G75*
G01*
X710120Y2940540D02*
G03*
X725360Y2955780I0J15240D01*
G75*
G01*
X544640Y3318020D02*
G02*
X559880Y3333260I15240J0D01*
G75*
G01*
X710120Y3333260D02*
G02*
X725360Y3318020I0J-15240D01*
D12*
G75*
G01
X9725660Y4848860D02*
G03X9725660Y4848860I-45720J0D01*
G75*
G01
X9725660Y5346700D02*
G03X9725660Y5346700I-45720J0D01*
D17*
G75*
G01
X4973549Y4811090D02*
G03X4973549Y4811090I-15011J0D01*
G75*
G01
X5158232Y4748708D02*
G03X5158232Y4748708I-15011J0D01*
G75*
G01
X1665300Y6654800D02*
G03X1665300Y6654800I-15011J0D01*
G75*
G01
X1465301Y6728739D02*
G03X1465301Y6728739I-15011J0D01*
D18*
G75*
G01
X5727090Y2360701D02*
G03X5727090Y2360701I-19990J0D01*
D19*
G75*
G01
X1403274Y5348986D02*
G03X1403274Y5348986I-21260J0D01*
G75*
G01
X1084453Y5447868D02*
G03X1084453Y5447868I-39040J0D01*
D12*
G75*
G01
X2272487Y4860900D02*
G03X2272487Y4860900I-441757J0D01*
G75*
G01
X2018055Y4860900D02*
G03X2018055Y4860900I-187325J0D01*
D19*
G75*
G01
X1403274Y3875786D02*
G03X1403274Y3875786I-21260J0D01*
G75*
G01
X1084453Y3974668D02*
G03X1084453Y3974668I-39040J0D01*
D12*
G75*
G01
X2272487Y3387700D02*
G03X2272487Y3387700I-441757J0D01*
G75*
G01
X2018055Y3387700D02*
G03X2018055Y3387700I-187325J0D01*
G75*
G01
X7167601Y4859706D02*
G03X7167601Y4859706I-25400J0D01*
G75*
G01
X9725660Y1762760D02*
G03X9725660Y1762760I-45720J0D01*
G75*
G01
X9725660Y2260600D02*
G03X9725660Y2260600I-45720J0D01*
G75*
G01
X9725660Y2791460D02*
G03X9725660Y2791460I-45720J0D01*
G75*
G01
X9725660Y3289300D02*
G03X9725660Y3289300I-45720J0D01*
G75*
G01
X1011479Y2225040D02*
G03X1011479Y2225040I-45720J0D01*
G75*
G01
X1011479Y1727200D02*
G03X1011479Y1727200I-45720J0D01*
D17*
G75*
G01
X8667801Y5378298D02*
G03X8667801Y5378298I-15011J0D01*
G75*
G01
X8604377Y5197094D02*
G03X8604377Y5197094I-15011J0D01*
D20*
G75*
G01
X8270062Y1601216D02*
G03X8270062Y1601216I-24994J0D01*
G75*
G01
X8090052Y1551229D02*
G03X8090052Y1551229I-24994J0D01*
M02*
