G04 Layer: TopSolderMaskLayer*
G04 EasyEDA v6.5.46, 2024-09-04 15:34:20*
G04 d73e3e6912d945eb9b412824c50a840e,79071ce94af74c669a867ceed4e6d4b3,10*
G04 Gerber Generator version 0.2*
G04 Scale: 100 percent, Rotated: No, Reflected: No *
G04 Dimensions in millimeters *
G04 leading zeros omitted , absolute positions ,4 integer and 5 decimal *
%FSLAX45Y45*%
%MOMM*%

%AMMACRO1*4,1,8,-0.8707,-0.9,-0.9,-0.8707,-0.9,0.8707,-0.8707,0.9,0.8707,0.9,0.9,0.8707,0.9,-0.8707,0.8707,-0.9,-0.8707,-0.9,0*%
%AMMACRO2*4,1,8,-0.4711,-0.4508,-0.5008,-0.421,-0.5008,0.4211,-0.4711,0.4508,0.471,0.4508,0.5008,0.4211,0.5008,-0.421,0.471,-0.4508,-0.4711,-0.4508,0*%
%AMMACRO3*4,1,8,-0.4211,-0.5008,-0.4508,-0.471,-0.4508,0.4711,-0.4211,0.5008,0.421,0.5008,0.4508,0.4711,0.4508,-0.471,0.421,-0.5008,-0.4211,-0.5008,0*%
%AMMACRO4*4,1,8,-1.0211,-0.9508,-1.0508,-0.921,-1.0508,0.9211,-1.0211,0.9508,1.021,0.9508,1.0508,0.9211,1.0508,-0.921,1.021,-0.9508,-1.0211,-0.9508,0*%
%AMMACRO5*4,1,8,-1.0211,-1.0508,-1.0508,-1.021,-1.0508,1.0211,-1.0211,1.0508,1.021,1.0508,1.0508,1.0211,1.0508,-1.021,1.021,-1.0508,-1.0211,-1.0508,0*%
%AMMACRO6*4,1,8,-0.771,-1.7508,-0.8007,-1.7211,-0.8007,1.7211,-0.771,1.7508,0.771,1.7508,0.8007,1.7211,0.8007,-1.7211,0.771,-1.7508,-0.771,-1.7508,0*%
%AMMACRO7*4,1,8,-0.7211,-1.6008,-0.7508,-1.5711,-0.7508,1.5711,-0.7211,1.6008,0.7211,1.6008,0.7508,1.5711,0.7508,-1.5711,0.7211,-1.6008,-0.7211,-1.6008,0*%
%AMMACRO8*4,1,8,-0.4211,-0.4828,-0.4508,-0.453,-0.4508,0.4531,-0.4211,0.4828,0.421,0.4828,0.4508,0.4531,0.4508,-0.453,0.421,-0.4828,-0.4211,-0.4828,0*%
%AMMACRO9*4,1,8,-0.4243,-0.4828,-0.454,-0.453,-0.454,0.4531,-0.4243,0.4828,0.4243,0.4828,0.454,0.4531,0.454,-0.453,0.4243,-0.4828,-0.4243,-0.4828,0*%
%AMMACRO10*4,1,8,-0.8711,-0.2508,-0.9008,-0.221,-0.9008,0.2211,-0.8711,0.2508,0.871,0.2508,0.9008,0.2211,0.9008,-0.221,0.871,-0.2508,-0.8711,-0.2508,0*%
%AMMACRO11*4,1,8,-2.2311,-0.762,-2.2608,-0.7322,-2.2608,0.7323,-2.2311,0.762,2.231,0.762,2.2608,0.7323,2.2608,-0.7322,2.231,-0.762,-2.2311,-0.762,0*%
%AMMACRO12*4,1,8,-0.7211,-0.2508,-0.7508,-0.221,-0.7508,0.2211,-0.7211,0.2508,0.721,0.2508,0.7508,0.2211,0.7508,-0.221,0.721,-0.2508,-0.7211,-0.2508,0*%
%AMMACRO13*4,1,8,-1.3461,-2.0508,-1.3758,-2.021,-1.3758,2.0211,-1.3461,2.0508,1.346,2.0508,1.3758,2.0211,1.3758,-2.021,1.346,-2.0508,-1.3461,-2.0508,0*%
%AMMACRO14*4,1,8,-0.5873,-0.7393,-0.6171,-0.7095,-0.6171,0.7095,-0.5873,0.7393,0.5873,0.7393,0.6171,0.7095,0.6171,-0.7095,0.5873,-0.7393,-0.5873,-0.7393,0*%
%AMMACRO15*4,1,8,-1.5207,-0.585,-1.55,-0.5557,-1.55,0.5557,-1.5207,0.585,1.5207,0.585,1.55,0.5557,1.55,-0.5557,1.5207,-0.585,-1.5207,-0.585,0*%
%AMMACRO16*4,1,8,-0.7635,-0.9148,-0.7933,-0.885,-0.7933,0.8851,-0.7635,0.9148,0.7635,0.9148,0.7933,0.8851,0.7933,-0.885,0.7635,-0.9148,-0.7635,-0.9148,0*%
%AMMACRO17*4,1,8,-0.4111,-0.5458,-0.4408,-0.5161,-0.4408,0.5161,-0.4111,0.5458,0.411,0.5458,0.4408,0.5161,0.4408,-0.5161,0.411,-0.5458,-0.4111,-0.5458,0*%
%AMMACRO18*4,1,8,-0.6961,-0.7558,-0.7258,-0.726,-0.7258,0.7261,-0.6961,0.7558,0.696,0.7558,0.7258,0.7261,0.7258,-0.726,0.696,-0.7558,-0.6961,-0.7558,0*%
%AMMACRO19*4,1,8,-0.8711,-0.9508,-0.9008,-0.921,-0.9008,0.9211,-0.8711,0.9508,0.871,0.9508,0.9008,0.9211,0.9008,-0.921,0.871,-0.9508,-0.8711,-0.9508,0*%
%AMMACRO20*4,1,8,-0.7635,-0.8608,-0.7933,-0.831,-0.7933,0.8311,-0.7635,0.8608,0.7635,0.8608,0.7933,0.8311,0.7933,-0.831,0.7635,-0.8608,-0.7635,-0.8608,0*%
%AMMACRO21*4,1,8,-0.7095,-0.6171,-0.7393,-0.5873,-0.7393,0.5873,-0.7095,0.6171,0.7095,0.6171,0.7393,0.5873,0.7393,-0.5873,0.7095,-0.6171,-0.7095,-0.6171,0*%
%ADD10MACRO1*%
%ADD11C,1.8000*%
%ADD12MACRO2*%
%ADD13MACRO3*%
%ADD14MACRO4*%
%ADD15MACRO5*%
%ADD16MACRO6*%
%ADD17MACRO7*%
%ADD18C,1.5326*%
%ADD19C,3.5517*%
%ADD20C,3.2032*%
%ADD21MACRO8*%
%ADD22MACRO9*%
%ADD23O,1.8330926000000003X0.4446016*%
%ADD24O,2.1395944X0.6755891999999999*%
%ADD25MACRO10*%
%ADD26MACRO11*%
%ADD27MACRO12*%
%ADD28MACRO13*%
%ADD29MACRO14*%
%ADD30O,0.4816094X1.5516098000000003*%
%ADD31MACRO15*%
%ADD32MACRO16*%
%ADD33MACRO17*%
%ADD34MACRO18*%
%ADD35MACRO19*%
%ADD36MACRO20*%
%ADD37MACRO21*%
%ADD38C,6.7032*%
%ADD39C,0.0196*%

%LPD*%
D10*
G01*
X3987800Y2159000D03*
D11*
G01*
X4241800Y2159000D03*
G01*
X4495800Y2159000D03*
D12*
G01*
X3581400Y3663800D03*
G01*
X3581400Y3803799D03*
G01*
X3378200Y3803799D03*
G01*
X3378200Y3663800D03*
D13*
G01*
X5784700Y4495800D03*
G01*
X5924699Y4495800D03*
G01*
X4654699Y4660900D03*
G01*
X4514700Y4660900D03*
G01*
X6521300Y2288895D03*
G01*
X6661299Y2288895D03*
G01*
X1187599Y6019800D03*
G01*
X1047600Y6019800D03*
G01*
X565299Y4991100D03*
G01*
X425300Y4991100D03*
G01*
X565299Y3517900D03*
G01*
X425300Y3517900D03*
G01*
X7676997Y5267596D03*
G01*
X7816997Y5267596D03*
D12*
G01*
X9169400Y5952695D03*
G01*
X9169400Y6092695D03*
G01*
X8966200Y6092695D03*
G01*
X8966200Y5952695D03*
D13*
G01*
X7867799Y5029200D03*
G01*
X7727800Y5029200D03*
D14*
G01*
X8690002Y6743702D03*
G01*
X9090002Y6743702D03*
D15*
G01*
X8957599Y4368800D03*
G01*
X8517600Y4368800D03*
D16*
G01*
X3599992Y878789D03*
G01*
X3799992Y878789D03*
G01*
X3999992Y878789D03*
G01*
X4199991Y878789D03*
G01*
X4399991Y878789D03*
D17*
G01*
X3369995Y313791D03*
G01*
X4629988Y313791D03*
D16*
G01*
X5299989Y878789D03*
G01*
X5499988Y878789D03*
G01*
X5699988Y878789D03*
G01*
X5899988Y878789D03*
G01*
X6099987Y878789D03*
D17*
G01*
X5069992Y313791D03*
G01*
X6329984Y313791D03*
D16*
G01*
X6999986Y878789D03*
G01*
X7199985Y878789D03*
G01*
X7399985Y878789D03*
G01*
X7599984Y878789D03*
G01*
X7799984Y878789D03*
D17*
G01*
X6769988Y313791D03*
G01*
X8029981Y313791D03*
D16*
G01*
X1899998Y878789D03*
G01*
X2099997Y878789D03*
G01*
X2299997Y878789D03*
G01*
X2499997Y878789D03*
G01*
X2699995Y878789D03*
D17*
G01*
X1670001Y313791D03*
G01*
X2929992Y313791D03*
D18*
G01*
X5118100Y5359400D03*
G01*
X5368086Y5359400D03*
G01*
X5368086Y5559399D03*
G01*
X5118100Y5559399D03*
D19*
G01*
X4641113Y5830392D03*
G01*
X5845098Y5830392D03*
D20*
G01*
X9969500Y4838700D03*
G01*
X9969500Y5346700D03*
D10*
G01*
X8674100Y3390900D03*
D11*
G01*
X8674100Y3644900D03*
G01*
X8674100Y3898900D03*
D10*
G01*
X8953500Y228600D03*
D11*
G01*
X8953500Y482600D03*
G01*
X8953500Y736600D03*
D21*
G01*
X3803500Y3797300D03*
G01*
X3943499Y3797300D03*
D22*
G01*
X3798175Y3568700D03*
G01*
X3948824Y3568700D03*
G01*
X5157075Y3784600D03*
G01*
X5307724Y3784600D03*
G01*
X5307724Y3619500D03*
G01*
X5157075Y3619500D03*
D23*
G01*
X5531688Y4293692D03*
G01*
X5531688Y4358690D03*
G01*
X5531688Y4423689D03*
G01*
X5531688Y4488687D03*
G01*
X5531688Y4553686D03*
G01*
X5531688Y4618710D03*
G01*
X5531688Y4683709D03*
G01*
X5531688Y4748707D03*
G01*
X4958537Y4293692D03*
G01*
X4958537Y4358690D03*
G01*
X4958537Y4423689D03*
G01*
X4958537Y4488687D03*
G01*
X4958537Y4553686D03*
G01*
X4958537Y4618710D03*
G01*
X4958537Y4683709D03*
G01*
X4958537Y4748707D03*
D24*
G01*
X1450289Y6654800D03*
G01*
X1450289Y6527800D03*
G01*
X1450289Y6400800D03*
G01*
X1450289Y6273800D03*
G01*
X1450289Y6146800D03*
G01*
X1450289Y6019800D03*
G01*
X1450289Y5892800D03*
G01*
X2004110Y6654800D03*
G01*
X2004110Y6527800D03*
G01*
X2004110Y6400800D03*
G01*
X2004110Y6273800D03*
G01*
X2004110Y6146800D03*
G01*
X2004110Y6019800D03*
G01*
X2004110Y5892800D03*
D25*
G01*
X5727090Y2280691D03*
G01*
X5727090Y2215692D03*
G01*
X5727090Y2150694D03*
G01*
X5727090Y2085695D03*
G01*
X5727090Y2020696D03*
G01*
X5727090Y1955698D03*
G01*
X5727090Y1890699D03*
G01*
X6287109Y1890699D03*
G01*
X6287109Y1955698D03*
G01*
X6287109Y2020696D03*
G01*
X6287109Y2085695D03*
G01*
X6287109Y2150694D03*
G01*
X6287109Y2215692D03*
G01*
X6287109Y2280691D03*
D26*
G01*
X1037793Y5245100D03*
G01*
X1037793Y4991100D03*
G01*
X1037793Y4737100D03*
G01*
X1037793Y4483100D03*
G01*
X2619806Y4483100D03*
G01*
X2619806Y4737100D03*
G01*
X2619806Y4991100D03*
G01*
X2619806Y5245100D03*
G01*
X1037793Y3771900D03*
G01*
X1037793Y3517900D03*
G01*
X1037793Y3263900D03*
G01*
X1037793Y3009900D03*
G01*
X2619806Y3009900D03*
G01*
X2619806Y3263900D03*
G01*
X2619806Y3517900D03*
G01*
X2619806Y3771900D03*
D27*
G01*
X7162190Y4779695D03*
G01*
X7162190Y4714697D03*
G01*
X7162190Y4649698D03*
G01*
X7162190Y4584700D03*
G01*
X7162190Y4519701D03*
G01*
X7162190Y4454702D03*
G01*
X7162190Y4389704D03*
G01*
X7722209Y4389704D03*
G01*
X7722209Y4454702D03*
G01*
X7722209Y4519701D03*
G01*
X7722209Y4584700D03*
G01*
X7722209Y4649698D03*
G01*
X7722209Y4714697D03*
G01*
X7722209Y4779695D03*
D28*
G01*
X7442200Y4584700D03*
D20*
G01*
X9969500Y1752600D03*
G01*
X9969500Y2260600D03*
G01*
X9969500Y2781300D03*
G01*
X9969500Y3289300D03*
D22*
G01*
X5131675Y2552700D03*
G01*
X5282324Y2552700D03*
G01*
X5131675Y2362200D03*
G01*
X5282324Y2362200D03*
G01*
X5131675Y2159000D03*
G01*
X5282324Y2159000D03*
G01*
X5131675Y1943100D03*
G01*
X5282324Y1943100D03*
G01*
X5131675Y1739900D03*
G01*
X5282324Y1739900D03*
G01*
X5282324Y1536700D03*
G01*
X5131675Y1536700D03*
G01*
X6579475Y4673600D03*
G01*
X6730124Y4673600D03*
G01*
X6730124Y4483100D03*
G01*
X6579475Y4483100D03*
D29*
G01*
X8586795Y4838700D03*
G01*
X8786804Y4838700D03*
D12*
G01*
X8750300Y6089799D03*
G01*
X8750300Y5949800D03*
D20*
G01*
X676198Y2235200D03*
G01*
X676198Y1727200D03*
D10*
G01*
X8496300Y228600D03*
D11*
G01*
X8496300Y482600D03*
G01*
X8496300Y736600D03*
D30*
G01*
X8652789Y5190210D03*
G01*
X8717813Y5190210D03*
G01*
X8782811Y5190210D03*
G01*
X8847810Y5190210D03*
G01*
X8652789Y5630189D03*
G01*
X8717813Y5630189D03*
G01*
X8782811Y5630189D03*
G01*
X8847810Y5630189D03*
G36*
X7105053Y1436202D02*
G01*
X7104562Y1436225D01*
X7104077Y1436298D01*
X7103600Y1436418D01*
X7103137Y1436583D01*
X7102695Y1436791D01*
X7102274Y1437045D01*
X7101880Y1437337D01*
X7101517Y1437667D01*
X7101187Y1438031D01*
X7100895Y1438424D01*
X7100641Y1438846D01*
X7100432Y1439288D01*
X7100267Y1439750D01*
X7100148Y1440228D01*
X7100074Y1440713D01*
X7100051Y1441203D01*
X7100051Y2521201D01*
X7100074Y2521691D01*
X7100148Y2522176D01*
X7100267Y2522654D01*
X7100432Y2523116D01*
X7100641Y2523558D01*
X7100895Y2523980D01*
X7101187Y2524373D01*
X7101517Y2524737D01*
X7101880Y2525067D01*
X7102274Y2525359D01*
X7102695Y2525613D01*
X7103137Y2525821D01*
X7103600Y2525986D01*
X7104077Y2526106D01*
X7104562Y2526179D01*
X7105053Y2526202D01*
X7296050Y2526202D01*
X7296541Y2526179D01*
X7297026Y2526106D01*
X7297503Y2525986D01*
X7297966Y2525821D01*
X7298408Y2525613D01*
X7298829Y2525359D01*
X7299223Y2525067D01*
X7299586Y2524737D01*
X7299916Y2524373D01*
X7300208Y2523980D01*
X7300462Y2523558D01*
X7300671Y2523116D01*
X7300836Y2522654D01*
X7300955Y2522176D01*
X7301029Y2521691D01*
X7301052Y2521201D01*
X7301052Y2402204D01*
X7804050Y2402204D01*
X7804541Y2402182D01*
X7805026Y2402108D01*
X7805503Y2401989D01*
X7805966Y2401823D01*
X7806408Y2401615D01*
X7806829Y2401361D01*
X7807223Y2401069D01*
X7807586Y2400739D01*
X7807916Y2400376D01*
X7808208Y2399982D01*
X7808462Y2399560D01*
X7808671Y2399118D01*
X7808836Y2398656D01*
X7808955Y2398179D01*
X7809029Y2397693D01*
X7809052Y2397203D01*
X7809052Y1565201D01*
X7809029Y1564711D01*
X7808955Y1564225D01*
X7808836Y1563748D01*
X7808671Y1563286D01*
X7808462Y1562844D01*
X7808208Y1562422D01*
X7807916Y1562028D01*
X7807586Y1561665D01*
X7807223Y1561335D01*
X7806829Y1561043D01*
X7806408Y1560789D01*
X7805966Y1560581D01*
X7805503Y1560415D01*
X7805026Y1560296D01*
X7804541Y1560222D01*
X7804050Y1560200D01*
X7301052Y1560200D01*
X7301052Y1441203D01*
X7301029Y1440713D01*
X7300955Y1440228D01*
X7300836Y1439750D01*
X7300671Y1439288D01*
X7300462Y1438846D01*
X7300208Y1438424D01*
X7299916Y1438031D01*
X7299586Y1437667D01*
X7299223Y1437337D01*
X7298829Y1437045D01*
X7298408Y1436791D01*
X7297966Y1436583D01*
X7297503Y1436418D01*
X7297026Y1436298D01*
X7296541Y1436225D01*
X7296050Y1436202D01*
G37*
D31*
G01*
X8522053Y2235205D03*
G01*
X8522053Y1981205D03*
G01*
X8522053Y1727205D03*
D32*
G01*
X8438649Y2755900D03*
G01*
X8757150Y2755900D03*
D13*
G01*
X7854800Y2755900D03*
G01*
X7994799Y2755900D03*
D33*
G01*
X5784697Y4114800D03*
G01*
X5924702Y4114800D03*
D34*
G01*
X635000Y4522797D03*
G01*
X635000Y4722802D03*
G01*
X635000Y3036897D03*
G01*
X635000Y3236902D03*
D35*
G01*
X8877300Y2187746D03*
G01*
X8877300Y1749253D03*
D36*
G01*
X10207652Y1142997D03*
G01*
X9909152Y1142997D03*
D29*
G01*
X9536104Y1143000D03*
G01*
X9336095Y1143000D03*
D22*
G01*
X6730124Y4864100D03*
G01*
X6579475Y4864100D03*
D33*
G01*
X5784697Y3949700D03*
G01*
X5924702Y3949700D03*
D22*
G01*
X5307724Y4114800D03*
G01*
X5157075Y4114800D03*
G01*
X5157075Y3949700D03*
G01*
X5307724Y3949700D03*
D37*
G01*
X8521700Y5894395D03*
G01*
X8521700Y6094404D03*
D38*
G01*
X614502Y6399987D03*
G01*
X614502Y599998D03*
G01*
X9984993Y6399987D03*
G01*
X9984993Y599998D03*
M02*
